<svg xmlns="http://www.w3.org/2000/svg" xmlns:xlink="http://www.w3.org/1999/xlink" width="500" zoomAndPan="magnify" viewBox="0 0 375 374.999991" height="500" preserveAspectRatio="xMidYMid meet" version="1.0"><defs><clipPath id="033f77846b"><path d="M 60.722656 63.417969 L 314.222656 63.417969 L 314.222656 311.667969 L 60.722656 311.667969 Z M 60.722656 63.417969 " clip-rule="nonzero"/></clipPath></defs><g clip-path="url(#033f77846b)"><path fill="#ffffff" d="M 84.265625 106.484375 C 84.265625 103.679688 85.226562 101.039062 86.972656 99.046875 C 88.964844 96.777344 91.859375 95.523438 95.121094 95.523438 L 96.777344 95.523438 L 96.777344 90.5 C 96.777344 88.601562 98.316406 87.0625 100.214844 87.0625 C 102.113281 87.0625 103.652344 88.601562 103.652344 90.5 L 103.652344 95.523438 L 112.726562 95.523438 C 114.625 95.523438 116.164062 97.0625 116.164062 98.960938 C 116.164062 100.859375 114.625 102.398438 112.726562 102.398438 L 95.121094 102.398438 C 93.832031 102.398438 92.828125 102.796875 92.140625 103.578125 C 91.503906 104.304688 91.140625 105.363281 91.140625 106.484375 C 91.140625 107.164062 91.332031 110.566406 95.121094 110.566406 L 105.308594 110.566406 C 112.429688 110.566406 116.15625 116.082031 116.15625 121.535156 C 116.15625 124.335938 115.195312 126.980469 113.453125 128.972656 C 111.464844 131.246094 108.570312 132.5 105.308594 132.5 L 103.652344 132.5 L 103.652344 137.523438 C 103.652344 139.421875 102.113281 140.960938 100.214844 140.960938 C 98.316406 140.960938 96.777344 139.421875 96.777344 137.523438 L 96.777344 132.5 L 87.707031 132.5 C 85.808594 132.5 84.269531 130.960938 84.269531 129.0625 C 84.269531 127.164062 85.808594 125.625 87.707031 125.625 L 105.308594 125.625 C 106.597656 125.625 107.59375 125.226562 108.28125 124.445312 C 108.917969 123.71875 109.28125 122.65625 109.28125 121.53125 C 109.28125 120.847656 109.089844 117.441406 105.308594 117.441406 L 95.121094 117.441406 C 87.996094 117.441406 84.265625 111.929688 84.265625 106.484375 Z M 136.800781 103.597656 L 227.851562 103.597656 C 229.75 103.597656 231.289062 102.058594 231.289062 100.160156 C 231.289062 98.261719 229.75 96.722656 227.851562 96.722656 L 136.800781 96.722656 C 134.902344 96.722656 133.363281 98.261719 133.363281 100.160156 C 133.363281 102.058594 134.902344 103.597656 136.800781 103.597656 Z M 136.800781 118.097656 L 227.851562 118.097656 C 229.75 118.097656 231.289062 116.558594 231.289062 114.660156 C 231.289062 112.761719 229.75 111.222656 227.851562 111.222656 L 136.800781 111.222656 C 134.902344 111.222656 133.363281 112.761719 133.363281 114.660156 C 133.363281 116.558594 134.902344 118.097656 136.800781 118.097656 Z M 136.800781 132.582031 L 182.320312 132.582031 C 184.21875 132.582031 185.757812 131.042969 185.757812 129.144531 C 185.757812 127.246094 184.21875 125.707031 182.320312 125.707031 L 136.800781 125.707031 C 134.902344 125.707031 133.363281 127.246094 133.363281 129.144531 C 133.363281 131.042969 134.902344 132.582031 136.800781 132.582031 Z M 302.414062 215.175781 L 302.414062 272.964844 L 310.832031 272.964844 C 312.730469 272.964844 314.269531 274.503906 314.269531 276.402344 L 314.269531 288.773438 C 314.269531 290.671875 312.730469 292.210938 310.832031 292.210938 L 254.835938 292.210938 L 254.835938 307.992188 C 254.835938 309.890625 253.296875 311.429688 251.398438 311.429688 L 64.160156 311.429688 C 62.261719 311.429688 60.722656 309.890625 60.722656 307.992188 L 60.722656 66.996094 C 60.722656 65.097656 62.261719 63.558594 64.160156 63.558594 L 251.398438 63.558594 C 253.296875 63.558594 254.835938 65.097656 254.835938 66.996094 L 254.835938 156.25 L 312.75 196.527344 C 312.753906 196.527344 312.753906 196.53125 312.757812 196.53125 L 312.792969 196.558594 C 313.683594 197.179688 314.269531 198.210938 314.269531 199.378906 L 314.269531 211.734375 C 314.269531 213.632812 312.730469 215.171875 310.832031 215.171875 L 302.414062 215.171875 Z M 307.394531 202.816406 L 195.386719 202.816406 L 195.386719 208.300781 L 307.394531 208.300781 Z M 271.492188 272.964844 L 271.492188 215.175781 L 231.289062 215.175781 L 231.289062 272.964844 Z M 224.414062 272.964844 L 224.414062 215.175781 L 207.242188 215.175781 L 207.242188 272.964844 Z M 200.367188 272.964844 L 200.367188 257.394531 L 161.210938 257.394531 L 161.210938 278.808594 L 188.511719 278.808594 L 188.511719 276.402344 C 188.511719 274.503906 190.050781 272.964844 191.949219 272.964844 Z M 154.335938 278.808594 L 154.335938 257.394531 L 126.183594 257.394531 L 126.183594 278.808594 Z M 119.308594 278.808594 L 119.308594 257.394531 L 91.140625 257.394531 L 91.140625 278.808594 Z M 126.183594 159.164062 L 126.183594 165.660156 L 154.335938 165.660156 L 154.335938 159.164062 Z M 161.210938 159.164062 L 161.210938 165.660156 L 224.414062 165.660156 L 224.414062 159.164062 Z M 202.914062 195.941406 L 299.867188 195.941406 L 251.398438 162.234375 Z M 126.183594 200.828125 L 126.183594 222.242188 L 154.335938 222.242188 L 154.335938 200.828125 Z M 154.335938 193.953125 L 154.335938 172.535156 L 126.183594 172.535156 L 126.183594 193.953125 Z M 119.308594 200.828125 L 91.140625 200.828125 L 91.140625 222.242188 L 119.308594 222.242188 Z M 91.140625 250.519531 L 119.308594 250.519531 L 119.308594 229.117188 L 91.140625 229.117188 Z M 126.183594 250.519531 L 154.335938 250.519531 L 154.335938 229.117188 L 126.183594 229.117188 Z M 161.210938 250.519531 L 200.367188 250.519531 L 200.367188 229.117188 L 161.210938 229.117188 Z M 200.367188 215.175781 L 191.949219 215.175781 C 190.050781 215.175781 188.511719 213.636719 188.511719 211.738281 L 188.511719 200.828125 L 161.210938 200.828125 L 161.210938 222.242188 L 200.367188 222.242188 Z M 224.539062 172.535156 L 161.210938 172.535156 L 161.210938 193.953125 L 193.734375 193.953125 Z M 119.308594 159.164062 L 91.140625 159.164062 L 91.140625 165.660156 L 119.308594 165.660156 Z M 91.140625 172.535156 L 91.140625 193.953125 L 119.308594 193.953125 L 119.308594 172.535156 Z M 247.960938 292.210938 L 191.949219 292.210938 C 190.050781 292.210938 188.511719 290.671875 188.511719 288.773438 L 188.511719 285.683594 L 87.707031 285.683594 C 85.808594 285.683594 84.269531 284.144531 84.269531 282.246094 L 84.269531 155.722656 C 84.269531 153.824219 85.808594 152.285156 87.707031 152.285156 L 227.851562 152.285156 C 229.75 152.285156 231.289062 153.824219 231.289062 155.722656 L 231.289062 167.84375 L 247.960938 156.25 L 247.960938 70.433594 L 67.597656 70.433594 L 67.597656 304.554688 L 247.960938 304.554688 Z M 307.394531 279.839844 L 195.386719 279.839844 L 195.386719 285.335938 L 307.394531 285.335938 Z M 295.539062 215.175781 L 278.367188 215.175781 L 278.367188 272.964844 L 295.539062 272.964844 Z M 295.539062 215.175781 " fill-opacity="1" fill-rule="nonzero"/></g></svg>