<svg xmlns="http://www.w3.org/2000/svg" xmlns:xlink="http://www.w3.org/1999/xlink" width="500" zoomAndPan="magnify" viewBox="0 0 375 374.999991" height="500" preserveAspectRatio="xMidYMid meet" version="1.0"><defs><clipPath id="d9397fb2ce"><path d="M 56 43.175781 L 334.417969 43.175781 L 334.417969 331.925781 L 56 331.925781 Z M 56 43.175781 " clip-rule="nonzero"/></clipPath></defs><g clip-path="url(#d9397fb2ce)"><path fill="#ffffff" d="M 207.027344 225.828125 L 200.679688 225.828125 L 194.859375 210.699219 C 186.769531 208.785156 179.082031 205.574219 172.011719 201.242188 L 161.191406 206.039062 C 160.011719 204.675781 158.800781 203.300781 157.5625 201.90625 C 160.417969 198.5625 162.148438 194.226562 162.148438 189.5 C 162.148438 183.367188 159.222656 177.886719 154.703125 174.375 L 157.976562 171.101562 C 165.511719 163.570312 165.523438 151.222656 157.992188 143.660156 C 157.988281 143.65625 157.984375 143.648438 157.976562 143.644531 C 152.792969 138.460938 145.347656 136.835938 138.746094 138.769531 C 135.40625 132.664062 128.910156 128.617188 121.699219 128.617188 L 121.695312 128.617188 L 121.695312 122.160156 L 136.828125 116.335938 C 138.765625 108.25 141.953125 100.558594 146.308594 93.492188 L 139.710938 78.660156 L 157.183594 61.191406 L 172.011719 67.785156 C 179.082031 63.429688 186.769531 60.246094 194.832031 58.328125 L 200.679688 43.175781 L 225.390625 43.175781 L 231.214844 58.328125 C 239.277344 60.246094 246.96875 63.429688 254.035156 67.785156 L 268.867188 61.191406 L 286.335938 78.660156 L 279.765625 93.492188 C 284.121094 100.558594 287.304688 108.25 289.222656 116.335938 L 304.351562 122.160156 L 304.351562 146.871094 L 289.222656 152.691406 C 287.304688 160.753906 284.09375 168.445312 279.765625 175.511719 L 281.519531 179.472656 L 231.875 179.472656 C 218.199219 179.472656 207.027344 190.648438 207.027344 204.324219 Z M 213.023438 91.402344 C 189.210938 91.402344 169.921875 110.6875 169.921875 134.5 C 169.921875 158.316406 189.210938 177.628906 213.023438 177.628906 C 236.839844 177.628906 256.148438 158.316406 256.148438 134.5 C 256.148438 110.6875 236.839844 91.402344 213.023438 91.402344 Z M 149.65625 207.457031 C 162.457031 221.761719 172.050781 234.261719 178.453125 245.5 C 202.835938 288.320312 168.15625 331.808594 121.699219 331.027344 C 75.242188 331.808594 40.5625 288.320312 64.933594 245.5 C 71.347656 234.261719 80.945312 221.761719 93.734375 207.453125 C 95.8125 208.230469 98.054688 208.65625 100.390625 208.65625 L 143.007812 208.65625 C 145.34375 208.65625 147.582031 208.230469 149.65625 207.457031 Z M 121.320312 285.636719 C 116.105469 285.539062 110.917969 283.109375 109.59375 277.789062 C 108.953125 275.21875 106.347656 273.652344 103.777344 274.292969 C 101.210938 274.929688 99.640625 277.535156 100.28125 280.105469 C 102.320312 288.285156 109 293.285156 116.714844 294.765625 L 116.714844 297.738281 C 116.714844 300.386719 118.863281 302.539062 121.511719 302.539062 C 124.160156 302.539062 126.308594 300.386719 126.308594 297.738281 L 126.308594 294.832031 C 135.355469 293.277344 144.046875 287.214844 142.773438 276.5625 L 142.769531 276.554688 C 141.453125 265.738281 131.457031 261.617188 122.335938 260.121094 L 122.332031 260.121094 C 120.074219 259.75 117.675781 259.183594 115.601562 258.171875 C 113.417969 257.105469 111.585938 255.488281 111.449219 252.660156 C 111.273438 249.039062 113.746094 246.550781 116.828125 245.335938 C 118.207031 244.792969 119.730469 244.480469 121.273438 244.433594 C 121.351562 244.441406 121.433594 244.441406 121.511719 244.441406 C 121.621094 244.441406 121.734375 244.4375 121.839844 244.429688 C 126.058594 244.480469 130.34375 246.523438 132.300781 251.199219 C 133.328125 253.640625 136.140625 254.792969 138.582031 253.769531 C 141.023438 252.746094 142.175781 249.933594 141.152344 247.488281 C 138.222656 240.5 132.488281 236.601562 126.308594 235.324219 L 126.308594 232.332031 C 126.308594 229.683594 124.160156 227.535156 121.511719 227.535156 C 118.863281 227.535156 116.714844 229.683594 116.714844 232.332031 L 116.714844 235.378906 C 115.546875 235.632812 114.40625 235.976562 113.3125 236.40625 C 106.441406 239.113281 101.476562 245.042969 101.863281 253.121094 C 102.375 263.679688 111.886719 268.136719 120.785156 269.589844 C 123.234375 269.992188 125.851562 270.570312 128.152344 271.613281 C 130.683594 272.761719 132.855469 274.519531 133.246094 277.710938 C 133.542969 280.214844 132.378906 281.996094 130.65625 283.179688 C 128.253906 284.835938 124.996094 285.558594 122.066406 285.632812 C 121.964844 285.636719 121.863281 285.636719 121.757812 285.636719 C 121.675781 285.632812 121.59375 285.628906 121.511719 285.628906 C 121.449219 285.628906 121.382812 285.632812 121.320312 285.636719 Z M 98.355469 170.46875 L 92.207031 164.316406 C 88.378906 160.507812 88.378906 154.257812 92.207031 150.429688 C 95.441406 147.195312 100.578125 146.648438 104.453125 149.117188 C 105.890625 150.039062 107.53125 150.195312 109.109375 149.539062 C 110.6875 148.882812 111.75 147.617188 112.109375 145.945312 C 113.0625 141.542969 117.011719 138.214844 121.699219 138.214844 C 126.292969 138.214844 130.308594 141.464844 131.292969 145.945312 C 131.652344 147.617188 132.710938 148.882812 134.289062 149.539062 C 135.867188 150.195312 137.507812 150.039062 138.945312 149.117188 C 142.742188 146.679688 147.878906 147.117188 151.191406 150.429688 C 155.003906 154.257812 155.003906 160.507812 151.191406 164.316406 L 145.042969 170.46875 C 144.375 170.394531 143.695312 170.359375 143.007812 170.359375 L 100.390625 170.359375 C 99.703125 170.359375 99.023438 170.394531 98.355469 170.46875 Z M 100.390625 199.058594 C 95.144531 199.058594 90.847656 194.761719 90.847656 189.5 C 90.847656 184.25 95.144531 179.953125 100.390625 179.953125 L 143.007812 179.953125 C 148.257812 179.953125 152.550781 184.25 152.550781 189.5 C 152.550781 194.761719 148.257812 199.058594 143.007812 199.058594 Z M 319.15625 189.070312 C 327.539062 189.070312 334.398438 195.929688 334.398438 204.324219 L 334.398438 315.785156 C 334.398438 324.167969 327.539062 331.039062 319.15625 331.039062 L 231.875 331.039062 C 223.480469 331.039062 216.621094 324.167969 216.621094 315.785156 L 216.621094 204.324219 C 216.621094 195.929688 223.480469 189.070312 231.875 189.070312 Z M 282.058594 297.582031 L 268.960938 297.582031 C 267.027344 297.582031 265.457031 299.15625 265.457031 301.085938 L 265.457031 305.644531 C 265.457031 307.574219 267.027344 309.148438 268.960938 309.148438 L 282.058594 309.148438 C 283.992188 309.148438 285.5625 307.574219 285.5625 305.644531 L 285.5625 301.085938 C 285.5625 299.15625 283.992188 297.582031 282.058594 297.582031 Z M 310.847656 297.582031 L 297.746094 297.582031 C 295.816406 297.582031 294.242188 299.15625 294.242188 301.085938 L 294.242188 305.644531 C 294.242188 307.574219 295.816406 309.148438 297.746094 309.148438 L 310.847656 309.148438 C 312.777344 309.148438 314.351562 307.574219 314.351562 305.644531 L 314.351562 301.085938 C 314.351562 299.15625 312.777344 297.582031 310.847656 297.582031 Z M 253.273438 297.582031 L 240.171875 297.582031 C 238.242188 297.582031 236.667969 299.15625 236.667969 301.085938 L 236.667969 305.644531 C 236.667969 307.574219 238.242188 309.148438 240.171875 309.148438 L 253.273438 309.148438 C 255.203125 309.148438 256.789062 307.574219 256.789062 305.644531 L 256.789062 301.085938 C 256.789062 299.15625 255.203125 297.582031 253.273438 297.582031 Z M 310.847656 273.003906 L 297.746094 273.003906 C 295.816406 273.003906 294.242188 274.578125 294.242188 276.507812 L 294.242188 281.066406 C 294.242188 282.996094 295.816406 284.570312 297.746094 284.570312 L 310.847656 284.570312 C 312.777344 284.570312 314.351562 282.996094 314.351562 281.066406 L 314.351562 276.507812 C 314.351562 274.578125 312.777344 273.003906 310.847656 273.003906 Z M 282.058594 273.003906 L 268.960938 273.003906 C 267.027344 273.003906 265.457031 274.578125 265.457031 276.507812 L 265.457031 281.066406 C 265.457031 282.996094 267.027344 284.570312 268.960938 284.570312 L 282.058594 284.570312 C 283.992188 284.570312 285.5625 282.996094 285.5625 281.066406 L 285.5625 276.507812 C 285.5625 274.578125 283.992188 273.003906 282.058594 273.003906 Z M 282.058594 248.414062 L 268.960938 248.414062 C 267.027344 248.414062 265.457031 250 265.457031 251.933594 L 265.457031 256.488281 C 265.457031 258.40625 267.027344 259.992188 268.960938 259.992188 L 282.058594 259.992188 C 283.992188 259.992188 285.5625 258.40625 285.5625 256.488281 L 285.5625 251.933594 C 285.5625 250 283.992188 248.414062 282.058594 248.414062 Z M 310.847656 248.414062 L 297.746094 248.414062 C 295.816406 248.414062 294.242188 250 294.242188 251.933594 L 294.242188 256.488281 C 294.242188 258.40625 295.816406 259.992188 297.746094 259.992188 L 310.847656 259.992188 C 312.777344 259.992188 314.351562 258.40625 314.351562 256.488281 L 314.351562 251.933594 C 314.351562 250 312.777344 248.414062 310.847656 248.414062 Z M 253.273438 248.414062 L 240.171875 248.414062 C 238.242188 248.414062 236.667969 250 236.667969 251.933594 L 236.667969 256.488281 C 236.667969 258.40625 238.242188 259.992188 240.171875 259.992188 L 253.273438 259.992188 C 255.203125 259.992188 256.789062 258.40625 256.789062 256.488281 L 256.789062 251.933594 C 256.789062 250 255.203125 248.414062 253.273438 248.414062 Z M 314.066406 210.960938 L 236.953125 210.960938 C 235.019531 210.960938 233.449219 212.535156 233.449219 214.464844 L 233.449219 228.222656 C 233.449219 230.152344 235.019531 231.726562 236.953125 231.726562 L 314.066406 231.726562 C 316 231.726562 317.570312 230.152344 317.570312 228.222656 L 317.570312 214.464844 C 317.570312 212.535156 316 210.960938 314.066406 210.960938 Z M 253.273438 273.003906 L 240.171875 273.003906 C 238.242188 273.003906 236.667969 274.578125 236.667969 276.507812 L 236.667969 281.066406 C 236.667969 282.996094 238.242188 284.570312 240.171875 284.570312 L 253.273438 284.570312 C 255.203125 284.570312 256.789062 282.996094 256.789062 281.066406 L 256.789062 276.507812 C 256.789062 274.578125 255.203125 273.003906 253.273438 273.003906 Z M 253.273438 273.003906 " fill-opacity="1" fill-rule="evenodd"/></g></svg>