<svg xmlns="http://www.w3.org/2000/svg" xmlns:xlink="http://www.w3.org/1999/xlink" width="500" zoomAndPan="magnify" viewBox="0 0 375 374.999991" height="500" preserveAspectRatio="xMidYMid meet" version="1.0"><defs><clipPath id="af7b0be265"><path d="M 86 204 L 347.324219 204 L 347.324219 253 L 86 253 Z M 86 204 " clip-rule="nonzero"/></clipPath><clipPath id="5273fdda8c"><path d="M 29.324219 257 L 291 257 L 291 307 L 29.324219 307 Z M 29.324219 257 " clip-rule="nonzero"/></clipPath></defs><path fill="#ffffff" d="M 247.207031 207.058594 C 254.175781 196.234375 258.195312 183.371094 258.195312 169.539062 C 258.195312 131.054688 227 99.859375 188.515625 99.859375 C 150.03125 99.859375 118.835938 131.054688 118.835938 169.539062 C 118.835938 183.371094 122.855469 196.234375 129.824219 207.058594 L 169.113281 207.058594 C 168.363281 206.148438 167.613281 205.128906 166.96875 204.113281 C 165.894531 202.503906 164.984375 200.789062 164.179688 199.019531 L 150.996094 199.019531 L 150.996094 188.300781 L 160.964844 188.300781 C 160.484375 185.726562 160.269531 182.992188 160.269531 180.261719 C 160.269531 178.4375 160.375 176.667969 160.589844 174.898438 L 150.996094 174.898438 L 150.996094 164.179688 L 163.054688 164.179688 C 164.074219 161.394531 165.414062 158.820312 166.96875 156.410156 C 172.542969 147.726562 180.851562 142.742188 189.75 142.742188 C 200.039062 142.742188 209.367188 149.332031 214.78125 160.375 L 205.132812 165.089844 C 201.59375 157.800781 195.859375 153.460938 189.75 153.460938 C 184.550781 153.460938 179.5625 156.621094 175.972656 162.195312 C 175.542969 162.839844 175.167969 163.484375 174.847656 164.179688 L 193.875 164.179688 L 193.875 174.898438 L 171.363281 174.898438 C 171.09375 176.617188 170.988281 178.4375 170.988281 180.261719 C 170.988281 183.046875 171.308594 185.726562 171.898438 188.300781 L 193.875 188.300781 L 193.875 199.019531 L 176.457031 199.019531 C 179.992188 204.164062 184.761719 207.058594 189.75 207.058594 C 195.859375 207.058594 201.59375 202.71875 205.132812 195.429688 L 214.78125 200.144531 C 213.546875 202.71875 212.046875 205.023438 210.4375 207.058594 Z M 247.207031 207.058594 " fill-opacity="1" fill-rule="nonzero"/><path fill="#ffffff" d="M 283.171875 207.058594 C 287.941406 195.109375 290.355469 182.566406 290.355469 169.539062 C 290.355469 113.367188 244.6875 67.699219 188.515625 67.699219 C 132.34375 67.699219 86.675781 113.367188 86.675781 169.539062 C 86.675781 182.566406 89.085938 195.109375 93.859375 207.058594 L 105.542969 207.058594 C 100.128906 195.269531 97.394531 182.671875 97.394531 169.539062 C 97.394531 119.316406 138.292969 78.421875 188.515625 78.421875 C 238.738281 78.421875 279.636719 119.316406 279.636719 169.539062 C 279.636719 182.671875 276.902344 195.269531 271.488281 207.058594 Z M 283.171875 207.058594 " fill-opacity="1" fill-rule="nonzero"/><path fill="#ffffff" d="M 126.019531 249.941406 C 131.324219 254.066406 137.007812 257.660156 143.007812 260.660156 L 188.515625 260.660156 C 173.5625 260.660156 158.875 256.960938 145.742188 249.941406 Z M 126.019531 249.941406 " fill-opacity="1" fill-rule="nonzero"/><path fill="#ffffff" d="M 234.023438 260.660156 C 240.023438 257.660156 245.707031 254.066406 251.011719 249.941406 L 231.289062 249.941406 C 218.15625 256.960938 203.46875 260.660156 188.515625 260.660156 Z M 234.023438 260.660156 " fill-opacity="1" fill-rule="nonzero"/><g clip-path="url(#af7b0be265)"><path fill="#ffffff" d="M 327.230469 251.761719 L 347.546875 228.5 L 327.230469 205.238281 C 325.625 203.363281 322.515625 204.542969 322.515625 207.007812 L 322.515625 217.78125 L 86.675781 217.78125 L 86.675781 239.21875 L 322.515625 239.21875 L 322.515625 249.992188 C 322.515625 252.460938 325.570312 253.640625 327.230469 251.761719 Z M 327.230469 251.761719 " fill-opacity="1" fill-rule="nonzero"/></g><g clip-path="url(#5273fdda8c)"><path fill="#ffffff" d="M 54.515625 303.59375 L 54.515625 292.820312 L 290.355469 292.820312 L 290.355469 271.378906 L 54.515625 271.378906 L 54.515625 260.605469 C 54.515625 258.140625 51.460938 256.960938 49.796875 258.835938 L 29.484375 282.101562 L 49.796875 305.363281 C 51.40625 307.238281 54.515625 306.058594 54.515625 303.59375 Z M 54.515625 303.59375 " fill-opacity="1" fill-rule="nonzero"/></g></svg>