<svg xmlns="http://www.w3.org/2000/svg" xmlns:xlink="http://www.w3.org/1999/xlink" width="500" zoomAndPan="magnify" viewBox="0 0 375 374.999991" height="500" preserveAspectRatio="xMidYMid meet" version="1.0"><defs><clipPath id="abb2e454a3"><path d="M 53.5 56 L 322.75 56 L 322.75 319 L 53.5 319 Z M 53.5 56 " clip-rule="nonzero"/></clipPath></defs><path fill="#ffffff" d="M 173.320312 205.71875 L 158.007812 205.71875 C 157.433594 205.644531 157.050781 205.144531 157.097656 204.59375 C 157.144531 204.402344 157.195312 204.210938 157.335938 204.066406 L 186.910156 166.621094 C 187.242188 166.167969 187.867188 166.097656 188.34375 166.429688 C 188.390625 166.480469 188.488281 166.550781 188.535156 166.621094 L 218.15625 204.066406 C 218.492188 204.496094 218.394531 205.144531 218.011719 205.5 C 217.773438 205.667969 217.484375 205.765625 217.246094 205.71875 L 201.886719 205.71875 C 201.40625 205.789062 200.976562 206.21875 200.976562 206.746094 L 200.976562 253.878906 C 200.976562 254.453125 200.546875 254.90625 200.019531 254.933594 C 199.925781 254.933594 199.875 254.90625 199.828125 254.90625 L 175.375 254.90625 C 174.851562 254.859375 174.46875 254.40625 174.46875 253.878906 L 174.46875 206.746094 C 174.46875 206.195312 173.988281 205.71875 173.460938 205.71875 C 173.367188 205.71875 173.320312 205.71875 173.269531 205.71875 L 173.320312 205.71875 " fill-opacity="1" fill-rule="nonzero"/><path fill="#ffffff" d="M 237.773438 277.613281 C 240.980469 277.589844 243.5625 274.957031 243.5625 271.726562 C 243.515625 268.546875 240.933594 265.984375 237.773438 265.960938 L 137.480469 265.960938 C 134.273438 265.984375 131.6875 268.617188 131.6875 271.847656 C 131.738281 275.003906 134.320312 277.589844 137.480469 277.613281 L 237.773438 277.613281 " fill-opacity="1" fill-rule="nonzero"/><g clip-path="url(#abb2e454a3)"><path fill="#ffffff" d="M 67.902344 145.449219 L 309.359375 145.449219 L 309.359375 294.144531 C 309.359375 299.933594 304.671875 304.625 298.878906 304.625 L 78.382812 304.625 C 72.59375 304.625 67.902344 299.960938 67.902344 294.167969 C 67.902344 294.167969 67.902344 294.144531 67.902344 294.144531 Z M 78.289062 84.320312 L 117.382812 84.320312 L 117.382812 91.304688 C 117.382812 95.15625 120.539062 98.316406 124.414062 98.316406 C 128.292969 98.316406 131.402344 95.15625 131.402344 91.304688 L 131.402344 84.320312 L 245.71875 84.320312 L 245.71875 91.304688 C 245.71875 95.15625 248.828125 98.316406 252.703125 98.316406 C 256.628906 98.316406 259.738281 95.15625 259.738281 91.304688 L 259.738281 84.320312 L 298.929688 84.320312 C 304.671875 84.367188 309.3125 89.03125 309.3125 94.796875 L 309.3125 131.5 L 67.855469 131.5 L 67.855469 94.796875 C 67.855469 89.007812 72.546875 84.320312 78.335938 84.320312 Z M 252.464844 56.421875 C 248.589844 56.398438 245.429688 59.507812 245.429688 63.359375 C 245.429688 63.382812 245.429688 63.382812 245.429688 63.410156 L 245.429688 70.371094 L 131.066406 70.371094 L 131.066406 63.410156 C 130.730469 59.554688 127.382812 56.6875 123.554688 56.996094 C 120.109375 57.257812 117.382812 59.964844 117.140625 63.410156 L 117.140625 70.371094 L 78 70.371094 C 64.554688 70.324219 53.546875 81.210938 53.5 94.703125 C 53.5 94.726562 53.5 94.75 53.5 94.796875 L 53.5 294.144531 C 53.5 307.640625 64.457031 318.574219 77.90625 318.574219 C 77.953125 318.574219 77.953125 318.574219 78 318.574219 L 298.546875 318.574219 C 311.992188 318.621094 322.996094 307.710938 323.042969 294.242188 C 323.042969 294.21875 323.042969 294.167969 323.042969 294.144531 L 323.042969 94.796875 C 323.042969 81.304688 312.085938 70.371094 298.59375 70.371094 C 298.546875 70.371094 298.546875 70.371094 298.546875 70.371094 L 259.308594 70.371094 L 259.308594 63.410156 C 259.308594 59.53125 256.195312 56.421875 252.367188 56.421875 C 252.320312 56.421875 252.320312 56.421875 252.320312 56.421875 L 252.464844 56.421875 " fill-opacity="1" fill-rule="nonzero"/></g></svg>