<svg xmlns="http://www.w3.org/2000/svg" xmlns:xlink="http://www.w3.org/1999/xlink" width="500" zoomAndPan="magnify" viewBox="0 0 375 374.999991" height="500" preserveAspectRatio="xMidYMid meet" version="1.0"><defs><clipPath id="df1e1004e3"><path d="M 52.75 56 L 322 56 L 322 319 L 52.75 319 Z M 52.75 56 " clip-rule="nonzero"/></clipPath></defs><path fill="#ffffff" d="M 238.746094 285.582031 C 242 285.582031 244.585938 282.972656 244.585938 279.765625 C 244.585938 276.535156 242 273.929688 238.746094 273.929688 L 138.5 273.929688 C 135.292969 273.929688 132.660156 276.535156 132.660156 279.765625 C 132.660156 282.972656 135.292969 285.582031 138.5 285.582031 L 238.746094 285.582031 " fill-opacity="1" fill-rule="nonzero"/><path fill="#ffffff" d="M 174.292969 223.398438 C 174.816406 223.46875 175.390625 223.085938 175.488281 222.511719 C 175.488281 222.464844 175.488281 222.417969 175.488281 222.371094 L 175.488281 175.234375 C 175.488281 174.710938 175.871094 174.253906 176.398438 174.207031 L 200.847656 174.207031 C 201.328125 174.253906 201.757812 174.710938 201.757812 175.234375 L 201.757812 222.371094 C 201.757812 222.871094 202.140625 223.328125 202.621094 223.398438 L 217.980469 223.398438 C 218.507812 223.328125 219.03125 223.734375 219.082031 224.308594 C 219.128906 224.570312 219.03125 224.832031 218.890625 225.046875 L 189.269531 262.492188 C 188.886719 262.945312 188.265625 263.019531 187.832031 262.683594 C 187.785156 262.636719 187.691406 262.5625 187.640625 262.492188 L 158.023438 225.046875 C 157.640625 224.617188 157.734375 223.949219 158.167969 223.613281 C 158.359375 223.445312 158.644531 223.351562 158.933594 223.398438 L 174.292969 223.398438 " fill-opacity="1" fill-rule="nonzero"/><g clip-path="url(#df1e1004e3)"><path fill="#ffffff" d="M 67.152344 145.449219 L 308.609375 145.449219 L 308.609375 294.144531 C 308.609375 299.933594 303.921875 304.625 298.128906 304.625 L 77.632812 304.625 C 71.84375 304.625 67.152344 299.960938 67.152344 294.167969 C 67.152344 294.167969 67.152344 294.144531 67.152344 294.144531 Z M 77.539062 84.320312 L 116.632812 84.320312 L 116.632812 91.304688 C 116.632812 95.15625 119.789062 98.316406 123.664062 98.316406 C 127.542969 98.316406 130.652344 95.15625 130.652344 91.304688 L 130.652344 84.320312 L 244.96875 84.320312 L 244.96875 91.304688 C 244.96875 95.15625 248.078125 98.316406 251.953125 98.316406 C 255.878906 98.316406 258.988281 95.15625 258.988281 91.304688 L 258.988281 84.320312 L 298.179688 84.320312 C 303.921875 84.367188 308.5625 89.03125 308.5625 94.796875 L 308.5625 131.5 L 67.105469 131.5 L 67.105469 94.796875 C 67.105469 89.007812 71.796875 84.320312 77.585938 84.320312 Z M 251.714844 56.421875 C 247.839844 56.398438 244.679688 59.507812 244.679688 63.359375 C 244.679688 63.382812 244.679688 63.382812 244.679688 63.410156 L 244.679688 70.371094 L 130.316406 70.371094 L 130.316406 63.410156 C 129.980469 59.554688 126.632812 56.6875 122.804688 56.996094 C 119.359375 57.257812 116.632812 59.988281 116.390625 63.410156 L 116.390625 70.371094 L 77.25 70.371094 C 63.804688 70.324219 52.796875 81.210938 52.75 94.703125 C 52.75 94.726562 52.75 94.75 52.75 94.796875 L 52.75 294.144531 C 52.75 307.640625 63.707031 318.574219 77.15625 318.574219 C 77.203125 318.574219 77.203125 318.574219 77.25 318.574219 L 297.796875 318.574219 C 311.242188 318.621094 322.246094 307.710938 322.292969 294.242188 C 322.292969 294.21875 322.292969 294.167969 322.292969 294.144531 L 322.292969 94.796875 C 322.292969 81.304688 311.335938 70.371094 297.84375 70.371094 C 297.796875 70.371094 297.796875 70.371094 297.796875 70.371094 L 258.558594 70.371094 L 258.558594 63.410156 C 258.558594 59.53125 255.445312 56.421875 251.617188 56.421875 C 251.570312 56.421875 251.570312 56.421875 251.570312 56.421875 L 251.714844 56.421875 " fill-opacity="1" fill-rule="nonzero"/></g></svg>