<svg xmlns="http://www.w3.org/2000/svg" xmlns:xlink="http://www.w3.org/1999/xlink" width="500" zoomAndPan="magnify" viewBox="0 0 375 374.999991" height="500" preserveAspectRatio="xMidYMid meet" version="1.0"><defs><clipPath id="3ff04105e7"><path d="M 64.882812 60.597656 L 310.132812 60.597656 L 310.132812 314.097656 L 64.882812 314.097656 Z M 64.882812 60.597656 " clip-rule="nonzero"/></clipPath></defs><path fill="#f0f0f0" d="M 160.996094 117.199219 L 190.496094 117.199219 L 190.496094 162.75 L 160.996094 162.75 Z M 160.996094 117.199219 " fill-opacity="1" fill-rule="nonzero"/><path fill="#f0f0f0" d="M 137.410156 124.308594 L 166.910156 124.308594 L 166.910156 162.746094 L 137.410156 162.746094 Z M 137.410156 124.308594 " fill-opacity="1" fill-rule="nonzero"/><g clip-path="url(#3ff04105e7)"><path fill="#f0f0f0" d="M 232.714844 314.097656 C 231.527344 314.097656 230.34375 313.921875 229.199219 313.582031 L 197.820312 304.101562 L 199.230469 299.5625 C 199.101562 299.222656 198.984375 298.863281 198.882812 298.496094 C 198.828125 298.304688 198.777344 298.113281 198.734375 297.921875 L 198.558594 297.175781 L 198.53125 296.710938 C 198.488281 296.363281 198.460938 296.011719 198.449219 295.660156 C 198.445312 295.433594 198.441406 295.214844 198.445312 294.996094 C 198.457031 294.445312 198.507812 293.902344 198.589844 293.375 C 198.617188 293.210938 198.648438 293.035156 198.679688 292.863281 C 198.753906 292.46875 198.84375 292.097656 198.957031 291.722656 C 199.070312 291.351562 199.191406 291.03125 199.289062 290.789062 L 199.332031 290.6875 C 199.898438 289.292969 200.71875 288.019531 201.765625 286.917969 L 217.542969 270.121094 C 218.054688 269.574219 218.609375 269.085938 219.199219 268.652344 C 218.871094 268.660156 218.539062 268.660156 218.207031 268.660156 C 217.019531 268.660156 215.824219 268.632812 214.632812 268.578125 C 209.238281 272.367188 202.910156 274.367188 196.257812 274.367188 C 184.117188 274.367188 173.121094 267.535156 167.675781 256.792969 L 118.058594 256.792969 C 122.839844 261.566406 128.09375 265.835938 133.738281 269.527344 C 136.457031 271.300781 138.316406 274.023438 138.980469 277.203125 C 139.644531 280.378906 139.03125 283.621094 137.25 286.335938 C 134.992188 289.777344 131.1875 291.835938 127.070312 291.835938 C 124.703125 291.835938 122.402344 291.148438 120.417969 289.851562 C 103.390625 278.710938 89.28125 263.382812 79.609375 245.519531 C 69.996094 227.765625 64.910156 207.648438 64.910156 187.347656 C 64.910156 159.398438 74.589844 132.054688 92.160156 110.367188 C 103.082031 96.882812 116.328125 86.125 131.578125 78.335938 C 130.152344 75.574219 129.800781 72.3125 130.730469 69.238281 C 132.292969 64.070312 136.972656 60.597656 142.371094 60.597656 C 143.5625 60.597656 144.746094 60.773438 145.890625 61.117188 L 177.226562 70.582031 L 175.847656 75.097656 C 175.988281 75.460938 176.097656 75.804688 176.195312 76.148438 C 176.265625 76.378906 176.324219 76.601562 176.371094 76.835938 L 176.535156 77.609375 L 176.558594 77.976562 C 176.601562 78.3125 176.628906 78.652344 176.636719 78.988281 C 176.648438 79.207031 176.648438 79.46875 176.644531 79.734375 C 176.632812 80.257812 176.578125 80.785156 176.5 81.308594 C 176.472656 81.488281 176.441406 81.664062 176.402344 81.839844 C 176.335938 82.21875 176.242188 82.585938 176.132812 82.953125 C 176.039062 83.261719 175.929688 83.578125 175.789062 83.910156 L 175.726562 84.066406 C 175.171875 85.425781 174.355469 86.683594 173.308594 87.789062 C 173.304688 87.792969 170.367188 90.921875 164.570312 97.085938 L 206.671875 85.820312 C 206.859375 85.066406 207.117188 84.324219 207.445312 83.609375 C 209.425781 79.320312 213.765625 76.550781 218.492188 76.550781 C 220.261719 76.550781 221.976562 76.925781 223.582031 77.667969 L 226.742188 79.128906 L 232.546875 81.824219 C 232.652344 81.871094 232.757812 81.925781 232.867188 81.980469 L 241.214844 85.851562 L 239.261719 90.089844 C 239.882812 92.726562 239.605469 95.476562 238.453125 97.960938 C 238.210938 98.472656 237.941406 98.960938 237.636719 99.433594 L 237.636719 157.128906 C 239.269531 157.609375 240.808594 158.140625 242.242188 158.734375 C 250.460938 162.117188 254.082031 166.6875 255.605469 170.585938 L 269.554688 170.585938 C 277.914062 170.585938 284.710938 177.378906 284.710938 185.722656 L 284.710938 190.328125 C 284.710938 194.371094 283.121094 198.179688 280.300781 201.003906 C 280.304688 201.140625 280.304688 201.285156 280.304688 201.429688 L 280.304688 203.382812 C 281.664062 204.011719 282.914062 204.84375 284.023438 205.832031 C 285.203125 199.722656 285.796875 193.53125 285.796875 187.339844 C 285.796875 174.101562 283.21875 161.28125 278.128906 149.230469 C 273.011719 137.113281 265.609375 126.285156 256.128906 117.050781 C 253.808594 114.796875 252.5 111.769531 252.457031 108.523438 C 252.414062 105.277344 253.636719 102.214844 255.898438 99.882812 C 258.171875 97.550781 261.347656 96.207031 264.613281 96.207031 C 267.796875 96.207031 270.808594 97.429688 273.089844 99.644531 C 284.910156 111.15625 294.140625 124.664062 300.527344 139.792969 C 306.894531 154.878906 310.125 170.871094 310.125 187.332031 C 310.125 215.277344 300.453125 242.617188 282.886719 264.304688 C 271.972656 277.789062 258.726562 288.546875 243.476562 296.335938 C 244.910156 299.097656 245.253906 302.363281 244.328125 305.433594 C 242.800781 310.628906 238.121094 314.097656 232.714844 314.097656 Z M 231.664062 267.480469 C 232.78125 268.015625 233.816406 268.722656 234.738281 269.589844 C 235.597656 270.394531 236.324219 271.300781 236.898438 272.292969 C 245.921875 267.066406 253.996094 260.464844 260.984375 252.601562 L 255.644531 252.601562 C 254.121094 256.503906 250.503906 261.082031 242.277344 264.464844 C 239.128906 265.761719 235.535156 266.773438 231.664062 267.480469 Z M 138.199219 102.410156 C 127.839844 108.410156 118.730469 116.21875 111.085938 125.65625 C 97.003906 143.035156 89.25 164.945312 89.25 187.355469 C 89.25 199.425781 91.488281 211.398438 95.769531 222.578125 L 95.769531 171.304688 L 180.527344 171.304688 C 181.441406 168.566406 183.3125 165.523438 186.972656 162.746094 L 184.582031 162.746094 L 184.582031 116.90625 L 150.777344 125.953125 C 149.746094 126.230469 148.691406 126.371094 147.628906 126.371094 C 142.132812 126.371094 137.296875 122.667969 135.878906 117.359375 C 135.042969 114.226562 135.472656 110.949219 137.101562 108.140625 C 137.863281 106.824219 138.847656 105.683594 139.992188 104.753906 C 139.292969 104.042969 138.695312 103.257812 138.199219 102.410156 Z M 138.199219 102.410156 " fill-opacity="1" fill-rule="nonzero"/></g><path fill="#ffffff" d="M 164.195312 120.394531 L 187.292969 120.394531 L 187.292969 159.554688 L 164.195312 159.554688 Z M 164.195312 120.394531 " fill-opacity="1" fill-rule="nonzero"/><path fill="#ffffff" d="M 140.613281 127.503906 L 163.710938 127.503906 L 163.710938 159.546875 L 140.613281 159.546875 Z M 140.613281 127.503906 " fill-opacity="1" fill-rule="nonzero"/><path fill="#ffffff" d="M 297.613281 141.054688 C 291.390625 126.320312 282.40625 113.167969 270.894531 101.957031 C 269.210938 100.328125 266.992188 99.425781 264.648438 99.425781 C 262.242188 99.425781 259.90625 100.414062 258.230469 102.132812 C 256.5625 103.84375 255.660156 106.105469 255.695312 108.496094 C 255.730469 110.882812 256.695312 113.121094 258.402344 114.777344 C 268.1875 124.3125 275.832031 135.492188 281.117188 148.003906 C 286.371094 160.453125 289.035156 173.691406 289.035156 187.359375 C 289.035156 196.355469 287.816406 205.269531 285.484375 213.867188 C 284.339844 209.871094 281.164062 206.71875 277.140625 205.628906 L 277.140625 201.449219 C 277.140625 200.859375 277.097656 200.277344 277.011719 199.707031 C 279.777344 197.515625 281.546875 194.136719 281.546875 190.347656 L 281.546875 185.746094 C 281.546875 179.160156 276.1875 173.804688 269.589844 173.804688 L 253.257812 173.804688 C 252.554688 170.242188 249.84375 165.320312 241.0625 161.710938 C 238.996094 160.863281 236.71875 160.144531 234.289062 159.558594 L 234.476562 159.558594 L 234.476562 101.679688 L 232.203125 101.679688 L 234.617188 98.25 C 234.996094 97.746094 235.320312 97.210938 235.585938 96.628906 C 236.617188 94.410156 236.660156 91.988281 235.894531 89.851562 L 237.011719 87.425781 L 231.511719 84.871094 C 231.417969 84.824219 231.328125 84.78125 231.234375 84.738281 L 225.425781 82.042969 L 225.425781 82.046875 L 222.273438 80.589844 C 221.089844 80.039062 219.824219 79.761719 218.523438 79.761719 C 215.039062 79.761719 211.847656 81.804688 210.386719 84.964844 C 209.875 86.070312 209.613281 87.226562 209.570312 88.378906 L 154.4375 103.136719 C 154.714844 102.90625 154.980469 102.667969 155.226562 102.398438 C 155.226562 102.398438 170.957031 85.65625 171.007812 85.601562 C 171.78125 84.792969 172.386719 83.855469 172.792969 82.859375 C 172.808594 82.816406 172.828125 82.773438 172.84375 82.730469 C 172.933594 82.507812 173.015625 82.277344 173.089844 82.042969 C 173.1875 81.730469 173.246094 81.460938 173.277344 81.253906 C 173.304688 81.117188 173.332031 80.972656 173.351562 80.828125 C 173.410156 80.445312 173.449219 80.054688 173.457031 79.667969 C 173.464844 79.472656 173.464844 79.289062 173.453125 79.117188 C 173.441406 78.839844 173.421875 78.558594 173.382812 78.285156 L 173.367188 78.050781 L 173.253906 77.535156 C 173.21875 77.371094 173.175781 77.210938 173.128906 77.050781 C 173.042969 76.742188 172.933594 76.433594 172.808594 76.105469 C 172.742188 75.953125 172.679688 75.796875 172.609375 75.652344 C 172.558594 75.542969 172.503906 75.429688 172.445312 75.3125 L 173.234375 72.722656 L 144.980469 64.191406 C 144.140625 63.933594 143.269531 63.808594 142.390625 63.808594 C 138.410156 63.808594 134.960938 66.367188 133.808594 70.171875 C 132.761719 73.632812 133.925781 77.253906 136.488281 79.496094 C 120.332031 87.109375 106.078125 98.28125 94.65625 112.382812 C 77.542969 133.503906 68.117188 160.128906 68.117188 187.355469 C 68.117188 207.121094 73.066406 226.710938 82.425781 244 C 91.84375 261.402344 105.589844 276.328125 122.167969 287.183594 C 123.628906 288.136719 125.324219 288.644531 127.070312 288.644531 C 130.105469 288.644531 132.90625 287.128906 134.570312 284.59375 C 135.882812 282.59375 136.332031 280.203125 135.847656 277.863281 C 135.355469 275.523438 133.984375 273.515625 131.984375 272.207031 C 124.054688 267.019531 116.890625 260.734375 110.710938 253.597656 L 169.710938 253.597656 C 174.15625 264.027344 184.605469 271.175781 196.253906 271.175781 C 202.589844 271.175781 208.667969 269.117188 213.65625 265.332031 C 215.15625 265.425781 216.683594 265.46875 218.203125 265.46875 C 226.730469 265.46875 234.839844 264.058594 241.046875 261.507812 C 249.832031 257.894531 252.539062 252.964844 253.242188 249.40625 L 267.792969 249.40625 C 267.359375 249.960938 266.929688 250.515625 266.484375 251.058594 C 257.792969 261.789062 247.1875 270.519531 235.222656 276.875 C 234.894531 274.984375 233.964844 273.257812 232.539062 271.921875 C 230.871094 270.355469 228.691406 269.492188 226.402344 269.492188 C 223.945312 269.492188 221.566406 270.511719 219.875 272.316406 L 204.085938 289.121094 C 203.316406 289.933594 202.714844 290.871094 202.292969 291.902344 L 202.261719 291.984375 C 202.1875 292.171875 202.09375 292.398438 202.019531 292.660156 C 201.917969 292.984375 201.867188 293.261719 201.824219 293.472656 C 201.796875 293.605469 201.769531 293.742188 201.75 293.882812 C 201.683594 294.269531 201.652344 294.667969 201.640625 295.074219 C 201.636719 295.234375 201.640625 295.398438 201.640625 295.566406 C 201.652344 295.851562 201.671875 296.140625 201.710938 296.421875 L 201.726562 296.714844 L 201.84375 297.222656 C 201.875 297.355469 201.90625 297.496094 201.949219 297.628906 C 202.042969 297.957031 202.148438 298.28125 202.265625 298.570312 C 202.328125 298.734375 202.398438 298.902344 202.46875 299.039062 C 202.523438 299.152344 202.574219 299.261719 202.632812 299.375 L 201.828125 301.980469 L 230.125 310.527344 C 230.964844 310.785156 231.835938 310.914062 232.714844 310.914062 C 236.695312 310.914062 240.144531 308.355469 241.296875 304.542969 C 242.339844 301.074219 241.171875 297.457031 238.605469 295.214844 C 254.757812 287.59375 269.003906 276.421875 280.425781 262.324219 C 297.535156 241.199219 306.957031 214.582031 306.957031 187.367188 C 306.957031 171.324219 303.8125 155.75 297.613281 141.054688 Z M 145.316406 105.574219 C 143.007812 106.195312 141.070312 107.671875 139.875 109.742188 C 138.675781 111.8125 138.359375 114.226562 138.972656 116.53125 C 140.019531 120.4375 143.578125 123.171875 147.628906 123.171875 C 148.40625 123.171875 149.1875 123.070312 149.949219 122.867188 L 211.367188 106.429688 L 211.367188 158.0625 C 211.207031 158.078125 211.042969 158.09375 210.882812 158.109375 L 210.882812 113.285156 L 187.785156 113.285156 L 187.785156 159.554688 L 202.148438 159.554688 C 199.714844 160.140625 197.4375 160.859375 195.378906 161.707031 C 185.996094 165.5625 183.542969 170.914062 183.0625 174.507812 L 98.972656 174.507812 L 98.972656 236.882812 C 98.714844 236.425781 98.449219 235.964844 98.199219 235.507812 C 90.25 220.824219 86.050781 204.179688 86.050781 187.359375 C 86.050781 164.222656 94.058594 141.59375 108.597656 123.652344 C 117.296875 112.917969 127.90625 104.183594 139.875 97.828125 C 140.207031 99.726562 141.136719 101.453125 142.558594 102.792969 C 143.84375 104.003906 145.441406 104.789062 147.152344 105.085938 Z M 145.316406 105.574219 " fill-opacity="1" fill-rule="nonzero"/><path fill="#4dac4d" d="M 189.359375 190.675781 L 189.359375 180.902344 L 105.375 180.902344 L 105.375 247.203125 L 174.367188 247.203125 C 174.023438 245.652344 173.847656 244.042969 173.847656 242.390625 C 173.847656 240.6875 174.039062 239.023438 174.402344 237.429688 L 189.363281 221.085938 Z M 189.359375 190.675781 " fill-opacity="1" fill-rule="evenodd"/><path fill="#a0e557" d="M 189.359375 221.085938 L 189.359375 190.675781 L 126.867188 190.675781 C 126.867188 197.128906 121.628906 202.359375 115.167969 202.359375 L 115.167969 225.738281 C 121.628906 225.738281 126.867188 230.972656 126.867188 237.425781 L 174.402344 237.425781 C 176.152344 229.703125 181.898438 223.496094 189.359375 221.085938 Z M 189.359375 221.085938 " fill-opacity="1" fill-rule="evenodd"/><path fill="#ffe600" d="M 218.214844 187.871094 C 234.152344 187.871094 247.070312 182.558594 247.070312 176.003906 C 247.070312 169.449219 234.152344 164.136719 218.214844 164.136719 C 202.277344 164.136719 189.359375 169.449219 189.359375 176.003906 C 189.359375 182.558594 202.277344 187.871094 218.214844 187.871094 Z M 218.214844 187.871094 " fill-opacity="1" fill-rule="evenodd"/><path fill="#e6cf00" d="M 247.070312 199.738281 L 247.070312 176.007812 C 247.070312 182.5625 234.152344 187.875 218.214844 187.875 C 202.277344 187.875 189.359375 182.5625 189.359375 176.007812 L 189.359375 199.738281 C 189.359375 206.292969 202.277344 211.605469 218.214844 211.605469 C 234.152344 211.605469 247.070312 206.292969 247.070312 199.738281 Z M 247.070312 199.738281 " fill-opacity="1" fill-rule="evenodd"/><path fill="#ffe600" d="M 247.070312 223.46875 L 247.070312 199.738281 C 247.070312 206.292969 234.152344 211.605469 218.214844 211.605469 C 202.277344 211.605469 189.359375 206.292969 189.359375 199.738281 L 189.359375 221.085938 C 191.53125 220.382812 193.851562 220.003906 196.257812 220.003906 C 206.164062 220.003906 214.574219 226.425781 217.535156 235.335938 L 218.214844 235.34375 C 234.152344 235.335938 247.070312 230.023438 247.070312 223.46875 Z M 247.070312 223.46875 " fill-opacity="1" fill-rule="evenodd"/><path fill="#e6cf00" d="M 218.214844 259.070312 C 234.152344 259.070312 247.070312 253.757812 247.070312 247.203125 L 247.070312 223.472656 C 247.070312 230.027344 234.152344 235.34375 218.214844 235.34375 L 217.542969 235.335938 C 218.277344 237.554688 218.679688 239.925781 218.679688 242.390625 C 218.679688 248.851562 215.941406 254.671875 211.558594 258.753906 C 213.695312 258.960938 215.925781 259.070312 218.214844 259.070312 Z M 218.214844 259.070312 " fill-opacity="1" fill-rule="evenodd"/><path fill="#baa700" d="M 211.558594 258.753906 C 215.941406 254.664062 218.679688 248.847656 218.679688 242.390625 C 218.679688 239.925781 218.277344 237.554688 217.542969 235.335938 C 214.585938 226.433594 206.175781 220.003906 196.261719 220.003906 C 193.855469 220.003906 191.535156 220.382812 189.363281 221.085938 C 181.90625 223.496094 176.152344 229.703125 174.402344 237.429688 C 174.039062 239.03125 173.847656 240.6875 173.847656 242.390625 C 173.847656 244.042969 174.03125 245.652344 174.367188 247.203125 C 176.570312 257.253906 185.53125 264.78125 196.257812 264.78125 C 202.175781 264.78125 207.554688 262.488281 211.558594 258.753906 Z M 211.558594 258.753906 " fill-opacity="1" fill-rule="evenodd"/><path fill="#e6d750" d="M 269.585938 243.003906 C 272.644531 243.003906 275.140625 240.507812 275.140625 237.457031 L 275.140625 232.855469 C 275.140625 229.816406 272.664062 227.328125 269.621094 227.304688 L 247.0625 227.304688 L 247.0625 243.011719 L 269.585938 243.011719 Z M 269.585938 243.003906 " fill-opacity="1" fill-rule="evenodd"/><path fill="#ffef59" d="M 269.585938 227.304688 L 269.628906 227.304688 C 269.613281 227.304688 269.597656 227.304688 269.585938 227.304688 Z M 279.546875 217.148438 C 279.546875 214.09375 277.042969 211.601562 273.992188 211.601562 L 247.070312 211.601562 L 247.070312 227.304688 L 273.992188 227.304688 C 277.050781 227.304688 279.546875 224.808594 279.546875 221.757812 Z M 279.546875 217.148438 " fill-opacity="1" fill-rule="evenodd"/><path fill="#e6d750" d="M 270.734375 206.046875 L 270.734375 201.445312 C 270.734375 198.40625 268.257812 195.917969 265.214844 195.898438 L 247.0625 195.898438 L 247.0625 211.601562 L 265.171875 211.601562 C 268.230469 211.601562 270.734375 209.101562 270.734375 206.046875 Z M 270.734375 206.046875 " fill-opacity="1" fill-rule="evenodd"/><path fill="#ffef59" d="M 265.179688 195.898438 L 265.222656 195.898438 C 265.203125 195.898438 265.1875 195.898438 265.179688 195.898438 Z M 275.140625 190.347656 L 275.140625 185.746094 C 275.140625 182.691406 272.636719 180.199219 269.585938 180.199219 L 247.070312 180.199219 L 247.070312 195.902344 L 269.585938 195.902344 C 272.644531 195.898438 275.140625 193.398438 275.140625 190.347656 Z M 275.140625 190.347656 " fill-opacity="1" fill-rule="evenodd"/><path fill="#bacad3" d="M 217.769531 108.074219 L 228.0625 108.074219 L 228.0625 153.160156 L 217.769531 153.160156 Z M 217.769531 108.074219 " fill-opacity="1" fill-rule="evenodd"/><path fill="#32d736" d="M 194.183594 119.675781 L 204.480469 119.675781 L 204.480469 153.160156 L 194.183594 153.160156 Z M 194.183594 119.675781 " fill-opacity="1" fill-rule="evenodd"/><path fill="#fd481e" d="M 170.597656 126.789062 L 180.890625 126.789062 L 180.890625 153.160156 L 170.597656 153.160156 Z M 170.597656 126.789062 " fill-opacity="1" fill-rule="evenodd"/><path fill="#17ace8" d="M 147.015625 133.898438 L 157.308594 133.898438 L 157.308594 153.160156 L 147.015625 153.160156 Z M 147.015625 133.898438 " fill-opacity="1" fill-rule="evenodd"/><path fill="#117ea9" d="M 125.675781 281.832031 C 126.863281 282.605469 128.445312 282.273438 129.21875 281.089844 C 129.996094 279.910156 129.664062 278.324219 128.480469 277.554688 C 113.5 267.753906 101.113281 254.328125 92.566406 238.542969 C 84.320312 223.324219 79.640625 205.890625 79.640625 187.355469 C 79.640625 161.695312 88.621094 138.128906 103.613281 119.625 C 118.894531 100.757812 140.421875 87.152344 165.039062 81.9375 C 166.421875 81.644531 167.300781 80.289062 167.007812 78.910156 C 166.714844 77.53125 165.359375 76.648438 163.976562 76.941406 C 138.179688 82.40625 115.628906 96.660156 99.632812 116.410156 C 83.929688 135.796875 74.519531 160.480469 74.519531 187.359375 C 74.519531 206.757812 79.421875 225.015625 88.0625 240.96875 C 97.023438 257.515625 109.996094 271.574219 125.675781 281.832031 Z M 125.675781 281.832031 " fill-opacity="1" fill-rule="nonzero"/><path fill="#117ea9" d="M 231.972656 304.394531 C 233.328125 304.804688 234.761719 304.039062 235.164062 302.683594 C 235.570312 301.332031 234.808594 299.902344 233.453125 299.496094 L 215.273438 294.007812 L 228.265625 280.179688 C 229.230469 279.152344 229.183594 277.539062 228.152344 276.574219 C 227.125 275.609375 225.507812 275.65625 224.542969 276.683594 L 208.851562 293.390625 C 208.523438 293.6875 208.273438 294.078125 208.140625 294.527344 C 207.730469 295.878906 208.496094 297.308594 209.851562 297.710938 L 210.59375 295.265625 L 209.851562 297.710938 Z M 231.972656 304.394531 " fill-opacity="1" fill-rule="nonzero"/><path fill="#117ea9" d="M 266.433594 106.546875 C 265.421875 105.566406 263.800781 105.585938 262.820312 106.59375 C 261.839844 107.601562 261.859375 109.222656 262.867188 110.203125 C 273.105469 120.175781 281.371094 132.164062 287.011719 145.523438 C 292.433594 158.371094 295.429688 172.503906 295.429688 187.359375 C 295.429688 213.015625 286.457031 236.578125 271.46875 255.082031 C 256.191406 273.945312 234.679688 287.550781 210.066406 292.773438 C 208.683594 293.066406 207.804688 294.417969 208.097656 295.800781 C 208.390625 297.179688 209.746094 298.058594 211.128906 297.765625 C 236.921875 292.292969 259.457031 278.042969 275.453125 258.292969 C 291.152344 238.90625 300.558594 214.230469 300.558594 187.355469 C 300.558594 171.832031 297.410156 157.027344 291.71875 143.539062 C 285.800781 129.539062 277.152344 116.984375 266.433594 106.546875 Z M 266.433594 106.546875 " fill-opacity="1" fill-rule="nonzero"/><path fill="#117ea9" d="M 143.128906 70.3125 C 141.773438 69.902344 140.34375 70.671875 139.941406 72.023438 C 139.527344 73.378906 140.296875 74.804688 141.652344 75.210938 L 159.832031 80.699219 L 146.839844 94.527344 C 145.875 95.558594 145.921875 97.171875 146.949219 98.136719 C 147.980469 99.101562 149.597656 99.054688 150.5625 98.023438 L 166.253906 81.320312 C 166.582031 81.019531 166.832031 80.632812 166.964844 80.183594 C 167.375 78.828125 166.609375 77.402344 165.253906 76.996094 L 164.511719 79.441406 L 165.253906 76.996094 Z M 143.128906 70.3125 " fill-opacity="1" fill-rule="nonzero"/><path fill="#4dac4d" d="M 160.894531 220.921875 C 160.113281 219.746094 158.527344 219.425781 157.351562 220.203125 C 156.171875 220.980469 155.851562 222.5625 156.628906 223.742188 C 157.53125 225.105469 158.898438 226.234375 160.550781 226.996094 C 162.0625 227.695312 163.828125 228.101562 165.699219 228.101562 C 168.394531 228.101562 170.867188 227.261719 172.691406 225.90625 C 174.734375 224.386719 176 222.226562 176 219.785156 C 176 217.507812 174.894531 215.46875 173.085938 213.972656 C 171.445312 212.621094 169.199219 211.714844 166.707031 211.515625 C 164.882812 211.378906 163.332031 210.933594 162.332031 210.195312 C 161.703125 209.726562 161.324219 209.097656 161.324219 208.308594 C 161.324219 207.566406 161.792969 206.851562 162.546875 206.289062 C 163.523438 205.5625 164.917969 205.109375 166.496094 205.109375 C 167.621094 205.109375 168.652344 205.339844 169.503906 205.734375 C 170.300781 206.101562 170.925781 206.601562 171.304688 207.171875 C 172.082031 208.351562 173.667969 208.671875 174.84375 207.890625 C 176.023438 207.113281 176.34375 205.53125 175.566406 204.355469 C 174.664062 202.988281 173.296875 201.859375 171.644531 201.097656 C 170.132812 200.398438 168.367188 199.996094 166.496094 199.996094 C 163.800781 199.996094 161.332031 200.832031 159.503906 202.191406 C 157.460938 203.710938 156.203125 205.867188 156.203125 208.308594 C 156.203125 210.867188 157.359375 212.859375 159.292969 214.289062 C 161.09375 215.625 163.578125 216.398438 166.328125 216.609375 C 167.742188 216.722656 168.972656 217.195312 169.824219 217.90625 C 170.480469 218.445312 170.875 219.109375 170.875 219.785156 C 170.875 220.527344 170.40625 221.242188 169.652344 221.804688 C 168.675781 222.53125 167.285156 222.984375 165.707031 222.984375 C 164.585938 222.984375 163.550781 222.753906 162.695312 222.359375 C 161.894531 221.992188 161.273438 221.492188 160.894531 220.921875 Z M 160.894531 220.921875 " fill-opacity="1" fill-rule="nonzero"/><path fill="#4dac4d" d="M 168.65625 198.578125 C 168.65625 197.164062 167.507812 196.019531 166.09375 196.019531 C 164.679688 196.019531 163.535156 197.164062 163.535156 198.578125 L 163.535156 229.523438 C 163.535156 230.933594 164.679688 232.082031 166.09375 232.082031 C 167.507812 232.082031 168.65625 230.933594 168.65625 229.523438 Z M 168.65625 198.578125 " fill-opacity="1" fill-rule="nonzero"/><path fill="#4dac4d" d="M 135.851562 211.496094 C 134.4375 211.496094 133.292969 212.640625 133.292969 214.054688 C 133.292969 215.464844 134.4375 216.609375 135.851562 216.609375 L 142.890625 216.609375 C 144.304688 216.609375 145.453125 215.464844 145.453125 214.054688 C 145.453125 212.640625 144.304688 211.496094 142.890625 211.496094 Z M 135.851562 211.496094 " fill-opacity="1" fill-rule="nonzero"/><path fill="#ffe600" d="M 191.078125 249.238281 C 190.296875 248.0625 188.714844 247.742188 187.535156 248.519531 C 186.355469 249.296875 186.035156 250.882812 186.8125 252.058594 C 187.714844 253.417969 189.074219 254.546875 190.726562 255.308594 C 192.234375 256.007812 193.996094 256.414062 195.863281 256.414062 C 198.550781 256.414062 201.015625 255.578125 202.835938 254.222656 C 204.875 252.703125 206.132812 250.550781 206.132812 248.117188 C 206.132812 245.835938 205.035156 243.804688 203.226562 242.3125 C 201.59375 240.964844 199.351562 240.058594 196.859375 239.859375 C 195.042969 239.722656 193.5 239.28125 192.5 238.542969 C 191.878906 238.082031 191.5 237.453125 191.5 236.667969 C 191.5 235.933594 191.960938 235.21875 192.714844 234.660156 C 193.6875 233.933594 195.074219 233.488281 196.648438 233.488281 C 197.769531 233.488281 198.792969 233.71875 199.644531 234.109375 C 200.433594 234.480469 201.058594 234.972656 201.4375 235.542969 C 202.21875 236.722656 203.800781 237.042969 204.980469 236.265625 C 206.160156 235.484375 206.480469 233.902344 205.703125 232.726562 C 204.800781 231.367188 203.441406 230.238281 201.789062 229.476562 C 200.28125 228.777344 198.519531 228.371094 196.652344 228.371094 C 193.964844 228.371094 191.5 229.207031 189.679688 230.5625 C 187.640625 232.082031 186.382812 234.234375 186.382812 236.667969 C 186.382812 239.222656 187.539062 241.210938 189.464844 242.636719 C 191.261719 243.976562 193.738281 244.742188 196.488281 244.957031 C 197.894531 245.0625 199.117188 245.542969 199.972656 246.246094 C 200.621094 246.785156 201.015625 247.445312 201.015625 248.117188 C 201.015625 248.851562 200.554688 249.566406 199.800781 250.125 C 198.828125 250.847656 197.441406 251.296875 195.867188 251.296875 C 194.746094 251.296875 193.722656 251.066406 192.871094 250.671875 C 192.074219 250.304688 191.449219 249.808594 191.078125 249.238281 Z M 191.078125 249.238281 " fill-opacity="1" fill-rule="nonzero"/><path fill="#ffe600" d="M 198.824219 226.960938 C 198.824219 225.546875 197.675781 224.402344 196.261719 224.402344 C 194.847656 224.402344 193.703125 225.546875 193.703125 226.960938 L 193.703125 257.824219 C 193.703125 259.238281 194.847656 260.382812 196.261719 260.382812 C 197.675781 260.382812 198.824219 259.238281 198.824219 257.824219 Z M 198.824219 226.960938 " fill-opacity="1" fill-rule="nonzero"/><path fill="#117ea9" d="M 219.578125 86.390625 C 218.300781 85.800781 216.777344 86.359375 216.1875 87.636719 C 215.59375 88.917969 216.160156 90.441406 217.441406 91.027344 L 223.601562 93.882812 L 219.695312 99.441406 C 218.886719 100.59375 219.164062 102.1875 220.316406 103.003906 C 221.46875 103.8125 223.0625 103.535156 223.878906 102.382812 L 229.449219 94.460938 C 229.578125 94.300781 229.6875 94.128906 229.777344 93.9375 C 230.375 92.660156 229.8125 91.132812 228.53125 90.539062 L 227.457031 92.855469 L 228.527344 90.539062 C 228.515625 90.542969 219.578125 86.390625 219.578125 86.390625 Z M 219.578125 86.390625 " fill-opacity="1" fill-rule="nonzero"/><path fill="#117ea9" d="M 146.96875 111.753906 C 145.601562 112.113281 144.789062 113.515625 145.15625 114.878906 C 145.519531 116.246094 146.925781 117.054688 148.289062 116.6875 L 227.5625 95.472656 C 228.929688 95.109375 229.738281 93.707031 229.371094 92.34375 C 229.007812 90.980469 227.605469 90.167969 226.238281 90.539062 Z M 146.96875 111.753906 " fill-opacity="1" fill-rule="nonzero"/></svg>