<svg xmlns="http://www.w3.org/2000/svg" xmlns:xlink="http://www.w3.org/1999/xlink" width="500" zoomAndPan="magnify" viewBox="0 0 375 374.999991" height="500" preserveAspectRatio="xMidYMid meet" version="1.0"><defs><clipPath id="ddc4133ed0"><path d="M 70.5 73 L 167 73 L 167 287 L 70.5 287 Z M 70.5 73 " clip-rule="nonzero"/></clipPath><clipPath id="1fc4cad8e2"><path d="M 208 103 L 304.5 103 L 304.5 303 L 208 303 Z M 208 103 " clip-rule="nonzero"/></clipPath></defs><path fill="#4dac4d" d="M 189.382812 191.132812 L 189.382812 180.988281 L 102.410156 180.988281 L 102.410156 249.800781 L 173.855469 249.800781 C 173.503906 248.191406 173.316406 246.519531 173.316406 244.804688 C 173.316406 243.035156 173.515625 241.3125 173.890625 239.652344 L 189.382812 222.695312 Z M 189.382812 191.132812 " fill-opacity="1" fill-rule="evenodd"/><path fill="#a0e557" d="M 189.382812 222.695312 L 189.382812 191.136719 L 124.664062 191.136719 C 124.664062 197.832031 119.238281 203.265625 112.546875 203.265625 L 112.546875 227.523438 C 119.238281 227.523438 124.664062 232.957031 124.664062 239.652344 L 173.890625 239.652344 C 175.703125 231.636719 181.65625 225.195312 189.382812 222.695312 Z M 189.382812 222.695312 " fill-opacity="1" fill-rule="evenodd"/><path fill="#ffe600" d="M 219.261719 188.226562 C 235.765625 188.226562 249.144531 182.710938 249.144531 175.910156 C 249.144531 169.109375 235.765625 163.597656 219.261719 163.597656 C 202.761719 163.597656 189.382812 169.109375 189.382812 175.910156 C 189.382812 182.710938 202.761719 188.226562 219.261719 188.226562 Z M 219.261719 188.226562 " fill-opacity="1" fill-rule="evenodd"/><path fill="#e6cf00" d="M 249.140625 200.539062 L 249.140625 175.910156 C 249.140625 182.710938 235.765625 188.226562 219.261719 188.226562 C 202.761719 188.226562 189.382812 182.710938 189.382812 175.910156 L 189.382812 200.539062 C 189.382812 207.339844 202.761719 212.855469 219.261719 212.855469 C 235.765625 212.855469 249.140625 207.339844 249.140625 200.539062 Z M 249.140625 200.539062 " fill-opacity="1" fill-rule="evenodd"/><path fill="#ffe600" d="M 249.140625 225.167969 L 249.140625 200.539062 C 249.140625 207.339844 235.765625 212.855469 219.261719 212.855469 C 202.761719 212.855469 189.382812 207.339844 189.382812 200.539062 L 189.382812 222.695312 C 191.632812 221.964844 194.035156 221.570312 196.53125 221.570312 C 206.792969 221.570312 215.5 228.238281 218.5625 237.480469 L 219.261719 237.484375 C 235.765625 237.484375 249.140625 231.972656 249.140625 225.167969 Z M 249.140625 225.167969 " fill-opacity="1" fill-rule="evenodd"/><path fill="#e6cf00" d="M 219.261719 262.113281 C 235.765625 262.113281 249.144531 256.601562 249.144531 249.800781 L 249.144531 225.167969 C 249.144531 231.972656 235.765625 237.484375 219.261719 237.484375 L 218.5625 237.480469 C 219.328125 239.78125 219.742188 242.246094 219.742188 244.804688 C 219.742188 251.503906 216.90625 257.542969 212.371094 261.785156 C 214.582031 262 216.890625 262.113281 219.261719 262.113281 Z M 219.261719 262.113281 " fill-opacity="1" fill-rule="evenodd"/><path fill="#baa700" d="M 212.371094 261.785156 C 216.90625 257.542969 219.742188 251.503906 219.742188 244.804688 C 219.742188 242.246094 219.328125 239.78125 218.5625 237.480469 C 215.5 228.238281 206.792969 221.570312 196.53125 221.570312 C 194.035156 221.570312 191.632812 221.964844 189.382812 222.695312 C 181.65625 225.195312 175.703125 231.636719 173.890625 239.65625 C 173.515625 241.3125 173.320312 243.035156 173.320312 244.804688 C 173.320312 246.519531 173.503906 248.191406 173.855469 249.800781 C 176.140625 260.230469 185.421875 268.035156 196.53125 268.035156 C 202.652344 268.035156 208.222656 265.664062 212.371094 261.785156 Z M 212.371094 261.785156 " fill-opacity="1" fill-rule="evenodd"/><path fill="#e6d750" d="M 272.460938 245.445312 C 275.625 245.445312 278.214844 242.851562 278.214844 239.683594 L 278.214844 234.90625 C 278.214844 231.753906 275.648438 229.167969 272.503906 229.148438 L 249.140625 229.148438 L 249.140625 245.445312 Z M 272.460938 245.445312 " fill-opacity="1" fill-rule="evenodd"/><path fill="#ffef59" d="M 272.460938 229.148438 L 272.503906 229.148438 C 272.488281 229.148438 272.472656 229.148438 272.460938 229.148438 Z M 282.777344 218.609375 C 282.777344 215.441406 280.1875 212.847656 277.023438 212.847656 L 249.140625 212.847656 L 249.140625 229.148438 L 277.023438 229.148438 C 280.1875 229.148438 282.777344 226.554688 282.777344 223.386719 Z M 282.777344 218.609375 " fill-opacity="1" fill-rule="evenodd"/><path fill="#e6d750" d="M 273.648438 207.089844 L 273.648438 202.3125 C 273.648438 199.15625 271.082031 196.574219 267.9375 196.550781 L 249.140625 196.550781 L 249.140625 212.847656 L 267.894531 212.847656 C 271.0625 212.847656 273.648438 210.257812 273.648438 207.089844 Z M 273.648438 207.089844 " fill-opacity="1" fill-rule="evenodd"/><path fill="#ffef59" d="M 267.898438 196.550781 L 267.941406 196.550781 C 267.925781 196.550781 267.910156 196.550781 267.898438 196.550781 Z M 278.214844 190.792969 L 278.214844 186.011719 C 278.214844 182.84375 275.625 180.253906 272.460938 180.253906 L 249.144531 180.253906 L 249.144531 196.550781 L 272.460938 196.550781 C 275.625 196.550781 278.214844 193.960938 278.214844 190.792969 Z M 278.214844 190.792969 " fill-opacity="1" fill-rule="evenodd"/><path fill="#bacad3" d="M 218.804688 105.410156 L 229.464844 105.410156 L 229.464844 152.195312 L 218.804688 152.195312 Z M 218.804688 105.410156 " fill-opacity="1" fill-rule="evenodd"/><path fill="#32d736" d="M 194.378906 117.453125 L 205.039062 117.453125 L 205.039062 152.195312 L 194.378906 152.195312 Z M 194.378906 117.453125 " fill-opacity="1" fill-rule="evenodd"/><path fill="#fd481e" d="M 169.953125 124.832031 L 180.613281 124.832031 L 180.613281 152.195312 L 169.953125 152.195312 Z M 169.953125 124.832031 " fill-opacity="1" fill-rule="evenodd"/><path fill="#17ace8" d="M 145.527344 132.214844 L 156.191406 132.214844 L 156.191406 152.195312 L 145.527344 152.195312 Z M 145.527344 132.214844 " fill-opacity="1" fill-rule="evenodd"/><g clip-path="url(#ddc4133ed0)"><path fill="#117ea9" d="M 123.4375 285.738281 C 124.660156 286.539062 126.300781 286.195312 127.105469 284.972656 C 127.90625 283.746094 127.5625 282.101562 126.335938 281.300781 C 110.828125 271.128906 98 257.203125 89.144531 240.816406 C 80.609375 225.019531 75.765625 206.921875 75.765625 187.691406 C 75.765625 161.058594 85.066406 136.601562 100.589844 117.398438 C 116.414062 97.820312 138.703125 83.699219 164.199219 78.285156 C 165.628906 77.984375 166.542969 76.578125 166.238281 75.144531 C 165.9375 73.710938 164.53125 72.796875 163.101562 73.101562 C 136.382812 78.773438 113.035156 93.5625 96.46875 114.058594 C 80.203125 134.179688 70.460938 159.796875 70.460938 187.691406 C 70.460938 207.820312 75.539062 226.769531 84.484375 243.324219 C 93.761719 260.5 107.195312 275.089844 123.4375 285.738281 Z M 123.4375 285.738281 " fill-opacity="1" fill-rule="nonzero"/></g><path fill="#117ea9" d="M 233.515625 309.15625 C 234.917969 309.578125 236.394531 308.785156 236.820312 307.382812 C 237.242188 305.980469 236.449219 304.496094 235.046875 304.074219 L 216.222656 298.375 L 229.675781 284.027344 C 230.675781 282.960938 230.625 281.285156 229.5625 280.28125 C 228.496094 279.28125 226.820312 279.332031 225.820312 280.394531 L 209.570312 297.730469 C 209.234375 298.042969 208.976562 298.441406 208.832031 298.910156 C 208.410156 300.316406 209.203125 301.796875 210.605469 302.222656 L 211.371094 299.679688 L 210.605469 302.222656 Z M 233.515625 309.15625 " fill-opacity="1" fill-rule="nonzero"/><g clip-path="url(#1fc4cad8e2)"><path fill="#117ea9" d="M 269.195312 103.820312 C 268.148438 102.800781 266.472656 102.824219 265.453125 103.871094 C 264.433594 104.921875 264.457031 106.597656 265.503906 107.617188 C 276.109375 117.96875 284.667969 130.410156 290.507812 144.269531 C 296.125 157.605469 299.226562 172.273438 299.226562 187.691406 C 299.226562 214.316406 289.933594 238.765625 274.414062 257.972656 C 258.59375 277.546875 236.3125 291.671875 210.824219 297.085938 C 209.394531 297.390625 208.480469 298.796875 208.78125 300.230469 C 209.085938 301.660156 210.492188 302.574219 211.921875 302.273438 C 238.632812 296.59375 261.972656 281.804688 278.535156 261.308594 C 294.792969 241.191406 304.53125 215.578125 304.53125 187.691406 C 304.53125 171.582031 301.273438 156.214844 295.375 142.21875 C 289.253906 127.6875 280.296875 114.65625 269.195312 103.820312 Z M 269.195312 103.820312 " fill-opacity="1" fill-rule="nonzero"/></g><path fill="#117ea9" d="M 141.507812 66.21875 C 140.105469 65.796875 138.625 66.589844 138.203125 67.992188 C 137.78125 69.394531 138.574219 70.875 139.976562 71.300781 L 158.800781 77 L 145.347656 91.347656 C 144.347656 92.414062 144.398438 94.089844 145.460938 95.09375 C 146.523438 96.09375 148.199219 96.042969 149.203125 94.976562 L 165.453125 77.640625 C 165.785156 77.332031 166.046875 76.933594 166.1875 76.460938 C 166.613281 75.058594 165.820312 73.578125 164.417969 73.152344 L 163.648438 75.695312 L 164.417969 73.152344 Z M 141.507812 66.21875 " fill-opacity="1" fill-rule="nonzero"/><path fill="#4dac4d" d="M 159.902344 222.523438 C 159.09375 221.304688 157.453125 220.96875 156.234375 221.777344 C 155.015625 222.585938 154.679688 224.226562 155.488281 225.449219 C 156.421875 226.863281 157.835938 228.035156 159.546875 228.828125 C 161.113281 229.554688 162.941406 229.976562 164.882812 229.976562 C 167.667969 229.976562 170.230469 229.105469 172.117188 227.695312 C 174.234375 226.121094 175.542969 223.878906 175.542969 221.347656 C 175.542969 218.980469 174.398438 216.867188 172.523438 215.3125 C 170.832031 213.910156 168.503906 212.96875 165.921875 212.765625 C 164.03125 212.621094 162.425781 212.164062 161.390625 211.394531 C 160.738281 210.910156 160.347656 210.253906 160.347656 209.4375 C 160.347656 208.671875 160.832031 207.925781 161.613281 207.34375 C 162.625 206.589844 164.066406 206.121094 165.703125 206.121094 C 166.863281 206.121094 167.933594 206.359375 168.816406 206.769531 C 169.640625 207.152344 170.289062 207.671875 170.683594 208.265625 C 171.488281 209.484375 173.132812 209.816406 174.351562 209.011719 C 175.570312 208.203125 175.902344 206.558594 175.09375 205.339844 C 174.160156 203.925781 172.746094 202.753906 171.035156 201.960938 C 169.46875 201.234375 167.640625 200.8125 165.703125 200.8125 C 162.914062 200.8125 160.351562 201.683594 158.464844 203.089844 C 156.351562 204.667969 155.042969 206.90625 155.042969 209.4375 C 155.042969 212.09375 156.242188 214.160156 158.238281 215.644531 C 160.109375 217.035156 162.675781 217.835938 165.527344 218.054688 C 166.988281 218.167969 168.261719 218.664062 169.148438 219.398438 C 169.824219 219.960938 170.238281 220.648438 170.238281 221.347656 C 170.238281 222.117188 169.75 222.863281 168.96875 223.445312 C 167.957031 224.199219 166.515625 224.664062 164.882812 224.664062 C 163.71875 224.664062 162.652344 224.425781 161.765625 224.015625 C 160.941406 223.636719 160.292969 223.117188 159.902344 222.523438 Z M 159.902344 222.523438 " fill-opacity="1" fill-rule="nonzero"/><path fill="#4dac4d" d="M 167.945312 199.335938 C 167.945312 197.871094 166.757812 196.683594 165.292969 196.683594 C 163.828125 196.683594 162.640625 197.871094 162.640625 199.335938 L 162.640625 231.453125 C 162.640625 232.917969 163.828125 234.105469 165.292969 234.105469 C 166.757812 234.105469 167.945312 232.917969 167.945312 231.453125 Z M 167.945312 199.335938 " fill-opacity="1" fill-rule="nonzero"/><path fill="#4dac4d" d="M 133.96875 212.738281 C 132.503906 212.738281 131.316406 213.929688 131.316406 215.394531 C 131.316406 216.859375 132.503906 218.046875 133.96875 218.046875 L 141.257812 218.046875 C 142.71875 218.046875 143.910156 216.859375 143.910156 215.394531 C 143.910156 213.929688 142.71875 212.738281 141.257812 212.738281 Z M 133.96875 212.738281 " fill-opacity="1" fill-rule="nonzero"/><path fill="#ffe600" d="M 191.160156 251.910156 C 190.351562 250.691406 188.710938 250.355469 187.492188 251.164062 C 186.273438 251.972656 185.9375 253.617188 186.746094 254.835938 C 187.679688 256.246094 189.089844 257.417969 190.796875 258.210938 C 192.359375 258.933594 194.1875 259.355469 196.121094 259.355469 C 198.902344 259.355469 201.457031 258.484375 203.34375 257.082031 C 205.453125 255.507812 206.757812 253.269531 206.757812 250.742188 C 206.757812 248.378906 205.621094 246.269531 203.746094 244.71875 C 202.058594 243.320312 199.734375 242.378906 197.15625 242.175781 C 195.273438 242.03125 193.671875 241.574219 192.640625 240.808594 C 191.992188 240.328125 191.605469 239.675781 191.605469 238.863281 C 191.605469 238.101562 192.085938 237.359375 192.867188 236.78125 C 193.871094 236.027344 195.308594 235.5625 196.9375 235.5625 C 198.097656 235.5625 199.160156 235.800781 200.042969 236.210938 C 200.863281 236.589844 201.507812 237.105469 201.898438 237.699219 C 202.707031 238.917969 204.347656 239.25 205.566406 238.445312 C 206.785156 237.636719 207.121094 235.992188 206.3125 234.773438 C 205.378906 233.363281 203.96875 232.191406 202.261719 231.398438 C 200.699219 230.671875 198.871094 230.253906 196.9375 230.253906 C 194.15625 230.253906 191.601562 231.125 189.714844 232.527344 C 187.605469 234.101562 186.300781 236.339844 186.300781 238.863281 C 186.300781 241.515625 187.5 243.578125 189.492188 245.058594 C 191.355469 246.449219 193.921875 247.246094 196.761719 247.464844 C 198.21875 247.578125 199.488281 248.074219 200.371094 248.804688 C 201.042969 249.363281 201.453125 250.046875 201.453125 250.742188 C 201.453125 251.507812 200.972656 252.25 200.191406 252.828125 C 199.1875 253.578125 197.75 254.042969 196.121094 254.042969 C 194.960938 254.042969 193.898438 253.808594 193.015625 253.398438 C 192.195312 253.019531 191.550781 252.503906 191.160156 251.910156 Z M 191.160156 251.910156 " fill-opacity="1" fill-rule="nonzero"/><path fill="#ffe600" d="M 199.183594 228.789062 C 199.183594 227.324219 197.996094 226.132812 196.53125 226.132812 C 195.066406 226.132812 193.878906 227.324219 193.878906 228.789062 L 193.878906 260.820312 C 193.878906 262.285156 195.066406 263.476562 196.53125 263.476562 C 197.996094 263.476562 199.183594 262.285156 199.183594 260.820312 Z M 199.183594 228.789062 " fill-opacity="1" fill-rule="nonzero"/><path fill="#117ea9" d="M 220.679688 82.910156 C 219.351562 82.296875 217.777344 82.875 217.167969 84.207031 C 216.554688 85.535156 217.132812 87.109375 218.460938 87.71875 L 224.839844 90.6875 L 220.792969 96.453125 C 219.953125 97.652344 220.242188 99.304688 221.4375 100.144531 C 222.632812 100.988281 224.285156 100.699219 225.125 99.503906 L 230.894531 91.28125 C 231.027344 91.117188 231.140625 90.9375 231.230469 90.738281 C 231.847656 89.40625 231.273438 87.828125 229.945312 87.210938 L 228.828125 89.621094 L 229.933594 87.214844 Z M 220.679688 82.910156 " fill-opacity="1" fill-rule="nonzero"/><path fill="#117ea9" d="M 145.484375 109.226562 C 144.070312 109.605469 143.230469 111.058594 143.609375 112.472656 C 143.984375 113.886719 145.4375 114.726562 146.851562 114.347656 L 228.941406 92.332031 C 230.351562 91.957031 231.191406 90.503906 230.816406 89.085938 C 230.4375 87.671875 228.984375 86.832031 227.574219 87.210938 Z M 145.484375 109.226562 " fill-opacity="1" fill-rule="nonzero"/></svg>