<svg xmlns="http://www.w3.org/2000/svg" xmlns:xlink="http://www.w3.org/1999/xlink" width="500" zoomAndPan="magnify" viewBox="0 0 375 374.999991" height="500" preserveAspectRatio="xMidYMid meet" version="1.0"><defs><clipPath id="fc81de9548"><path d="M 40.554688 45.515625 L 334.554688 45.515625 L 334.554688 329.765625 L 40.554688 329.765625 Z M 40.554688 45.515625 " clip-rule="nonzero"/></clipPath></defs><g clip-path="url(#fc81de9548)"><path fill="#ffffff" d="M 171.628906 291.742188 C 178.042969 301.210938 182.257812 312.289062 183.539062 324.25 C 183.679688 325.585938 183.25 326.917969 182.351562 327.917969 C 181.453125 328.914062 180.175781 329.484375 178.832031 329.484375 L 45.511719 329.484375 C 44.167969 329.484375 42.890625 328.914062 41.992188 327.914062 C 41.09375 326.917969 40.664062 325.582031 40.808594 324.246094 C 43.90625 295.382812 64.101562 271.636719 91.0625 263.347656 C 80.53125 256.433594 73.554688 244.515625 73.554688 231.023438 C 73.554688 215.441406 82.859375 201.960938 96.191406 195.859375 C 94.730469 192.207031 93.488281 188.464844 92.46875 184.652344 L 76.675781 178.574219 C 74.847656 177.871094 73.640625 176.113281 73.640625 174.15625 L 73.640625 144.628906 C 73.640625 142.671875 74.847656 140.914062 76.675781 140.210938 C 76.675781 140.210938 92.46875 134.132812 92.46875 134.132812 C 94.722656 125.683594 98.074219 117.597656 102.460938 110.050781 L 95.578125 94.574219 C 94.785156 92.78125 95.171875 90.6875 96.558594 89.304688 L 117.433594 68.429688 C 118.816406 67.042969 120.910156 66.652344 122.703125 67.449219 C 122.703125 67.449219 138.179688 74.332031 138.179688 74.332031 C 145.726562 69.945312 153.808594 66.597656 162.234375 64.363281 L 168.339844 48.542969 C 169.046875 46.714844 170.800781 45.511719 172.757812 45.511719 L 202.285156 45.511719 C 204.242188 45.511719 206 46.71875 206.703125 48.546875 C 206.703125 48.546875 212.78125 64.363281 212.777344 64.363281 C 221.207031 66.597656 229.285156 69.945312 236.832031 74.332031 L 252.308594 67.449219 C 254.101562 66.652344 256.195312 67.042969 257.578125 68.429688 L 278.457031 89.304688 C 279.839844 90.6875 280.226562 92.777344 279.433594 94.566406 C 279.433594 94.566406 272.578125 110.046875 272.578125 110.046875 C 276.96875 117.597656 280.316406 125.683594 282.550781 134.136719 L 298.335938 140.210938 C 300.164062 140.914062 301.371094 142.671875 301.371094 144.628906 L 301.371094 174.15625 C 301.371094 176.113281 300.164062 177.871094 298.335938 178.574219 C 298.335938 178.574219 282.546875 184.648438 282.546875 184.648438 C 281.535156 188.464844 280.289062 192.210938 278.828125 195.867188 C 292.160156 201.96875 301.457031 215.445312 301.457031 231.023438 C 301.457031 244.515625 294.480469 256.433594 283.945312 263.347656 C 310.914062 271.636719 331.101562 295.386719 334.1875 324.25 C 334.332031 325.585938 333.898438 326.917969 333 327.917969 C 332.105469 328.914062 330.824219 329.484375 329.480469 329.484375 L 196.164062 329.484375 C 194.820312 329.484375 193.539062 328.914062 192.640625 327.914062 C 191.742188 326.917969 191.3125 325.582031 191.457031 324.246094 C 192.742188 312.289062 196.960938 301.207031 203.378906 291.742188 Z M 112.171875 269.65625 C 81.851562 269.65625 56.589844 291.324219 51.007812 320.019531 C 51.007812 320.019531 173.339844 320.019531 173.339844 320.019531 C 167.773438 291.320312 142.507812 269.65625 112.171875 269.65625 Z M 133.292969 263.347656 C 145.109375 266.980469 155.625 273.578125 163.96875 282.277344 L 211.039062 282.277344 C 219.386719 273.578125 229.898438 266.980469 241.710938 263.347656 C 235.421875 259.21875 230.398438 253.300781 227.375 246.332031 C 216.574219 237.328125 202.671875 231.914062 187.507812 231.914062 C 172.335938 231.914062 158.433594 237.335938 147.628906 246.351562 C 144.601562 253.3125 139.582031 259.222656 133.292969 263.347656 Z M 105.25 193.011719 C 107.496094 192.601562 109.8125 192.386719 112.171875 192.386719 C 133.464844 192.386719 150.804688 209.75 150.804688 231.023438 C 150.804688 231.535156 150.796875 232.042969 150.777344 232.550781 C 155.640625 229.644531 160.875 227.300781 166.394531 225.605469 C 157.929688 220.046875 151.761719 211.25 149.667969 201.003906 C 138.363281 190.714844 131.269531 175.875 131.269531 159.375 C 131.269531 128.304688 156.433594 103.140625 187.507812 103.140625 C 218.578125 103.140625 243.769531 128.304688 243.769531 159.375 C 243.769531 175.871094 236.671875 190.707031 225.363281 201 C 223.273438 211.25 217.101562 220.046875 208.628906 225.605469 C 214.144531 227.300781 219.375 229.640625 224.234375 232.542969 C 224.214844 232.039062 224.207031 231.53125 224.207031 231.023438 C 224.207031 209.746094 241.546875 192.386719 262.820312 192.386719 C 265.191406 192.386719 267.515625 192.601562 269.769531 193.015625 C 271.496094 188.804688 272.898438 184.460938 273.953125 180.019531 C 274.3125 178.5 275.402344 177.257812 276.859375 176.699219 C 276.859375 176.699219 291.90625 170.90625 291.90625 170.90625 L 291.90625 147.878906 L 276.859375 142.085938 C 275.398438 141.523438 274.3125 140.28125 273.953125 138.761719 C 271.78125 129.589844 268.167969 120.871094 263.226562 112.855469 C 262.410156 111.527344 262.300781 109.882812 262.929688 108.457031 C 262.929688 108.457031 269.464844 93.699219 269.464844 93.699219 C 269.464844 93.699219 253.1875 77.421875 253.1875 77.421875 L 238.433594 83.980469 C 237.007812 84.613281 235.359375 84.503906 234.027344 83.683594 C 226.011719 78.746094 217.292969 75.132812 208.148438 72.960938 C 206.628906 72.597656 205.386719 71.511719 204.824219 70.054688 C 204.824219 70.054688 199.035156 54.980469 199.035156 54.980469 L 176.003906 54.980469 L 170.183594 70.058594 C 169.621094 71.515625 168.378906 72.597656 166.863281 72.960938 C 157.71875 75.132812 149 78.746094 140.984375 83.683594 C 139.652344 84.503906 138.003906 84.613281 136.578125 83.980469 L 121.828125 77.421875 C 121.828125 77.421875 105.550781 93.699219 105.550781 93.699219 L 112.109375 108.449219 C 112.742188 109.875 112.632812 111.523438 111.8125 112.855469 C 106.871094 120.875 103.257812 129.597656 101.054688 138.773438 C 100.691406 140.289062 99.609375 141.527344 98.152344 142.085938 C 98.152344 142.085938 83.109375 147.878906 83.109375 147.878906 L 83.109375 170.90625 L 98.152344 176.699219 C 99.605469 177.253906 100.691406 178.492188 101.054688 180.007812 C 102.125 184.449219 103.527344 188.796875 105.25 193.011719 Z M 112.171875 260.191406 C 128.25 260.191406 141.339844 247.082031 141.339844 231.023438 C 141.339844 214.960938 128.25 201.851562 112.171875 201.851562 C 96.109375 201.851562 83.019531 214.960938 83.019531 231.023438 C 83.019531 247.082031 96.109375 260.191406 112.171875 260.191406 Z M 262.820312 260.191406 C 278.898438 260.191406 291.992188 247.082031 291.992188 231.023438 C 291.992188 214.960938 278.898438 201.851562 262.820312 201.851562 C 246.761719 201.851562 233.671875 214.960938 233.671875 231.023438 C 233.671875 247.082031 246.761719 260.191406 262.820312 260.191406 Z M 262.820312 269.65625 C 232.5 269.65625 207.238281 291.324219 201.65625 320.019531 C 201.65625 320.019531 323.988281 320.019531 323.988281 320.019531 C 318.421875 291.320312 293.15625 269.65625 262.820312 269.65625 Z M 149.464844 186.613281 C 152.636719 168.496094 168.503906 154.644531 187.507812 154.644531 C 206.527344 154.644531 222.394531 168.496094 225.5625 186.617188 C 231.066406 178.941406 234.304688 169.539062 234.304688 159.375 C 234.304688 133.535156 213.347656 112.605469 187.507812 112.605469 C 161.664062 112.605469 140.734375 133.535156 140.734375 159.375 C 140.734375 169.535156 143.96875 178.941406 149.464844 186.613281 Z M 187.507812 222.449219 C 203.582031 222.449219 216.675781 209.339844 216.675781 193.277344 C 216.675781 177.21875 203.582031 164.109375 187.507812 164.109375 C 171.445312 164.109375 158.355469 177.21875 158.355469 193.277344 C 158.355469 209.339844 171.445312 222.449219 187.507812 222.449219 Z M 187.507812 222.449219 " fill-opacity="1" fill-rule="evenodd"/></g></svg>