<?xml version="1.0" ?><svg id="Layer_1" style="enable-background:new 0 0 256 256;" version="1.1" viewBox="0 0 256 256" xml:space="preserve" xmlns="http://www.w3.org/2000/svg" xmlns:xlink="http://www.w3.org/1999/xlink"><g><path d="M98.3,51.5h5.4c2,9.6,9.6,17.2,19.2,19.2V76c0,2.8,2.3,5.1,5.1,5.1c2.8,0,5.1-2.3,5.1-5.1v-5.4c9.6-2,17.2-9.6,19.2-19.2   h5.4c2.8,0,5.1-2.3,5.1-5.1s-2.3-5.1-5.1-5.1h-5.4c-2-9.6-9.6-17.2-19.2-19.2v-5.4c0-2.8-2.3-5.1-5.1-5.1c-2.8,0-5.1,2.3-5.1,5.1   v5.4c-9.6,2-17.2,9.6-19.2,19.2h-5.4c-2.8,0-5.1,2.3-5.1,5.1S95.5,51.5,98.3,51.5z M128,31.7c8.1,0,14.6,6.6,14.6,14.6   c0,8.1-6.6,14.6-14.6,14.6c-8.1,0-14.6-6.5-14.6-14.6c0,0,0,0,0-0.1c0,0,0,0,0-0.1C113.4,38.3,119.9,31.7,128,31.7z"/><path d="M74,167.6c-2.1,0.5-3.7,2.4-3.8,4.6l-3.8,58c-0.1,2.2-2,4-4.3,4H33.3c-2.2,0-4.1-1.7-4.3-4l-3.8-58   c-0.1-2.1-1.6-3.9-3.6-4.5c-1.1-0.3-4.3-1.3-4.8-1.9c-0.4-0.6-0.6-3.8-0.7-5.6l-3.5-61.5v0c5-1.5,13.1-4.1,17.4-5.4l14.2,13.3   c2,1.8,5,1.8,6.9,0l14.2-13.3c1.3,0.4,3.1,1,5,1.6c2.7,0.9,5.5-0.6,6.4-3.3c0.8-2.7-0.6-5.5-3.3-6.4c-4.3-1.4-7.8-2.5-7.8-2.5   c-1.8-0.6-3.7-0.1-5,1.1L47.7,95.9L34.8,83.9c-1.3-1.3-3.3-1.7-5-1.1c0,0-13.6,4.4-20.5,6.4c-4.3,1.3-6.9,4.7-6.9,9.1   c0,0.3,0,1.1,0,1.1s0,0,0,0L5.9,160c0,0,0,0.9,0.1,1.1c0.6,8.9,1.9,12.2,9.3,15.1l3.6,54.6c0.5,7.6,6.8,13.5,14.4,13.5h28.8   c7.6,0,13.9-5.9,14.4-13.5l3.7-56.6c0.4-1,0.4-2.1,0.1-3.3C79.5,168.4,76.6,166.9,74,167.6z"/><path d="M47.7,74.7c13.7,0,24.8-11.1,24.8-24.8S61.4,25.1,47.7,25.1c-13.7,0-24.8,11.1-24.8,24.8S34,74.7,47.7,74.7z M47.7,35.2   c8.1,0,14.6,6.6,14.6,14.6s-6.6,14.6-14.6,14.6c-8.1,0-14.6-6.6-14.6-14.6S39.6,35.2,47.7,35.2z"/><path d="M166.4,89.2c-6.9-2.1-20.5-6.4-20.5-6.4c-1.8-0.6-3.7-0.1-5,1.1L128,96l-12.9-12.1c-1.3-1.3-3.3-1.7-5-1.1   c0,0-13.6,4.4-20.5,6.4c-4.4,1.3-6.8,4.6-6.8,9.1l3.4,61.8l0.1,1c0.6,8.9,1.9,12.3,9.3,15.1l3.6,54.6c0.5,7.6,6.8,13.5,14.4,13.5   h28.8c7.6,0,13.9-5.9,14.4-13.5l3.6-54.6c7.4-2.9,8.7-6.2,9.3-15.1l3.5-61.9l0-0.9C173.3,93.8,170.8,90.5,166.4,89.2z M159.7,159.4   l-0.1,1c-0.1,1.5-0.3,4.8-0.7,5.4c-0.5,0.6-3.8,1.5-4.8,1.9c-2,0.6-3.4,2.4-3.6,4.5l-3.8,58c-0.1,2.2-2,4-4.3,4h-28.8   c-2.2,0-4.1-1.8-4.3-4l-3.8-58c-0.1-2.1-1.6-3.9-3.6-4.5c-1.1-0.3-4.3-1.3-4.8-1.9c-0.4-0.6-0.6-3.8-0.7-5.4L92.9,99v-0.3   c5-1.5,13.1-4.1,17.4-5.5l14.2,13.3c2,1.8,5,1.8,6.9,0l14.2-13.3c4.3,1.4,12.4,3.9,17.4,5.5L159.7,159.4z"/><path d="M246.7,89.2c-6.9-2.1-20.5-6.4-20.5-6.4c-1.7-0.6-3.7-0.1-5,1.1l-12.9,12.1l-12.9-12.1c-1.3-1.3-3.3-1.7-5-1.1   c0,0-3.5,1.1-7.8,2.5c-2.7,0.8-4.2,3.7-3.3,6.4c0.8,2.7,3.7,4.2,6.4,3.3c1.9-0.6,3.6-1.1,5-1.6l14.2,13.3c2,1.8,5,1.8,6.9,0   L226,93.3c4.2,1.4,12.3,3.9,17.4,5.5l-3.4,60.7l-0.1,1c-0.1,1.6-0.3,4.8-0.7,5.4c-0.5,0.6-3.8,1.6-4.8,1.9c-2,0.6-3.4,2.4-3.6,4.5   l-3.8,58c-0.2,2.3-2,4-4.3,4h-28.9c-2.2,0-4.1-1.8-4.2-4l-3.8-58c-0.1-2-1.8-3.9-3.7-4.6c-2.6-0.9-5.4,0.6-6.3,3.2   c-0.3,1-0.3,2,0,3l3.8,57c0.5,7.6,6.8,13.5,14.4,13.5h28.9c7.5,0,13.9-5.9,14.4-13.5l3.6-54.6c7.4-2.9,8.7-6.2,9.3-14.9   c0-0.4,0.1-1.3,0.1-1.3l3.4-60.9v-0.8C253.5,93.9,251,90.5,246.7,89.2z"/><path d="M208.3,74.7c13.7,0,24.8-11.1,24.8-24.8S222,25.1,208.3,25.1c-13.7,0-24.8,11.1-24.8,24.8S194.6,74.7,208.3,74.7z    M208.3,35.2c8.1,0,14.6,6.6,14.6,14.6s-6.6,14.6-14.6,14.6c-8.1,0-14.6-6.6-14.6-14.6S200.2,35.2,208.3,35.2z"/></g></svg>