<svg xmlns="http://www.w3.org/2000/svg" xmlns:xlink="http://www.w3.org/1999/xlink" width="500" zoomAndPan="magnify" viewBox="0 0 375 374.999991" height="500" preserveAspectRatio="xMidYMid meet" version="1.0"><defs><clipPath id="69bd8f2b1a"><path d="M 237 124.5 L 276.65625 124.5 L 276.65625 164 L 237 164 Z M 237 124.5 " clip-rule="nonzero"/></clipPath><clipPath id="c8e0068667"><path d="M 237 172 L 276.65625 172 L 276.65625 212 L 237 212 Z M 237 172 " clip-rule="nonzero"/></clipPath><clipPath id="f63144fbab"><path d="M 126.65625 145 L 203 145 L 203 239 L 126.65625 239 Z M 126.65625 145 " clip-rule="nonzero"/></clipPath><clipPath id="ce493b7e79"><path d="M 237 220 L 276.65625 220 L 276.65625 259.5 L 237 259.5 Z M 237 220 " clip-rule="nonzero"/></clipPath></defs><path fill="#000000" d="M 225.296875 195.054688 L 225.296875 229.078125 C 225.296875 233.367188 228.777344 236.851562 233.054688 236.851562 L 234.363281 236.851562 C 234.234375 237.855469 234.160156 238.878906 234.160156 239.917969 C 234.160156 240.953125 234.230469 241.976562 234.359375 242.976562 L 233.050781 242.976562 C 225.398438 242.976562 219.171875 236.742188 219.171875 229.078125 L 219.171875 195.054688 L 206.566406 195.054688 L 206.566406 188.933594 L 219.171875 188.933594 L 219.171875 154.90625 C 219.171875 147.242188 225.398438 141.007812 233.050781 141.007812 L 234.359375 141.007812 C 234.230469 142.011719 234.15625 143.03125 234.15625 144.074219 C 234.15625 145.113281 234.226562 146.132812 234.359375 147.136719 L 233.046875 147.136719 C 228.765625 147.136719 225.289062 150.625 225.289062 154.90625 L 225.289062 188.933594 L 234.359375 188.933594 C 234.226562 189.933594 234.152344 190.957031 234.152344 191.996094 C 234.152344 193.035156 234.222656 194.054688 234.359375 195.058594 L 225.296875 195.058594 Z M 225.296875 195.054688 " fill-opacity="1" fill-rule="evenodd"/><g clip-path="url(#69bd8f2b1a)"><path fill="#000000" d="M 237.75 144.074219 C 237.75 154.808594 246.472656 163.546875 257.199219 163.546875 C 267.921875 163.546875 276.644531 154.8125 276.644531 144.074219 C 276.644531 133.332031 267.921875 124.597656 257.199219 124.597656 C 246.476562 124.597656 237.753906 133.332031 237.75 144.070312 C 237.75 144.074219 237.75 144.074219 237.75 144.074219 Z M 252.792969 152.753906 C 252.335938 152.753906 251.882812 152.582031 251.535156 152.238281 L 246.554688 147.25 C 245.859375 146.554688 245.859375 145.429688 246.554688 144.734375 C 247.25 144.039062 248.375 144.039062 249.070312 144.734375 L 252.792969 148.460938 L 265.328125 135.90625 C 266.019531 135.210938 267.144531 135.210938 267.839844 135.90625 C 268.535156 136.605469 268.535156 137.730469 267.839844 138.425781 L 254.050781 152.234375 C 253.703125 152.582031 253.246094 152.753906 252.792969 152.753906 Z M 252.792969 152.753906 " fill-opacity="1" fill-rule="evenodd"/></g><g clip-path="url(#c8e0068667)"><path fill="#000000" d="M 257.195312 172.523438 C 246.472656 172.523438 237.746094 181.257812 237.746094 191.996094 C 237.746094 202.734375 246.46875 211.472656 257.195312 211.472656 C 267.917969 211.472656 276.640625 202.738281 276.640625 191.996094 C 276.640625 181.257812 267.921875 172.523438 257.195312 172.523438 Z M 252.789062 196.382812 L 265.324219 183.832031 C 266.015625 183.136719 267.140625 183.136719 267.835938 183.832031 C 268.53125 184.527344 268.53125 185.65625 267.835938 186.351562 L 254.046875 200.15625 C 253.703125 200.503906 253.25 200.679688 252.796875 200.679688 C 252.339844 200.679688 251.886719 200.503906 251.539062 200.160156 L 246.558594 195.175781 C 245.863281 194.480469 245.863281 193.351562 246.558594 192.65625 C 247.253906 191.960938 248.378906 191.960938 249.074219 192.65625 Z M 252.789062 196.382812 " fill-opacity="1" fill-rule="evenodd"/></g><g clip-path="url(#f63144fbab)"><path fill="#000000" d="M 192.234375 174.183594 L 137.390625 174.183594 C 136.410156 174.183594 135.613281 173.386719 135.613281 172.402344 C 135.613281 171.417969 136.410156 170.625 137.390625 170.625 L 192.238281 170.625 C 193.222656 170.625 194.015625 171.417969 194.015625 172.402344 C 194.015625 173.386719 193.21875 174.183594 192.234375 174.183594 Z M 192.234375 161.121094 L 137.390625 161.121094 C 136.410156 161.121094 135.613281 160.324219 135.613281 159.339844 C 135.613281 158.355469 136.410156 157.558594 137.390625 157.558594 L 192.238281 157.558594 C 193.222656 157.558594 194.015625 158.355469 194.015625 159.339844 C 194.015625 160.324219 193.21875 161.121094 192.234375 161.121094 Z M 196.027344 145.851562 L 133.605469 145.851562 C 129.765625 145.851562 126.640625 148.980469 126.640625 152.820312 L 126.640625 231.164062 C 126.640625 235.011719 129.765625 238.136719 133.605469 238.136719 L 196.023438 238.136719 C 199.863281 238.136719 202.984375 235.007812 202.984375 231.164062 L 202.984375 152.824219 C 202.984375 148.976562 199.859375 145.851562 196.027344 145.851562 Z M 192.234375 183.683594 C 193.21875 183.683594 194.015625 184.480469 194.015625 185.464844 C 194.015625 186.445312 193.21875 187.242188 192.234375 187.242188 L 137.390625 187.242188 C 136.410156 187.242188 135.613281 186.445312 135.613281 185.464844 C 135.613281 184.480469 136.410156 183.683594 137.390625 183.683594 Z M 137.390625 196.746094 L 192.238281 196.746094 C 193.222656 196.746094 194.015625 197.542969 194.015625 198.527344 C 194.015625 199.511719 193.222656 200.308594 192.238281 200.308594 L 137.390625 200.308594 C 136.410156 200.308594 135.613281 199.511719 135.613281 198.527344 C 135.613281 197.542969 136.410156 196.746094 137.390625 196.746094 Z M 137.390625 209.804688 L 192.238281 209.804688 C 193.222656 209.804688 194.015625 210.601562 194.015625 211.585938 C 194.015625 212.570312 193.222656 213.367188 192.238281 213.367188 L 137.390625 213.367188 C 136.410156 213.367188 135.613281 212.570312 135.613281 211.585938 C 135.613281 210.601562 136.410156 209.804688 137.390625 209.804688 Z M 137.390625 222.871094 L 192.238281 222.871094 C 193.222656 222.871094 194.015625 223.664062 194.015625 224.648438 C 194.015625 225.632812 193.222656 226.429688 192.238281 226.429688 L 137.390625 226.429688 C 136.410156 226.429688 135.613281 225.632812 135.613281 224.648438 C 135.613281 223.664062 136.410156 222.871094 137.390625 222.871094 Z M 137.390625 222.871094 " fill-opacity="1" fill-rule="evenodd"/></g><g clip-path="url(#ce493b7e79)"><path fill="#000000" d="M 257.195312 220.445312 C 246.472656 220.445312 237.746094 229.179688 237.746094 239.921875 C 237.746094 250.660156 246.46875 259.394531 257.195312 259.394531 C 267.917969 259.394531 276.640625 250.660156 276.640625 239.921875 C 276.640625 229.179688 267.921875 220.445312 257.195312 220.445312 Z M 249.066406 240.578125 L 252.789062 244.304688 L 265.324219 231.753906 C 266.015625 231.058594 267.140625 231.058594 267.835938 231.753906 C 268.53125 232.449219 268.53125 233.574219 267.835938 234.269531 L 254.046875 248.078125 C 253.703125 248.425781 253.25 248.597656 252.796875 248.597656 C 252.339844 248.597656 251.886719 248.425781 251.539062 248.082031 L 246.550781 243.09375 C 245.859375 242.398438 245.859375 241.273438 246.550781 240.578125 C 247.246094 239.882812 248.375 239.882812 249.066406 240.578125 Z M 249.066406 240.578125 " fill-opacity="1" fill-rule="evenodd"/></g></svg>