<svg xmlns="http://www.w3.org/2000/svg" xmlns:xlink="http://www.w3.org/1999/xlink" width="500" zoomAndPan="magnify" viewBox="0 0 375 374.999991" height="500" preserveAspectRatio="xMidYMid meet" version="1.0"><defs><clipPath id="39328cd163"><path d="M 50.125 50 L 320 50 L 320 321 L 50.125 321 Z M 50.125 50 " clip-rule="nonzero"/></clipPath></defs><g clip-path="url(#39328cd163)"><path fill="#ffffff" d="M 172.902344 214.6875 C 171.710938 212.535156 172.546875 209.851562 174.695312 208.714844 C 176.84375 207.582031 179.527344 208.359375 180.722656 210.507812 L 180.960938 210.925781 L 180.960938 187.585938 C 180.960938 185.140625 182.929688 183.109375 185.378906 183.109375 C 187.824219 183.109375 189.855469 185.082031 189.855469 187.585938 L 189.855469 210.925781 L 190.09375 210.507812 C 191.226562 208.359375 193.914062 207.523438 196.0625 208.714844 C 198.210938 209.910156 199.046875 212.535156 197.851562 214.6875 L 189.316406 230.5625 C 187.644531 233.726562 183.167969 233.726562 181.5 230.621094 Z M 192.363281 71.375 L 212.835938 71.375 C 214.148438 68.746094 214.984375 65.824219 215.519531 62.839844 C 213.671875 62.480469 211.878906 61.765625 210.269531 60.75 C 205.554688 63.851562 199.585938 63.851562 194.867188 60.75 C 193.257812 61.824219 191.464844 62.480469 189.617188 62.839844 C 190.152344 65.824219 191.046875 68.746094 192.363281 71.375 Z M 221.609375 73.402344 C 225.90625 76.386719 227.699219 81.878906 225.789062 86.832031 C 234.324219 92.085938 241.722656 100.261719 246.917969 111.542969 C 251.691406 122.050781 254.558594 135.179688 254.378906 150.996094 C 263.210938 153.683594 263.152344 167.589844 253.542969 168.90625 C 229.128906 172.1875 208.476562 173.976562 184.421875 172.546875 C 179.410156 182.394531 160.785156 185.378906 148.910156 185.378906 C 139.476562 185.378906 130.824219 183.828125 124.496094 181.261719 C 116.976562 178.214844 112.261719 173.558594 112.261719 168.007812 L 112.261719 106.53125 C 112.261719 100.917969 116.976562 96.324219 124.496094 93.277344 C 137.566406 88.027344 157.5625 87.847656 171.171875 92.503906 C 173.679688 90.175781 176.367188 88.207031 179.230469 86.476562 C 177.558594 81.582031 179.410156 76.269531 183.585938 73.402344 C 181.675781 68.808594 180.542969 63.671875 180.246094 58.539062 C 180.066406 55.617188 182.753906 53.167969 185.976562 54.0625 C 188.003906 54.601562 190.214844 53.644531 191.527344 52.09375 C 193.316406 49.945312 196.539062 50.003906 198.332031 52.152344 C 200.660156 54.960938 204.539062 54.960938 206.925781 52.09375 C 208.714844 49.945312 211.941406 50.003906 213.730469 52.152344 C 215.101562 53.824219 217.3125 54.660156 219.402344 54.0625 C 222.324219 53.226562 225.191406 55.617188 225.011719 58.601562 C 224.59375 63.734375 223.519531 68.808594 221.609375 73.402344 Z M 219.402344 93.398438 C 218.085938 93.9375 216.59375 94.234375 215.101562 94.234375 L 190.035156 94.234375 C 188.363281 94.234375 186.75 93.875 185.320312 93.21875 C 183.347656 94.292969 181.5 95.429688 179.707031 96.800781 C 183.347656 99.488281 185.4375 102.828125 185.4375 106.589844 L 185.4375 163.769531 C 208.597656 165.144531 228.472656 163.355469 251.992188 160.191406 C 251.992188 159.292969 251.453125 159.535156 249.78125 159.535156 C 247.214844 159.472656 245.246094 157.382812 245.363281 154.9375 C 246.082031 138.703125 243.457031 125.511719 238.800781 115.304688 C 234.085938 104.917969 227.21875 97.636719 219.402344 93.398438 Z M 215.101562 80.265625 L 190.035156 80.265625 C 187.707031 80.265625 186.511719 83.191406 188.421875 84.804688 C 188.839844 85.160156 189.4375 85.339844 190.035156 85.339844 L 215.101562 85.339844 C 217.3125 85.339844 218.566406 82.65625 216.894531 80.984375 C 216.417969 80.566406 215.820312 80.265625 215.101562 80.265625 Z M 247.871094 214.089844 C 247.8125 211.640625 249.722656 209.613281 252.167969 209.550781 C 254.617188 209.492188 256.644531 211.402344 256.707031 213.851562 L 257.242188 231.875 C 257.304688 235.398438 253.484375 237.664062 250.378906 235.695312 L 235.097656 226.265625 C 233.007812 224.953125 232.351562 222.265625 233.667969 220.175781 C 234.980469 218.085938 237.664062 217.429688 239.753906 218.746094 L 240.230469 219.042969 L 221.609375 187.109375 C 220.414062 185.019531 221.070312 182.273438 223.222656 181.082031 C 225.308594 179.828125 228.054688 180.542969 229.25 182.691406 L 247.8125 214.566406 L 247.8125 214.089844 Z M 107.066406 212.953125 C 107.125 210.507812 109.15625 208.597656 111.601562 208.65625 C 114.050781 208.714844 115.960938 210.746094 115.902344 213.195312 L 115.902344 214.027344 L 128.316406 191.882812 C 129.511719 189.734375 132.195312 189.019531 134.34375 190.214844 C 136.492188 191.40625 137.210938 194.09375 136.015625 196.242188 L 123.78125 218.027344 C 126.109375 216.59375 128.734375 217.191406 130.046875 219.339844 C 131.359375 221.429688 130.703125 224.175781 128.613281 225.429688 L 113.273438 234.859375 C 110.230469 236.828125 106.351562 234.503906 106.46875 231.039062 Z M 257.363281 273.898438 C 256.347656 262.375 264.882812 252.230469 276.402344 251.214844 C 287.921875 250.199219 298.070312 258.796875 299.085938 270.316406 C 299.5625 275.984375 297.773438 281.359375 294.371094 285.417969 C 299.085938 287.566406 303.261719 290.609375 306.785156 294.371094 C 314.363281 280.699219 311.261719 263.511719 299.265625 253.421875 C 285.417969 241.84375 264.765625 243.632812 253.183594 257.421875 C 244.53125 267.75 243.039062 282.550781 249.601562 294.371094 C 253.125 290.609375 257.304688 287.566406 262.019531 285.417969 C 259.390625 282.191406 257.722656 278.253906 257.363281 273.898438 Z M 285.714844 291.683594 C 283.925781 292.339844 282.015625 292.816406 280.042969 292.996094 C 276.820312 293.296875 273.65625 292.816406 270.734375 291.683594 C 267.332031 292.578125 264.105469 294.011719 261.300781 295.921875 C 258.972656 297.535156 256.824219 299.382812 255.035156 301.53125 C 267.75 314.304688 288.578125 314.367188 301.351562 301.53125 C 297.355469 296.699219 291.804688 293.234375 285.714844 291.683594 Z M 268.941406 264.285156 C 262.078125 272.464844 268.464844 285.058594 279.269531 284.164062 C 290.011719 283.207031 294.191406 269.71875 286.011719 262.855469 C 280.878906 258.558594 273.238281 259.214844 268.941406 264.285156 Z M 236.769531 282.015625 C 235.816406 270.613281 239.515625 259.808594 246.378906 251.691406 C 261.121094 234.144531 287.386719 231.816406 304.992188 246.617188 C 322.542969 261.363281 324.871094 287.625 310.066406 305.171875 C 295.324219 322.78125 269.0625 325.050781 251.511719 310.304688 C 243.335938 303.441406 237.785156 293.472656 236.769531 282.015625 Z M 164.488281 273.898438 C 163.472656 262.375 172.007812 252.230469 183.527344 251.214844 C 194.988281 250.199219 205.195312 258.734375 206.210938 270.316406 C 206.6875 275.984375 204.894531 281.359375 201.496094 285.417969 C 206.210938 287.566406 210.386719 290.609375 213.910156 294.371094 C 221.550781 280.640625 218.328125 263.449219 206.386719 253.421875 C 192.539062 241.84375 171.886719 243.632812 160.308594 257.421875 C 151.652344 267.75 150.160156 282.550781 156.726562 294.371094 C 160.25 290.609375 164.425781 287.566406 169.144531 285.417969 C 166.578125 282.191406 164.90625 278.253906 164.488281 273.898438 Z M 192.898438 291.683594 C 191.109375 292.339844 189.199219 292.816406 187.230469 292.996094 C 184.003906 293.296875 180.84375 292.816406 177.976562 291.683594 C 174.515625 292.578125 171.351562 294.011719 168.546875 295.921875 C 166.21875 297.535156 164.070312 299.382812 162.277344 301.53125 C 174.992188 314.304688 195.824219 314.367188 208.597656 301.53125 C 204.480469 296.699219 198.988281 293.234375 192.898438 291.683594 Z M 176.125 264.285156 C 169.261719 272.464844 175.707031 285.058594 186.453125 284.164062 C 197.257812 283.207031 201.375 269.71875 193.199219 262.855469 C 188.0625 258.558594 180.425781 259.214844 176.125 264.285156 Z M 143.953125 282.015625 C 143 270.613281 146.699219 259.808594 153.5625 251.691406 C 168.308594 234.144531 194.570312 231.816406 212.179688 246.617188 C 229.726562 261.363281 232.054688 287.625 217.25 305.171875 C 202.507812 322.78125 176.246094 325.050781 158.699219 310.304688 C 150.460938 303.441406 144.96875 293.472656 143.953125 282.015625 Z M 71.671875 273.898438 C 70.65625 262.375 79.191406 252.230469 90.710938 251.214844 C 102.171875 250.199219 112.378906 258.734375 113.394531 270.316406 C 113.871094 275.984375 112.082031 281.359375 108.679688 285.417969 C 113.394531 287.566406 117.570312 290.609375 121.09375 294.371094 C 128.734375 280.640625 125.511719 263.449219 113.574219 253.421875 C 99.726562 241.84375 79.074219 243.632812 67.492188 257.421875 C 58.839844 267.6875 57.285156 282.492188 63.914062 294.371094 C 67.433594 290.609375 71.613281 287.566406 76.328125 285.417969 C 73.761719 282.191406 72.03125 278.253906 71.671875 273.898438 Z M 100.023438 291.683594 C 98.234375 292.339844 96.324219 292.816406 94.351562 292.996094 C 91.070312 293.296875 87.90625 292.816406 85.042969 291.683594 C 81.578125 292.578125 78.417969 294.011719 75.609375 295.921875 C 73.285156 297.535156 71.132812 299.382812 69.34375 301.53125 C 82.058594 314.304688 102.890625 314.367188 115.664062 301.53125 C 111.664062 296.699219 106.171875 293.234375 100.023438 291.683594 Z M 83.3125 264.285156 C 76.445312 272.464844 82.894531 285.058594 93.636719 284.164062 C 104.441406 283.207031 108.558594 269.71875 100.382812 262.855469 C 95.25 258.558594 87.550781 259.214844 83.3125 264.285156 Z M 51.140625 282.015625 C 50.125 270.554688 53.882812 259.808594 60.6875 251.632812 C 75.433594 234.085938 101.695312 231.757812 119.304688 246.558594 C 136.910156 261.300781 139.179688 287.566406 124.4375 305.113281 C 109.691406 322.722656 83.429688 324.988281 65.820312 310.246094 C 57.644531 303.441406 52.09375 293.472656 51.140625 282.015625 Z M 176.605469 118.347656 C 162.457031 125.871094 135.238281 125.871094 121.152344 118.347656 L 121.152344 127.121094 C 121.152344 128.675781 123.71875 130.523438 127.777344 132.136719 C 139.238281 136.792969 158.519531 136.792969 169.980469 132.136719 C 174.097656 130.523438 176.605469 128.675781 176.605469 127.121094 Z M 169.980469 101.515625 C 158.519531 96.921875 139.238281 96.921875 127.777344 101.515625 C 123.660156 103.1875 121.152344 104.976562 121.152344 106.589844 C 121.152344 108.203125 123.71875 109.992188 127.777344 111.664062 C 139.238281 116.257812 158.519531 116.257812 169.980469 111.664062 C 174.097656 109.992188 176.605469 108.203125 176.605469 106.589844 C 176.605469 104.800781 173.5 102.949219 169.980469 101.515625 Z M 176.605469 138.820312 C 162.457031 146.402344 135.238281 146.402344 121.152344 138.820312 L 121.152344 147.597656 C 121.152344 149.207031 123.71875 150.996094 127.777344 152.667969 C 139.238281 157.265625 158.519531 157.265625 169.980469 152.667969 C 174.097656 150.996094 176.605469 149.207031 176.605469 147.597656 Z M 176.605469 159.292969 C 162.457031 166.875 135.238281 166.875 121.152344 159.292969 L 121.152344 168.070312 C 121.152344 169.679688 123.71875 171.472656 127.777344 173.140625 C 139.238281 177.738281 158.519531 177.738281 169.980469 173.140625 C 174.097656 171.472656 176.605469 169.679688 176.605469 168.070312 Z M 210.984375 150.996094 L 210.984375 153.921875 C 210.984375 156.371094 209.015625 158.339844 206.566406 158.339844 C 204.121094 158.339844 202.152344 156.371094 202.152344 153.921875 L 202.152344 150.996094 C 196.242188 149.089844 192.125 143.597656 192.125 137.210938 C 192.125 134.761719 194.09375 132.792969 196.539062 132.792969 C 198.988281 132.792969 200.957031 134.761719 200.957031 137.210938 C 200.957031 142.164062 206.984375 144.671875 210.507812 141.148438 C 211.523438 140.132812 212.117188 138.761719 212.117188 137.210938 C 212.117188 133.089844 208.777344 132.316406 205.492188 131.480469 C 198.75 129.867188 192.0625 128.257812 192.0625 117.15625 C 192.0625 110.769531 196.183594 105.277344 202.089844 103.367188 L 202.089844 100.441406 C 202.089844 97.996094 204.0625 96.023438 206.507812 96.023438 C 208.957031 96.023438 210.925781 97.996094 210.925781 100.441406 L 210.925781 103.367188 C 216.835938 105.277344 220.953125 110.769531 220.953125 117.15625 C 220.953125 119.601562 218.984375 121.570312 216.535156 121.570312 C 214.089844 121.570312 212.117188 119.601562 212.117188 117.15625 C 212.117188 112.199219 206.089844 109.695312 202.570312 113.214844 C 201.554688 114.230469 200.957031 115.601562 200.957031 117.15625 C 200.957031 121.273438 204.300781 122.050781 207.582031 122.882812 C 214.328125 124.496094 221.011719 126.109375 221.011719 137.210938 C 221.011719 143.597656 216.894531 149.089844 210.984375 150.996094 Z M 210.984375 150.996094 " fill-opacity="1" fill-rule="nonzero"/></g></svg>