<svg xmlns="http://www.w3.org/2000/svg" xmlns:xlink="http://www.w3.org/1999/xlink" width="500" zoomAndPan="magnify" viewBox="0 0 375 374.999991" height="500" preserveAspectRatio="xMidYMid meet" version="1.0"><defs><clipPath id="781d6f4f6f"><path d="M 163 205 L 212 205 L 212 253.5 L 163 253.5 Z M 163 205 " clip-rule="nonzero"/></clipPath><clipPath id="b418dc8f00"><path d="M 220 232 L 262.5 232 L 262.5 253.5 L 220 253.5 Z M 220 232 " clip-rule="nonzero"/></clipPath><clipPath id="cf70bda191"><path d="M 112.5 232 L 155 232 L 155 253.5 L 112.5 253.5 Z M 112.5 232 " clip-rule="nonzero"/></clipPath><clipPath id="c228322c85"><path d="M 178 121.5 L 209 121.5 L 209 128 L 178 128 Z M 178 121.5 " clip-rule="nonzero"/></clipPath></defs><g clip-path="url(#781d6f4f6f)"><path fill="#000000" d="M 187.5 205.5 C 174.265625 205.5 163.5 216.265625 163.5 229.5 C 163.5 242.734375 174.265625 253.5 187.5 253.5 C 200.734375 253.5 211.5 242.734375 211.5 229.5 C 211.5 216.265625 200.734375 205.5 187.5 205.5 Z M 198.621094 225.621094 L 186.621094 237.621094 C 185.464844 238.777344 183.449219 238.691406 182.378906 237.621094 C 182.359375 237.597656 176.378906 231.621094 176.378906 231.621094 C 175.207031 230.449219 175.207031 228.550781 176.378906 227.378906 C 177.550781 226.207031 179.449219 226.207031 180.621094 227.378906 L 184.5 231.257812 L 194.378906 221.378906 C 195.550781 220.207031 197.449219 220.207031 198.621094 221.378906 C 199.792969 222.550781 199.792969 224.449219 198.621094 225.621094 Z M 198.621094 225.621094 " fill-opacity="1" fill-rule="nonzero"/></g><path fill="#000000" d="M 229.5 163.5 L 235.5 163.5 C 237.15625 163.5 238.5 164.84375 238.5 166.5 L 238.5 195.257812 L 237.621094 194.378906 C 236.449219 193.207031 234.550781 193.207031 233.378906 194.378906 C 232.207031 195.550781 232.207031 197.449219 233.378906 198.621094 C 233.378906 198.621094 239.371094 204.613281 239.378906 204.621094 C 240.550781 205.792969 242.457031 205.785156 243.621094 204.621094 L 249.621094 198.621094 C 250.792969 197.449219 250.792969 195.550781 249.621094 194.378906 C 248.449219 193.207031 246.550781 193.207031 245.378906 194.378906 L 244.5 195.257812 L 244.5 166.5 C 244.5 161.535156 240.460938 157.5 235.5 157.5 L 229.5 157.5 C 227.84375 157.5 226.5 158.839844 226.5 160.5 C 226.5 162.15625 227.84375 163.5 229.5 163.5 Z M 229.5 163.5 " fill-opacity="1" fill-rule="nonzero"/><path fill="#000000" d="M 131.378906 204.621094 C 132.476562 205.71875 134.429688 205.8125 135.621094 204.621094 L 141.621094 198.621094 C 142.792969 197.449219 142.792969 195.550781 141.621094 194.378906 C 140.449219 193.207031 138.550781 193.207031 137.378906 194.378906 L 136.5 195.257812 L 136.5 166.5 C 136.5 164.84375 137.84375 163.5 139.5 163.5 L 145.5 163.5 C 147.160156 163.5 148.5 162.15625 148.5 160.5 C 148.5 158.839844 147.160156 157.5 145.5 157.5 L 139.5 157.5 C 134.535156 157.5 130.5 161.535156 130.5 166.5 L 130.5 195.257812 L 129.621094 194.378906 C 128.449219 193.207031 126.550781 193.207031 125.378906 194.378906 C 124.207031 195.550781 124.207031 197.449219 125.378906 198.621094 C 125.378906 198.621094 131.359375 204.601562 131.378906 204.621094 Z M 131.378906 204.621094 " fill-opacity="1" fill-rule="nonzero"/><path fill="#000000" d="M 252 222 C 252 222.6875 251.933594 223.371094 251.796875 224.046875 C 251.664062 224.726562 251.464844 225.382812 251.199219 226.019531 C 250.9375 226.65625 250.613281 227.261719 250.230469 227.832031 C 249.847656 228.40625 249.410156 228.9375 248.925781 229.425781 C 248.4375 229.910156 247.90625 230.347656 247.332031 230.730469 C 246.761719 231.113281 246.15625 231.4375 245.519531 231.699219 C 244.882812 231.964844 244.226562 232.164062 243.546875 232.296875 C 242.871094 232.433594 242.1875 232.5 241.5 232.5 C 240.8125 232.5 240.128906 232.433594 239.453125 232.296875 C 238.773438 232.164062 238.117188 231.964844 237.480469 231.699219 C 236.84375 231.4375 236.238281 231.113281 235.667969 230.730469 C 235.09375 230.347656 234.5625 229.910156 234.074219 229.425781 C 233.585938 228.9375 233.152344 228.40625 232.769531 227.832031 C 232.386719 227.261719 232.0625 226.65625 231.800781 226.019531 C 231.535156 225.382812 231.335938 224.726562 231.203125 224.046875 C 231.066406 223.371094 231 222.6875 231 222 C 231 221.3125 231.066406 220.628906 231.203125 219.953125 C 231.335938 219.273438 231.535156 218.617188 231.800781 217.980469 C 232.0625 217.34375 232.386719 216.738281 232.769531 216.167969 C 233.152344 215.59375 233.585938 215.0625 234.074219 214.574219 C 234.5625 214.085938 235.09375 213.652344 235.667969 213.269531 C 236.238281 212.886719 236.84375 212.5625 237.480469 212.300781 C 238.117188 212.035156 238.773438 211.835938 239.453125 211.703125 C 240.128906 211.566406 240.8125 211.5 241.5 211.5 C 242.1875 211.5 242.871094 211.566406 243.546875 211.703125 C 244.226562 211.835938 244.882812 212.035156 245.519531 212.300781 C 246.15625 212.5625 246.761719 212.886719 247.332031 213.269531 C 247.90625 213.652344 248.4375 214.085938 248.925781 214.574219 C 249.410156 215.0625 249.847656 215.59375 250.230469 216.167969 C 250.613281 216.738281 250.9375 217.34375 251.199219 217.980469 C 251.464844 218.617188 251.664062 219.273438 251.796875 219.953125 C 251.933594 220.628906 252 221.3125 252 222 Z M 252 222 " fill-opacity="1" fill-rule="nonzero"/><g clip-path="url(#b418dc8f00)"><path fill="#000000" d="M 255.238281 232.320312 C 255 232.230469 254.789062 232.140625 254.550781 232.050781 C 252.121094 235.230469 248.578125 237.480469 244.5 238.230469 L 244.5 241.5 C 244.5 243.148438 243.148438 244.5 241.5 244.5 C 239.851562 244.5 238.5 243.148438 238.5 241.5 L 238.5 238.230469 C 234.421875 237.480469 230.878906 235.230469 228.449219 232.050781 C 228.210938 232.140625 228 232.230469 227.761719 232.320312 C 223.351562 234.210938 220.5 238.558594 220.5 243.390625 L 220.5 250.5 C 220.5 252.148438 221.851562 253.5 223.5 253.5 L 259.5 253.5 C 261.148438 253.5 262.5 252.148438 262.5 250.5 L 262.5 243.390625 C 262.5 238.558594 259.648438 234.210938 255.238281 232.320312 Z M 255.238281 232.320312 " fill-opacity="1" fill-rule="nonzero"/></g><path fill="#000000" d="M 144 222 C 144 222.6875 143.933594 223.371094 143.796875 224.046875 C 143.664062 224.726562 143.464844 225.382812 143.199219 226.019531 C 142.9375 226.65625 142.613281 227.261719 142.230469 227.832031 C 141.847656 228.40625 141.414062 228.9375 140.925781 229.425781 C 140.4375 229.910156 139.90625 230.347656 139.332031 230.730469 C 138.761719 231.113281 138.15625 231.4375 137.519531 231.699219 C 136.882812 231.964844 136.226562 232.164062 135.546875 232.296875 C 134.871094 232.433594 134.1875 232.5 133.5 232.5 C 132.8125 232.5 132.128906 232.433594 131.453125 232.296875 C 130.773438 232.164062 130.117188 231.964844 129.480469 231.699219 C 128.84375 231.4375 128.238281 231.113281 127.667969 230.730469 C 127.09375 230.347656 126.5625 229.910156 126.074219 229.425781 C 125.585938 228.9375 125.152344 228.40625 124.769531 227.832031 C 124.386719 227.261719 124.0625 226.65625 123.800781 226.019531 C 123.535156 225.382812 123.335938 224.726562 123.203125 224.046875 C 123.066406 223.371094 123 222.6875 123 222 C 123 221.3125 123.066406 220.628906 123.203125 219.953125 C 123.335938 219.273438 123.535156 218.617188 123.800781 217.980469 C 124.0625 217.34375 124.386719 216.738281 124.769531 216.167969 C 125.152344 215.59375 125.585938 215.0625 126.074219 214.574219 C 126.5625 214.085938 127.09375 213.652344 127.667969 213.269531 C 128.238281 212.886719 128.84375 212.5625 129.480469 212.300781 C 130.117188 212.035156 130.773438 211.835938 131.453125 211.703125 C 132.128906 211.566406 132.8125 211.5 133.5 211.5 C 134.1875 211.5 134.871094 211.566406 135.546875 211.703125 C 136.226562 211.835938 136.882812 212.035156 137.519531 212.300781 C 138.15625 212.5625 138.761719 212.886719 139.332031 213.269531 C 139.90625 213.652344 140.4375 214.085938 140.925781 214.574219 C 141.414062 215.0625 141.847656 215.59375 142.230469 216.167969 C 142.613281 216.738281 142.9375 217.34375 143.199219 217.980469 C 143.464844 218.617188 143.664062 219.273438 143.796875 219.953125 C 143.933594 220.628906 144 221.3125 144 222 Z M 144 222 " fill-opacity="1" fill-rule="nonzero"/><g clip-path="url(#cf70bda191)"><path fill="#000000" d="M 147.238281 232.320312 C 147 232.230469 146.789062 232.140625 146.550781 232.050781 C 144.121094 235.230469 140.578125 237.480469 136.5 238.230469 L 136.5 241.5 C 136.5 243.148438 135.148438 244.5 133.5 244.5 C 131.851562 244.5 130.5 243.148438 130.5 241.5 L 130.5 238.230469 C 126.421875 237.480469 122.878906 235.230469 120.449219 232.050781 C 120.210938 232.140625 120 232.230469 119.761719 232.320312 C 115.351562 234.210938 112.5 238.558594 112.5 243.390625 L 112.5 250.5 C 112.5 252.148438 113.851562 253.5 115.5 253.5 L 151.5 253.5 C 153.148438 253.5 154.5 252.148438 154.5 250.5 L 154.5 243.390625 C 154.5 238.558594 151.648438 234.210938 147.238281 232.320312 Z M 147.238281 232.320312 " fill-opacity="1" fill-rule="nonzero"/></g><g clip-path="url(#c228322c85)"><path fill="#000000" d="M 208.5 124.5 C 208.5 122.851562 207.148438 121.5 205.5 121.5 L 178.5 121.5 L 178.5 127.5 L 208.5 127.5 Z M 208.5 124.5 " fill-opacity="1" fill-rule="nonzero"/></g><path fill="#000000" d="M 154.5 184.5 C 154.5 186.148438 155.851562 187.5 157.5 187.5 L 160.5 187.5 L 160.5 145.5 L 154.5 145.5 Z M 154.5 184.5 " fill-opacity="1" fill-rule="nonzero"/><path fill="#000000" d="M 172.5 123.257812 L 156.257812 139.5 L 172.5 139.5 Z M 172.5 123.257812 " fill-opacity="1" fill-rule="nonzero"/><path fill="#000000" d="M 220.5 136.5 C 220.5 134.851562 219.148438 133.5 217.5 133.5 L 178.5 133.5 L 178.5 142.5 C 178.5 144.15625 177.15625 145.5 175.5 145.5 L 166.5 145.5 L 166.5 196.5 C 166.5 198.148438 167.851562 199.5 169.5 199.5 L 217.5 199.5 C 219.148438 199.5 220.5 198.148438 220.5 196.5 Z M 205.5 187.5 L 181.5 187.5 C 179.839844 187.5 178.5 186.15625 178.5 184.5 C 178.5 182.839844 179.839844 181.5 181.5 181.5 L 205.5 181.5 C 207.15625 181.5 208.5 182.839844 208.5 184.5 C 208.5 186.15625 207.15625 187.5 205.5 187.5 Z M 205.5 175.5 L 181.5 175.5 C 179.839844 175.5 178.5 174.15625 178.5 172.5 C 178.5 170.839844 179.839844 169.5 181.5 169.5 L 205.5 169.5 C 207.15625 169.5 208.5 170.839844 208.5 172.5 C 208.5 174.15625 207.15625 175.5 205.5 175.5 Z M 205.5 163.5 L 181.5 163.5 C 179.839844 163.5 178.5 162.15625 178.5 160.5 C 178.5 158.839844 179.839844 157.5 181.5 157.5 L 205.5 157.5 C 207.15625 157.5 208.5 158.839844 208.5 160.5 C 208.5 162.15625 207.15625 163.5 205.5 163.5 Z M 205.5 151.5 L 190.5 151.5 C 188.839844 151.5 187.5 150.15625 187.5 148.5 C 187.5 146.839844 188.839844 145.5 190.5 145.5 L 205.5 145.5 C 207.15625 145.5 208.5 146.839844 208.5 148.5 C 208.5 150.15625 207.15625 151.5 205.5 151.5 Z M 205.5 151.5 " fill-opacity="1" fill-rule="nonzero"/></svg>