<svg xmlns="http://www.w3.org/2000/svg" xmlns:xlink="http://www.w3.org/1999/xlink" width="500" zoomAndPan="magnify" viewBox="0 0 375 374.999991" height="500" preserveAspectRatio="xMidYMid meet" version="1.0"><defs><clipPath id="84680cf927"><path d="M 36.503906 57 L 297 57 L 297 318.238281 L 36.503906 318.238281 Z M 36.503906 57 " clip-rule="nonzero"/></clipPath><clipPath id="05aae4ff51"><path d="M 240.035156 56.746094 L 338.488281 56.746094 L 338.488281 135 L 240.035156 135 Z M 240.035156 56.746094 " clip-rule="nonzero"/></clipPath></defs><g clip-path="url(#84680cf927)"><path fill="#00bf63" d="M 296.929688 188.027344 C 296.929688 187.511719 296.929688 186.980469 296.910156 186.472656 L 281.164062 186.472656 C 281.1875 186.980469 281.1875 187.511719 281.1875 188.027344 C 281.1875 251.15625 229.824219 302.496094 166.71875 302.496094 C 103.609375 302.496094 52.25 251.15625 52.25 188.027344 C 52.25 124.917969 103.609375 73.558594 166.71875 73.558594 C 192.320312 73.558594 215.96875 82 235.058594 96.25 L 245.195312 84.203125 C 223.371094 67.636719 196.152344 57.8125 166.71875 57.8125 C 94.933594 57.8125 36.503906 116.242188 36.503906 188.027344 C 36.503906 259.832031 94.933594 318.238281 166.71875 318.238281 C 238.503906 318.238281 296.929688 259.832031 296.929688 188.027344 " fill-opacity="1" fill-rule="nonzero"/></g><path fill="#00bf63" d="M 313.6875 162.3125 L 265.171875 162.3125 L 265.171875 171.425781 L 313.6875 171.460938 L 313.6875 162.3125 " fill-opacity="1" fill-rule="nonzero"/><path fill="#00bf63" d="M 313.6875 139.011719 L 265.183594 139.011719 L 265.183594 158.171875 L 313.6875 158.171875 L 313.6875 139.011719 " fill-opacity="1" fill-rule="nonzero"/><g clip-path="url(#05aae4ff51)"><path fill="#00bf63" d="M 338.492188 118.378906 L 313.976562 87.566406 L 289.4375 56.75 L 264.921875 87.566406 L 240.394531 118.378906 L 265.195312 118.378906 L 265.195312 125.722656 L 265.183594 134.871094 L 313.6875 134.871094 L 313.6875 118.378906 L 338.492188 118.378906 " fill-opacity="1" fill-rule="nonzero"/></g><path fill="#00bf63" d="M 188.847656 227.558594 C 183.132812 230.144531 176.820312 231.4375 169.914062 231.4375 C 161.824219 231.4375 154.457031 229.59375 147.832031 225.90625 C 141.214844 222.21875 136.089844 217.140625 132.464844 210.675781 C 130.972656 208.015625 129.804688 205.179688 128.925781 202.191406 L 182.628906 202.191406 L 189.511719 190.625 L 127.089844 190.625 C 127.070312 189.917969 127.03125 189.203125 127.03125 188.46875 C 127.03125 186.195312 127.179688 183.988281 127.480469 181.84375 L 182.628906 181.84375 L 189.511719 170.28125 L 130.824219 170.28125 C 132.84375 165.90625 135.667969 161.898438 139.300781 158.265625 C 147.484375 150.101562 157.542969 146.019531 169.488281 146.019531 C 183.636719 146.019531 196.375 152.003906 207.699219 163.964844 L 224.34375 148.101562 C 217.433594 140.070312 209.203125 133.875 199.648438 129.519531 C 190.109375 125.164062 180.175781 122.988281 169.867188 122.988281 C 157.738281 122.988281 146.421875 125.933594 135.914062 131.824219 C 125.402344 137.71875 117.332031 145.511719 111.691406 155.199219 C 108.957031 159.890625 106.898438 164.929688 105.492188 170.28125 L 95.382812 170.28125 L 88.503906 181.84375 L 103.542969 181.84375 C 103.359375 184 103.234375 186.183594 103.234375 188.429688 C 103.234375 189.175781 103.265625 189.894531 103.285156 190.625 L 95.386719 190.625 L 88.503906 202.191406 L 104.390625 202.191406 C 106.707031 215.351562 112.511719 226.558594 121.808594 235.808594 C 134.1875 248.136719 150.089844 254.292969 169.527344 254.292969 C 180.0625 254.292969 189.4375 252.550781 197.65625 249.070312 C 205.867188 245.578125 214.597656 239.335938 223.832031 230.316406 L 207.699219 213.484375 C 200.851562 220.289062 194.5625 224.988281 188.847656 227.558594 " fill-opacity="1" fill-rule="nonzero"/></svg>