<svg xmlns="http://www.w3.org/2000/svg" xmlns:xlink="http://www.w3.org/1999/xlink" width="500" zoomAndPan="magnify" viewBox="0 0 375 374.999991" height="500" preserveAspectRatio="xMidYMid meet" version="1.0"><defs><clipPath id="02fcf58c5c"><path d="M 82.71875 254 L 135 254 L 135 333.707031 L 82.71875 333.707031 Z M 82.71875 254 " clip-rule="nonzero"/></clipPath><clipPath id="250a7df868"><path d="M 104 41.207031 L 291.96875 41.207031 L 291.96875 333.707031 L 104 333.707031 Z M 104 41.207031 " clip-rule="nonzero"/></clipPath></defs><path fill="#ffffff" d="M 213.917969 148.855469 L 181.40625 148.855469 C 178.960938 148.855469 176.980469 146.871094 176.980469 144.425781 C 176.980469 141.980469 178.960938 140 181.40625 140 L 213.917969 140 C 216.363281 140 218.34375 141.980469 218.34375 144.425781 C 218.34375 146.871094 216.363281 148.855469 213.917969 148.855469 Z M 213.917969 148.855469 " fill-opacity="1" fill-rule="evenodd"/><path fill="#ffffff" d="M 213.917969 135.351562 L 181.40625 135.351562 C 178.960938 135.351562 176.980469 133.367188 176.980469 130.925781 C 176.980469 128.480469 178.960938 126.496094 181.40625 126.496094 L 213.917969 126.496094 C 216.363281 126.496094 218.34375 128.480469 218.34375 130.925781 C 218.34375 133.371094 216.363281 135.351562 213.917969 135.351562 Z M 213.917969 135.351562 " fill-opacity="1" fill-rule="evenodd"/><path fill="#ffffff" d="M 213.917969 167.421875 L 208.316406 167.421875 C 197.070312 167.421875 187.917969 158.273438 187.917969 147.023438 L 187.917969 127.238281 C 187.917969 115.992188 197.066406 106.839844 208.316406 106.839844 L 213.917969 106.839844 C 223.191406 106.839844 231.308594 113.101562 233.652344 122.066406 C 234.269531 124.433594 232.855469 126.851562 230.488281 127.46875 C 228.125 128.085938 225.703125 126.671875 225.085938 124.304688 C 223.761719 119.234375 219.167969 115.695312 213.917969 115.695312 L 208.316406 115.695312 C 201.949219 115.695312 196.773438 120.875 196.773438 127.238281 L 196.773438 147.023438 C 196.773438 153.390625 201.949219 158.570312 208.316406 158.570312 L 213.917969 158.570312 C 219.167969 158.570312 223.761719 155.027344 225.089844 149.957031 C 225.707031 147.589844 228.125 146.175781 230.492188 146.792969 C 232.855469 147.410156 234.273438 149.828125 233.652344 152.195312 C 231.308594 161.160156 223.195312 167.421875 213.917969 167.421875 Z M 213.917969 167.421875 " fill-opacity="1" fill-rule="evenodd"/><path fill="#ffffff" d="M 256.898438 216.710938 L 160.890625 216.710938 C 158.445312 216.710938 156.464844 214.726562 156.464844 212.285156 C 156.464844 209.839844 158.445312 207.855469 160.890625 207.855469 L 256.898438 207.855469 C 259.34375 207.855469 261.324219 209.839844 261.324219 212.285156 C 261.324219 214.726562 259.339844 216.710938 256.898438 216.710938 Z M 256.898438 216.710938 " fill-opacity="1" fill-rule="evenodd"/><path fill="#ffffff" d="M 208.894531 189.5625 C 194.890625 189.5625 181.722656 184.109375 171.820312 174.207031 C 161.917969 164.300781 156.464844 151.136719 156.464844 137.132812 C 156.464844 123.125 161.917969 109.960938 171.820312 100.058594 C 181.722656 90.15625 194.890625 84.699219 208.894531 84.699219 C 222.898438 84.699219 236.066406 90.15625 245.96875 100.058594 C 255.871094 109.960938 261.324219 123.125 261.324219 137.132812 C 261.324219 151.136719 255.871094 164.304688 245.96875 174.207031 C 236.066406 184.109375 222.898438 189.5625 208.894531 189.5625 Z M 208.894531 93.554688 C 184.867188 93.554688 165.316406 113.101562 165.316406 137.132812 C 165.316406 161.160156 184.867188 180.707031 208.894531 180.707031 C 232.921875 180.707031 252.472656 161.160156 252.472656 137.132812 C 252.472656 113.101562 232.921875 93.554688 208.894531 93.554688 Z M 208.894531 93.554688 " fill-opacity="1" fill-rule="evenodd"/><g clip-path="url(#02fcf58c5c)"><path fill="#ffffff" d="M 108.519531 333.734375 C 94.28125 333.734375 82.695312 322.148438 82.695312 307.910156 L 82.695312 258.964844 C 82.695312 256.519531 84.679688 254.539062 87.121094 254.539062 L 129.917969 254.539062 C 132.363281 254.539062 134.34375 256.519531 134.34375 258.964844 L 134.34375 307.910156 C 134.34375 322.148438 122.757812 333.734375 108.519531 333.734375 Z M 91.546875 263.394531 L 91.546875 307.910156 C 91.546875 317.265625 99.160156 324.878906 108.519531 324.878906 C 117.875 324.878906 125.488281 317.265625 125.488281 307.910156 L 125.488281 263.394531 Z M 91.546875 263.394531 " fill-opacity="1" fill-rule="evenodd"/></g><g clip-path="url(#250a7df868)"><path fill="#ffffff" d="M 249.898438 333.734375 L 108.519531 333.734375 C 106.074219 333.734375 104.09375 331.75 104.09375 329.308594 C 104.09375 326.863281 106.074219 324.878906 108.519531 324.878906 L 249.898438 324.878906 C 258.851562 324.878906 267.265625 321.390625 273.59375 315.054688 C 279.917969 308.71875 283.394531 300.296875 283.378906 291.34375 L 282.960938 54.078125 L 270.078125 62.335938 C 268.625 63.269531 266.757812 63.269531 265.300781 62.335938 L 248.007812 51.25 L 230.714844 62.335938 C 229.257812 63.269531 227.390625 63.269531 225.9375 62.335938 L 208.644531 51.25 L 191.351562 62.335938 C 189.894531 63.269531 188.027344 63.269531 186.574219 62.335938 L 169.28125 51.25 L 151.988281 62.335938 C 150.53125 63.269531 148.664062 63.269531 147.207031 62.335938 L 134.34375 54.085938 L 134.34375 258.964844 C 134.34375 261.410156 132.363281 263.394531 129.917969 263.394531 C 127.472656 263.394531 125.492188 261.410156 125.492188 258.964844 L 125.492188 45.988281 C 125.492188 44.371094 126.375 42.882812 127.792969 42.105469 C 129.214844 41.328125 130.945312 41.386719 132.304688 42.261719 L 149.597656 53.351562 L 166.890625 42.261719 C 168.347656 41.328125 170.214844 41.328125 171.667969 42.261719 L 188.960938 53.351562 L 206.253906 42.261719 C 207.710938 41.328125 209.578125 41.328125 211.03125 42.261719 L 228.324219 53.351562 L 245.617188 42.261719 C 247.074219 41.328125 248.941406 41.328125 250.394531 42.261719 L 267.691406 53.351562 L 284.984375 42.261719 C 286.34375 41.390625 288.074219 41.328125 289.492188 42.101562 C 290.910156 42.878906 291.796875 44.363281 291.796875 45.980469 L 292.230469 291.328125 C 292.25 302.648438 287.855469 313.296875 279.855469 321.308594 C 271.859375 329.320312 261.21875 333.734375 249.898438 333.734375 Z M 249.898438 333.734375 " fill-opacity="1" fill-rule="evenodd"/></g><path fill="#ffffff" d="M 207.558594 295.015625 L 160.890625 295.015625 C 158.445312 295.015625 156.464844 293.035156 156.464844 290.589844 C 156.464844 288.144531 158.445312 286.164062 160.890625 286.164062 L 207.558594 286.164062 C 210.003906 286.164062 211.988281 288.144531 211.988281 290.589844 C 211.988281 293.035156 210.003906 295.015625 207.558594 295.015625 Z M 207.558594 295.015625 " fill-opacity="1" fill-rule="evenodd"/><path fill="#ffffff" d="M 256.898438 295.015625 L 236.894531 295.015625 C 234.449219 295.015625 232.46875 293.035156 232.46875 290.589844 C 232.46875 288.144531 234.449219 286.164062 236.894531 286.164062 L 256.898438 286.164062 C 259.34375 286.164062 261.324219 288.144531 261.324219 290.589844 C 261.324219 293.035156 259.339844 295.015625 256.898438 295.015625 Z M 256.898438 295.015625 " fill-opacity="1" fill-rule="evenodd"/><path fill="#ffffff" d="M 207.558594 269.570312 L 160.890625 269.570312 C 158.445312 269.570312 156.464844 267.585938 156.464844 265.144531 C 156.464844 262.699219 158.445312 260.714844 160.890625 260.714844 L 207.558594 260.714844 C 210.003906 260.714844 211.988281 262.699219 211.988281 265.144531 C 211.988281 267.589844 210.003906 269.570312 207.558594 269.570312 Z M 207.558594 269.570312 " fill-opacity="1" fill-rule="evenodd"/><path fill="#ffffff" d="M 256.898438 269.570312 L 236.894531 269.570312 C 234.449219 269.570312 232.46875 267.585938 232.46875 265.144531 C 232.46875 262.699219 234.449219 260.714844 236.894531 260.714844 L 256.898438 260.714844 C 259.34375 260.714844 261.324219 262.699219 261.324219 265.144531 C 261.324219 267.589844 259.339844 269.570312 256.898438 269.570312 Z M 256.898438 269.570312 " fill-opacity="1" fill-rule="evenodd"/><path fill="#ffffff" d="M 207.558594 244.125 L 160.890625 244.125 C 158.445312 244.125 156.464844 242.140625 156.464844 239.699219 C 156.464844 237.253906 158.445312 235.269531 160.890625 235.269531 L 207.558594 235.269531 C 210.003906 235.269531 211.988281 237.253906 211.988281 239.699219 C 211.988281 242.140625 210.003906 244.125 207.558594 244.125 Z M 207.558594 244.125 " fill-opacity="1" fill-rule="evenodd"/><path fill="#ffffff" d="M 256.898438 244.125 L 236.894531 244.125 C 234.449219 244.125 232.46875 242.140625 232.46875 239.699219 C 232.46875 237.253906 234.449219 235.269531 236.894531 235.269531 L 256.898438 235.269531 C 259.34375 235.269531 261.324219 237.253906 261.324219 239.699219 C 261.324219 242.140625 259.339844 244.125 256.898438 244.125 Z M 256.898438 244.125 " fill-opacity="1" fill-rule="evenodd"/></svg>