<svg xmlns="http://www.w3.org/2000/svg" xmlns:xlink="http://www.w3.org/1999/xlink" width="500" zoomAndPan="magnify" viewBox="0 0 375 374.999991" height="500" preserveAspectRatio="xMidYMid meet" version="1.0"><defs><clipPath id="ce8fe1ccd0"><path d="M 112.5 112.5 L 232 112.5 L 232 262.5 L 112.5 262.5 Z M 112.5 112.5 " clip-rule="nonzero"/></clipPath><clipPath id="9efca2494c"><path d="M 160 255 L 193 255 L 193 262.5 L 160 262.5 Z M 160 255 " clip-rule="nonzero"/></clipPath><clipPath id="1beb694cd6"><path d="M 135 227 L 172 227 L 172 262.5 L 135 262.5 Z M 135 227 " clip-rule="nonzero"/></clipPath><clipPath id="46ab81c176"><path d="M 169 216 L 253 216 L 253 262.5 L 169 262.5 Z M 169 216 " clip-rule="nonzero"/></clipPath><clipPath id="08bd06b55f"><path d="M 253 242 L 262.5 242 L 262.5 262.5 L 253 262.5 Z M 253 242 " clip-rule="nonzero"/></clipPath><clipPath id="7b4c72111c"><path d="M 129 251 L 147 251 L 147 262.5 L 129 262.5 Z M 129 251 " clip-rule="nonzero"/></clipPath></defs><path fill="#000000" d="M 188.804688 246.847656 C 190.597656 246.847656 192.066406 245.378906 192.066406 243.585938 C 192.066406 241.792969 190.597656 240.324219 188.804688 240.324219 L 171.945312 240.324219 C 172.304688 241.792969 172.5 243.324219 172.5 244.890625 C 172.5 245.542969 172.46875 246.195312 172.402344 246.847656 Z M 188.804688 246.847656 " fill-opacity="1" fill-rule="nonzero"/><g clip-path="url(#ce8fe1ccd0)"><path fill="#000000" d="M 134.675781 251.414062 C 134.675781 251.414062 134.675781 244.566406 134.871094 242.28125 C 135.585938 233.023438 144.066406 225.976562 153.585938 225.976562 C 158.640625 225.976562 163.207031 227.96875 166.597656 231.195312 L 168.585938 231.195312 L 168.585938 216.195312 C 168.585938 215.835938 168.878906 215.542969 169.238281 215.542969 L 231.195312 215.542969 L 231.195312 112.5 L 112.5 112.5 L 112.5 251.414062 C 112.5 257.511719 117.488281 262.5 123.585938 262.5 C 129.683594 262.5 134.675781 257.511719 134.675781 251.414062 Z M 219.457031 145.761719 C 219.457031 146.121094 219.164062 146.414062 218.804688 146.414062 L 192.71875 146.414062 C 192.359375 146.414062 192.066406 146.121094 192.066406 145.761719 C 192.066406 145.402344 192.359375 145.109375 192.71875 145.109375 L 218.804688 145.109375 C 219.164062 145.109375 219.457031 145.402344 219.457031 145.761719 Z M 211.628906 150.976562 C 211.628906 151.335938 211.335938 151.628906 210.976562 151.628906 L 192.71875 151.628906 C 192.359375 151.628906 192.066406 151.335938 192.066406 150.976562 C 192.066406 150.621094 192.359375 150.324219 192.71875 150.324219 L 210.976562 150.324219 C 211.335938 150.324219 211.628906 150.621094 211.628906 150.976562 Z M 206.414062 122.28125 C 206.414062 121.925781 206.707031 121.628906 207.066406 121.628906 L 217.5 121.628906 C 217.859375 121.628906 218.152344 121.925781 218.152344 122.28125 C 218.152344 122.640625 217.859375 122.933594 217.5 122.933594 L 207.71875 122.933594 L 207.71875 129.457031 L 217.5 129.457031 C 217.859375 129.457031 218.152344 129.75 218.152344 130.109375 C 218.152344 130.46875 217.859375 130.761719 217.5 130.761719 L 207.71875 130.761719 L 207.71875 137.28125 L 217.5 137.28125 C 217.859375 137.28125 218.152344 137.574219 218.152344 137.933594 C 218.152344 138.292969 217.859375 138.585938 217.5 138.585938 L 207.066406 138.585938 C 206.707031 138.585938 206.414062 138.292969 206.414062 137.933594 Z M 190.761719 126.195312 C 190.761719 123.683594 192.816406 121.628906 195.324219 121.628906 L 200.542969 121.628906 C 200.902344 121.628906 201.195312 121.925781 201.195312 122.28125 C 201.195312 122.640625 200.902344 122.933594 200.542969 122.933594 L 195.324219 122.933594 C 193.53125 122.933594 192.066406 124.402344 192.066406 126.195312 L 192.066406 134.023438 C 192.066406 135.816406 193.53125 137.28125 195.324219 137.28125 L 200.542969 137.28125 C 200.902344 137.28125 201.195312 137.574219 201.195312 137.933594 C 201.195312 138.292969 200.902344 138.585938 200.542969 138.585938 L 195.324219 138.585938 C 192.816406 138.585938 190.761719 136.53125 190.761719 134.023438 Z M 184.238281 122.28125 C 184.238281 121.925781 184.53125 121.628906 184.890625 121.628906 C 185.25 121.628906 185.542969 121.925781 185.542969 122.28125 L 185.542969 137.933594 C 185.542969 138.292969 185.25 138.585938 184.890625 138.585938 C 184.53125 138.585938 184.238281 138.292969 184.238281 137.933594 Z M 168.585938 126.847656 C 168.585938 123.976562 170.933594 121.628906 173.804688 121.628906 C 176.675781 121.628906 179.023438 123.976562 179.023438 126.847656 L 179.023438 133.371094 C 179.023438 136.238281 176.675781 138.585938 173.804688 138.585938 C 170.933594 138.585938 168.585938 136.238281 168.585938 133.371094 Z M 152.085938 121.664062 C 152.445312 121.53125 152.804688 121.726562 152.902344 122.085938 L 157.5 135.878906 L 162.097656 122.085938 C 162.195312 121.761719 162.585938 121.566406 162.914062 121.664062 C 163.238281 121.761719 163.433594 122.152344 163.335938 122.476562 L 158.121094 138.128906 C 158.023438 138.390625 157.792969 138.585938 157.5 138.585938 C 157.207031 138.585938 156.976562 138.390625 156.878906 138.128906 L 151.664062 122.476562 C 151.566406 122.152344 151.726562 121.792969 152.085938 121.664062 Z M 134.675781 122.28125 C 134.675781 121.988281 134.871094 121.726562 135.128906 121.664062 C 135.390625 121.566406 135.71875 121.695312 135.847656 121.925781 L 145.109375 135.78125 L 145.109375 122.28125 C 145.109375 121.925781 145.402344 121.628906 145.761719 121.628906 C 146.121094 121.628906 146.414062 121.925781 146.414062 122.28125 L 146.414062 137.933594 C 146.414062 138.226562 146.21875 138.488281 145.957031 138.554688 C 145.890625 138.585938 145.824219 138.585938 145.761719 138.585938 C 145.53125 138.585938 145.335938 138.488281 145.207031 138.292969 L 135.976562 124.433594 L 135.976562 137.933594 C 135.976562 138.292969 135.683594 138.585938 135.324219 138.585938 C 134.96875 138.585938 134.675781 138.292969 134.675781 137.933594 Z M 126.847656 122.28125 C 126.847656 121.925781 127.140625 121.628906 127.5 121.628906 C 127.859375 121.628906 128.152344 121.925781 128.152344 122.28125 L 128.152344 137.933594 C 128.152344 138.292969 127.859375 138.585938 127.5 138.585938 C 127.140625 138.585938 126.847656 138.292969 126.847656 137.933594 Z M 124.238281 156.195312 C 124.238281 155.835938 124.53125 155.542969 124.890625 155.542969 L 218.804688 155.542969 C 219.164062 155.542969 219.457031 155.835938 219.457031 156.195312 L 219.457031 164.023438 C 219.457031 164.378906 219.164062 164.675781 218.804688 164.675781 L 124.890625 164.675781 C 124.53125 164.675781 124.238281 164.378906 124.238281 164.023438 Z M 216.195312 169.890625 L 197.933594 169.890625 C 197.574219 169.890625 197.28125 169.597656 197.28125 169.238281 C 197.28125 168.878906 197.574219 168.585938 197.933594 168.585938 L 216.195312 168.585938 C 216.554688 168.585938 216.847656 168.878906 216.847656 169.238281 C 216.847656 169.597656 216.554688 169.890625 216.195312 169.890625 Z M 216.847656 174.457031 C 216.847656 174.816406 216.554688 175.109375 216.195312 175.109375 L 197.933594 175.109375 C 197.574219 175.109375 197.28125 174.816406 197.28125 174.457031 C 197.28125 174.097656 197.574219 173.804688 197.933594 173.804688 L 216.195312 173.804688 C 216.554688 173.804688 216.847656 174.097656 216.847656 174.457031 Z M 127.5 173.804688 L 161.414062 173.804688 C 161.773438 173.804688 162.066406 174.097656 162.066406 174.457031 C 162.066406 174.816406 161.773438 175.109375 161.414062 175.109375 L 127.5 175.109375 C 127.140625 175.109375 126.847656 174.816406 126.847656 174.457031 C 126.847656 174.097656 127.140625 173.804688 127.5 173.804688 Z M 126.847656 169.238281 C 126.847656 168.878906 127.140625 168.585938 127.5 168.585938 L 150.976562 168.585938 C 151.335938 168.585938 151.628906 168.878906 151.628906 169.238281 C 151.628906 169.597656 151.335938 169.890625 150.976562 169.890625 L 127.5 169.890625 C 127.140625 169.890625 126.847656 169.597656 126.847656 169.238281 Z M 124.238281 179.675781 C 124.238281 179.316406 124.53125 179.023438 124.890625 179.023438 L 218.804688 179.023438 C 219.164062 179.023438 219.457031 179.316406 219.457031 179.675781 L 219.457031 187.5 C 219.457031 187.859375 219.164062 188.152344 218.804688 188.152344 L 124.890625 188.152344 C 124.53125 188.152344 124.238281 187.859375 124.238281 187.5 Z M 216.195312 193.371094 L 197.933594 193.371094 C 197.574219 193.371094 197.28125 193.074219 197.28125 192.71875 C 197.28125 192.359375 197.574219 192.066406 197.933594 192.066406 L 216.195312 192.066406 C 216.554688 192.066406 216.847656 192.359375 216.847656 192.71875 C 216.847656 193.074219 216.554688 193.371094 216.195312 193.371094 Z M 216.847656 197.933594 C 216.847656 198.292969 216.554688 198.585938 216.195312 198.585938 L 197.933594 198.585938 C 197.574219 198.585938 197.28125 198.292969 197.28125 197.933594 C 197.28125 197.574219 197.574219 197.28125 197.933594 197.28125 L 216.195312 197.28125 C 216.554688 197.28125 216.847656 197.574219 216.847656 197.933594 Z M 127.5 197.28125 L 161.414062 197.28125 C 161.773438 197.28125 162.066406 197.574219 162.066406 197.933594 C 162.066406 198.292969 161.773438 198.585938 161.414062 198.585938 L 127.5 198.585938 C 127.140625 198.585938 126.847656 198.292969 126.847656 197.933594 C 126.847656 197.574219 127.140625 197.28125 127.5 197.28125 Z M 126.847656 192.71875 C 126.847656 192.359375 127.140625 192.066406 127.5 192.066406 L 150.976562 192.066406 C 151.335938 192.066406 151.628906 192.359375 151.628906 192.71875 C 151.628906 193.074219 151.335938 193.371094 150.976562 193.371094 L 127.5 193.371094 C 127.140625 193.371094 126.847656 193.074219 126.847656 192.71875 Z M 124.238281 210.976562 L 124.238281 203.152344 C 124.238281 202.792969 124.53125 202.5 124.890625 202.5 L 221.414062 202.5 C 221.773438 202.5 222.066406 202.792969 222.066406 203.152344 L 222.066406 210.976562 C 222.066406 211.335938 221.773438 211.628906 221.414062 211.628906 L 124.890625 211.628906 C 124.53125 211.628906 124.238281 211.335938 124.238281 210.976562 Z M 151.628906 216.195312 C 151.628906 216.554688 151.335938 216.847656 150.976562 216.847656 L 127.5 216.847656 C 127.140625 216.847656 126.847656 216.554688 126.847656 216.195312 C 126.847656 215.835938 127.140625 215.542969 127.5 215.542969 L 150.976562 215.542969 C 151.335938 215.542969 151.628906 215.835938 151.628906 216.195312 Z M 126.847656 221.414062 C 126.847656 221.054688 127.140625 220.761719 127.5 220.761719 L 161.414062 220.761719 C 161.773438 220.761719 162.066406 221.054688 162.066406 221.414062 C 162.066406 221.773438 161.773438 222.066406 161.414062 222.066406 L 127.5 222.066406 C 127.140625 222.066406 126.847656 221.773438 126.847656 221.414062 Z M 126.847656 221.414062 " fill-opacity="1" fill-rule="nonzero"/></g><path fill="#000000" d="M 188.804688 254.675781 C 190.597656 254.675781 192.066406 253.207031 192.066406 251.414062 C 192.066406 249.621094 190.597656 248.152344 188.804688 248.152344 L 172.207031 248.152344 C 171.78125 250.5 170.96875 252.71875 169.761719 254.675781 Z M 188.804688 254.675781 " fill-opacity="1" fill-rule="nonzero"/><path fill="#000000" d="M 214.140625 240.324219 L 207.816406 240.324219 C 205.597656 240.324219 203.804688 242.121094 203.804688 244.335938 L 203.804688 249.78125 C 205.890625 251.28125 208.371094 252.066406 210.976562 252.066406 C 213.585938 252.066406 216.066406 251.25 218.152344 249.78125 L 218.152344 244.335938 C 218.152344 242.121094 216.359375 240.324219 214.140625 240.324219 Z M 214.140625 240.324219 " fill-opacity="1" fill-rule="nonzero"/><path fill="#000000" d="M 173.804688 137.28125 C 175.957031 137.28125 177.71875 135.523438 177.71875 133.371094 L 177.71875 126.847656 C 177.71875 124.695312 175.957031 122.933594 173.804688 122.933594 C 171.652344 122.933594 169.890625 124.695312 169.890625 126.847656 L 169.890625 133.371094 C 169.890625 135.523438 171.652344 137.28125 173.804688 137.28125 Z M 173.804688 137.28125 " fill-opacity="1" fill-rule="nonzero"/><path fill="#000000" d="M 202.5 248.707031 L 202.5 244.335938 C 202.5 241.402344 204.878906 239.023438 207.816406 239.023438 L 208.371094 239.023438 C 207.945312 238.46875 207.71875 237.816406 207.71875 237.066406 L 207.71875 234.457031 C 207.71875 232.664062 209.183594 231.195312 210.976562 231.195312 C 212.773438 231.195312 214.238281 232.664062 214.238281 234.457031 L 214.238281 237.066406 C 214.238281 237.816406 213.976562 238.46875 213.585938 239.023438 L 214.140625 239.023438 C 217.074219 239.023438 219.457031 241.402344 219.457031 244.335938 L 219.457031 248.707031 C 219.585938 248.574219 219.71875 248.476562 219.816406 248.347656 C 222.097656 246.03125 223.371094 242.933594 223.371094 239.675781 C 223.371094 232.824219 217.824219 227.28125 210.976562 227.28125 C 204.128906 227.28125 198.585938 232.824219 198.585938 239.675781 C 198.585938 242.933594 199.859375 246.03125 202.140625 248.347656 C 202.238281 248.476562 202.371094 248.574219 202.5 248.707031 Z M 202.5 248.707031 " fill-opacity="1" fill-rule="nonzero"/><path fill="#000000" d="M 125.542969 203.804688 L 220.761719 203.804688 L 220.761719 210.324219 L 125.542969 210.324219 Z M 125.542969 203.804688 " fill-opacity="1" fill-rule="nonzero"/><path fill="#000000" d="M 125.542969 156.847656 L 218.152344 156.847656 L 218.152344 163.371094 L 125.542969 163.371094 Z M 125.542969 156.847656 " fill-opacity="1" fill-rule="nonzero"/><path fill="#000000" d="M 125.542969 180.324219 L 218.152344 180.324219 L 218.152344 186.847656 L 125.542969 186.847656 Z M 125.542969 180.324219 " fill-opacity="1" fill-rule="nonzero"/><path fill="#000000" d="M 212.933594 237.066406 L 212.933594 234.457031 C 212.933594 233.378906 212.054688 232.5 210.976562 232.5 C 209.902344 232.5 209.023438 233.378906 209.023438 234.457031 L 209.023438 237.066406 C 209.023438 238.140625 209.902344 239.023438 210.976562 239.023438 C 212.054688 239.023438 212.933594 238.140625 212.933594 237.066406 Z M 212.933594 237.066406 " fill-opacity="1" fill-rule="nonzero"/><path fill="#000000" d="M 153.585938 232.5 C 146.738281 232.5 141.195312 238.042969 141.195312 244.890625 C 141.195312 251.738281 146.738281 257.28125 153.585938 257.28125 C 160.433594 257.28125 165.976562 251.738281 165.976562 244.890625 C 165.976562 238.042969 160.433594 232.5 153.585938 232.5 Z M 157.5 241.824219 C 157.5 242.183594 157.207031 242.476562 156.847656 242.476562 C 156.488281 242.476562 156.195312 242.183594 156.195312 241.824219 L 156.195312 241.628906 C 156.195312 240.195312 155.023438 239.023438 153.585938 239.023438 C 152.152344 239.023438 150.976562 240.195312 150.976562 241.628906 C 150.976562 242.542969 151.53125 243.359375 152.378906 243.71875 L 155.28125 244.859375 C 156.621094 245.414062 157.5 246.683594 157.5 248.152344 C 157.5 250.074219 156.097656 251.707031 154.238281 252 L 154.238281 254.023438 C 154.238281 254.378906 153.945312 254.675781 153.585938 254.675781 C 153.226562 254.675781 152.933594 254.378906 152.933594 254.023438 L 152.933594 252 C 151.074219 251.675781 149.675781 250.074219 149.675781 248.152344 L 149.675781 247.5 C 149.675781 247.140625 149.96875 246.847656 150.324219 246.847656 C 150.683594 246.847656 150.976562 247.140625 150.976562 247.5 L 150.976562 248.152344 C 150.976562 249.585938 152.152344 250.761719 153.585938 250.761719 C 155.023438 250.761719 156.195312 249.585938 156.195312 248.152344 C 156.195312 247.238281 155.640625 246.425781 154.792969 246.066406 L 151.890625 244.925781 C 150.554688 244.371094 149.675781 243.097656 149.675781 241.628906 C 149.675781 239.707031 151.074219 238.074219 152.933594 237.78125 L 152.933594 235.761719 C 152.933594 235.402344 153.226562 235.109375 153.585938 235.109375 C 153.945312 235.109375 154.238281 235.402344 154.238281 235.761719 L 154.238281 237.78125 C 156.097656 238.109375 157.5 239.707031 157.5 241.628906 Z M 157.5 241.824219 " fill-opacity="1" fill-rule="nonzero"/><g clip-path="url(#9efca2494c)"><path fill="#000000" d="M 188.804688 255.976562 L 168.878906 255.976562 C 166.761719 258.878906 163.859375 261.164062 160.46875 262.5 L 188.804688 262.5 C 190.597656 262.5 192.066406 261.03125 192.066406 259.238281 C 192.066406 257.445312 190.597656 255.976562 188.804688 255.976562 Z M 188.804688 255.976562 " fill-opacity="1" fill-rule="nonzero"/></g><g clip-path="url(#1beb694cd6)"><path fill="#000000" d="M 171.195312 244.890625 C 171.195312 235.175781 163.304688 227.28125 153.585938 227.28125 C 143.871094 227.28125 135.976562 235.175781 135.976562 244.890625 C 135.976562 254.609375 143.871094 262.5 153.585938 262.5 C 163.304688 262.5 171.195312 254.609375 171.195312 244.890625 Z M 153.585938 258.585938 C 146.023438 258.585938 139.890625 252.457031 139.890625 244.890625 C 139.890625 237.324219 146.023438 231.195312 153.585938 231.195312 C 161.152344 231.195312 167.28125 237.324219 167.28125 244.890625 C 167.28125 252.457031 161.152344 258.585938 153.585938 258.585938 Z M 153.585938 258.585938 " fill-opacity="1" fill-rule="nonzero"/></g><g clip-path="url(#46ab81c176)"><path fill="#000000" d="M 169.890625 231.195312 L 174.457031 231.195312 C 179.835938 231.195312 184.238281 226.792969 184.238281 221.414062 C 184.238281 221.054688 184.53125 220.761719 184.890625 220.761719 L 237.066406 220.761719 C 237.425781 220.761719 237.71875 221.054688 237.71875 221.414062 C 237.71875 226.792969 242.121094 231.195312 247.5 231.195312 C 247.859375 231.195312 248.152344 231.488281 248.152344 231.847656 L 248.152344 247.5 C 248.152344 247.859375 247.859375 248.152344 247.5 248.152344 C 242.121094 248.152344 237.71875 252.554688 237.71875 257.933594 C 237.71875 258.292969 237.425781 258.585938 237.066406 258.585938 L 193.335938 258.585938 C 193.371094 258.816406 193.371094 259.011719 193.371094 259.238281 C 193.371094 260.511719 192.847656 261.683594 192 262.5 L 251.414062 262.5 C 251.640625 262.5 251.835938 262.5 252.066406 262.46875 L 252.066406 216.847656 L 169.890625 216.847656 Z M 169.890625 231.195312 " fill-opacity="1" fill-rule="nonzero"/></g><g clip-path="url(#08bd06b55f)"><path fill="#000000" d="M 253.371094 242.933594 L 253.371094 262.335938 C 258.554688 261.425781 262.5 256.859375 262.5 251.414062 L 262.5 242.933594 Z M 253.371094 242.933594 " fill-opacity="1" fill-rule="nonzero"/></g><path fill="#000000" d="M 192.914062 257.28125 L 236.414062 257.28125 C 236.738281 251.675781 241.238281 247.207031 246.816406 246.878906 L 246.816406 232.5 C 241.207031 232.175781 236.738281 227.675781 236.414062 222.097656 L 185.511719 222.097656 C 185.28125 226.042969 182.96875 229.46875 179.640625 231.226562 L 188.773438 231.226562 C 191.28125 231.226562 193.335938 233.28125 193.335938 235.792969 C 193.335938 237.457031 192.457031 238.890625 191.121094 239.707031 C 192.457031 240.523438 193.335938 241.957031 193.335938 243.621094 C 193.335938 245.28125 192.457031 246.71875 191.121094 247.53125 C 192.457031 248.347656 193.335938 249.78125 193.335938 251.445312 C 193.335938 253.109375 192.457031 254.542969 191.121094 255.359375 C 191.933594 255.78125 192.554688 256.46875 192.914062 257.28125 Z M 229.238281 236.414062 L 242.28125 236.414062 C 242.640625 236.414062 242.933594 236.707031 242.933594 237.066406 C 242.933594 237.425781 242.640625 237.71875 242.28125 237.71875 L 229.238281 237.71875 C 228.878906 237.71875 228.585938 237.425781 228.585938 237.066406 C 228.585938 236.707031 228.878906 236.414062 229.238281 236.414062 Z M 229.238281 241.628906 L 242.28125 241.628906 C 242.640625 241.628906 242.933594 241.925781 242.933594 242.28125 C 242.933594 242.640625 242.640625 242.933594 242.28125 242.933594 L 229.238281 242.933594 C 228.878906 242.933594 228.585938 242.640625 228.585938 242.28125 C 228.585938 241.925781 228.878906 241.628906 229.238281 241.628906 Z M 210.976562 225.976562 C 218.542969 225.976562 224.675781 232.109375 224.675781 239.675781 C 224.675781 243.292969 223.273438 246.683594 220.761719 249.261719 C 218.152344 251.902344 214.695312 253.371094 210.976562 253.371094 C 207.261719 253.371094 203.804688 251.902344 201.195312 249.261719 C 198.683594 246.683594 197.28125 243.292969 197.28125 239.675781 C 197.28125 232.109375 203.414062 225.976562 210.976562 225.976562 Z M 210.976562 225.976562 " fill-opacity="1" fill-rule="nonzero"/><path fill="#000000" d="M 171.554688 239.023438 L 188.804688 239.023438 C 190.597656 239.023438 192.066406 237.554688 192.066406 235.761719 C 192.066406 233.96875 190.597656 232.5 188.804688 232.5 L 167.871094 232.5 C 169.5 234.390625 170.773438 236.609375 171.554688 239.023438 Z M 171.554688 239.023438 " fill-opacity="1" fill-rule="nonzero"/><g clip-path="url(#7b4c72111c)"><path fill="#000000" d="M 135.976562 251.773438 C 135.847656 256.46875 133.074219 260.542969 129.128906 262.5 L 146.707031 262.5 C 141.78125 260.574219 137.902344 256.664062 135.976562 251.773438 Z M 135.976562 251.773438 " fill-opacity="1" fill-rule="nonzero"/></g></svg>