<svg xmlns="http://www.w3.org/2000/svg" xmlns:xlink="http://www.w3.org/1999/xlink" width="500" zoomAndPan="magnify" viewBox="0 0 375 374.999991" height="500" preserveAspectRatio="xMidYMid meet" version="1.0"><defs><clipPath id="655340785f"><path d="M 124.5 136 L 256.5 136 L 256.5 281 L 124.5 281 Z M 124.5 136 " clip-rule="nonzero"/></clipPath></defs><g clip-path="url(#655340785f)"><path fill="#010101" d="M 176.578125 144.476562 C 166.363281 134.25 149.777344 134.25 139.53125 144.476562 C 129.285156 154.707031 129.285156 171.316406 139.53125 181.578125 C 149.742188 191.839844 166.332031 191.839844 176.578125 181.578125 C 186.824219 171.316406 186.824219 154.707031 176.578125 144.476562 Z M 150.230469 168.941406 C 150.070312 167.246094 152.671875 166.984375 152.800781 168.710938 C 153.125 172.132812 158.6875 173.824219 161.875 171.21875 C 162.785156 170.503906 163.339844 169.492188 163.339844 168.417969 C 163.339844 161.742188 150.167969 167.148438 150.167969 157.636719 C 150.167969 154.085938 153.257812 151.546875 156.703125 151.058594 L 156.703125 148.679688 C 156.703125 147.929688 157.289062 147.375 158.070312 147.375 C 158.820312 147.375 159.371094 147.960938 159.371094 148.710938 L 159.304688 151.058594 C 162.785156 151.546875 165.910156 154.085938 165.910156 157.667969 C 165.910156 159.394531 163.308594 159.394531 163.308594 157.667969 C 163.308594 154.054688 157.515625 152.132812 154.199219 154.867188 C 153.320312 155.585938 152.734375 156.59375 152.734375 157.667969 C 152.734375 164.347656 165.910156 158.941406 165.910156 168.449219 C 165.910156 172 162.820312 174.542969 159.339844 175.03125 L 159.304688 177.410156 C 159.304688 179.101562 156.703125 179.101562 156.703125 177.410156 L 156.703125 175.03125 C 153.484375 174.507812 150.523438 172.230469 150.230469 168.941406 Z M 241.273438 143.988281 C 230.769531 133.5 213.757812 133.5 203.28125 143.988281 C 192.777344 154.507812 192.777344 171.546875 203.28125 182.035156 C 213.757812 192.523438 230.769531 192.523438 241.273438 182.035156 C 251.75 171.511719 251.75 154.476562 241.273438 143.988281 Z M 211.382812 149.851562 C 206.992188 150.339844 205.398438 155.941406 208.84375 158.710938 C 212.292969 161.449219 217.398438 158.648438 216.878906 154.25 C 216.585938 151.480469 214.113281 149.527344 211.382812 149.851562 Z M 206.015625 150.078125 C 210.210938 144.804688 218.734375 147.246094 219.480469 153.921875 C 220.261719 160.632812 212.519531 164.933594 207.25 160.730469 C 203.933594 158.125 203.414062 153.371094 206.015625 150.078125 Z M 226.671875 166.496094 C 230.867188 161.21875 239.355469 163.695312 240.136719 170.371094 C 240.625 174.542969 237.632812 178.289062 233.46875 178.777344 C 226.769531 179.527344 222.441406 171.804688 226.671875 166.496094 Z M 228.71875 168.058594 C 228.6875 168.09375 228.652344 168.125 228.621094 168.15625 C 226.960938 170.144531 227.351562 173.5 229.402344 175.0625 C 233.207031 177.960938 237.988281 174.835938 237.5 170.632812 C 237.046875 166.300781 231.515625 164.640625 228.71875 168.058594 Z M 212.164062 177.832031 C 211.707031 178.386719 210.894531 178.484375 210.339844 178.058594 C 209.789062 177.605469 209.691406 176.789062 210.144531 176.234375 L 232.394531 148.191406 C 232.851562 147.636719 233.664062 147.539062 234.214844 147.960938 C 234.769531 148.417969 234.867188 149.234375 234.445312 149.785156 Z M 154.851562 200.113281 L 143.042969 195.976562 C 141.578125 195.453125 139.984375 196.234375 139.496094 197.667969 L 125.054688 238.941406 C 124.535156 240.371094 125.316406 241.96875 126.746094 242.488281 L 138.554688 246.628906 C 139.984375 247.148438 141.613281 246.367188 142.101562 244.933594 L 156.542969 203.664062 C 157.03125 202.230469 156.28125 200.632812 154.851562 200.113281 Z M 158.429688 206.171875 L 145.15625 244.054688 L 151.597656 248.746094 C 165 261.9375 167.144531 264.769531 180.125 277.765625 C 185.847656 283.5 193.230469 277.117188 190.921875 273.664062 L 180.382812 263.566406 C 179.148438 262.359375 180.96875 260.503906 182.171875 261.675781 L 194.078125 273.078125 C 194.144531 273.140625 194.207031 273.207031 194.242188 273.273438 L 196.613281 275.390625 C 199.347656 277.863281 204.03125 275.257812 205.460938 272.195312 C 206.082031 270.863281 206.046875 269.460938 204.910156 268.289062 L 193.003906 256.855469 C 191.769531 255.683594 193.558594 253.792969 194.792969 255 L 206.699219 266.398438 C 210.667969 270.242188 218.148438 262.488281 214.375 258.746094 C 214.375 258.710938 214.34375 258.710938 214.34375 258.679688 L 202.40625 247.246094 C 201.167969 246.074219 202.957031 244.183594 204.195312 245.355469 L 216.132812 256.789062 C 216.164062 256.824219 216.195312 256.824219 216.230469 256.855469 C 220.066406 260.699219 227.15625 253.011719 224.199219 250.046875 L 207.675781 233.597656 C 202.46875 228.386719 197.820312 226.789062 192.191406 230.601562 C 184.515625 235.8125 177.488281 235.292969 172.902344 232.785156 C 170.269531 231.351562 167.925781 228.941406 167.40625 226.105469 C 166.949219 223.824219 167.730469 221.675781 170.039062 220.308594 L 184.386719 211.773438 Z M 235.484375 243.011719 L 222.605469 206.171875 C 214.734375 207.605469 191.152344 210.765625 188.484375 212.457031 L 188.253906 212.652344 L 187.800781 212.980469 L 171.4375 222.71875 C 169.128906 224.085938 169.878906 226.5625 171.308594 228.320312 C 172.023438 229.199219 173 230.015625 174.203125 230.667969 C 178.074219 232.785156 184.125 233.140625 190.824219 228.613281 C 197.527344 224.054688 203.476562 225.8125 209.59375 231.902344 L 225.855469 248.09375 Z M 237.957031 195.976562 L 226.148438 200.113281 C 224.71875 200.632812 223.9375 202.230469 224.457031 203.664062 L 238.28125 243.140625 C 238.835938 244.542969 238.898438 245.8125 240.332031 246.496094 C 240.980469 246.789062 241.730469 246.855469 242.445312 246.628906 L 254.253906 242.488281 C 255.714844 241.96875 256.464844 240.371094 255.945312 238.941406 L 241.503906 197.667969 C 241.015625 196.234375 239.421875 195.488281 237.957031 195.976562 Z M 237.957031 195.976562 " fill-opacity="1" fill-rule="nonzero"/></g></svg>