<svg xmlns="http://www.w3.org/2000/svg" xmlns:xlink="http://www.w3.org/1999/xlink" width="500" zoomAndPan="magnify" viewBox="0 0 375 374.999991" height="500" preserveAspectRatio="xMidYMid meet" version="1.0"><defs><clipPath id="20496f4e8b"><path d="M 161 50.144531 L 284 50.144531 L 284 199 L 161 199 Z M 161 50.144531 " clip-rule="nonzero"/></clipPath><clipPath id="34fe1859e2"><path d="M 68 232 L 117 232 L 117 324.644531 L 68 324.644531 Z M 68 232 " clip-rule="nonzero"/></clipPath></defs><g clip-path="url(#20496f4e8b)"><path fill="#ffffff" d="M 256.453125 198.355469 C 256.453125 198.355469 256.453125 198.355469 256.289062 198.355469 L 165.851562 198.355469 C 163.277344 198.355469 161.023438 196.265625 161.023438 193.53125 L 161.023438 54.972656 C 161.023438 52.238281 163.277344 50.144531 165.851562 50.144531 L 278.660156 50.144531 C 281.394531 50.144531 283.488281 52.238281 283.488281 54.972656 L 283.488281 168.425781 C 283.488281 171 281.394531 173.253906 278.660156 173.253906 C 269.003906 173.253906 260.957031 181.136719 260.957031 190.792969 C 260.957031 191.277344 261.117188 191.921875 261.117188 192.402344 C 261.117188 192.726562 261.277344 193.207031 261.277344 193.53125 C 261.277344 196.265625 259.027344 198.355469 256.453125 198.355469 Z M 170.679688 188.703125 L 251.460938 188.703125 C 252.429688 176.3125 261.761719 166.171875 273.832031 163.917969 L 273.832031 59.800781 L 170.679688 59.800781 Z M 170.679688 188.703125 " fill-opacity="1" fill-rule="evenodd"/></g><path fill="#ffffff" d="M 191.4375 102.605469 L 180.171875 102.605469 C 177.4375 102.605469 175.34375 100.355469 175.34375 97.777344 L 175.34375 74.765625 C 175.34375 72.191406 177.4375 69.9375 180.171875 69.9375 C 182.746094 69.9375 185 72.191406 185 74.765625 L 185 92.953125 L 191.4375 92.953125 C 194.171875 92.953125 196.265625 95.042969 196.265625 97.777344 C 196.265625 100.355469 194.171875 102.605469 191.4375 102.605469 Z M 191.4375 102.605469 " fill-opacity="1" fill-rule="evenodd"/><path fill="#ffffff" d="M 208.011719 102.605469 C 200.128906 102.605469 193.691406 95.527344 193.691406 86.835938 C 193.691406 78.144531 200.128906 71.226562 208.011719 71.226562 C 215.738281 71.226562 222.175781 78.144531 222.175781 86.835938 C 222.175781 95.527344 215.738281 102.605469 208.011719 102.605469 Z M 208.011719 80.882812 C 205.4375 80.882812 203.347656 83.617188 203.347656 86.835938 C 203.347656 90.054688 205.4375 92.953125 208.011719 92.953125 C 210.425781 92.953125 212.519531 90.054688 212.519531 86.835938 C 212.519531 83.617188 210.425781 80.882812 208.011719 80.882812 Z M 208.011719 80.882812 " fill-opacity="1" fill-rule="evenodd"/><path fill="#ffffff" d="M 238.589844 102.605469 C 236.015625 102.605469 233.761719 100.355469 233.761719 97.777344 L 233.761719 79.753906 L 233.601562 79.753906 L 233.601562 97.777344 C 233.601562 100.355469 231.347656 102.605469 228.773438 102.605469 C 226.035156 102.605469 223.945312 100.355469 223.945312 97.777344 L 223.945312 79.753906 C 223.945312 74.285156 228.289062 69.9375 233.761719 69.9375 C 239.070312 69.9375 243.417969 74.285156 243.417969 79.753906 L 243.417969 97.777344 C 243.417969 100.355469 241.324219 102.605469 238.589844 102.605469 Z M 238.589844 102.605469 " fill-opacity="1" fill-rule="evenodd"/><path fill="#ffffff" d="M 238.589844 91.179688 L 228.773438 91.179688 C 226.035156 91.179688 223.945312 89.089844 223.945312 86.351562 C 223.945312 83.777344 226.035156 81.527344 228.773438 81.527344 L 238.589844 81.527344 C 241.324219 81.527344 243.417969 83.777344 243.417969 86.351562 C 243.417969 89.089844 241.324219 91.179688 238.589844 91.179688 Z M 238.589844 91.179688 " fill-opacity="1" fill-rule="evenodd"/><path fill="#ffffff" d="M 264.335938 102.929688 C 262.726562 102.929688 261.117188 101.964844 260.152344 100.515625 L 255.808594 92.789062 L 255.808594 97.777344 C 255.808594 100.355469 253.554688 102.605469 250.980469 102.605469 C 248.246094 102.605469 246.152344 100.355469 246.152344 97.777344 L 246.152344 74.765625 C 246.152344 72.675781 247.601562 70.742188 249.691406 70.101562 C 251.785156 69.617188 254.039062 70.421875 255.164062 72.351562 L 259.507812 80.078125 L 259.507812 74.765625 C 259.507812 72.191406 261.761719 69.9375 264.335938 69.9375 C 267.074219 69.9375 269.164062 72.191406 269.164062 74.765625 L 269.164062 98.101562 C 269.164062 100.191406 267.714844 102.125 265.625 102.769531 C 265.300781 102.769531 264.820312 102.929688 264.335938 102.929688 Z M 264.335938 102.929688 " fill-opacity="1" fill-rule="evenodd"/><path fill="#ffffff" d="M 262.886719 121.757812 L 177.917969 121.757812 C 175.34375 121.757812 173.09375 119.664062 173.09375 116.929688 C 173.09375 114.355469 175.34375 112.101562 177.917969 112.101562 L 262.886719 112.101562 C 265.625 112.101562 267.714844 114.355469 267.714844 116.929688 C 267.714844 119.664062 265.625 121.757812 262.886719 121.757812 Z M 262.886719 121.757812 " fill-opacity="1" fill-rule="evenodd"/><path fill="#ffffff" d="M 241.324219 138.332031 L 177.917969 138.332031 C 175.183594 138.332031 173.09375 136.242188 173.09375 133.503906 C 173.09375 130.929688 175.183594 128.675781 177.917969 128.675781 L 241.324219 128.675781 C 243.898438 128.675781 246.152344 130.929688 246.152344 133.503906 C 246.152344 136.242188 243.898438 138.332031 241.324219 138.332031 Z M 241.324219 138.332031 " fill-opacity="1" fill-rule="evenodd"/><path fill="#ffffff" d="M 241.164062 155.070312 L 177.917969 155.070312 C 175.34375 155.070312 173.09375 152.816406 173.09375 150.242188 C 173.09375 147.503906 175.34375 145.414062 177.917969 145.414062 L 241.164062 145.414062 C 243.898438 145.414062 245.992188 147.503906 245.992188 150.242188 C 245.992188 152.816406 243.898438 155.070312 241.164062 155.070312 Z M 241.164062 155.070312 " fill-opacity="1" fill-rule="evenodd"/><path fill="#ffffff" d="M 278.660156 218.152344 C 263.53125 218.152344 251.300781 205.921875 251.300781 190.792969 C 251.300781 175.828125 263.53125 163.597656 278.660156 163.597656 C 293.785156 163.597656 306.015625 175.828125 306.015625 190.792969 C 306.015625 205.921875 293.785156 218.152344 278.660156 218.152344 Z M 278.660156 173.253906 C 269.003906 173.253906 260.957031 181.136719 260.957031 190.792969 C 260.957031 200.609375 269.003906 208.496094 278.660156 208.496094 C 288.316406 208.496094 296.359375 200.609375 296.359375 190.792969 C 296.359375 181.136719 288.316406 173.253906 278.660156 173.253906 Z M 278.660156 173.253906 " fill-opacity="1" fill-rule="evenodd"/><path fill="#ffffff" d="M 274.152344 202.703125 C 272.867188 202.703125 271.738281 202.21875 270.773438 201.253906 L 265.625 196.105469 C 263.691406 194.335938 263.691406 191.277344 265.625 189.34375 C 267.394531 187.414062 270.453125 187.414062 272.382812 189.34375 L 274.152344 191.117188 L 284.933594 180.332031 C 286.867188 178.402344 289.921875 178.402344 291.695312 180.332031 C 293.625 182.265625 293.625 185.324219 291.695312 187.09375 L 277.53125 201.253906 C 276.566406 202.21875 275.441406 202.703125 274.152344 202.703125 Z M 274.152344 202.703125 " fill-opacity="1" fill-rule="evenodd"/><path fill="#ffffff" d="M 230.21875 171.484375 L 177.917969 171.484375 C 175.34375 171.484375 173.09375 169.390625 173.09375 166.65625 C 173.09375 164.082031 175.34375 161.828125 177.917969 161.828125 L 230.21875 161.828125 C 232.796875 161.828125 235.046875 164.082031 235.046875 166.65625 C 235.046875 169.390625 232.796875 171.484375 230.21875 171.484375 Z M 230.21875 171.484375 " fill-opacity="1" fill-rule="evenodd"/><path fill="#ffffff" d="M 172.449219 316.316406 C 159.414062 316.316406 149.597656 311.96875 141.230469 308.429688 C 131.089844 303.925781 123.6875 300.707031 114.515625 306.015625 C 112.101562 307.304688 109.203125 306.5 107.917969 304.246094 C 106.46875 301.992188 107.273438 298.9375 109.6875 297.648438 C 123.207031 289.761719 134.308594 294.75 145.253906 299.578125 C 160.058594 306.175781 176.792969 313.578125 208.175781 295.394531 L 269.96875 259.832031 C 272.222656 258.542969 273.832031 256.453125 274.476562 253.875 C 275.117188 251.300781 274.796875 248.566406 273.507812 246.3125 C 272.222656 244.058594 270.128906 242.449219 267.554688 241.808594 C 264.980469 241.164062 262.246094 241.484375 259.992188 242.773438 L 205.921875 273.992188 C 204.3125 279.140625 200.769531 283.488281 196.105469 285.902344 C 191.4375 288.316406 186.449219 288.796875 181.78125 287.1875 L 151.527344 276.566406 C 149.113281 275.761719 147.828125 273.027344 148.632812 270.453125 C 149.4375 268.039062 152.332031 266.589844 154.746094 267.554688 L 185 278.015625 C 187.09375 278.820312 189.34375 278.5 191.597656 277.371094 C 194.011719 276.085938 195.945312 273.671875 196.75 270.933594 C 196.75 270.773438 196.75 270.453125 196.910156 270.128906 C 196.910156 270.128906 196.910156 270.128906 196.910156 269.96875 C 197.714844 265.140625 194.65625 260.152344 189.667969 258.867188 L 134.953125 244.222656 L 114.195312 254.519531 C 111.78125 255.808594 108.882812 254.84375 107.757812 252.429688 C 106.46875 250.015625 107.433594 247.117188 109.847656 245.992188 L 132.378906 234.726562 C 133.34375 234.242188 134.632812 234.082031 135.757812 234.40625 L 192.242188 249.53125 C 199 251.460938 203.988281 256.613281 205.921875 262.886719 L 255.164062 234.40625 C 264.496094 228.933594 276.566406 232.152344 281.878906 241.484375 C 281.878906 241.484375 281.878906 241.484375 281.878906 241.644531 C 284.453125 245.992188 285.097656 251.300781 283.808594 256.289062 C 282.519531 261.441406 279.304688 265.625 274.796875 268.199219 L 213 303.761719 C 196.75 313.257812 183.390625 316.316406 172.449219 316.316406 Z M 172.449219 316.316406 " fill-opacity="1" fill-rule="evenodd"/><g clip-path="url(#34fe1859e2)"><path fill="#ffffff" d="M 105.34375 324.84375 L 80.398438 324.84375 C 74.125 324.84375 68.972656 319.695312 68.972656 313.257812 L 68.972656 243.738281 C 68.972656 237.460938 74.125 232.3125 80.398438 232.3125 L 105.34375 232.3125 C 111.78125 232.3125 116.929688 237.460938 116.929688 243.738281 L 116.929688 313.257812 C 116.929688 319.695312 111.78125 324.84375 105.34375 324.84375 Z M 80.398438 241.96875 C 79.433594 241.96875 78.628906 242.773438 78.628906 243.738281 L 78.628906 313.257812 C 78.628906 314.222656 79.433594 315.1875 80.398438 315.1875 L 105.34375 315.1875 C 106.308594 315.1875 107.273438 314.222656 107.273438 313.257812 L 107.273438 243.738281 C 107.273438 242.773438 106.308594 241.96875 105.34375 241.96875 Z M 80.398438 241.96875 " fill-opacity="1" fill-rule="evenodd"/></g></svg>