<svg xmlns="http://www.w3.org/2000/svg" xmlns:xlink="http://www.w3.org/1999/xlink" width="500" zoomAndPan="magnify" viewBox="0 0 375 374.999991" height="500" preserveAspectRatio="xMidYMid meet" version="1.0"><defs><clipPath id="71051ed4f2"><path d="M 58 62.488281 L 317 62.488281 L 317 312.238281 L 58 312.238281 Z M 58 62.488281 " clip-rule="nonzero"/></clipPath></defs><g clip-path="url(#71051ed4f2)"><path fill="#ffffff" d="M 309.984375 130.160156 C 307.007812 127.457031 302.929688 123.757812 298.523438 118.449219 C 292.570312 111.304688 287.628906 103.152344 283.839844 94.222656 C 283.789062 94.105469 283.726562 93.992188 283.65625 93.886719 C 279.46875 87.613281 274.582031 83.722656 269.117188 82.316406 C 265.15625 81.320312 261.871094 81.847656 258.695312 82.359375 C 255.023438 82.945312 251.558594 83.503906 246.742188 81.894531 C 245.1875 81.367188 244.367188 80.910156 243.503906 80.421875 C 242.324219 79.765625 241.109375 79.082031 238.445312 78.324219 C 235 77.335938 233.03125 77.332031 230.535156 77.324219 C 228.710938 77.316406 226.640625 77.3125 223.300781 76.929688 C 220.644531 76.628906 218.738281 76.269531 217.054688 75.949219 C 214.125 75.390625 211.8125 74.949219 208.019531 75.417969 C 204.355469 75.847656 201.460938 76.191406 199.753906 78.578125 C 196.902344 82.496094 199.75 87.984375 203.046875 94.34375 C 203.84375 95.875 204.667969 97.460938 205.433594 99.074219 C 209.234375 107.054688 211.648438 115.96875 212.640625 125.566406 C 211.550781 126.238281 210.226562 127.410156 209.667969 129.40625 C 209.421875 130.269531 209.378906 131.117188 209.46875 131.90625 C 204.800781 131.972656 199.683594 132.398438 194.675781 133.1875 C 188.757812 131.027344 183.078125 128.207031 177.800781 124.773438 C 174.882812 122.878906 172.027344 120.707031 169.273438 118.371094 C 169.386719 117.296875 169.308594 115.8125 168.449219 114.300781 C 167.988281 113.472656 167.414062 112.886719 166.851562 112.421875 C 174.816406 96.441406 185.90625 70.683594 178.007812 64.726562 C 175.050781 62.476562 169.230469 62.816406 164.550781 63.089844 C 164.550781 63.089844 164.347656 63.105469 164.34375 63.105469 C 160.820312 63.328125 158.746094 63.851562 156.738281 64.355469 C 155.507812 64.667969 154.234375 64.988281 152.5625 65.253906 C 146.917969 66.164062 143.734375 65.386719 140.65625 64.632812 C 137.664062 63.902344 134.574219 63.144531 129.980469 64.28125 C 125.757812 65.316406 123.984375 66.996094 122.109375 68.769531 C 120.402344 70.382812 118.640625 72.050781 114.351562 73.804688 C 110.242188 75.476562 107.605469 75.675781 104.816406 75.882812 C 101.859375 76.101562 98.804688 76.332031 94.355469 78.328125 C 90.429688 80.042969 81.167969 84.75 79.851562 91.402344 C 77.980469 100.71875 92.542969 113.011719 117.046875 122.980469 C 116.839844 123.777344 116.753906 124.582031 116.804688 125.398438 C 116.902344 127.269531 117.652344 128.707031 118.367188 129.679688 C 116.289062 133.363281 113.5625 136.578125 110.351562 138.988281 C 102.851562 144.644531 89.582031 157.171875 84.957031 177.527344 C 78.441406 206.207031 93.929688 228.554688 98.195312 234.027344 C 98.035156 234.355469 97.871094 234.707031 97.714844 235.066406 L 79.363281 237.785156 C 70.839844 239.070312 64.171875 245.683594 62.777344 254.253906 L 58.640625 279.746094 C 58.136719 282.832031 58.960938 286 60.898438 288.441406 C 62.824219 290.863281 65.695312 292.367188 68.707031 292.566406 C 68.980469 292.59375 69.226562 292.597656 69.5 292.597656 C 74.972656 292.597656 79.660156 288.476562 80.40625 283.007812 L 82.757812 265.636719 C 83.234375 262.09375 86.332031 259.4375 89.8125 259.617188 L 97.058594 259.839844 C 101.796875 272.1875 113.566406 280.402344 126.828125 280.402344 C 133.089844 280.402344 139.066406 278.550781 144.136719 275.265625 L 140.402344 282.355469 C 138.945312 285.117188 136.117188 286.859375 133.011719 286.910156 L 120.824219 287.113281 C 113.964844 287.214844 108.390625 292.902344 108.390625 299.800781 C 108.390625 303.328125 109.789062 306.601562 112.324219 309.019531 C 114.6875 311.277344 117.746094 312.496094 120.988281 312.496094 C 121.191406 312.496094 121.398438 312.492188 121.605469 312.484375 L 151.308594 311.070312 C 155.066406 310.902344 158.515625 309.070312 160.769531 306.066406 L 188.402344 269.386719 C 190.636719 272.292969 193.273438 274.609375 196.304688 276.230469 C 200.566406 278.511719 203.726562 278.425781 208.109375 278.320312 C 211.25 278.242188 215.152344 278.136719 220.972656 278.8125 C 224.082031 279.179688 226.386719 279.609375 228.417969 279.988281 C 231.257812 280.519531 233.636719 280.960938 236.839844 280.960938 C 237.828125 280.960938 238.890625 280.917969 240.074219 280.828125 C 242.902344 280.601562 244.398438 280.230469 246.304688 279.761719 C 247.4375 279.484375 248.753906 279.160156 250.664062 278.792969 C 258.933594 277.226562 264.128906 277.578125 267.921875 277.824219 C 271.996094 278.097656 275.203125 278.3125 278.910156 275.808594 C 283.753906 272.589844 287.078125 265.195312 288.785156 253.828125 C 293.40625 223.355469 281.519531 196.335938 275.132812 181.824219 C 271.097656 172.632812 266.332031 163.609375 260.996094 154.957031 C 261.992188 153.792969 263.0625 152.074219 263.472656 149.75 C 263.695312 148.464844 263.652344 147.300781 263.5 146.289062 C 272.410156 146.792969 279.835938 147.019531 286 147.019531 C 310.589844 147.019531 315.335938 143.445312 316.175781 139.703125 C 316.914062 136.441406 314.15625 133.941406 309.984375 130.160156 Z M 134.316406 118.511719 C 136.703125 117.820312 139.152344 117.226562 141.609375 116.753906 C 148.886719 115.3125 156.316406 114.792969 163.714844 115.191406 C 164.023438 115.347656 164.539062 115.683594 164.886719 116.308594 C 165.074219 116.640625 165.152344 116.960938 165.191406 117.265625 C 157.820312 117.738281 150.511719 118.738281 143.4375 120.296875 C 135.988281 121.917969 128.613281 124.179688 121.472656 126.976562 C 121.191406 126.519531 120.929688 125.917969 120.890625 125.179688 C 120.855469 124.585938 120.964844 124 121.210938 123.421875 C 125.394531 121.472656 129.796875 119.824219 134.316406 118.511719 Z M 83.867188 92.207031 C 84.636719 88.3125 90.882812 84.320312 96.015625 82.074219 C 99.832031 80.367188 102.285156 80.179688 105.125 79.972656 C 107.96875 79.757812 111.191406 79.519531 115.902344 77.605469 C 120.902344 75.558594 123.132812 73.449219 124.925781 71.753906 C 126.589844 70.179688 127.789062 69.042969 130.964844 68.265625 C 134.589844 67.367188 136.835938 67.917969 139.683594 68.617188 C 143.003906 69.429688 146.753906 70.351562 153.21875 69.300781 C 155.0625 69.007812 156.425781 68.664062 157.746094 68.332031 C 159.738281 67.828125 161.460938 67.394531 164.796875 67.179688 C 168.15625 66.988281 173.777344 66.652344 175.542969 67.992188 C 179.34375 70.859375 174.042969 88.898438 162.9375 111.09375 C 159.574219 110.945312 156.210938 110.960938 152.855469 111.175781 C 153.453125 106.425781 153.703125 101.671875 153.550781 97.011719 C 153.402344 92.070312 152.832031 87.070312 151.855469 82.140625 C 151.636719 81.035156 150.570312 80.304688 149.449219 80.535156 C 148.339844 80.753906 147.617188 81.832031 147.84375 82.941406 C 148.773438 87.640625 149.320312 92.417969 149.460938 97.136719 C 149.613281 101.890625 149.335938 106.738281 148.675781 111.574219 C 146.046875 111.867188 143.421875 112.226562 140.820312 112.738281 C 138.871094 113.117188 136.929688 113.585938 135.003906 114.097656 C 133.472656 110.050781 131.605469 106.066406 129.394531 102.242188 C 126.953125 98.042969 124.09375 94.023438 120.894531 90.292969 C 120.160156 89.4375 118.867188 89.339844 118.007812 90.074219 C 117.152344 90.808594 117.054688 92.105469 117.789062 92.960938 C 120.828125 96.5 123.542969 100.316406 125.855469 104.292969 C 127.898438 107.828125 129.628906 111.503906 131.066406 115.242188 C 127.152344 116.476562 123.332031 117.945312 119.671875 119.640625 C 94.570312 109.625 82.648438 98.296875 83.867188 92.207031 Z M 78.707031 265.097656 L 76.351562 282.464844 C 75.882812 285.910156 72.9375 288.511719 69.5 288.511719 C 69.363281 288.511719 69.242188 288.511719 69.039062 288.492188 C 67.082031 288.363281 65.332031 287.445312 64.105469 285.902344 C 62.878906 284.359375 62.359375 282.363281 62.683594 280.40625 L 66.816406 254.917969 C 67.925781 248.113281 73.214844 242.855469 79.96875 241.835938 L 96.125 239.441406 C 95.316406 242.296875 94.894531 245.246094 94.894531 248.261719 C 94.894531 250.8125 95.195312 253.300781 95.765625 255.707031 L 89.945312 255.527344 C 84.390625 255.328125 79.464844 259.46875 78.707031 265.097656 Z M 100.433594 257.183594 C 99.472656 254.363281 98.984375 251.363281 98.984375 248.265625 C 98.984375 244.609375 99.671875 241.054688 101.019531 237.71875 C 101.488281 236.589844 101.945312 235.625 102.417969 234.765625 C 105.964844 228.28125 112.027344 223.382812 119.035156 221.324219 C 121.546875 220.589844 124.167969 220.21875 126.832031 220.21875 C 136.335938 220.21875 145.082031 225.023438 150.238281 233.074219 C 153.15625 237.585938 154.699219 242.839844 154.699219 248.269531 C 154.699219 252.890625 153.558594 257.464844 151.402344 261.503906 C 151.382812 261.539062 151.363281 261.574219 151.34375 261.609375 C 151.335938 261.621094 151.328125 261.632812 151.320312 261.644531 C 146.449219 270.695312 137.066406 276.320312 126.832031 276.320312 C 114.847656 276.316406 104.242188 268.632812 100.433594 257.183594 Z M 157.5 303.613281 C 155.980469 305.644531 153.65625 306.875 151.121094 306.988281 L 121.414062 308.398438 C 119.066406 308.492188 116.847656 307.679688 115.152344 306.058594 C 113.433594 304.421875 112.484375 302.199219 112.484375 299.800781 C 112.484375 295.128906 116.253906 291.273438 120.886719 291.207031 L 133.082031 291.003906 C 137.679688 290.929688 141.871094 288.347656 144.023438 284.265625 L 154.9375 263.550781 C 154.941406 263.546875 154.941406 263.542969 154.945312 263.539062 C 154.957031 263.515625 154.972656 263.492188 154.984375 263.46875 C 157.472656 258.828125 158.785156 253.570312 158.785156 248.261719 C 158.785156 243.597656 157.792969 239.046875 155.882812 234.878906 L 178.332031 239.664062 C 180.863281 242.230469 182.859375 245.148438 184.273438 248.339844 C 187.164062 254.804688 187.117188 260.941406 186.507812 265.097656 Z M 284.742188 253.222656 C 283.691406 260.21875 281.433594 269.226562 276.578125 272.449219 C 274.078125 274.144531 271.988281 274.003906 268.199219 273.75 C 264.179688 273.476562 258.6875 273.113281 249.902344 274.777344 C 247.898438 275.160156 246.519531 275.5 245.332031 275.792969 C 243.476562 276.25 242.246094 276.550781 239.75 276.75 C 235.277344 277.113281 232.851562 276.65625 229.171875 275.972656 C 227.078125 275.582031 224.699219 275.136719 221.449219 274.753906 C 215.347656 274.039062 211.277344 274.15625 208.007812 274.234375 C 203.839844 274.339844 201.550781 274.402344 198.246094 272.628906 C 195.242188 271.019531 192.683594 268.574219 190.59375 265.40625 C 191.242188 260.699219 191.242188 253.890625 188.015625 246.683594 C 186.417969 243.066406 184.152344 239.761719 181.40625 236.96875 C 178.65625 231.996094 175.488281 227.183594 171.964844 222.65625 C 168.957031 218.804688 165.644531 215.113281 162.121094 211.6875 C 161.3125 210.898438 160.019531 210.921875 159.230469 211.730469 C 158.441406 212.539062 158.460938 213.832031 159.269531 214.625 C 162.660156 217.921875 165.847656 221.472656 168.738281 225.175781 C 171.152344 228.277344 173.386719 231.523438 175.4375 234.863281 L 153.179688 230.121094 C 147.214844 221.34375 137.441406 216.121094 126.835938 216.121094 C 124.742188 216.121094 122.671875 216.339844 120.640625 216.738281 C 121.425781 204.152344 125.058594 186.722656 137.171875 170.472656 C 153.796875 148.15625 177.667969 140.117188 194.761719 137.304688 C 200.757812 136.328125 206.980469 135.859375 212.097656 135.96875 C 220.050781 136.910156 227.820312 139.003906 235.191406 142.195312 C 243.089844 145.636719 250.378906 150.277344 256.855469 155.996094 C 262.371094 164.820312 267.261719 174.066406 271.394531 183.476562 C 277.609375 197.609375 289.183594 223.921875 284.742188 253.222656 Z M 261.433594 142.078125 C 258.605469 139.980469 255.644531 138.050781 252.601562 136.320312 C 255.277344 132.636719 258.128906 129.042969 261.171875 125.652344 C 264.152344 122.355469 267.332031 119.183594 270.617188 116.226562 C 271.457031 115.472656 271.527344 114.175781 270.769531 113.335938 C 270.015625 112.496094 268.722656 112.429688 267.878906 113.183594 C 264.488281 116.234375 261.210938 119.507812 258.128906 122.914062 C 254.859375 126.554688 251.773438 130.410156 248.921875 134.367188 C 245.664062 132.6875 242.25 131.148438 238.683594 129.847656 C 238.082031 129.628906 237.464844 129.460938 236.863281 129.257812 C 237.671875 124.726562 238.246094 120.027344 238.554688 115.238281 C 238.855469 110.269531 238.863281 105.359375 238.574219 100.226562 C 238.515625 99.101562 237.527344 98.234375 236.417969 98.300781 C 235.289062 98.363281 234.425781 99.328125 234.492188 100.457031 C 234.769531 105.429688 234.761719 110.183594 234.472656 114.984375 C 234.1875 119.421875 233.664062 123.78125 232.933594 127.984375 C 227.632812 126.460938 222.1875 125.464844 216.683594 124.925781 C 215.628906 114.945312 213.097656 105.65625 209.125 97.320312 C 208.339844 95.664062 207.496094 94.035156 206.679688 92.460938 C 204.230469 87.738281 201.695312 82.859375 203.066406 80.972656 C 203.707031 80.085938 205.367188 79.851562 208.507812 79.480469 C 211.675781 79.097656 213.410156 79.425781 216.292969 79.972656 C 217.960938 80.285156 220.035156 80.683594 222.839844 80.996094 C 226.398438 81.40625 228.6875 81.410156 230.527344 81.417969 C 232.871094 81.425781 234.417969 81.429688 237.324219 82.261719 C 239.527344 82.890625 240.441406 83.402344 241.503906 83.996094 C 242.445312 84.527344 243.515625 85.125 245.441406 85.773438 C 251.214844 87.707031 255.535156 87.011719 259.347656 86.402344 C 262.367188 85.917969 264.980469 85.5 268.105469 86.285156 C 272.515625 87.421875 276.566406 90.691406 280.148438 96.003906 C 284.085938 105.234375 289.210938 113.667969 295.378906 121.070312 C 299.964844 126.597656 304.167969 130.410156 307.238281 133.191406 C 309.890625 135.597656 312.394531 137.871094 312.183594 138.8125 C 311.949219 139.851562 308.378906 144.894531 261.433594 142.078125 Z M 261.433594 142.078125 " fill-opacity="1" fill-rule="nonzero"/></g><path fill="#ffffff" d="M 172.035156 200.898438 C 167.671875 195.40625 162.0625 190.867188 155.8125 187.753906 C 154.796875 187.253906 153.574219 187.664062 153.070312 188.675781 C 152.566406 189.6875 152.980469 190.917969 153.988281 191.417969 C 159.707031 194.265625 164.839844 198.417969 168.828125 203.445312 C 172.835938 208.496094 175.648438 214.269531 177.179688 220.613281 C 177.40625 221.550781 178.242188 222.179688 179.164062 222.179688 C 179.324219 222.179688 179.488281 222.164062 179.648438 222.125 C 180.746094 221.859375 181.421875 220.753906 181.15625 219.65625 C 179.484375 212.730469 176.414062 206.417969 172.035156 200.898438 Z M 172.035156 200.898438 " fill-opacity="1" fill-rule="nonzero"/><path fill="#ffffff" d="M 231.808594 161.699219 C 231.480469 160.6875 230.414062 160.097656 229.394531 160.34375 L 201.324219 167.011719 C 201.296875 167.019531 201.269531 167.019531 201.238281 167.03125 L 187.347656 170.332031 C 186.246094 170.59375 185.566406 171.695312 185.828125 172.796875 C 186.089844 173.898438 187.199219 174.574219 188.292969 174.3125 L 197.785156 172.054688 L 181.039062 202.175781 C 180.488281 203.160156 180.839844 204.402344 181.820312 204.953125 L 218.855469 225.84375 C 219.164062 226.015625 219.511719 226.109375 219.859375 226.109375 C 220.046875 226.109375 220.234375 226.082031 220.414062 226.03125 C 220.941406 225.882812 221.386719 225.53125 221.648438 225.054688 L 238.390625 194.945312 L 241.445312 204.277344 C 241.726562 205.140625 242.527344 205.6875 243.390625 205.6875 C 243.601562 205.6875 243.816406 205.65625 244.027344 205.585938 C 245.101562 205.238281 245.6875 204.082031 245.335938 203.007812 Z M 219.074219 221.269531 L 185.605469 202.386719 L 203.183594 170.773438 L 228.507812 164.757812 L 236.652344 189.644531 Z M 219.074219 221.269531 " fill-opacity="1" fill-rule="nonzero"/><path fill="#ffffff" d="M 225.601562 174.113281 L 226.902344 171.792969 C 227.457031 170.8125 227.113281 169.558594 226.125 169.007812 C 225.144531 168.453125 223.898438 168.796875 223.339844 169.785156 L 221.953125 172.253906 C 220.800781 171.886719 219.597656 171.648438 218.316406 171.648438 C 213.898438 171.671875 209.988281 174.332031 208.578125 178.285156 C 208.28125 179.136719 208.121094 179.988281 208.101562 180.828125 C 208.046875 182.492188 208.625 184.414062 209.648438 185.976562 C 210.417969 187.132812 211.40625 188.136719 212.484375 189.128906 L 206.675781 199.476562 C 205 198.050781 203.921875 195.996094 203.753906 193.757812 C 203.671875 192.632812 202.722656 191.785156 201.566406 191.867188 C 200.4375 191.949219 199.589844 192.933594 199.675781 194.058594 C 199.941406 197.691406 201.835938 201.007812 204.648438 203.09375 L 203.347656 205.40625 C 202.792969 206.390625 203.144531 207.636719 204.132812 208.191406 C 204.445312 208.367188 204.789062 208.453125 205.128906 208.453125 C 205.84375 208.453125 206.539062 208.078125 206.914062 207.40625 L 208.28125 204.976562 C 209.394531 205.328125 210.558594 205.507812 211.691406 205.507812 C 211.753906 205.507812 211.8125 205.507812 211.875 205.507812 C 216.289062 205.480469 220.203125 202.820312 221.613281 198.867188 C 221.914062 198 222.070312 197.171875 222.089844 196.359375 C 222.226562 192.882812 220.039062 190.441406 217.65625 188.269531 L 223.574219 177.722656 C 225.214844 179.15625 226.269531 181.203125 226.4375 183.414062 C 226.519531 184.542969 227.515625 185.378906 228.625 185.304688 C 229.753906 185.222656 230.601562 184.242188 230.515625 183.117188 C 230.253906 179.53125 228.402344 176.242188 225.601562 174.113281 Z M 213.058594 183.71875 C 212.503906 182.871094 212.160156 181.785156 212.1875 180.933594 C 212.199219 180.519531 212.285156 180.074219 212.4375 179.636719 C 213.261719 177.320312 215.632812 175.753906 218.324219 175.738281 C 218.871094 175.738281 219.402344 175.785156 219.910156 175.886719 L 214.542969 185.453125 C 213.964844 184.878906 213.453125 184.308594 213.058594 183.71875 Z M 218 196.222656 C 217.988281 196.644531 217.90625 197.0625 217.75 197.515625 C 216.921875 199.832031 214.554688 201.398438 211.824219 201.414062 C 211.359375 201.414062 210.863281 201.367188 210.359375 201.269531 L 215.597656 191.941406 C 217.03125 193.320312 218.058594 194.660156 218 196.222656 Z M 218 196.222656 " fill-opacity="1" fill-rule="nonzero"/></svg>