<svg xmlns="http://www.w3.org/2000/svg" xmlns:xlink="http://www.w3.org/1999/xlink" width="500" zoomAndPan="magnify" viewBox="0 0 375 374.999991" height="500" preserveAspectRatio="xMidYMid meet" version="1.0"><defs><clipPath id="01ed721c64"><path d="M 51.015625 51.015625 L 324 51.015625 L 324 324 L 51.015625 324 Z M 51.015625 51.015625 " clip-rule="nonzero"/></clipPath></defs><g clip-path="url(#01ed721c64)"><path fill="#ffffff" d="M 316.800781 252.148438 C 320.75 252.148438 323.980469 248.917969 323.980469 244.964844 L 323.980469 173.132812 C 323.980469 169.183594 320.75 165.949219 316.800781 165.949219 L 266.515625 165.949219 L 266.515625 101.300781 C 266.515625 99.359375 265.726562 97.566406 264.433594 96.199219 L 221.332031 53.101562 C 219.96875 51.808594 218.171875 51.015625 216.234375 51.015625 L 72.566406 51.015625 C 60.714844 51.015625 51.015625 60.714844 51.015625 72.566406 L 51.015625 173.132812 C 51.015625 177.085938 54.25 180.316406 58.199219 180.316406 C 62.152344 180.316406 65.382812 177.085938 65.382812 173.132812 L 65.382812 72.566406 C 65.382812 68.617188 68.617188 65.382812 72.566406 65.382812 L 209.050781 65.382812 L 209.050781 101.300781 C 209.050781 105.25 212.28125 108.484375 216.234375 108.484375 L 252.148438 108.484375 L 252.148438 165.949219 L 201.867188 165.949219 C 197.914062 165.949219 194.683594 169.183594 194.683594 173.132812 L 194.683594 309.617188 L 72.566406 309.617188 C 68.617188 309.617188 65.382812 306.382812 65.382812 302.433594 L 65.382812 201.867188 C 65.382812 197.914062 62.152344 194.683594 58.199219 194.683594 C 54.25 194.683594 51.015625 197.914062 51.015625 201.867188 L 51.015625 302.433594 C 51.015625 314.285156 60.714844 323.980469 72.566406 323.980469 L 316.800781 323.980469 C 320.75 323.980469 323.980469 320.75 323.980469 316.800781 L 323.980469 273.699219 C 323.980469 269.75 320.75 266.515625 316.800781 266.515625 C 312.847656 266.515625 309.617188 269.75 309.617188 273.699219 L 309.617188 309.617188 L 209.050781 309.617188 L 209.050781 209.050781 L 309.617188 209.050781 L 309.617188 244.964844 C 309.617188 248.917969 312.847656 252.148438 316.800781 252.148438 Z M 223.417969 94.117188 L 223.417969 75.511719 L 242.019531 94.117188 Z M 209.050781 194.683594 L 209.050781 180.316406 L 309.617188 180.316406 L 309.617188 194.683594 Z M 209.050781 194.683594 " fill-opacity="1" fill-rule="nonzero"/></g><path fill="#ffffff" d="M 237.78125 230.597656 C 237.78125 231.070312 237.738281 231.539062 237.644531 232 C 237.554688 232.464844 237.417969 232.914062 237.234375 233.347656 C 237.054688 233.785156 236.835938 234.199219 236.570312 234.589844 C 236.308594 234.984375 236.011719 235.34375 235.679688 235.679688 C 235.34375 236.011719 234.984375 236.308594 234.589844 236.570312 C 234.199219 236.835938 233.785156 237.054688 233.347656 237.234375 C 232.914062 237.417969 232.464844 237.554688 232 237.644531 C 231.539062 237.738281 231.070312 237.78125 230.597656 237.78125 C 230.128906 237.78125 229.660156 237.738281 229.199219 237.644531 C 228.734375 237.554688 228.285156 237.417969 227.851562 237.234375 C 227.414062 237.054688 227 236.835938 226.609375 236.570312 C 226.214844 236.308594 225.855469 236.011719 225.519531 235.679688 C 225.1875 235.34375 224.890625 234.984375 224.625 234.589844 C 224.363281 234.199219 224.144531 233.785156 223.964844 233.347656 C 223.78125 232.914062 223.644531 232.464844 223.554688 232 C 223.460938 231.539062 223.417969 231.070312 223.417969 230.597656 C 223.417969 230.128906 223.460938 229.660156 223.554688 229.199219 C 223.644531 228.734375 223.78125 228.285156 223.964844 227.851562 C 224.144531 227.414062 224.363281 227 224.625 226.609375 C 224.890625 226.214844 225.1875 225.855469 225.519531 225.519531 C 225.855469 225.1875 226.214844 224.890625 226.609375 224.625 C 227 224.363281 227.414062 224.144531 227.851562 223.964844 C 228.285156 223.78125 228.734375 223.644531 229.199219 223.554688 C 229.660156 223.460938 230.128906 223.417969 230.597656 223.417969 C 231.070312 223.417969 231.539062 223.460938 232 223.554688 C 232.464844 223.644531 232.914062 223.78125 233.347656 223.964844 C 233.785156 224.144531 234.199219 224.363281 234.589844 224.625 C 234.984375 224.890625 235.34375 225.1875 235.679688 225.519531 C 236.011719 225.855469 236.308594 226.214844 236.570312 226.609375 C 236.835938 227 237.054688 227.414062 237.234375 227.851562 C 237.417969 228.285156 237.554688 228.734375 237.644531 229.199219 C 237.738281 229.660156 237.78125 230.128906 237.78125 230.597656 Z M 237.78125 230.597656 " fill-opacity="1" fill-rule="nonzero"/><path fill="#ffffff" d="M 266.515625 230.597656 C 266.515625 231.070312 266.46875 231.539062 266.378906 232 C 266.285156 232.464844 266.148438 232.914062 265.96875 233.347656 C 265.789062 233.785156 265.566406 234.199219 265.304688 234.589844 C 265.042969 234.984375 264.746094 235.34375 264.410156 235.679688 C 264.078125 236.011719 263.714844 236.308594 263.324219 236.570312 C 262.929688 236.835938 262.515625 237.054688 262.082031 237.234375 C 261.644531 237.417969 261.195312 237.554688 260.734375 237.644531 C 260.273438 237.738281 259.804688 237.78125 259.332031 237.78125 C 258.859375 237.78125 258.394531 237.738281 257.929688 237.644531 C 257.46875 237.554688 257.019531 237.417969 256.582031 237.234375 C 256.148438 237.054688 255.734375 236.835938 255.34375 236.570312 C 254.949219 236.308594 254.585938 236.011719 254.253906 235.679688 C 253.917969 235.34375 253.621094 234.984375 253.359375 234.589844 C 253.097656 234.199219 252.875 233.785156 252.695312 233.347656 C 252.515625 232.914062 252.378906 232.464844 252.289062 232 C 252.195312 231.539062 252.148438 231.070312 252.148438 230.597656 C 252.148438 230.128906 252.195312 229.660156 252.289062 229.199219 C 252.378906 228.734375 252.515625 228.285156 252.695312 227.851562 C 252.875 227.414062 253.097656 227 253.359375 226.609375 C 253.621094 226.214844 253.917969 225.855469 254.253906 225.519531 C 254.585938 225.1875 254.949219 224.890625 255.34375 224.625 C 255.734375 224.363281 256.148438 224.144531 256.582031 223.964844 C 257.019531 223.78125 257.46875 223.644531 257.929688 223.554688 C 258.394531 223.460938 258.859375 223.417969 259.332031 223.417969 C 259.804688 223.417969 260.273438 223.460938 260.734375 223.554688 C 261.195312 223.644531 261.644531 223.78125 262.082031 223.964844 C 262.515625 224.144531 262.929688 224.363281 263.324219 224.625 C 263.714844 224.890625 264.078125 225.1875 264.410156 225.519531 C 264.746094 225.855469 265.042969 226.214844 265.304688 226.609375 C 265.566406 227 265.789062 227.414062 265.96875 227.851562 C 266.148438 228.285156 266.285156 228.734375 266.378906 229.199219 C 266.46875 229.660156 266.515625 230.128906 266.515625 230.597656 Z M 266.515625 230.597656 " fill-opacity="1" fill-rule="nonzero"/><path fill="#ffffff" d="M 295.25 230.597656 C 295.25 231.070312 295.203125 231.539062 295.109375 232 C 295.019531 232.464844 294.882812 232.914062 294.703125 233.347656 C 294.523438 233.785156 294.300781 234.199219 294.039062 234.589844 C 293.777344 234.984375 293.480469 235.34375 293.144531 235.679688 C 292.8125 236.011719 292.449219 236.308594 292.054688 236.570312 C 291.664062 236.835938 291.25 237.054688 290.816406 237.234375 C 290.378906 237.417969 289.929688 237.554688 289.46875 237.644531 C 289.003906 237.738281 288.539062 237.78125 288.066406 237.78125 C 287.59375 237.78125 287.128906 237.738281 286.664062 237.644531 C 286.203125 237.554688 285.753906 237.417969 285.316406 237.234375 C 284.882812 237.054688 284.46875 236.835938 284.074219 236.570312 C 283.683594 236.308594 283.320312 236.011719 282.988281 235.679688 C 282.652344 235.34375 282.355469 234.984375 282.09375 234.589844 C 281.832031 234.199219 281.609375 233.785156 281.429688 233.347656 C 281.25 232.914062 281.113281 232.464844 281.019531 232 C 280.929688 231.539062 280.882812 231.070312 280.882812 230.597656 C 280.882812 230.128906 280.929688 229.660156 281.019531 229.199219 C 281.113281 228.734375 281.25 228.285156 281.429688 227.851562 C 281.609375 227.414062 281.832031 227 282.09375 226.609375 C 282.355469 226.214844 282.652344 225.855469 282.988281 225.519531 C 283.320312 225.1875 283.683594 224.890625 284.074219 224.625 C 284.46875 224.363281 284.882812 224.144531 285.316406 223.964844 C 285.753906 223.78125 286.203125 223.644531 286.664062 223.554688 C 287.128906 223.460938 287.59375 223.417969 288.066406 223.417969 C 288.539062 223.417969 289.003906 223.460938 289.46875 223.554688 C 289.929688 223.644531 290.378906 223.78125 290.816406 223.964844 C 291.25 224.144531 291.664062 224.363281 292.054688 224.625 C 292.449219 224.890625 292.8125 225.1875 293.144531 225.519531 C 293.480469 225.855469 293.777344 226.214844 294.039062 226.609375 C 294.300781 227 294.523438 227.414062 294.703125 227.851562 C 294.882812 228.285156 295.019531 228.734375 295.109375 229.199219 C 295.203125 229.660156 295.25 230.128906 295.25 230.597656 Z M 295.25 230.597656 " fill-opacity="1" fill-rule="nonzero"/><path fill="#ffffff" d="M 237.78125 259.332031 C 237.78125 259.804688 237.738281 260.269531 237.644531 260.734375 C 237.554688 261.195312 237.417969 261.644531 237.234375 262.082031 C 237.054688 262.515625 236.835938 262.929688 236.570312 263.324219 C 236.308594 263.714844 236.011719 264.078125 235.679688 264.410156 C 235.34375 264.746094 234.984375 265.042969 234.589844 265.304688 C 234.199219 265.566406 233.785156 265.789062 233.347656 265.96875 C 232.914062 266.148438 232.464844 266.285156 232 266.378906 C 231.539062 266.46875 231.070312 266.515625 230.597656 266.515625 C 230.128906 266.515625 229.660156 266.46875 229.199219 266.378906 C 228.734375 266.285156 228.285156 266.148438 227.851562 265.96875 C 227.414062 265.789062 227 265.566406 226.609375 265.304688 C 226.214844 265.042969 225.855469 264.746094 225.519531 264.410156 C 225.1875 264.078125 224.890625 263.714844 224.625 263.324219 C 224.363281 262.929688 224.144531 262.515625 223.964844 262.082031 C 223.78125 261.644531 223.644531 261.195312 223.554688 260.734375 C 223.460938 260.269531 223.417969 259.804688 223.417969 259.332031 C 223.417969 258.859375 223.460938 258.394531 223.554688 257.929688 C 223.644531 257.46875 223.78125 257.019531 223.964844 256.582031 C 224.144531 256.148438 224.363281 255.734375 224.625 255.339844 C 224.890625 254.949219 225.1875 254.585938 225.519531 254.253906 C 225.855469 253.917969 226.214844 253.621094 226.609375 253.359375 C 227 253.097656 227.414062 252.875 227.851562 252.695312 C 228.285156 252.515625 228.734375 252.378906 229.199219 252.289062 C 229.660156 252.195312 230.128906 252.148438 230.597656 252.148438 C 231.070312 252.148438 231.539062 252.195312 232 252.289062 C 232.464844 252.378906 232.914062 252.515625 233.347656 252.695312 C 233.785156 252.875 234.199219 253.097656 234.589844 253.359375 C 234.984375 253.621094 235.34375 253.917969 235.679688 254.253906 C 236.011719 254.585938 236.308594 254.949219 236.570312 255.34375 C 236.835938 255.734375 237.054688 256.148438 237.234375 256.582031 C 237.417969 257.019531 237.554688 257.46875 237.644531 257.929688 C 237.738281 258.394531 237.78125 258.859375 237.78125 259.332031 Z M 237.78125 259.332031 " fill-opacity="1" fill-rule="nonzero"/><path fill="#ffffff" d="M 266.515625 259.332031 C 266.515625 259.804688 266.46875 260.269531 266.378906 260.734375 C 266.285156 261.195312 266.148438 261.644531 265.96875 262.082031 C 265.789062 262.515625 265.566406 262.929688 265.304688 263.324219 C 265.042969 263.714844 264.746094 264.078125 264.410156 264.410156 C 264.078125 264.746094 263.714844 265.042969 263.324219 265.304688 C 262.929688 265.566406 262.515625 265.789062 262.082031 265.96875 C 261.644531 266.148438 261.195312 266.285156 260.734375 266.378906 C 260.273438 266.46875 259.804688 266.515625 259.332031 266.515625 C 258.859375 266.515625 258.394531 266.46875 257.929688 266.378906 C 257.46875 266.285156 257.019531 266.148438 256.582031 265.96875 C 256.148438 265.789062 255.734375 265.566406 255.34375 265.304688 C 254.949219 265.042969 254.585938 264.746094 254.253906 264.410156 C 253.917969 264.078125 253.621094 263.714844 253.359375 263.324219 C 253.097656 262.929688 252.875 262.515625 252.695312 262.082031 C 252.515625 261.644531 252.378906 261.195312 252.289062 260.734375 C 252.195312 260.269531 252.148438 259.804688 252.148438 259.332031 C 252.148438 258.859375 252.195312 258.394531 252.289062 257.929688 C 252.378906 257.46875 252.515625 257.019531 252.695312 256.582031 C 252.875 256.148438 253.097656 255.734375 253.359375 255.339844 C 253.621094 254.949219 253.917969 254.585938 254.253906 254.253906 C 254.585938 253.917969 254.949219 253.621094 255.34375 253.359375 C 255.734375 253.097656 256.148438 252.875 256.582031 252.695312 C 257.019531 252.515625 257.46875 252.378906 257.929688 252.289062 C 258.394531 252.195312 258.859375 252.148438 259.332031 252.148438 C 259.804688 252.148438 260.273438 252.195312 260.734375 252.289062 C 261.195312 252.378906 261.644531 252.515625 262.082031 252.695312 C 262.515625 252.875 262.929688 253.097656 263.324219 253.359375 C 263.714844 253.621094 264.078125 253.917969 264.410156 254.253906 C 264.746094 254.585938 265.042969 254.949219 265.304688 255.34375 C 265.566406 255.734375 265.789062 256.148438 265.96875 256.582031 C 266.148438 257.019531 266.285156 257.46875 266.378906 257.929688 C 266.46875 258.394531 266.515625 258.859375 266.515625 259.332031 Z M 266.515625 259.332031 " fill-opacity="1" fill-rule="nonzero"/><path fill="#ffffff" d="M 295.25 259.332031 C 295.25 259.804688 295.203125 260.269531 295.109375 260.734375 C 295.019531 261.195312 294.882812 261.644531 294.703125 262.082031 C 294.523438 262.515625 294.300781 262.929688 294.039062 263.324219 C 293.777344 263.714844 293.480469 264.078125 293.144531 264.410156 C 292.8125 264.746094 292.449219 265.042969 292.054688 265.304688 C 291.664062 265.566406 291.25 265.789062 290.816406 265.96875 C 290.378906 266.148438 289.929688 266.285156 289.46875 266.378906 C 289.003906 266.46875 288.539062 266.515625 288.066406 266.515625 C 287.59375 266.515625 287.128906 266.46875 286.664062 266.378906 C 286.203125 266.285156 285.753906 266.148438 285.316406 265.96875 C 284.882812 265.789062 284.46875 265.566406 284.074219 265.304688 C 283.683594 265.042969 283.320312 264.746094 282.988281 264.410156 C 282.652344 264.078125 282.355469 263.714844 282.09375 263.324219 C 281.832031 262.929688 281.609375 262.515625 281.429688 262.082031 C 281.25 261.644531 281.113281 261.195312 281.019531 260.734375 C 280.929688 260.269531 280.882812 259.804688 280.882812 259.332031 C 280.882812 258.859375 280.929688 258.394531 281.019531 257.929688 C 281.113281 257.46875 281.25 257.019531 281.429688 256.582031 C 281.609375 256.148438 281.832031 255.734375 282.09375 255.339844 C 282.355469 254.949219 282.652344 254.585938 282.988281 254.253906 C 283.320312 253.917969 283.683594 253.621094 284.074219 253.359375 C 284.46875 253.097656 284.882812 252.875 285.316406 252.695312 C 285.753906 252.515625 286.203125 252.378906 286.664062 252.289062 C 287.128906 252.195312 287.59375 252.148438 288.066406 252.148438 C 288.539062 252.148438 289.003906 252.195312 289.46875 252.289062 C 289.929688 252.378906 290.378906 252.515625 290.816406 252.695312 C 291.25 252.875 291.664062 253.097656 292.054688 253.359375 C 292.449219 253.621094 292.8125 253.917969 293.144531 254.253906 C 293.480469 254.585938 293.777344 254.949219 294.039062 255.34375 C 294.300781 255.734375 294.523438 256.148438 294.703125 256.582031 C 294.882812 257.019531 295.019531 257.46875 295.109375 257.929688 C 295.203125 258.394531 295.25 258.859375 295.25 259.332031 Z M 295.25 259.332031 " fill-opacity="1" fill-rule="nonzero"/><path fill="#ffffff" d="M 237.78125 288.066406 C 237.78125 288.539062 237.738281 289.003906 237.644531 289.46875 C 237.554688 289.929688 237.417969 290.378906 237.234375 290.816406 C 237.054688 291.25 236.835938 291.664062 236.570312 292.054688 C 236.308594 292.449219 236.011719 292.8125 235.679688 293.144531 C 235.34375 293.480469 234.984375 293.777344 234.589844 294.039062 C 234.199219 294.300781 233.785156 294.523438 233.347656 294.703125 C 232.914062 294.882812 232.464844 295.019531 232 295.109375 C 231.539062 295.203125 231.070312 295.25 230.597656 295.25 C 230.128906 295.25 229.660156 295.203125 229.199219 295.109375 C 228.734375 295.019531 228.285156 294.882812 227.851562 294.703125 C 227.414062 294.523438 227 294.300781 226.609375 294.039062 C 226.214844 293.777344 225.855469 293.480469 225.519531 293.144531 C 225.1875 292.8125 224.890625 292.449219 224.625 292.054688 C 224.363281 291.664062 224.144531 291.25 223.964844 290.816406 C 223.78125 290.378906 223.644531 289.929688 223.554688 289.46875 C 223.460938 289.003906 223.417969 288.539062 223.417969 288.066406 C 223.417969 287.59375 223.460938 287.128906 223.554688 286.664062 C 223.644531 286.203125 223.78125 285.753906 223.964844 285.316406 C 224.144531 284.882812 224.363281 284.46875 224.625 284.074219 C 224.890625 283.683594 225.1875 283.320312 225.519531 282.988281 C 225.855469 282.652344 226.214844 282.355469 226.609375 282.09375 C 227 281.832031 227.414062 281.609375 227.851562 281.429688 C 228.285156 281.25 228.734375 281.113281 229.199219 281.019531 C 229.660156 280.929688 230.128906 280.882812 230.597656 280.882812 C 231.070312 280.882812 231.539062 280.929688 232 281.019531 C 232.464844 281.113281 232.914062 281.25 233.347656 281.429688 C 233.785156 281.609375 234.199219 281.832031 234.589844 282.09375 C 234.984375 282.355469 235.34375 282.652344 235.679688 282.988281 C 236.011719 283.320312 236.308594 283.683594 236.570312 284.074219 C 236.835938 284.46875 237.054688 284.882812 237.234375 285.316406 C 237.417969 285.753906 237.554688 286.203125 237.644531 286.664062 C 237.738281 287.128906 237.78125 287.59375 237.78125 288.066406 Z M 237.78125 288.066406 " fill-opacity="1" fill-rule="nonzero"/><path fill="#ffffff" d="M 266.515625 288.066406 C 266.515625 288.539062 266.46875 289.003906 266.378906 289.46875 C 266.285156 289.929688 266.148438 290.378906 265.96875 290.816406 C 265.789062 291.25 265.566406 291.664062 265.304688 292.054688 C 265.042969 292.449219 264.746094 292.8125 264.410156 293.144531 C 264.078125 293.480469 263.714844 293.777344 263.324219 294.039062 C 262.929688 294.300781 262.515625 294.523438 262.082031 294.703125 C 261.644531 294.882812 261.195312 295.019531 260.734375 295.109375 C 260.273438 295.203125 259.804688 295.25 259.332031 295.25 C 258.859375 295.25 258.394531 295.203125 257.929688 295.109375 C 257.46875 295.019531 257.019531 294.882812 256.582031 294.703125 C 256.148438 294.523438 255.734375 294.300781 255.34375 294.039062 C 254.949219 293.777344 254.585938 293.480469 254.253906 293.144531 C 253.917969 292.8125 253.621094 292.449219 253.359375 292.054688 C 253.097656 291.664062 252.875 291.25 252.695312 290.816406 C 252.515625 290.378906 252.378906 289.929688 252.289062 289.46875 C 252.195312 289.003906 252.148438 288.539062 252.148438 288.066406 C 252.148438 287.59375 252.195312 287.128906 252.289062 286.664062 C 252.378906 286.203125 252.515625 285.753906 252.695312 285.316406 C 252.875 284.882812 253.097656 284.46875 253.359375 284.074219 C 253.621094 283.683594 253.917969 283.320312 254.253906 282.988281 C 254.585938 282.652344 254.949219 282.355469 255.34375 282.09375 C 255.734375 281.832031 256.148438 281.609375 256.582031 281.429688 C 257.019531 281.25 257.46875 281.113281 257.929688 281.019531 C 258.394531 280.929688 258.859375 280.882812 259.332031 280.882812 C 259.804688 280.882812 260.273438 280.929688 260.734375 281.019531 C 261.195312 281.113281 261.644531 281.25 262.082031 281.429688 C 262.515625 281.609375 262.929688 281.832031 263.324219 282.09375 C 263.714844 282.355469 264.078125 282.652344 264.410156 282.988281 C 264.746094 283.320312 265.042969 283.683594 265.304688 284.074219 C 265.566406 284.46875 265.789062 284.882812 265.96875 285.316406 C 266.148438 285.753906 266.285156 286.203125 266.378906 286.664062 C 266.46875 287.128906 266.515625 287.59375 266.515625 288.066406 Z M 266.515625 288.066406 " fill-opacity="1" fill-rule="nonzero"/><path fill="#ffffff" d="M 295.25 288.066406 C 295.25 288.539062 295.203125 289.003906 295.109375 289.46875 C 295.019531 289.929688 294.882812 290.378906 294.703125 290.816406 C 294.523438 291.25 294.300781 291.664062 294.039062 292.054688 C 293.777344 292.449219 293.480469 292.8125 293.144531 293.144531 C 292.8125 293.480469 292.449219 293.777344 292.054688 294.039062 C 291.664062 294.300781 291.25 294.523438 290.816406 294.703125 C 290.378906 294.882812 289.929688 295.019531 289.46875 295.109375 C 289.003906 295.203125 288.539062 295.25 288.066406 295.25 C 287.59375 295.25 287.128906 295.203125 286.664062 295.109375 C 286.203125 295.019531 285.753906 294.882812 285.316406 294.703125 C 284.882812 294.523438 284.46875 294.300781 284.074219 294.039062 C 283.683594 293.777344 283.320312 293.480469 282.988281 293.144531 C 282.652344 292.8125 282.355469 292.449219 282.09375 292.054688 C 281.832031 291.664062 281.609375 291.25 281.429688 290.816406 C 281.25 290.378906 281.113281 289.929688 281.019531 289.46875 C 280.929688 289.003906 280.882812 288.539062 280.882812 288.066406 C 280.882812 287.59375 280.929688 287.128906 281.019531 286.664062 C 281.113281 286.203125 281.25 285.753906 281.429688 285.316406 C 281.609375 284.882812 281.832031 284.46875 282.09375 284.074219 C 282.355469 283.683594 282.652344 283.320312 282.988281 282.988281 C 283.320312 282.652344 283.683594 282.355469 284.074219 282.09375 C 284.46875 281.832031 284.882812 281.609375 285.316406 281.429688 C 285.753906 281.25 286.203125 281.113281 286.664062 281.019531 C 287.128906 280.929688 287.59375 280.882812 288.066406 280.882812 C 288.539062 280.882812 289.003906 280.929688 289.46875 281.019531 C 289.929688 281.113281 290.378906 281.25 290.816406 281.429688 C 291.25 281.609375 291.664062 281.832031 292.054688 282.09375 C 292.449219 282.355469 292.8125 282.652344 293.144531 282.988281 C 293.480469 283.320312 293.777344 283.683594 294.039062 284.074219 C 294.300781 284.46875 294.523438 284.882812 294.703125 285.316406 C 294.882812 285.753906 295.019531 286.203125 295.109375 286.664062 C 295.203125 287.128906 295.25 287.59375 295.25 288.066406 Z M 295.25 288.066406 " fill-opacity="1" fill-rule="nonzero"/><path fill="#ffffff" d="M 86.933594 165.949219 L 158.765625 165.949219 C 162.734375 165.949219 165.949219 162.734375 165.949219 158.765625 L 165.949219 86.933594 C 165.949219 82.96875 162.734375 79.75 158.765625 79.75 L 86.933594 79.75 C 82.96875 79.75 79.75 82.96875 79.75 86.933594 L 79.75 158.765625 C 79.75 162.734375 82.96875 165.949219 86.933594 165.949219 Z M 94.117188 94.117188 L 151.582031 94.117188 L 151.582031 151.582031 L 94.117188 151.582031 Z M 94.117188 94.117188 " fill-opacity="1" fill-rule="nonzero"/><path fill="#ffffff" d="M 128.546875 110.589844 L 119.257812 119.875 L 117.152344 117.769531 C 114.347656 114.964844 109.800781 114.964844 106.996094 117.769531 C 104.191406 120.578125 104.191406 125.125 106.996094 127.929688 L 114.179688 135.113281 C 115.582031 136.515625 117.421875 137.21875 119.257812 137.21875 C 121.097656 137.21875 122.933594 136.515625 124.335938 135.113281 L 138.703125 120.746094 C 141.511719 117.941406 141.511719 113.394531 138.703125 110.589844 C 135.898438 107.78125 131.351562 107.78125 128.546875 110.589844 Z M 128.546875 110.589844 " fill-opacity="1" fill-rule="nonzero"/><path fill="#ffffff" d="M 79.75 259.332031 C 79.75 263.300781 82.96875 266.515625 86.933594 266.515625 L 158.765625 266.515625 C 162.734375 266.515625 165.949219 263.300781 165.949219 259.332031 L 165.949219 187.5 C 165.949219 183.53125 162.734375 180.316406 158.765625 180.316406 L 86.933594 180.316406 C 82.96875 180.316406 79.75 183.53125 79.75 187.5 Z M 94.117188 194.683594 L 151.582031 194.683594 L 151.582031 252.148438 L 94.117188 252.148438 Z M 94.117188 194.683594 " fill-opacity="1" fill-rule="nonzero"/><path fill="#ffffff" d="M 128.546875 211.152344 L 119.257812 220.441406 L 117.152344 218.335938 C 114.347656 215.53125 109.800781 215.53125 106.996094 218.335938 C 104.191406 221.144531 104.191406 225.6875 106.996094 228.496094 L 114.179688 235.679688 C 115.582031 237.082031 117.421875 237.78125 119.257812 237.78125 C 121.097656 237.78125 122.933594 237.082031 124.335938 235.679688 L 138.703125 221.3125 C 141.511719 218.503906 141.511719 213.960938 138.703125 211.152344 C 135.898438 208.347656 131.351562 208.347656 128.546875 211.152344 Z M 128.546875 211.152344 " fill-opacity="1" fill-rule="nonzero"/><path fill="#ffffff" d="M 86.933594 295.25 L 158.765625 295.25 C 162.734375 295.25 165.949219 292.03125 165.949219 288.066406 C 165.949219 284.097656 162.734375 280.882812 158.765625 280.882812 L 86.933594 280.882812 C 82.96875 280.882812 79.75 284.097656 79.75 288.066406 C 79.75 292.03125 82.96875 295.25 86.933594 295.25 Z M 86.933594 295.25 " fill-opacity="1" fill-rule="nonzero"/></svg>