<svg xmlns="http://www.w3.org/2000/svg" xmlns:xlink="http://www.w3.org/1999/xlink" width="500" zoomAndPan="magnify" viewBox="0 0 375 374.999991" height="500" preserveAspectRatio="xMidYMid meet" version="1.0"><defs><clipPath id="32ebc529dc"><path d="M 57 62.695312 L 319 62.695312 L 319 316.945312 L 57 316.945312 Z M 57 62.695312 " clip-rule="nonzero"/></clipPath></defs><g clip-path="url(#32ebc529dc)"><path fill="#ffffff" d="M 263.207031 195.089844 C 249.65625 195.089844 238.660156 206.136719 238.660156 219.6875 C 239.328125 249.910156 282.4375 253.078125 287.5 223.367188 C 289.953125 208.691406 278.089844 194.988281 263.207031 195.089844 Z M 281.925781 221.730469 C 278.804688 245.050781 244.953125 243.3125 244.390625 219.6875 C 245.617188 193.402344 283.613281 195.550781 281.925781 221.730469 Z M 312.8125 232.675781 C 315.726562 232.421875 318.027344 229.964844 318.027344 227.050781 L 318.027344 212.222656 C 318.027344 209.304688 315.828125 206.902344 312.914062 206.542969 L 303.300781 205.574219 C 302.789062 204.089844 302.175781 202.605469 301.460938 201.226562 L 307.542969 193.8125 C 309.4375 191.5625 309.285156 188.238281 307.1875 186.140625 L 296.703125 175.707031 C 294.300781 173.253906 290.566406 173.664062 288.265625 176.015625 L 288.265625 92.96875 C 288.265625 76.296875 274.664062 62.695312 257.992188 62.695312 C 257.941406 62.695312 240.859375 62.695312 240.808594 62.695312 C 240.808594 62.695312 74.816406 62.695312 74.816406 62.695312 C 51.34375 63.511719 51.242188 97.363281 74.816406 98.234375 L 86.679688 98.234375 L 86.679688 286.730469 C 86.679688 303.398438 100.28125 317.003906 116.953125 317.003906 L 134.1875 317.003906 C 134.1875 317.003906 300.230469 317.003906 300.230469 317.003906 C 323.753906 316.183594 323.753906 282.28125 300.230469 281.460938 C 300.230469 281.460938 288.265625 281.460938 288.265625 281.460938 L 288.265625 263.308594 C 290.566406 265.660156 294.351562 266.070312 296.703125 263.613281 C 296.703125 263.613281 307.1875 253.132812 307.1875 253.132812 C 309.230469 251.035156 309.386719 247.710938 307.542969 245.511719 L 301.410156 238.046875 C 302.125 236.613281 302.738281 235.027344 303.25 233.648438 Z M 74.867188 92.457031 C 59.015625 91.945312 59.015625 68.984375 74.867188 68.472656 L 227.769531 68.472656 C 221.582031 74.964844 221.582031 86.0625 227.769531 92.457031 Z M 134.238281 311.273438 C 134.238281 311.273438 117.003906 311.273438 117.003906 311.273438 C 103.503906 311.273438 92.511719 300.28125 92.511719 286.78125 L 92.511719 98.234375 L 240.914062 98.234375 C 244.695312 98.234375 244.695312 92.457031 240.914062 92.457031 C 234.265625 92.457031 228.894531 86.984375 228.894531 80.4375 C 228.894531 74.660156 233.035156 69.800781 238.457031 68.675781 C 239.429688 68.269531 256.507812 68.472656 258.042969 68.421875 C 271.542969 68.421875 282.539062 79.414062 282.539062 92.917969 L 282.539062 180.566406 L 281.617188 181.332031 C 280.1875 180.617188 278.703125 180.054688 277.269531 179.542969 L 276.300781 169.878906 C 275.941406 167.015625 273.539062 164.867188 270.625 164.867188 L 255.84375 164.867188 C 252.980469 164.867188 250.476562 167.015625 250.167969 169.929688 L 249.144531 179.542969 C 247.714844 180.054688 246.230469 180.667969 244.796875 181.332031 L 237.332031 175.25 C 235.03125 173.355469 231.707031 173.558594 229.714844 175.65625 L 219.179688 186.089844 C 217.183594 188.082031 216.980469 191.457031 218.769531 193.707031 L 224.855469 201.175781 C 224.191406 202.554688 223.578125 204.039062 223.066406 205.523438 L 213.398438 206.492188 C 210.535156 206.851562 208.386719 209.253906 208.386719 212.167969 L 208.386719 227 C 208.386719 229.8125 210.636719 232.367188 213.503906 232.625 L 223.117188 233.648438 C 223.578125 234.976562 224.242188 236.613281 224.957031 238.046875 L 218.820312 245.613281 C 217.03125 247.863281 217.234375 251.1875 219.230469 253.183594 L 229.660156 263.5625 C 231.65625 265.710938 235.03125 265.914062 237.332031 264.023438 L 244.796875 257.9375 C 246.179688 258.601562 247.664062 259.214844 249.144531 259.777344 L 250.167969 269.394531 C 250.476562 272.308594 252.878906 274.507812 255.84375 274.507812 L 270.625 274.507812 C 273.488281 274.507812 275.941406 272.359375 276.300781 269.394531 L 277.269531 259.777344 C 278.804688 259.214844 280.238281 258.601562 281.617188 257.9375 L 282.539062 258.703125 L 282.539062 281.5625 L 134.238281 281.5625 C 132.601562 281.5625 131.324219 282.894531 131.375 284.480469 C 131.375 286.0625 132.652344 287.34375 134.238281 287.34375 C 137.410156 287.34375 140.273438 288.621094 142.421875 290.613281 C 150.347656 297.570312 144.925781 311.480469 134.238281 311.273438 Z M 300.230469 287.292969 C 316.085938 287.800781 316.085938 310.761719 300.230469 311.273438 C 300.230469 311.273438 147.328125 311.273438 147.328125 311.273438 C 153.515625 304.832031 153.464844 293.582031 147.328125 287.292969 C 154.335938 287.292969 298.339844 287.292969 300.230469 287.292969 Z M 295.835938 240.296875 C 295.835938 240.296875 303.148438 249.089844 303.148438 249.089844 L 292.816406 259.523438 L 283.765625 252.261719 C 282.84375 251.546875 281.566406 251.390625 280.59375 251.953125 C 278.550781 253.078125 276.25 254.050781 273.691406 254.871094 C 272.617188 255.226562 271.800781 256.199219 271.695312 257.324219 L 270.625 268.675781 L 255.945312 268.777344 L 254.769531 257.324219 C 254.667969 256.199219 253.851562 255.226562 252.777344 254.871094 C 250.320312 254.101562 247.96875 253.132812 245.871094 251.953125 C 244.851562 251.445312 243.570312 251.546875 242.703125 252.261719 L 233.90625 259.523438 C 232.472656 258.089844 224.703125 250.371094 223.421875 249.195312 L 230.734375 240.296875 C 232.269531 238.558594 230.683594 236.511719 229.96875 234.875 C 228.433594 232.367188 228.945312 228.6875 225.773438 228.125 C 225.773438 228.125 214.371094 227.050781 214.371094 227.050781 L 214.269531 212.273438 L 225.773438 211.097656 C 226.953125 210.992188 227.921875 210.175781 228.230469 209.050781 C 228.945312 206.59375 229.917969 204.292969 231.042969 202.199219 C 231.605469 201.175781 231.503906 199.898438 230.734375 198.976562 L 223.421875 190.128906 L 233.804688 179.695312 L 242.753906 186.957031 C 243.671875 187.675781 244.902344 187.828125 245.921875 187.265625 C 248.226562 186.039062 250.527344 185.117188 252.777344 184.453125 C 253.902344 184.144531 254.71875 183.175781 254.871094 182 L 255.996094 170.59375 L 270.675781 170.492188 L 271.851562 182 C 271.953125 183.175781 272.769531 184.144531 273.945312 184.503906 C 276.25 185.167969 278.550781 186.089844 280.75 187.316406 C 283.101562 188.800781 285.65625 185.375 287.394531 184.25 C 287.449219 184.144531 292.765625 179.851562 292.816406 179.800781 L 303.25 190.128906 L 295.835938 199.078125 C 295.117188 200 294.964844 201.226562 295.527344 202.300781 C 296.703125 204.449219 297.675781 206.75 298.390625 209.152344 C 298.75 210.277344 299.722656 211.042969 300.847656 211.199219 L 312.25 212.375 L 312.300781 227 L 300.847656 228.175781 C 297.726562 228.6875 298.03125 232.472656 296.652344 234.773438 C 295.886719 236.460938 294.300781 238.558594 295.835938 240.296875 Z M 108.210938 179.03125 L 183.074219 179.03125 C 184.660156 179.03125 185.9375 177.753906 185.9375 176.167969 L 185.9375 154.792969 C 185.9375 153.207031 184.660156 151.929688 183.074219 151.929688 L 108.210938 151.929688 C 106.625 151.929688 105.34375 153.207031 105.34375 154.792969 L 105.34375 176.167969 C 105.34375 177.703125 106.625 179.03125 108.210938 179.03125 Z M 111.125 157.65625 L 180.210938 157.65625 L 180.210938 173.253906 L 111.125 173.253906 Z M 108.210938 197.59375 C 108.210938 197.59375 149.785156 197.59375 149.785156 197.59375 C 153.570312 197.59375 153.570312 203.375 149.785156 203.375 C 149.785156 203.375 108.210938 203.375 108.210938 203.375 C 104.425781 203.324219 104.476562 197.59375 108.210938 197.59375 Z M 186.910156 223.777344 C 186.910156 223.777344 108.261719 223.777344 108.261719 223.777344 C 104.476562 223.777344 104.527344 218 108.261719 218 L 186.910156 218 C 190.695312 218.050781 190.644531 223.777344 186.910156 223.777344 Z M 186.910156 238.453125 C 190.695312 238.453125 190.644531 244.234375 186.910156 244.234375 C 186.910156 244.234375 108.261719 244.234375 108.261719 244.234375 C 104.476562 244.234375 104.527344 238.453125 108.261719 238.453125 Z M 186.910156 264.6875 C 186.910156 264.6875 108.261719 264.6875 108.261719 264.6875 C 104.476562 264.6875 104.527344 258.910156 108.261719 258.910156 L 186.910156 258.910156 C 190.695312 258.910156 190.644531 264.636719 186.910156 264.6875 Z M 157.199219 136.023438 L 171.210938 136.023438 C 172.796875 136.023438 174.074219 134.746094 174.074219 133.160156 L 174.074219 110.507812 C 174.074219 108.921875 172.796875 107.644531 171.210938 107.644531 L 157.199219 107.644531 C 155.613281 107.644531 154.335938 108.921875 154.335938 110.507812 L 154.335938 133.160156 C 154.285156 134.746094 155.613281 136.023438 157.199219 136.023438 Z M 160.0625 113.371094 L 168.296875 113.371094 L 168.296875 130.246094 L 160.0625 130.246094 Z M 227.515625 133.160156 L 227.515625 110.507812 C 227.515625 108.921875 228.792969 107.644531 230.378906 107.644531 C 230.378906 107.644531 244.390625 107.644531 244.390625 107.644531 C 248.171875 107.644531 248.171875 113.421875 244.390625 113.421875 L 233.242188 113.421875 L 233.242188 130.296875 C 233.242188 130.296875 244.390625 130.296875 244.390625 130.296875 C 248.171875 130.296875 248.171875 136.023438 244.390625 136.078125 L 230.378906 136.078125 C 228.792969 136.023438 227.515625 134.746094 227.515625 133.160156 Z M 178.730469 133.160156 C 178.730469 133.160156 178.730469 127.996094 178.730469 127.996094 C 178.730469 124.210938 184.507812 124.210938 184.507812 127.996094 L 184.507812 130.296875 L 192.742188 130.296875 L 192.742188 110.507812 C 192.742188 106.722656 198.519531 106.722656 198.519531 110.507812 C 198.519531 110.507812 198.519531 133.160156 198.519531 133.160156 C 198.519531 134.746094 197.242188 136.023438 195.65625 136.023438 L 181.644531 136.023438 C 180.007812 136.023438 178.730469 134.746094 178.730469 133.160156 Z M 203.121094 133.160156 L 203.121094 110.507812 C 203.121094 108.921875 204.398438 107.644531 205.984375 107.644531 C 205.984375 107.644531 219.996094 107.644531 219.996094 107.644531 C 223.78125 107.644531 223.78125 113.421875 219.996094 113.421875 L 208.847656 113.421875 L 208.847656 118.996094 L 219.996094 118.996094 C 221.582031 118.996094 222.859375 120.273438 222.859375 121.859375 C 222.859375 123.445312 221.582031 124.722656 219.996094 124.722656 L 208.847656 124.722656 L 208.847656 130.296875 C 208.847656 130.296875 219.996094 130.296875 219.996094 130.296875 C 223.78125 130.296875 223.78125 136.023438 219.996094 136.078125 L 206.035156 136.078125 C 204.449219 136.023438 203.121094 134.746094 203.121094 133.160156 Z M 254.003906 107.59375 C 254.003906 107.59375 268.015625 107.59375 268.015625 107.59375 C 271.800781 107.59375 271.800781 113.371094 268.015625 113.371094 L 263.875 113.371094 L 263.875 133.160156 C 263.875 134.746094 262.59375 136.023438 261.007812 136.023438 C 259.425781 136.023438 258.144531 134.746094 258.144531 133.160156 L 258.144531 113.371094 L 254.003906 113.371094 C 250.21875 113.371094 250.21875 107.644531 254.003906 107.59375 Z M 109.898438 133.160156 L 109.898438 124.722656 L 121.046875 124.722656 C 122.628906 124.722656 123.910156 123.445312 123.910156 121.859375 L 123.910156 110.507812 C 123.910156 108.921875 122.628906 107.644531 121.046875 107.644531 L 107.035156 107.644531 C 105.449219 107.644531 104.167969 108.921875 104.167969 110.507812 L 104.167969 133.160156 C 104.167969 136.894531 109.898438 136.945312 109.898438 133.160156 Z M 109.898438 113.371094 L 118.128906 113.371094 L 118.128906 118.945312 L 109.898438 118.945312 Z M 132.753906 136.023438 C 134.339844 136.023438 135.621094 134.746094 135.621094 133.160156 L 135.621094 127.433594 L 144.875 135.359375 C 145.4375 135.820312 146.101562 136.078125 146.765625 136.078125 C 149.324219 136.179688 150.703125 132.648438 148.660156 131.015625 C 148.660156 131.015625 141.347656 124.773438 141.347656 124.773438 L 146.765625 124.773438 C 148.351562 124.773438 149.632812 123.496094 149.632812 121.910156 L 149.632812 110.558594 C 149.632812 108.972656 148.351562 107.695312 146.765625 107.695312 L 132.753906 107.695312 C 131.171875 107.695312 129.890625 108.972656 129.890625 110.558594 L 129.890625 133.210938 C 129.890625 134.746094 131.171875 136.023438 132.753906 136.023438 Z M 135.671875 113.371094 L 143.902344 113.371094 L 143.902344 118.945312 L 135.671875 118.945312 Z M 135.671875 113.371094 " fill-opacity="1" fill-rule="nonzero"/></g></svg>