<svg xmlns="http://www.w3.org/2000/svg" xmlns:xlink="http://www.w3.org/1999/xlink" width="500" zoomAndPan="magnify" viewBox="0 0 375 374.999991" height="500" preserveAspectRatio="xMidYMid meet" version="1.0"><defs><clipPath id="041ae10f4c"><path d="M 48.621094 48.621094 L 326.121094 48.621094 L 326.121094 326.121094 L 48.621094 326.121094 Z M 48.621094 48.621094 " clip-rule="nonzero"/></clipPath></defs><g clip-path="url(#041ae10f4c)"><path fill="#ffffff" d="M 206.933594 90.0625 L 206.933594 184.039062 L 254.121094 184.039062 C 256.027344 184.039062 257.578125 185.589844 257.578125 187.5 C 257.578125 189.40625 256.027344 190.957031 254.121094 190.957031 L 206.933594 190.957031 L 206.933594 284.933594 C 206.933594 289.820312 210.929688 293.796875 215.832031 293.796875 L 254.121094 293.796875 C 256.027344 293.796875 257.578125 295.34375 257.578125 297.253906 C 257.578125 299.160156 256.027344 300.710938 254.121094 300.710938 L 215.832031 300.710938 C 207.113281 300.710938 200.019531 293.632812 200.019531 284.933594 L 200.019531 190.957031 L 176.6875 190.957031 C 174.78125 190.957031 173.230469 189.40625 173.230469 187.5 C 173.230469 185.589844 174.78125 184.039062 176.6875 184.039062 L 200.019531 184.039062 L 200.019531 90.0625 C 200.019531 81.363281 207.113281 74.285156 215.832031 74.285156 L 254.121094 74.285156 C 256.027344 74.285156 257.578125 75.835938 257.578125 77.742188 C 257.578125 79.652344 256.027344 81.199219 254.121094 81.199219 L 215.832031 81.199219 C 210.929688 81.199219 206.933594 85.175781 206.933594 90.0625 Z M 267.980469 77.742188 C 267.980469 61.683594 281.078125 48.621094 297.179688 48.621094 C 313.277344 48.621094 326.378906 61.683594 326.378906 77.742188 C 326.378906 93.804688 313.277344 106.867188 297.179688 106.867188 C 281.078125 106.867188 267.980469 93.804688 267.980469 77.742188 Z M 274.894531 77.742188 C 274.894531 89.988281 284.890625 99.953125 297.179688 99.953125 C 309.464844 99.953125 319.460938 89.988281 319.460938 77.742188 C 319.460938 65.496094 309.464844 55.535156 297.179688 55.535156 C 284.890625 55.535156 274.894531 65.496094 274.894531 77.742188 Z M 326.378906 187.5 C 326.378906 203.558594 313.277344 216.621094 297.179688 216.621094 C 281.078125 216.621094 267.980469 203.558594 267.980469 187.5 C 267.980469 171.4375 281.078125 158.375 297.179688 158.375 C 313.277344 158.375 326.378906 171.4375 326.378906 187.5 Z M 319.460938 187.5 C 319.460938 175.253906 309.464844 165.289062 297.179688 165.289062 C 284.890625 165.289062 274.894531 175.253906 274.894531 187.5 C 274.894531 199.742188 284.890625 209.707031 297.179688 209.707031 C 309.464844 209.707031 319.460938 199.742188 319.460938 187.5 Z M 326.378906 297.253906 C 326.378906 313.3125 313.277344 326.378906 297.179688 326.378906 C 281.078125 326.378906 267.980469 313.3125 267.980469 297.253906 C 267.980469 281.191406 281.078125 268.128906 297.179688 268.128906 C 313.277344 268.128906 326.378906 281.191406 326.378906 297.253906 Z M 319.460938 297.253906 C 319.460938 285.007812 309.464844 275.042969 297.179688 275.042969 C 284.890625 275.042969 274.894531 285.007812 274.894531 297.253906 C 274.894531 309.5 284.886719 319.460938 297.179688 319.460938 C 309.46875 319.460938 319.460938 309.5 319.460938 297.253906 Z M 163.394531 128.605469 L 163.394531 246.390625 C 163.394531 254.667969 156.664062 261.398438 148.386719 261.398438 L 63.625 261.398438 C 55.351562 261.398438 48.621094 254.667969 48.621094 246.390625 L 48.621094 128.605469 C 48.621094 120.328125 55.351562 113.597656 63.625 113.597656 L 148.386719 113.597656 C 156.664062 113.597656 163.394531 120.328125 163.394531 128.605469 Z M 156.476562 128.605469 C 156.476562 124.144531 152.847656 120.511719 148.386719 120.511719 L 63.625 120.511719 C 59.164062 120.511719 55.535156 124.144531 55.535156 128.605469 L 55.535156 246.390625 C 55.535156 250.851562 59.164062 254.484375 63.625 254.484375 L 148.386719 254.484375 C 152.847656 254.484375 156.476562 250.851562 156.476562 246.390625 Z M 139.347656 137.847656 L 87.972656 137.847656 C 86.066406 137.847656 84.515625 139.398438 84.515625 141.304688 C 84.515625 143.210938 86.066406 144.761719 87.972656 144.761719 L 139.351562 144.761719 C 141.257812 144.761719 142.808594 143.210938 142.808594 141.304688 C 142.808594 139.398438 141.253906 137.847656 139.347656 137.847656 Z M 72.71875 137.847656 L 72.667969 137.847656 C 70.757812 137.847656 69.238281 139.398438 69.238281 141.304688 C 69.238281 143.210938 70.8125 144.761719 72.71875 144.761719 C 74.625 144.761719 76.175781 143.210938 76.175781 141.304688 C 76.175781 139.398438 74.632812 137.847656 72.71875 137.847656 Z M 139.347656 160.945312 L 87.972656 160.945312 C 86.066406 160.945312 84.515625 162.492188 84.515625 164.402344 C 84.515625 166.308594 86.066406 167.859375 87.972656 167.859375 L 139.351562 167.859375 C 141.257812 167.859375 142.808594 166.308594 142.808594 164.402344 C 142.808594 162.492188 141.253906 160.945312 139.347656 160.945312 Z M 72.71875 160.945312 L 72.667969 160.945312 C 70.757812 160.945312 69.238281 162.492188 69.238281 164.402344 C 69.238281 166.308594 70.8125 167.859375 72.71875 167.859375 C 74.625 167.859375 76.175781 166.308594 76.175781 164.402344 C 76.175781 162.492188 74.632812 160.945312 72.71875 160.945312 Z M 139.347656 184.039062 L 87.972656 184.039062 C 86.066406 184.039062 84.515625 185.589844 84.515625 187.5 C 84.515625 189.40625 86.066406 190.957031 87.972656 190.957031 L 139.351562 190.957031 C 141.257812 190.957031 142.808594 189.40625 142.808594 187.5 C 142.808594 185.589844 141.253906 184.039062 139.347656 184.039062 Z M 72.71875 184.039062 L 72.667969 184.039062 C 70.757812 184.039062 69.238281 185.589844 69.238281 187.5 C 69.238281 189.40625 70.8125 190.957031 72.71875 190.957031 C 74.625 190.957031 76.175781 189.40625 76.175781 187.5 C 76.175781 185.589844 74.632812 184.039062 72.71875 184.039062 Z M 139.347656 207.136719 L 87.972656 207.136719 C 86.066406 207.136719 84.515625 208.6875 84.515625 210.59375 C 84.515625 212.503906 86.066406 214.050781 87.972656 214.050781 L 139.351562 214.050781 C 141.257812 214.050781 142.808594 212.503906 142.808594 210.59375 C 142.808594 208.6875 141.253906 207.136719 139.347656 207.136719 Z M 72.71875 207.136719 L 72.667969 207.136719 C 70.757812 207.136719 69.238281 208.6875 69.238281 210.59375 C 69.238281 212.503906 70.8125 214.050781 72.71875 214.050781 C 74.625 214.050781 76.175781 212.503906 76.175781 210.59375 C 76.175781 208.6875 74.632812 207.136719 72.71875 207.136719 Z M 139.347656 230.234375 L 87.972656 230.234375 C 86.066406 230.234375 84.515625 231.785156 84.515625 233.691406 C 84.515625 235.597656 86.066406 237.148438 87.972656 237.148438 L 139.351562 237.148438 C 141.257812 237.148438 142.808594 235.597656 142.808594 233.691406 C 142.808594 231.785156 141.253906 230.234375 139.347656 230.234375 Z M 72.71875 230.234375 L 72.667969 230.234375 C 70.757812 230.234375 69.238281 231.785156 69.238281 233.691406 C 69.238281 235.597656 70.8125 237.148438 72.71875 237.148438 C 74.625 237.148438 76.175781 235.597656 76.175781 233.691406 C 76.175781 231.785156 74.632812 230.234375 72.71875 230.234375 Z M 72.71875 230.234375 " fill-opacity="1" fill-rule="nonzero"/></g></svg>