<svg xmlns="http://www.w3.org/2000/svg" xmlns:xlink="http://www.w3.org/1999/xlink" width="500" zoomAndPan="magnify" viewBox="0 0 375 374.999991" height="500" preserveAspectRatio="xMidYMid meet" version="1.0"><path fill="#d9d9d9" d="M 233.808594 117.8125 C 237.222656 118.226562 240.695312 118.078125 244.164062 118.164062 C 245.058594 118.183594 245.957031 118.382812 246.867188 118.386719 C 247.503906 118.390625 247.882812 118.785156 247.871094 119.414062 C 247.84375 120.691406 248.042969 121.976562 247.71875 123.238281 C 247.679688 123.398438 247.660156 123.566406 247.660156 123.730469 C 247.617188 125.667969 247.671875 127.601562 247.429688 129.535156 C 247.28125 130.714844 247.519531 130.914062 248.6875 131.007812 C 250.90625 131.191406 253.085938 131.59375 255.269531 132.003906 C 259.867188 132.863281 264.3125 134.234375 268.65625 135.949219 C 269.820312 136.410156 269.824219 136.390625 270.386719 135.238281 C 271.851562 132.230469 273.445312 129.289062 275.066406 126.363281 C 275.429688 125.707031 275.5 125.691406 276.210938 126.167969 C 279.429688 128.324219 282.691406 130.417969 285.777344 132.777344 C 288.003906 134.476562 290.308594 136.078125 292.578125 137.722656 C 292.746094 137.84375 292.917969 137.957031 293.070312 138.097656 C 293.734375 138.71875 293.796875 139.195312 293.230469 139.925781 C 291.992188 141.519531 290.726562 143.089844 289.480469 144.679688 C 288.894531 145.421875 288.332031 146.191406 287.753906 146.9375 C 287.363281 147.445312 287.375 147.851562 287.878906 148.316406 C 288.910156 149.273438 289.914062 150.257812 290.875 151.289062 C 294.902344 155.613281 298.578125 160.207031 301.484375 165.382812 C 302.175781 166.609375 302.804688 167.863281 303.449219 169.109375 C 303.917969 170.011719 303.921875 170.019531 304.800781 169.585938 C 306.394531 168.800781 307.972656 167.980469 309.578125 167.21875 C 310.734375 166.671875 311.90625 166.152344 313.097656 165.691406 C 313.980469 165.347656 314.242188 165.457031 314.554688 166.261719 C 316.226562 170.609375 318.273438 174.8125 319.652344 179.273438 C 320.269531 181.28125 320.882812 183.292969 321.488281 185.304688 C 321.785156 186.285156 321.601562 186.597656 320.535156 186.867188 C 318.535156 187.367188 316.53125 187.832031 314.535156 188.339844 C 312.9375 188.746094 311.351562 189.195312 309.757812 189.617188 C 309.199219 189.765625 308.851562 190.085938 309.011719 190.683594 C 309.371094 191.984375 309.195312 193.3125 309.226562 194.625 C 309.261719 196.238281 309.253906 197.851562 309.226562 199.464844 C 309.191406 201.894531 308.910156 204.300781 308.550781 206.703125 C 308.273438 208.574219 307.9375 210.433594 307.566406 212.285156 C 307.414062 213.035156 307.480469 213.203125 308.28125 213.4375 C 310.972656 214.226562 313.589844 215.253906 316.257812 216.117188 C 316.492188 216.195312 316.730469 216.269531 316.960938 216.355469 C 317.800781 216.679688 317.859375 216.769531 317.695312 217.726562 C 317.34375 219.71875 316.707031 221.644531 316.035156 223.539062 C 314.453125 228.023438 312.265625 232.246094 310.207031 236.523438 C 310.132812 236.671875 310.0625 236.820312 309.976562 236.964844 C 309.535156 237.703125 309.34375 237.789062 308.597656 237.40625 C 306.648438 236.40625 304.660156 235.492188 302.628906 234.671875 C 301.863281 234.367188 301.078125 234.101562 300.332031 233.753906 C 299.847656 233.527344 299.601562 233.617188 299.363281 234.085938 C 298.539062 235.707031 297.480469 237.183594 296.484375 238.703125 C 293.996094 242.5 290.820312 245.683594 287.558594 248.789062 C 286.757812 249.554688 285.855469 250.222656 284.964844 250.886719 C 284.507812 251.222656 284.402344 251.425781 284.804688 251.9375 C 286.390625 253.941406 287.910156 255.996094 289.453125 258.03125 C 289.527344 258.132812 289.621094 258.214844 289.691406 258.316406 C 290.304688 259.191406 290.265625 259.671875 289.425781 260.324219 C 288.480469 261.058594 287.5 261.742188 286.53125 262.445312 C 283.011719 264.992188 279.28125 267.183594 275.464844 269.246094 C 273.390625 270.367188 271.285156 271.410156 269.050781 272.160156 C 268.027344 272.503906 267.890625 272.464844 267.410156 271.492188 C 266.097656 268.824219 264.808594 266.144531 263.507812 263.46875 C 263.363281 263.171875 263.199219 262.882812 263.058594 262.585938 C 262.847656 262.148438 262.558594 261.988281 262.058594 262.152344 C 259.394531 263.042969 256.632812 263.535156 253.867188 263.949219 C 251.878906 264.25 249.863281 264.402344 247.847656 264.546875 C 244.792969 264.769531 241.742188 264.726562 238.6875 264.773438 C 237.726562 264.789062 236.816406 264.480469 235.855469 264.511719 C 235.234375 264.53125 235.003906 264.722656 234.960938 265.367188 C 234.75 268.320312 234.34375 271.246094 233.796875 274.15625 C 233.691406 274.722656 233.644531 275.296875 233.519531 275.859375 C 233.410156 276.34375 233.164062 276.476562 232.726562 276.382812 C 229.351562 275.660156 225.917969 275.214844 222.558594 274.402344 C 219.316406 273.621094 216.070312 272.859375 212.828125 272.066406 C 212.269531 271.929688 211.6875 271.984375 211.128906 271.765625 C 210.554688 271.542969 210.378906 271.292969 210.519531 270.660156 C 210.945312 268.726562 211.535156 266.84375 212.039062 264.933594 C 212.347656 263.78125 212.648438 262.625 212.933594 261.464844 C 213.136719 260.636719 213.121094 260.609375 212.308594 260.320312 C 210.671875 259.746094 209.011719 259.257812 207.402344 258.601562 C 203.367188 256.957031 199.605469 254.839844 196.042969 252.335938 C 194.757812 251.433594 193.53125 250.464844 192.28125 249.523438 C 191.585938 248.996094 191.546875 249.011719 191.003906 249.664062 C 188.683594 252.453125 186.363281 255.238281 183.871094 257.878906 C 182.664062 259.15625 182.636719 259.195312 181.335938 257.886719 C 179.914062 256.460938 178.605469 254.910156 177.300781 253.367188 C 175.8125 251.605469 174.296875 249.871094 172.894531 248.03125 C 171.046875 245.605469 169.128906 243.238281 167.265625 240.820312 C 166.476562 239.796875 166.507812 239.765625 167.386719 238.867188 C 168.976562 237.246094 170.703125 235.777344 172.421875 234.292969 C 173.761719 233.132812 174.921875 231.769531 176.332031 230.679688 C 176.792969 230.320312 176.839844 229.953125 176.574219 229.398438 C 174.035156 224.082031 172.429688 218.472656 171.402344 212.683594 C 171.058594 210.742188 170.683594 208.804688 170.644531 206.820312 C 170.640625 206.65625 170.605469 206.492188 170.570312 206.332031 C 170.339844 205.230469 170.335938 205.230469 169.21875 205.21875 C 168.804688 205.214844 168.386719 205.203125 167.976562 205.222656 C 164.667969 205.371094 161.375 204.964844 158.070312 204.957031 C 157.070312 204.957031 156.976562 204.804688 157.214844 203.765625 C 157.539062 202.351562 157.46875 200.898438 157.730469 199.480469 C 158.003906 197.984375 158.179688 196.476562 158.390625 194.96875 C 158.59375 193.503906 158.773438 192.039062 158.988281 190.574219 C 159.269531 188.664062 159.589844 186.761719 159.855469 184.847656 C 160.089844 183.183594 160.273438 181.507812 160.480469 179.835938 C 160.484375 179.796875 160.476562 179.753906 160.484375 179.710938 C 160.933594 177.070312 160.632812 177.226562 163.035156 177.808594 C 165.914062 178.511719 168.808594 179.144531 171.699219 179.800781 C 172.667969 180.023438 172.6875 180.019531 172.96875 179.042969 C 173.925781 175.75 175.054688 172.515625 176.558594 169.4375 C 177.769531 166.957031 179.136719 164.542969 180.894531 162.386719 C 181.914062 161.132812 182.660156 159.703125 183.550781 158.367188 C 183.878906 157.871094 183.851562 157.53125 183.304688 157.140625 C 180.851562 155.398438 178.4375 153.597656 176.195312 151.582031 C 175.84375 151.269531 175.171875 151.292969 175.136719 150.65625 C 175.101562 150.027344 175.675781 149.769531 176.011719 149.371094 C 177.207031 147.957031 178.414062 146.546875 179.617188 145.136719 C 179.777344 144.949219 179.921875 144.742188 180.09375 144.566406 C 184.296875 140.355469 188.308594 135.949219 192.585938 131.808594 C 193.558594 130.867188 193.683594 130.847656 194.683594 131.832031 C 196.6875 133.804688 198.667969 135.804688 200.664062 137.789062 C 201.53125 138.652344 201.554688 138.671875 202.644531 137.996094 C 206.035156 135.902344 209.625 134.246094 213.445312 133.113281 C 216.488281 132.210938 219.570312 131.472656 222.714844 131.015625 C 222.996094 130.972656 223.273438 130.882812 223.550781 130.8125 C 223.816406 130.742188 223.976562 130.628906 223.929688 130.296875 C 223.730469 128.832031 223.519531 127.367188 223.382812 125.898438 C 223.234375 124.257812 223.152344 122.613281 223.054688 120.96875 C 223.019531 120.398438 223.09375 119.835938 222.710938 119.308594 C 222.390625 118.867188 222.65625 118.457031 223.140625 118.402344 C 223.796875 118.328125 224.421875 118.074219 225.097656 118.121094 C 225.507812 118.152344 225.921875 118.117188 226.335938 118.121094 C 228.816406 118.160156 231.289062 118.070312 233.808594 117.8125 Z M 266.558594 196.652344 C 266.6875 195.75 266.371094 194.285156 266.230469 192.808594 C 266.136719 191.832031 265.914062 190.859375 265.65625 189.910156 C 264.496094 185.566406 262.6875 181.519531 260.027344 177.871094 C 258.65625 175.988281 257.007812 174.367188 255.132812 173 C 251.667969 170.46875 247.839844 168.636719 243.730469 167.414062 C 241.355469 166.710938 238.933594 166.261719 236.433594 166.253906 C 233.558594 166.242188 230.761719 166.710938 228.0625 167.636719 C 224.59375 168.820312 221.40625 170.5 218.757812 173.125 C 216.902344 174.960938 215.222656 176.953125 213.6875 179.035156 C 210.34375 183.570312 208.484375 188.613281 209.109375 194.394531 C 209.320312 196.320312 209.65625 198.214844 210.0625 200.101562 C 210.710938 203.140625 211.824219 206.027344 213.101562 208.847656 C 214.074219 211 215.308594 213.011719 216.878906 214.78125 C 219.773438 218.042969 223.257812 220.492188 227.324219 222.109375 C 230.457031 223.359375 233.6875 224.09375 237.074219 224.074219 C 238.894531 224.0625 240.691406 223.804688 242.472656 223.5 C 244.214844 223.199219 245.941406 222.78125 247.621094 222.210938 C 250.90625 221.101562 253.832031 219.328125 256.628906 217.332031 C 258.621094 215.90625 260.335938 214.175781 261.773438 212.191406 C 265.007812 207.738281 266.464844 202.710938 266.558594 196.652344 Z M 158.460938 229.003906 C 158.605469 230.566406 158.507812 232.132812 158.648438 233.707031 C 158.765625 235.050781 158.585938 236.421875 158.488281 237.78125 C 158.4375 238.554688 157.761719 238.621094 157.199219 238.675781 C 155.886719 238.800781 154.566406 238.875 153.246094 238.945312 C 152.296875 239 151.347656 239.003906 150.398438 239.058594 C 149.722656 239.097656 149.371094 239.355469 149.214844 240.148438 C 148.234375 245.011719 146.90625 249.78125 145.101562 254.410156 C 144.605469 255.683594 143.945312 256.878906 143.34375 258.101562 C 142.921875 258.957031 142.9375 259.066406 143.671875 259.671875 C 145.050781 260.800781 146.269531 262.097656 147.542969 263.335938 C 148.003906 263.785156 148.070312 264.1875 147.714844 264.738281 C 147.019531 265.820312 146.214844 266.816406 145.382812 267.789062 C 143.066406 270.480469 140.789062 273.207031 138.328125 275.773438 C 137.785156 276.347656 137.449219 276.367188 136.773438 275.730469 C 135.445312 274.480469 134.253906 273.105469 133.085938 271.710938 C 132.460938 270.960938 132.46875 270.964844 131.648438 271.488281 C 127.480469 274.148438 123.074219 276.292969 118.242188 277.480469 C 117.222656 277.730469 117.203125 277.804688 117.371094 278.84375 C 117.644531 280.550781 117.878906 282.265625 118.179688 283.96875 C 118.273438 284.503906 118.019531 284.605469 117.613281 284.707031 C 116.6875 284.9375 115.730469 284.917969 114.792969 285.066406 C 111.898438 285.523438 108.980469 285.832031 106.046875 285.890625 C 105.800781 285.898438 105.550781 285.902344 105.304688 285.929688 C 104.253906 286.042969 104.035156 285.929688 103.902344 284.929688 C 103.691406 283.378906 103.515625 281.820312 103.386719 280.261719 C 103.289062 279.113281 103.296875 279.027344 102.097656 278.953125 C 100.691406 278.871094 99.308594 278.636719 97.917969 278.453125 C 93.375 277.859375 89.027344 276.605469 84.902344 274.617188 C 84.035156 274.199219 84.011719 273.964844 83.414062 275.0625 C 82.429688 276.878906 81.246094 278.578125 80.085938 280.285156 C 79.554688 281.066406 79.285156 281.121094 78.605469 280.570312 C 75.492188 278.046875 72.132812 275.84375 69.101562 273.210938 C 68.183594 272.414062 68.121094 272.242188 68.90625 271.316406 C 70.109375 269.898438 71.351562 268.511719 72.578125 267.117188 C 73.226562 266.378906 73.25 266.363281 72.585938 265.601562 C 70.246094 262.914062 68.121094 260.082031 66.375 256.964844 C 65.546875 255.484375 64.84375 253.945312 64.148438 252.402344 C 63.707031 251.429688 63.695312 251.445312 62.730469 251.800781 C 61.253906 252.339844 59.773438 252.855469 58.304688 253.414062 C 57.785156 253.609375 57.550781 253.582031 57.316406 252.972656 C 56.21875 250.113281 55.460938 247.148438 54.46875 244.261719 C 54.230469 243.558594 54.019531 242.84375 53.796875 242.136719 C 53.386719 240.828125 53.429688 240.734375 54.835938 240.417969 C 56 240.15625 57.183594 239.957031 58.351562 239.695312 C 58.988281 239.550781 59.761719 239.609375 60.214844 239.125 C 60.6875 238.617188 60.15625 237.949219 60.160156 237.339844 C 60.171875 235.648438 59.859375 233.972656 59.929688 232.269531 C 59.992188 230.742188 60.125 229.226562 60.3125 227.710938 C 60.410156 226.902344 60.390625 226.78125 59.527344 226.664062 C 58.21875 226.488281 56.90625 226.34375 55.617188 226.054688 C 53.207031 225.511719 53.5625 225.820312 54.148438 223.660156 C 55.03125 220.394531 56.109375 217.183594 56.921875 213.898438 C 57.175781 212.875 57.273438 212.820312 58.277344 213.15625 C 60 213.738281 61.726562 214.316406 63.425781 214.953125 C 64.027344 215.179688 64.300781 215.046875 64.597656 214.503906 C 66.449219 211.074219 68.707031 207.921875 71.242188 204.964844 C 71.640625 204.5 71.691406 204.164062 71.261719 203.695312 C 70.226562 202.570312 69.226562 201.417969 68.21875 200.265625 C 67.757812 199.734375 67.304688 199.199219 66.882812 198.640625 C 66.25 197.804688 66.25 197.742188 67.007812 197.007812 C 69.769531 194.332031 72.710938 191.863281 75.808594 189.578125 C 76.308594 189.210938 76.789062 188.820312 77.308594 188.476562 C 77.996094 188.023438 78.097656 188.054688 78.609375 188.707031 C 79.90625 190.367188 81.195312 192.03125 82.511719 193.679688 C 83.289062 194.65625 83.296875 194.628906 84.382812 194.089844 C 87.71875 192.4375 91.171875 191.0625 94.675781 189.8125 C 96.367188 189.210938 96.402344 189.265625 96.144531 187.535156 C 95.957031 186.269531 95.738281 185.011719 95.519531 183.753906 C 95.082031 181.257812 95.441406 180.761719 97.964844 180.675781 C 100.316406 180.597656 102.671875 180.464844 105.019531 180.339844 C 107.792969 180.191406 110.546875 180.363281 113.308594 180.425781 C 113.679688 180.433594 114.042969 180.535156 114.414062 180.554688 C 115.527344 180.617188 115.625 180.757812 115.542969 181.96875 C 115.410156 183.945312 115.214844 185.914062 115.070312 187.886719 C 114.921875 189.859375 114.933594 189.867188 116.816406 190.296875 C 121.070312 191.269531 125.089844 192.890625 129.066406 194.632812 C 129.257812 194.714844 129.445312 194.800781 129.625 194.90625 C 130.167969 195.226562 130.515625 195.050781 130.851562 194.546875 C 131.648438 193.339844 132.492188 192.164062 133.328125 190.984375 C 133.757812 190.378906 134.195312 189.773438 134.667969 189.203125 C 135.308594 188.429688 135.359375 188.441406 136.167969 189 C 137.15625 189.683594 138.117188 190.402344 138.945312 191.273438 C 140.488281 192.898438 142.308594 194.203125 143.976562 195.6875 C 144.871094 196.484375 145.746094 197.300781 146.589844 198.152344 C 147.445312 199.019531 147.457031 199.070312 146.726562 199.992188 C 145.441406 201.609375 144.128906 203.203125 142.839844 204.820312 C 142.1875 205.632812 142.179688 205.65625 142.820312 206.507812 C 145.566406 210.164062 147.304688 214.292969 148.5625 218.648438 C 148.949219 220 149.335938 221.347656 149.589844 222.730469 C 149.742188 223.566406 149.828125 223.625 150.777344 223.582031 C 152.796875 223.488281 154.8125 223.28125 156.839844 223.296875 C 158.097656 223.304688 158.097656 223.28125 158.355469 224.550781 C 158.394531 224.75 158.457031 224.957031 158.457031 225.160156 C 158.46875 226.441406 158.460938 227.722656 158.460938 229.003906 Z M 125.769531 233.988281 C 125.796875 232.449219 125.714844 230.921875 125.445312 229.414062 C 125.3125 228.683594 125.152344 227.957031 124.949219 227.242188 C 123.726562 222.925781 121.484375 219.324219 117.625 216.847656 C 112.53125 213.582031 107.007812 212.367188 101.039062 213.449219 C 98.496094 213.914062 96.144531 214.992188 93.984375 216.378906 C 91.753906 217.8125 90.078125 219.84375 88.917969 222.210938 C 86.394531 227.375 85.589844 232.808594 86.792969 238.464844 C 87.5 241.800781 88.941406 244.808594 91.257812 247.332031 C 93.945312 250.257812 97.246094 252.28125 101.039062 253.417969 C 104.542969 254.472656 108.074219 254.726562 111.617188 253.40625 C 114.253906 252.421875 116.558594 250.941406 118.6875 249.136719 C 123.371094 245.160156 125.878906 240.1875 125.769531 233.988281 Z M 136.140625 166.113281 C 136.386719 168.332031 136.5 170.472656 136.46875 172.617188 C 136.460938 173.074219 136.40625 173.527344 136.4375 173.980469 C 136.492188 174.71875 136.089844 175.042969 135.441406 175.136719 C 134.5 175.273438 133.554688 175.378906 132.597656 175.339844 C 128.878906 175.191406 125.160156 175.046875 121.445312 174.886719 C 120.234375 174.835938 120.09375 174.679688 120.183594 173.464844 C 120.351562 171.117188 120.546875 168.769531 120.722656 166.421875 C 120.753906 166.011719 120.726562 165.59375 120.769531 165.183594 C 120.832031 164.621094 120.578125 164.398438 120.050781 164.242188 C 118.625 163.816406 117.257812 163.226562 115.910156 162.59375 C 112.652344 161.066406 109.757812 159.042969 107.300781 156.410156 C 106.710938 155.777344 106.6875 155.777344 106.042969 156.3125 C 104.164062 157.867188 102.222656 159.339844 100.21875 160.734375 C 99.699219 161.097656 99.4375 161.015625 99.082031 160.640625 C 98.148438 159.644531 97.195312 158.660156 96.429688 157.527344 C 94.335938 154.453125 92.285156 151.351562 90.765625 147.9375 C 90.246094 146.777344 90.238281 146.714844 91.425781 146.203125 C 93.777344 145.195312 96.144531 144.222656 98.507812 143.238281 C 99.511719 142.816406 99.515625 142.816406 99.191406 141.730469 C 97.792969 137.050781 97.085938 132.296875 97.65625 127.410156 C 97.726562 126.792969 97.820312 126.179688 97.886719 125.5625 C 97.984375 124.707031 97.980469 124.703125 97.152344 124.539062 C 95.289062 124.167969 93.40625 123.882812 91.566406 123.394531 C 90.570312 123.132812 90.503906 123.070312 90.636719 122.054688 C 90.710938 121.484375 90.832031 120.910156 90.988281 120.359375 C 92.074219 116.589844 93.117188 112.808594 94.40625 109.101562 C 94.761719 108.074219 94.890625 108 95.929688 108.453125 C 97.972656 109.351562 99.953125 110.378906 101.921875 111.433594 C 102.9375 111.980469 102.78125 112.082031 103.4375 111.109375 C 106.136719 107.113281 109.484375 103.792969 113.675781 101.359375 C 114.632812 100.808594 114.617188 100.796875 114.21875 99.757812 C 113.480469 97.832031 112.734375 95.90625 112.027344 93.96875 C 111.652344 92.957031 111.746094 92.796875 112.792969 92.460938 C 113.539062 92.21875 114.292969 92 115.058594 91.824219 C 118.402344 91.066406 121.691406 90.097656 124.996094 89.191406 C 125.976562 88.921875 126.128906 88.957031 126.496094 89.914062 C 127.1875 91.726562 127.800781 93.566406 128.476562 95.386719 C 128.867188 96.433594 128.699219 96.433594 129.945312 96.425781 C 134.546875 96.386719 139.125 96.65625 143.589844 97.886719 C 144.296875 98.078125 144.609375 97.949219 144.945312 97.316406 C 145.863281 95.605469 146.835938 93.921875 148.042969 92.386719 C 148.839844 91.371094 148.941406 91.320312 150.09375 91.976562 C 153.648438 94.003906 157.183594 96.0625 160.71875 98.117188 C 161.363281 98.492188 161.449219 98.824219 161.0625 99.5625 C 160.636719 100.367188 160.144531 101.132812 159.675781 101.914062 C 159.058594 102.9375 158.460938 103.980469 157.804688 104.980469 C 157.457031 105.503906 157.523438 105.808594 158.015625 106.203125 C 159.972656 107.777344 161.46875 109.746094 162.785156 111.867188 C 163.683594 113.3125 164.410156 114.835938 164.984375 116.4375 C 165.398438 117.59375 165.402344 117.582031 166.644531 117.296875 C 167.972656 116.992188 169.300781 116.660156 170.640625 116.433594 C 172.527344 116.117188 172.574219 116.15625 172.949219 118 C 173.738281 121.851562 174.289062 125.730469 174.363281 129.667969 C 174.382812 130.855469 174.347656 130.894531 173.195312 131.183594 C 171.472656 131.617188 169.746094 132.042969 168.007812 132.410156 C 167.363281 132.546875 167.128906 132.828125 167.128906 133.480469 C 167.128906 138.15625 165.8125 142.527344 163.988281 146.777344 C 163.597656 147.695312 163.597656 147.695312 164.347656 148.4375 C 165.40625 149.484375 166.46875 150.523438 167.398438 151.691406 C 167.953125 152.386719 168.054688 153.003906 167.597656 153.824219 C 166.242188 156.257812 164.621094 158.5 162.785156 160.578125 C 161.417969 162.125 159.929688 163.566406 158.46875 165.027344 C 157.796875 165.699219 157.605469 165.699219 156.914062 165.066406 C 155.695312 163.949219 154.503906 162.800781 153.3125 161.652344 C 152.40625 160.785156 152.554688 160.972656 151.648438 161.472656 C 151.214844 161.710938 150.773438 161.9375 150.363281 162.214844 C 147.046875 164.441406 143.351562 165.480469 139.402344 165.765625 C 138.339844 165.839844 137.277344 165.988281 136.140625 166.113281 Z M 145.4375 129.496094 C 145.390625 128.589844 145.367188 127.679688 145.289062 126.777344 C 145.238281 126.203125 145.128906 125.628906 145.003906 125.066406 C 143.785156 119.714844 139.601562 116.308594 133.949219 116.179688 C 129.914062 116.085938 126.265625 117.4375 123.160156 119.910156 C 119.996094 122.429688 118.109375 125.792969 118.027344 129.949219 C 117.894531 136.714844 122.691406 142.929688 129.292969 144.664062 C 133.183594 145.6875 136.65625 144.890625 139.699219 142.273438 C 143.613281 138.917969 145.5 134.648438 145.4375 129.496094 Z M 145.4375 129.496094 " fill-opacity="1" fill-rule="nonzero"/><path fill="#d9d9d9" d="M 233.808594 117.8125 C 237.222656 118.226562 240.695312 118.078125 244.164062 118.164062 C 245.058594 118.183594 245.957031 118.382812 246.867188 118.386719 C 247.503906 118.390625 247.882812 118.785156 247.871094 119.414062 C 247.84375 120.691406 248.042969 121.976562 247.71875 123.238281 C 247.679688 123.398438 247.660156 123.566406 247.660156 123.730469 C 247.617188 125.667969 247.671875 127.601562 247.429688 129.535156 C 247.28125 130.714844 247.519531 130.914062 248.6875 131.007812 C 250.90625 131.191406 253.085938 131.59375 255.269531 132.003906 C 259.867188 132.863281 264.3125 134.234375 268.65625 135.949219 C 269.820312 136.410156 269.824219 136.390625 270.386719 135.238281 C 271.851562 132.230469 273.445312 129.289062 275.066406 126.363281 C 275.429688 125.707031 275.5 125.691406 276.210938 126.167969 C 279.429688 128.324219 282.691406 130.417969 285.777344 132.777344 C 288.003906 134.476562 290.308594 136.078125 292.578125 137.722656 C 292.746094 137.84375 292.917969 137.957031 293.070312 138.097656 C 293.734375 138.71875 293.796875 139.195312 293.230469 139.925781 C 291.992188 141.519531 290.726562 143.089844 289.480469 144.679688 C 288.894531 145.421875 288.332031 146.191406 287.753906 146.9375 C 287.363281 147.445312 287.375 147.851562 287.878906 148.316406 C 288.910156 149.273438 289.914062 150.257812 290.875 151.289062 C 294.902344 155.613281 298.578125 160.207031 301.484375 165.382812 C 302.175781 166.609375 302.804688 167.863281 303.449219 169.109375 C 303.917969 170.011719 303.921875 170.019531 304.800781 169.585938 C 306.394531 168.800781 307.972656 167.980469 309.578125 167.21875 C 310.734375 166.671875 311.90625 166.152344 313.097656 165.691406 C 313.980469 165.347656 314.242188 165.457031 314.554688 166.261719 C 316.226562 170.609375 318.273438 174.8125 319.652344 179.273438 C 320.269531 181.28125 320.882812 183.292969 321.488281 185.304688 C 321.785156 186.285156 321.601562 186.597656 320.535156 186.867188 C 318.535156 187.367188 316.53125 187.832031 314.535156 188.339844 C 312.9375 188.746094 311.351562 189.195312 309.757812 189.617188 C 309.199219 189.765625 308.851562 190.085938 309.011719 190.683594 C 309.371094 191.984375 309.195312 193.3125 309.226562 194.625 C 309.261719 196.238281 309.253906 197.851562 309.226562 199.464844 C 309.191406 201.894531 308.910156 204.300781 308.550781 206.703125 C 308.273438 208.574219 307.9375 210.433594 307.566406 212.285156 C 307.414062 213.035156 307.480469 213.203125 308.28125 213.4375 C 310.972656 214.226562 313.589844 215.253906 316.257812 216.117188 C 316.492188 216.195312 316.730469 216.269531 316.960938 216.355469 C 317.800781 216.679688 317.859375 216.769531 317.695312 217.726562 C 317.34375 219.71875 316.707031 221.644531 316.035156 223.539062 C 314.453125 228.023438 312.265625 232.246094 310.207031 236.523438 C 310.132812 236.671875 310.0625 236.820312 309.976562 236.964844 C 309.535156 237.703125 309.34375 237.789062 308.597656 237.40625 C 306.648438 236.40625 304.660156 235.492188 302.628906 234.671875 C 301.863281 234.367188 301.078125 234.101562 300.332031 233.753906 C 299.847656 233.527344 299.601562 233.617188 299.363281 234.085938 C 298.539062 235.707031 297.480469 237.183594 296.484375 238.703125 C 293.996094 242.5 290.820312 245.683594 287.558594 248.789062 C 286.757812 249.554688 285.855469 250.222656 284.964844 250.886719 C 284.507812 251.222656 284.402344 251.425781 284.804688 251.9375 C 286.390625 253.941406 287.910156 255.996094 289.453125 258.03125 C 289.527344 258.132812 289.621094 258.214844 289.691406 258.316406 C 290.304688 259.191406 290.265625 259.671875 289.425781 260.324219 C 288.480469 261.058594 287.5 261.742188 286.53125 262.445312 C 283.011719 264.992188 279.28125 267.183594 275.464844 269.246094 C 273.390625 270.367188 271.285156 271.410156 269.050781 272.160156 C 268.027344 272.503906 267.890625 272.464844 267.410156 271.492188 C 266.097656 268.824219 264.808594 266.144531 263.507812 263.46875 C 263.363281 263.171875 263.199219 262.882812 263.058594 262.585938 C 262.847656 262.148438 262.558594 261.988281 262.058594 262.152344 C 259.394531 263.042969 256.632812 263.535156 253.867188 263.949219 C 251.878906 264.25 249.863281 264.402344 247.847656 264.546875 C 244.792969 264.769531 241.742188 264.726562 238.6875 264.773438 C 237.726562 264.789062 236.816406 264.480469 235.855469 264.511719 C 235.234375 264.53125 235.003906 264.722656 234.960938 265.367188 C 234.75 268.320312 234.34375 271.246094 233.796875 274.15625 C 233.691406 274.722656 233.644531 275.296875 233.519531 275.859375 C 233.410156 276.34375 233.164062 276.476562 232.726562 276.382812 C 229.351562 275.660156 225.917969 275.214844 222.558594 274.402344 C 219.316406 273.621094 216.070312 272.859375 212.828125 272.066406 C 212.269531 271.929688 211.6875 271.984375 211.128906 271.765625 C 210.554688 271.542969 210.378906 271.292969 210.519531 270.660156 C 210.945312 268.726562 211.535156 266.84375 212.039062 264.933594 C 212.347656 263.78125 212.648438 262.625 212.933594 261.464844 C 213.136719 260.636719 213.121094 260.609375 212.308594 260.320312 C 210.671875 259.746094 209.011719 259.257812 207.402344 258.601562 C 203.367188 256.957031 199.605469 254.839844 196.042969 252.335938 C 194.757812 251.433594 193.53125 250.464844 192.28125 249.523438 C 191.585938 248.996094 191.546875 249.011719 191.003906 249.664062 C 188.683594 252.453125 186.363281 255.238281 183.871094 257.878906 C 182.664062 259.15625 182.636719 259.195312 181.335938 257.886719 C 179.914062 256.460938 178.605469 254.910156 177.300781 253.367188 C 175.8125 251.605469 174.296875 249.871094 172.894531 248.03125 C 171.046875 245.605469 169.128906 243.238281 167.265625 240.820312 C 166.476562 239.796875 166.507812 239.765625 167.386719 238.867188 C 168.976562 237.246094 170.703125 235.777344 172.421875 234.292969 C 173.761719 233.132812 174.921875 231.769531 176.332031 230.679688 C 176.792969 230.320312 176.839844 229.953125 176.574219 229.398438 C 174.035156 224.082031 172.429688 218.472656 171.402344 212.683594 C 171.058594 210.742188 170.683594 208.804688 170.644531 206.820312 C 170.640625 206.65625 170.605469 206.492188 170.570312 206.332031 C 170.339844 205.230469 170.335938 205.230469 169.21875 205.21875 C 168.804688 205.214844 168.386719 205.203125 167.976562 205.222656 C 164.667969 205.371094 161.375 204.964844 158.070312 204.957031 C 157.070312 204.957031 156.976562 204.804688 157.214844 203.765625 C 157.539062 202.351562 157.46875 200.898438 157.730469 199.480469 C 158.003906 197.984375 158.179688 196.476562 158.390625 194.96875 C 158.59375 193.503906 158.773438 192.039062 158.988281 190.574219 C 159.269531 188.664062 159.589844 186.761719 159.855469 184.847656 C 160.089844 183.183594 160.273438 181.507812 160.480469 179.835938 C 160.484375 179.796875 160.476562 179.753906 160.484375 179.710938 C 160.933594 177.070312 160.632812 177.226562 163.035156 177.808594 C 165.914062 178.511719 168.808594 179.144531 171.699219 179.800781 C 172.667969 180.023438 172.6875 180.019531 172.96875 179.042969 C 173.925781 175.75 175.054688 172.515625 176.558594 169.4375 C 177.769531 166.957031 179.136719 164.542969 180.894531 162.386719 C 181.914062 161.132812 182.660156 159.703125 183.550781 158.367188 C 183.878906 157.871094 183.851562 157.53125 183.304688 157.140625 C 180.851562 155.398438 178.4375 153.597656 176.195312 151.582031 C 175.84375 151.269531 175.171875 151.292969 175.136719 150.65625 C 175.101562 150.027344 175.675781 149.769531 176.011719 149.371094 C 177.207031 147.957031 178.414062 146.546875 179.617188 145.136719 C 179.777344 144.949219 179.921875 144.742188 180.09375 144.566406 C 184.296875 140.355469 188.308594 135.949219 192.585938 131.808594 C 193.558594 130.867188 193.683594 130.847656 194.683594 131.832031 C 196.6875 133.804688 198.667969 135.804688 200.664062 137.789062 C 201.53125 138.652344 201.554688 138.671875 202.644531 137.996094 C 206.035156 135.902344 209.625 134.246094 213.445312 133.113281 C 216.488281 132.210938 219.570312 131.472656 222.714844 131.015625 C 222.996094 130.972656 223.273438 130.882812 223.550781 130.8125 C 223.816406 130.742188 223.976562 130.628906 223.929688 130.296875 C 223.730469 128.832031 223.519531 127.367188 223.382812 125.898438 C 223.234375 124.257812 223.152344 122.613281 223.054688 120.96875 C 223.019531 120.398438 223.09375 119.835938 222.710938 119.308594 C 222.390625 118.867188 222.65625 118.457031 223.140625 118.402344 C 223.796875 118.328125 224.421875 118.074219 225.097656 118.121094 C 225.507812 118.152344 225.921875 118.117188 226.335938 118.121094 C 228.816406 118.160156 231.289062 118.070312 233.808594 117.8125 Z M 266.558594 196.652344 C 266.6875 195.75 266.371094 194.285156 266.230469 192.808594 C 266.136719 191.832031 265.914062 190.859375 265.65625 189.910156 C 264.496094 185.566406 262.6875 181.519531 260.027344 177.871094 C 258.65625 175.988281 257.007812 174.367188 255.132812 173 C 251.667969 170.46875 247.839844 168.636719 243.730469 167.414062 C 241.355469 166.710938 238.933594 166.261719 236.433594 166.253906 C 233.558594 166.242188 230.761719 166.710938 228.0625 167.636719 C 224.59375 168.820312 221.40625 170.5 218.757812 173.125 C 216.902344 174.960938 215.222656 176.953125 213.6875 179.035156 C 210.34375 183.570312 208.484375 188.613281 209.109375 194.394531 C 209.320312 196.320312 209.65625 198.214844 210.0625 200.101562 C 210.710938 203.140625 211.824219 206.027344 213.101562 208.847656 C 214.074219 211 215.308594 213.011719 216.878906 214.78125 C 219.773438 218.042969 223.257812 220.492188 227.324219 222.109375 C 230.457031 223.359375 233.6875 224.09375 237.074219 224.074219 C 238.894531 224.0625 240.691406 223.804688 242.472656 223.5 C 244.214844 223.199219 245.941406 222.78125 247.621094 222.210938 C 250.90625 221.101562 253.832031 219.328125 256.628906 217.332031 C 258.621094 215.90625 260.335938 214.175781 261.773438 212.191406 C 265.007812 207.738281 266.464844 202.710938 266.558594 196.652344 Z M 266.558594 196.652344 " fill-opacity="1" fill-rule="nonzero"/><path fill="#add0ee" d="M 158.460938 229.003906 C 158.605469 230.566406 158.507812 232.132812 158.648438 233.707031 C 158.765625 235.050781 158.585938 236.421875 158.488281 237.78125 C 158.4375 238.554688 157.761719 238.621094 157.199219 238.675781 C 155.886719 238.800781 154.566406 238.875 153.246094 238.945312 C 152.296875 239 151.347656 239.003906 150.398438 239.058594 C 149.722656 239.097656 149.371094 239.355469 149.214844 240.148438 C 148.234375 245.011719 146.90625 249.78125 145.101562 254.410156 C 144.605469 255.683594 143.945312 256.878906 143.34375 258.101562 C 142.921875 258.957031 142.9375 259.066406 143.671875 259.671875 C 145.050781 260.800781 146.269531 262.097656 147.542969 263.335938 C 148.003906 263.785156 148.070312 264.1875 147.714844 264.738281 C 147.019531 265.820312 146.214844 266.816406 145.382812 267.789062 C 143.066406 270.480469 140.789062 273.207031 138.328125 275.773438 C 137.785156 276.347656 137.449219 276.367188 136.773438 275.730469 C 135.445312 274.480469 134.253906 273.105469 133.085938 271.710938 C 132.460938 270.960938 132.46875 270.964844 131.648438 271.488281 C 127.480469 274.148438 123.074219 276.292969 118.242188 277.480469 C 117.222656 277.730469 117.203125 277.804688 117.371094 278.84375 C 117.644531 280.550781 117.878906 282.265625 118.179688 283.96875 C 118.273438 284.503906 118.019531 284.605469 117.613281 284.707031 C 116.6875 284.9375 115.730469 284.917969 114.792969 285.066406 C 111.898438 285.523438 108.980469 285.832031 106.046875 285.890625 C 105.800781 285.898438 105.550781 285.902344 105.304688 285.929688 C 104.253906 286.042969 104.035156 285.929688 103.902344 284.929688 C 103.691406 283.378906 103.515625 281.820312 103.386719 280.261719 C 103.289062 279.113281 103.296875 279.027344 102.097656 278.953125 C 100.691406 278.871094 99.308594 278.636719 97.917969 278.453125 C 93.375 277.859375 89.027344 276.605469 84.902344 274.617188 C 84.035156 274.199219 84.011719 273.964844 83.414062 275.0625 C 82.429688 276.878906 81.246094 278.578125 80.085938 280.285156 C 79.554688 281.066406 79.285156 281.121094 78.605469 280.570312 C 75.492188 278.046875 72.132812 275.84375 69.101562 273.210938 C 68.183594 272.414062 68.121094 272.242188 68.90625 271.316406 C 70.109375 269.898438 71.351562 268.511719 72.578125 267.117188 C 73.226562 266.378906 73.25 266.363281 72.585938 265.601562 C 70.246094 262.914062 68.121094 260.082031 66.375 256.964844 C 65.546875 255.484375 64.84375 253.945312 64.148438 252.402344 C 63.707031 251.429688 63.695312 251.445312 62.730469 251.800781 C 61.253906 252.339844 59.773438 252.855469 58.304688 253.414062 C 57.785156 253.609375 57.550781 253.582031 57.316406 252.972656 C 56.21875 250.113281 55.460938 247.148438 54.46875 244.261719 C 54.230469 243.558594 54.019531 242.84375 53.796875 242.136719 C 53.386719 240.828125 53.429688 240.734375 54.835938 240.417969 C 56 240.15625 57.183594 239.957031 58.351562 239.695312 C 58.988281 239.550781 59.761719 239.609375 60.214844 239.125 C 60.6875 238.617188 60.15625 237.949219 60.160156 237.339844 C 60.171875 235.648438 59.859375 233.972656 59.929688 232.269531 C 59.992188 230.742188 60.125 229.226562 60.3125 227.710938 C 60.410156 226.902344 60.390625 226.78125 59.527344 226.664062 C 58.21875 226.488281 56.90625 226.34375 55.617188 226.054688 C 53.207031 225.511719 53.5625 225.820312 54.148438 223.660156 C 55.03125 220.394531 56.109375 217.183594 56.921875 213.898438 C 57.175781 212.875 57.273438 212.820312 58.277344 213.15625 C 60 213.738281 61.726562 214.316406 63.425781 214.953125 C 64.027344 215.179688 64.300781 215.046875 64.597656 214.503906 C 66.449219 211.074219 68.707031 207.921875 71.242188 204.964844 C 71.640625 204.5 71.691406 204.164062 71.261719 203.695312 C 70.226562 202.570312 69.226562 201.417969 68.21875 200.265625 C 67.757812 199.734375 67.304688 199.199219 66.882812 198.640625 C 66.25 197.804688 66.25 197.742188 67.007812 197.007812 C 69.769531 194.332031 72.710938 191.863281 75.808594 189.578125 C 76.308594 189.210938 76.789062 188.820312 77.308594 188.476562 C 77.996094 188.023438 78.097656 188.054688 78.609375 188.707031 C 79.90625 190.367188 81.195312 192.03125 82.511719 193.679688 C 83.289062 194.65625 83.296875 194.628906 84.382812 194.089844 C 87.71875 192.4375 91.171875 191.0625 94.675781 189.8125 C 96.367188 189.210938 96.402344 189.265625 96.144531 187.535156 C 95.957031 186.269531 95.738281 185.011719 95.519531 183.753906 C 95.082031 181.257812 95.441406 180.761719 97.964844 180.675781 C 100.316406 180.597656 102.671875 180.464844 105.019531 180.339844 C 107.792969 180.191406 110.546875 180.363281 113.308594 180.425781 C 113.679688 180.433594 114.042969 180.535156 114.414062 180.554688 C 115.527344 180.617188 115.625 180.757812 115.542969 181.96875 C 115.410156 183.945312 115.214844 185.914062 115.070312 187.886719 C 114.921875 189.859375 114.933594 189.867188 116.816406 190.296875 C 121.070312 191.269531 125.089844 192.890625 129.066406 194.632812 C 129.257812 194.714844 129.445312 194.800781 129.625 194.90625 C 130.167969 195.226562 130.515625 195.050781 130.851562 194.546875 C 131.648438 193.339844 132.492188 192.164062 133.328125 190.984375 C 133.757812 190.378906 134.195312 189.773438 134.667969 189.203125 C 135.308594 188.429688 135.359375 188.441406 136.167969 189 C 137.15625 189.683594 138.117188 190.402344 138.945312 191.273438 C 140.488281 192.898438 142.308594 194.203125 143.976562 195.6875 C 144.871094 196.484375 145.746094 197.300781 146.589844 198.152344 C 147.445312 199.019531 147.457031 199.070312 146.726562 199.992188 C 145.441406 201.609375 144.128906 203.203125 142.839844 204.820312 C 142.1875 205.632812 142.179688 205.65625 142.820312 206.507812 C 145.566406 210.164062 147.304688 214.292969 148.5625 218.648438 C 148.949219 220 149.335938 221.347656 149.589844 222.730469 C 149.742188 223.566406 149.828125 223.625 150.777344 223.582031 C 152.796875 223.488281 154.8125 223.28125 156.839844 223.296875 C 158.097656 223.304688 158.097656 223.28125 158.355469 224.550781 C 158.394531 224.75 158.457031 224.957031 158.457031 225.160156 C 158.46875 226.441406 158.460938 227.722656 158.460938 229.003906 Z M 125.769531 233.988281 C 125.796875 232.449219 125.714844 230.921875 125.445312 229.414062 C 125.3125 228.683594 125.152344 227.957031 124.949219 227.242188 C 123.726562 222.925781 121.484375 219.324219 117.625 216.847656 C 112.53125 213.582031 107.007812 212.367188 101.039062 213.449219 C 98.496094 213.914062 96.144531 214.992188 93.984375 216.378906 C 91.753906 217.8125 90.078125 219.84375 88.917969 222.210938 C 86.394531 227.375 85.589844 232.808594 86.792969 238.464844 C 87.5 241.800781 88.941406 244.808594 91.257812 247.332031 C 93.945312 250.257812 97.246094 252.28125 101.039062 253.417969 C 104.542969 254.472656 108.074219 254.726562 111.617188 253.40625 C 114.253906 252.421875 116.558594 250.941406 118.6875 249.136719 C 123.371094 245.160156 125.878906 240.1875 125.769531 233.988281 Z M 125.769531 233.988281 " fill-opacity="1" fill-rule="nonzero"/><path fill="#7bb7e4" d="M 136.140625 166.113281 C 136.386719 168.332031 136.5 170.472656 136.46875 172.617188 C 136.460938 173.074219 136.40625 173.527344 136.4375 173.980469 C 136.492188 174.71875 136.089844 175.042969 135.441406 175.136719 C 134.5 175.273438 133.554688 175.378906 132.597656 175.339844 C 128.878906 175.191406 125.160156 175.046875 121.445312 174.886719 C 120.234375 174.835938 120.09375 174.679688 120.183594 173.464844 C 120.351562 171.117188 120.546875 168.769531 120.722656 166.421875 C 120.753906 166.011719 120.726562 165.59375 120.769531 165.183594 C 120.832031 164.621094 120.578125 164.398438 120.050781 164.242188 C 118.625 163.816406 117.257812 163.226562 115.910156 162.59375 C 112.652344 161.066406 109.757812 159.042969 107.300781 156.410156 C 106.710938 155.777344 106.6875 155.777344 106.042969 156.3125 C 104.164062 157.867188 102.222656 159.339844 100.21875 160.734375 C 99.699219 161.097656 99.4375 161.015625 99.082031 160.640625 C 98.148438 159.644531 97.195312 158.660156 96.429688 157.527344 C 94.335938 154.453125 92.285156 151.351562 90.765625 147.9375 C 90.246094 146.777344 90.238281 146.714844 91.425781 146.203125 C 93.777344 145.195312 96.144531 144.222656 98.507812 143.238281 C 99.511719 142.816406 99.515625 142.816406 99.191406 141.730469 C 97.792969 137.050781 97.085938 132.296875 97.65625 127.410156 C 97.726562 126.792969 97.820312 126.179688 97.886719 125.5625 C 97.984375 124.707031 97.980469 124.703125 97.152344 124.539062 C 95.289062 124.167969 93.40625 123.882812 91.566406 123.394531 C 90.570312 123.132812 90.503906 123.070312 90.636719 122.054688 C 90.710938 121.484375 90.832031 120.910156 90.988281 120.359375 C 92.074219 116.589844 93.117188 112.808594 94.40625 109.101562 C 94.761719 108.074219 94.890625 108 95.929688 108.453125 C 97.972656 109.351562 99.953125 110.378906 101.921875 111.433594 C 102.9375 111.980469 102.78125 112.082031 103.4375 111.109375 C 106.136719 107.113281 109.484375 103.792969 113.675781 101.359375 C 114.632812 100.808594 114.617188 100.796875 114.21875 99.757812 C 113.480469 97.832031 112.734375 95.90625 112.027344 93.96875 C 111.652344 92.957031 111.746094 92.796875 112.792969 92.460938 C 113.539062 92.21875 114.292969 92 115.058594 91.824219 C 118.402344 91.066406 121.691406 90.097656 124.996094 89.191406 C 125.976562 88.921875 126.128906 88.957031 126.496094 89.914062 C 127.1875 91.726562 127.800781 93.566406 128.476562 95.386719 C 128.867188 96.433594 128.699219 96.433594 129.945312 96.425781 C 134.546875 96.386719 139.125 96.65625 143.589844 97.886719 C 144.296875 98.078125 144.609375 97.949219 144.945312 97.316406 C 145.863281 95.605469 146.835938 93.921875 148.042969 92.386719 C 148.839844 91.371094 148.941406 91.320312 150.09375 91.976562 C 153.648438 94.003906 157.183594 96.0625 160.71875 98.117188 C 161.363281 98.492188 161.449219 98.824219 161.0625 99.5625 C 160.636719 100.367188 160.144531 101.132812 159.675781 101.914062 C 159.058594 102.9375 158.460938 103.980469 157.804688 104.980469 C 157.457031 105.503906 157.523438 105.808594 158.015625 106.203125 C 159.972656 107.777344 161.46875 109.746094 162.785156 111.867188 C 163.683594 113.3125 164.410156 114.835938 164.984375 116.4375 C 165.398438 117.59375 165.402344 117.582031 166.644531 117.296875 C 167.972656 116.992188 169.300781 116.660156 170.640625 116.433594 C 172.527344 116.117188 172.574219 116.15625 172.949219 118 C 173.738281 121.851562 174.289062 125.730469 174.363281 129.667969 C 174.382812 130.855469 174.347656 130.894531 173.195312 131.183594 C 171.472656 131.617188 169.746094 132.042969 168.007812 132.410156 C 167.363281 132.546875 167.128906 132.828125 167.128906 133.480469 C 167.128906 138.15625 165.8125 142.527344 163.988281 146.777344 C 163.597656 147.695312 163.597656 147.695312 164.347656 148.4375 C 165.40625 149.484375 166.46875 150.523438 167.398438 151.691406 C 167.953125 152.386719 168.054688 153.003906 167.597656 153.824219 C 166.242188 156.257812 164.621094 158.5 162.785156 160.578125 C 161.417969 162.125 159.929688 163.566406 158.46875 165.027344 C 157.796875 165.699219 157.605469 165.699219 156.914062 165.066406 C 155.695312 163.949219 154.503906 162.800781 153.3125 161.652344 C 152.40625 160.785156 152.554688 160.972656 151.648438 161.472656 C 151.214844 161.710938 150.773438 161.9375 150.363281 162.214844 C 147.046875 164.441406 143.351562 165.480469 139.402344 165.765625 C 138.339844 165.839844 137.277344 165.988281 136.140625 166.113281 Z M 145.4375 129.496094 C 145.390625 128.589844 145.367188 127.679688 145.289062 126.777344 C 145.238281 126.203125 145.128906 125.628906 145.003906 125.066406 C 143.785156 119.714844 139.601562 116.308594 133.949219 116.179688 C 129.914062 116.085938 126.265625 117.4375 123.160156 119.910156 C 119.996094 122.429688 118.109375 125.792969 118.027344 129.949219 C 117.894531 136.714844 122.691406 142.929688 129.292969 144.664062 C 133.183594 145.6875 136.65625 144.890625 139.699219 142.273438 C 143.613281 138.917969 145.5 134.648438 145.4375 129.496094 Z M 145.4375 129.496094 " fill-opacity="1" fill-rule="nonzero"/></svg>