<svg xmlns="http://www.w3.org/2000/svg" xmlns:xlink="http://www.w3.org/1999/xlink" width="500" zoomAndPan="magnify" viewBox="0 0 375 374.999991" height="500" preserveAspectRatio="xMidYMid meet" version="1.0"><defs><clipPath id="b47ad10835"><path d="M 282 193 L 308 193 L 308 285.882812 L 282 285.882812 Z M 282 193 " clip-rule="nonzero"/></clipPath><clipPath id="ba3764334f"><path d="M 182 193 L 208 193 L 208 285.882812 L 182 285.882812 Z M 182 193 " clip-rule="nonzero"/></clipPath><clipPath id="f89d23d001"><path d="M 249 201 L 274 201 L 274 285.882812 L 249 285.882812 Z M 249 201 " clip-rule="nonzero"/></clipPath><clipPath id="34ca5fd5e9"><path d="M 215 224 L 241 224 L 241 285.882812 L 215 285.882812 Z M 215 224 " clip-rule="nonzero"/></clipPath><clipPath id="1debf13f70"><path d="M 316 237 L 341.390625 237 L 341.390625 285.882812 L 316 285.882812 Z M 316 237 " clip-rule="nonzero"/></clipPath><clipPath id="80fde0ea7c"><path d="M 33.890625 245 L 56 245 L 56 267 L 33.890625 267 Z M 33.890625 245 " clip-rule="nonzero"/></clipPath><clipPath id="13b6125e0c"><path d="M 104 89.382812 L 143 89.382812 L 143 158 L 104 158 Z M 104 89.382812 " clip-rule="nonzero"/></clipPath></defs><g clip-path="url(#b47ad10835)"><path fill="#ffffff" d="M 307.675781 239.824219 C 307.675781 225.167969 307.652344 210.503906 307.710938 195.84375 C 307.71875 194.257812 307.410156 193.703125 305.6875 193.726562 C 298.792969 193.832031 291.894531 193.8125 285 193.742188 C 283.5625 193.726562 282.964844 193.960938 282.964844 195.617188 C 283.019531 224.9375 283.019531 254.257812 282.964844 283.582031 C 282.964844 285.222656 283.542969 285.476562 284.992188 285.460938 C 291.886719 285.394531 298.785156 285.371094 305.679688 285.476562 C 307.390625 285.5 307.71875 284.964844 307.710938 283.367188 C 307.652344 268.855469 307.675781 254.339844 307.675781 239.824219 Z M 307.675781 239.824219 " fill-opacity="1" fill-rule="nonzero"/></g><g clip-path="url(#ba3764334f)"><path fill="#ffffff" d="M 205.234375 193.65625 C 198.480469 193.726562 191.726562 193.757812 184.976562 193.644531 C 183.085938 193.613281 182.488281 194.035156 182.5 196.042969 C 182.597656 210.5625 182.550781 225.082031 182.550781 239.601562 C 182.550781 254.199219 182.574219 268.792969 182.523438 283.386719 C 182.515625 284.933594 182.785156 285.582031 184.542969 285.550781 C 191.441406 285.449219 198.34375 285.46875 205.242188 285.539062 C 206.742188 285.554688 207.257812 285.183594 207.257812 283.597656 C 207.210938 254.261719 207.210938 224.925781 207.257812 195.585938 C 207.261719 193.996094 206.722656 193.640625 205.234375 193.65625 Z M 205.234375 193.65625 " fill-opacity="1" fill-rule="nonzero"/></g><g clip-path="url(#f89d23d001)"><path fill="#ffffff" d="M 273.789062 203.820312 C 273.789062 202.175781 273.175781 201.925781 271.742188 201.9375 C 265.136719 202.003906 258.53125 202.054688 251.929688 201.917969 C 249.785156 201.871094 249.078125 202.3125 249.101562 204.636719 C 249.234375 217.613281 249.167969 230.589844 249.167969 243.570312 C 249.167969 256.765625 249.195312 269.960938 249.132812 283.160156 C 249.121094 284.941406 249.585938 285.585938 251.464844 285.554688 C 258.210938 285.453125 264.964844 285.484375 271.714844 285.542969 C 273.132812 285.554688 273.792969 285.332031 273.789062 283.660156 C 273.738281 257.046875 273.738281 230.433594 273.789062 203.820312 Z M 273.789062 203.820312 " fill-opacity="1" fill-rule="nonzero"/></g><g clip-path="url(#34ca5fd5e9)"><path fill="#ffffff" d="M 238.222656 224.542969 C 231.394531 224.644531 224.570312 224.625 217.742188 224.554688 C 216.234375 224.539062 215.726562 224.941406 215.730469 226.515625 C 215.777344 245.511719 215.777344 264.507812 215.730469 283.503906 C 215.730469 285.082031 216.242188 285.476562 217.746094 285.460938 C 224.574219 285.394531 231.402344 285.375 238.226562 285.472656 C 240.027344 285.5 240.601562 285.039062 240.582031 283.171875 C 240.488281 273.785156 240.539062 264.394531 240.539062 255.007812 C 240.539062 245.617188 240.488281 236.230469 240.582031 226.84375 C 240.601562 224.96875 240.023438 224.515625 238.222656 224.542969 Z M 238.222656 224.542969 " fill-opacity="1" fill-rule="nonzero"/></g><g clip-path="url(#1debf13f70)"><path fill="#ffffff" d="M 339.117188 237.59375 C 332.222656 237.667969 325.332031 237.683594 318.441406 237.585938 C 316.660156 237.5625 316.058594 237.996094 316.089844 239.871094 C 316.195312 247.046875 316.132812 254.226562 316.132812 261.40625 C 316.132812 268.734375 316.167969 276.054688 316.101562 283.378906 C 316.089844 284.972656 316.523438 285.570312 318.203125 285.554688 C 325.167969 285.476562 332.132812 285.472656 339.101562 285.550781 C 340.660156 285.5625 341.105469 285.015625 341.097656 283.507812 C 341.058594 268.855469 341.058594 254.207031 341.105469 239.554688 C 341.113281 237.996094 340.632812 237.574219 339.117188 237.59375 Z M 339.117188 237.59375 " fill-opacity="1" fill-rule="nonzero"/></g><path fill="#ffffff" d="M 242.722656 127.066406 C 242.730469 126.554688 242.761719 126.039062 242.738281 125.527344 C 242.421875 119.238281 237.109375 114.425781 231.328125 115.179688 C 222.886719 116.285156 219.105469 123.898438 223.167969 131.609375 L 225.746094 134.273438 C 231.730469 137.917969 237.113281 136.699219 241.609375 130.675781 C 241.980469 129.476562 242.351562 128.273438 242.722656 127.066406 Z M 232.09375 130.839844 C 229.167969 130.875 226.9375 128.734375 226.867188 125.820312 C 226.792969 122.890625 229.144531 120.4375 232.039062 120.421875 C 234.78125 120.410156 237.269531 122.800781 237.359375 125.535156 C 237.453125 128.347656 235.011719 130.804688 232.09375 130.84375 Z M 232.09375 130.839844 " fill-opacity="1" fill-rule="nonzero"/><g clip-path="url(#80fde0ea7c)"><path fill="#ffffff" d="M 42.226562 245.546875 C 37.453125 246.59375 33.894531 251 33.914062 256.003906 C 33.933594 261.046875 37.625 265.40625 42.652344 266.320312 C 47.679688 267.230469 52.542969 264.582031 54.335938 259.960938 C 56.160156 255.273438 54.902344 251.28125 51.570312 247.753906 L 48.273438 245.894531 C 46.277344 245.417969 44.308594 245.089844 42.226562 245.546875 Z M 49.835938 256.09375 C 49.703125 259 47.222656 261.246094 44.273438 261.132812 C 41.421875 261.027344 39.292969 258.695312 39.363281 255.761719 C 39.429688 252.929688 41.828125 250.59375 44.609375 250.652344 C 47.441406 250.710938 49.960938 253.335938 49.835938 256.09375 Z M 49.835938 256.09375 " fill-opacity="1" fill-rule="nonzero"/></g><path fill="#ffffff" d="M 318.3125 113.5 C 320.121094 114.324219 321.957031 114.882812 324.007812 114.839844 C 329.046875 114.730469 333.308594 111.257812 334.277344 106.285156 C 335.1875 101.636719 332.5625 96.496094 328.332031 94.632812 C 323.585938 92.539062 318.050781 93.972656 315.207031 98.105469 C 312.167969 102.53125 312.722656 106.894531 315.597656 111.167969 Z M 324 98.96875 C 326.75 99.070312 329.03125 101.503906 329.011719 104.308594 C 328.988281 107.328125 326.6875 109.605469 323.738281 109.527344 C 320.890625 109.453125 318.453125 106.941406 318.527344 104.148438 C 318.601562 101.433594 321.308594 98.871094 324 98.96875 Z M 324 98.96875 " fill-opacity="1" fill-rule="nonzero"/><path fill="#ffffff" d="M 289.679688 161.710938 C 295.105469 158.300781 296.042969 151.296875 291.832031 145.613281 L 289.039062 143.382812 C 284.410156 141.394531 280.152344 141.910156 276.3125 145.253906 L 274.152344 148.320312 C 273.96875 149.023438 273.769531 149.722656 273.609375 150.433594 C 272.628906 154.753906 274.226562 158.988281 277.75 161.445312 C 281.414062 164 285.882812 164.097656 289.679688 161.710938 Z M 278.605469 152.882812 C 278.597656 150.007812 281 147.632812 283.90625 147.640625 C 286.929688 147.644531 289.1875 149.890625 289.175781 152.875 C 289.164062 155.675781 286.601562 158.171875 283.804688 158.105469 C 281.148438 158.042969 278.605469 155.484375 278.601562 152.878906 Z M 278.605469 152.882812 " fill-opacity="1" fill-rule="nonzero"/><path fill="#ffffff" d="M 126.160156 203.003906 C 121.679688 201.640625 117.691406 202.449219 114.242188 205.675781 L 112.214844 209.007812 C 112.136719 209.363281 112.070312 209.726562 111.976562 210.078125 C 110.523438 215.472656 113.15625 220.800781 118.257812 222.78125 C 123.488281 224.816406 129.214844 222.652344 131.648438 217.613281 C 133.9375 212.867188 132.730469 208.679688 129.328125 204.9375 Z M 122.132812 218.25 C 119.339844 218.210938 116.851562 215.648438 116.90625 212.859375 C 116.960938 209.984375 119.429688 207.621094 122.3125 207.6875 C 124.996094 207.753906 127.480469 210.277344 127.476562 212.9375 C 127.476562 215.703125 124.875 218.289062 122.132812 218.25 Z M 122.132812 218.25 " fill-opacity="1" fill-rule="nonzero"/><path fill="#ffffff" d="M 164.507812 154.929688 C 164.21875 154.347656 163.953125 153.75 163.640625 153.183594 C 161.625 149.488281 158.585938 147.40625 154.304688 147.394531 C 149.972656 147.378906 146.640625 149.269531 144.703125 153.105469 C 142.457031 157.566406 143.453125 161.730469 146.496094 165.515625 L 149.546875 167.667969 C 151.921875 168.410156 154.335938 168.945312 156.800781 168.25 C 161.597656 166.890625 164.058594 163.507812 164.875 158.746094 C 164.75 157.476562 164.628906 156.207031 164.507812 154.933594 Z M 154.179688 163.230469 C 151.277344 163.210938 148.871094 160.804688 148.886719 157.929688 C 148.898438 155.054688 151.328125 152.65625 154.214844 152.667969 C 156.957031 152.675781 159.335938 155.066406 159.378906 157.859375 C 159.429688 160.738281 157.003906 163.246094 154.179688 163.230469 Z M 154.179688 163.230469 " fill-opacity="1" fill-rule="nonzero"/><path fill="#ffffff" d="M 204.074219 153.292969 C 197.289062 149.878906 191.128906 151.984375 188.167969 158.730469 L 187.460938 162.265625 C 187.589844 163.058594 187.679688 163.859375 187.859375 164.640625 C 189.402344 171.421875 197.105469 174.90625 203.210938 171.628906 C 208.023438 169.046875 211.050781 162.320312 206.738281 155.769531 C 205.847656 154.945312 204.960938 154.117188 204.078125 153.292969 Z M 198.246094 167.578125 C 195.472656 167.617188 192.925781 165.070312 192.941406 162.273438 C 192.960938 159.300781 195.261719 157.046875 198.253906 157.066406 C 201.234375 157.089844 203.5 159.417969 203.441406 162.382812 C 203.386719 165.089844 200.933594 167.539062 198.246094 167.578125 Z M 198.246094 167.578125 " fill-opacity="1" fill-rule="nonzero"/><path fill="#ffffff" d="M 86.953125 193.210938 C 85.679688 187.070312 79.722656 183.5 73.664062 185.148438 C 66.328125 187.140625 62.679688 196.976562 69.78125 203.628906 L 72.976562 205.503906 C 80.570312 206.492188 83.699219 204.898438 86.890625 198.402344 C 87.039062 197.085938 87.183594 195.769531 87.332031 194.449219 C 87.203125 194.035156 87.039062 193.632812 86.953125 193.210938 Z M 81.839844 195.511719 C 81.757812 198.308594 79.367188 200.644531 76.59375 200.644531 C 73.730469 200.644531 71.304688 198.171875 71.347656 195.292969 C 71.386719 192.414062 73.84375 190.015625 76.703125 190.082031 C 79.5625 190.148438 81.929688 192.652344 81.839844 195.511719 Z M 81.839844 195.511719 " fill-opacity="1" fill-rule="nonzero"/><path fill="#ffffff" d="M 149.613281 267.617188 C 134.140625 267.632812 118.667969 267.628906 103.195312 267.601562 C 101.695312 267.597656 100.984375 267.789062 100.96875 269.582031 C 100.949219 271.519531 101.941406 271.460938 103.292969 271.453125 C 110.992188 271.425781 118.691406 271.441406 126.390625 271.441406 C 134.089844 271.441406 141.789062 271.441406 149.488281 271.441406 C 150.785156 271.441406 152.113281 271.773438 152.136719 269.597656 C 152.160156 267.527344 151.019531 267.617188 149.613281 267.617188 Z M 149.613281 267.617188 " fill-opacity="1" fill-rule="nonzero"/><path fill="#ffffff" d="M 149.910156 275.09375 C 142.0625 275.128906 134.214844 275.109375 126.371094 275.109375 C 118.597656 275.109375 110.824219 275.140625 103.046875 275.082031 C 101.597656 275.074219 100.964844 275.355469 100.980469 276.992188 C 100.996094 278.539062 101.472656 278.957031 102.992188 278.953125 C 118.613281 278.902344 134.230469 278.902344 149.851562 278.945312 C 151.339844 278.949219 152.148438 278.714844 152.125 276.933594 C 152.109375 275.207031 151.246094 275.089844 149.910156 275.09375 Z M 149.910156 275.09375 " fill-opacity="1" fill-rule="nonzero"/><path fill="#ffffff" d="M 102.816406 248.21875 C 118.59375 248.164062 134.375 248.160156 150.15625 248.207031 C 151.5 248.207031 152.121094 247.96875 152.121094 246.425781 C 152.117188 244.882812 151.511719 244.628906 150.15625 244.640625 C 142.304688 244.691406 134.453125 244.664062 126.597656 244.664062 C 118.671875 244.664062 110.746094 244.6875 102.820312 244.640625 C 101.558594 244.636719 100.972656 244.867188 100.996094 246.3125 C 101.023438 247.679688 101.304688 248.222656 102.816406 248.21875 Z M 102.816406 248.21875 " fill-opacity="1" fill-rule="nonzero"/><path fill="#ffffff" d="M 103.210938 255.675781 C 118.769531 255.664062 134.328125 255.664062 149.890625 255.675781 C 151.117188 255.675781 152.113281 255.824219 152.136719 253.960938 C 152.164062 251.960938 151.054688 252.136719 149.769531 252.140625 C 142.0625 252.15625 134.359375 252.15625 126.652344 252.148438 C 118.871094 252.148438 111.089844 252.15625 103.3125 252.136719 C 102.011719 252.136719 100.945312 251.980469 100.980469 253.96875 C 101 255.835938 101.984375 255.679688 103.210938 255.675781 Z M 103.210938 255.675781 " fill-opacity="1" fill-rule="nonzero"/><path fill="#ffffff" d="M 69.78125 203.628906 C 62.613281 217.71875 55.441406 231.804688 48.269531 245.894531 C 49.714844 245.902344 50.753906 246.632812 51.5625 247.757812 C 53.96875 242.992188 56.371094 238.230469 58.777344 233.464844 C 63.503906 224.144531 68.238281 214.824219 72.976562 205.503906 C 71.625 205.367188 70.40625 205.003906 69.78125 203.628906 Z M 69.78125 203.628906 " fill-opacity="1" fill-rule="nonzero"/><path fill="#ffffff" d="M 48.269531 245.894531 L 51.5625 247.753906 C 50.753906 246.632812 49.714844 245.902344 48.269531 245.894531 Z M 48.269531 245.894531 " fill-opacity="1" fill-rule="nonzero"/><path fill="#ffffff" d="M 69.78125 203.628906 C 70.40625 205.003906 71.625 205.367188 72.976562 205.503906 Z M 69.78125 203.628906 " fill-opacity="1" fill-rule="nonzero"/><path fill="#ffffff" d="M 146.496094 165.515625 L 126.160156 203.003906 C 127.65625 202.917969 128.601562 203.753906 129.324219 204.9375 L 149.546875 167.664062 C 148.113281 167.539062 147.097656 166.820312 146.496094 165.515625 Z M 146.496094 165.515625 " fill-opacity="1" fill-rule="nonzero"/><path fill="#ffffff" d="M 126.160156 203.003906 L 129.324219 204.9375 C 128.601562 203.753906 127.660156 202.917969 126.160156 203.003906 Z M 126.160156 203.003906 " fill-opacity="1" fill-rule="nonzero"/><path fill="#ffffff" d="M 146.496094 165.515625 C 147.097656 166.820312 148.117188 167.535156 149.546875 167.667969 Z M 146.496094 165.515625 " fill-opacity="1" fill-rule="nonzero"/><path fill="#ffffff" d="M 291.832031 145.613281 C 300.660156 134.910156 309.488281 124.203125 318.3125 113.5 C 316.875 113.339844 315.988281 112.539062 315.597656 111.167969 C 310.410156 117.382812 305.203125 123.578125 300.050781 129.816406 C 296.339844 134.308594 292.707031 138.859375 289.039062 143.382812 C 290.496094 143.46875 291.273438 144.402344 291.832031 145.613281 Z M 291.832031 145.613281 " fill-opacity="1" fill-rule="nonzero"/><path fill="#ffffff" d="M 318.3125 113.5 L 315.597656 111.167969 C 315.988281 112.539062 316.875 113.339844 318.3125 113.5 Z M 318.3125 113.5 " fill-opacity="1" fill-rule="nonzero"/><path fill="#ffffff" d="M 291.832031 145.613281 C 291.273438 144.402344 290.5 143.46875 289.039062 143.382812 Z M 291.832031 145.613281 " fill-opacity="1" fill-rule="nonzero"/><path fill="#ffffff" d="M 276.308594 145.253906 C 275.582031 144.914062 274.828125 144.617188 274.125 144.230469 C 263.652344 138.519531 253.1875 132.796875 242.722656 127.074219 C 243.097656 128.507812 242.609375 129.675781 241.613281 130.6875 L 274.152344 148.324219 C 274.285156 146.890625 274.996094 145.859375 276.308594 145.253906 Z M 276.308594 145.253906 " fill-opacity="1" fill-rule="nonzero"/><path fill="#ffffff" d="M 242.722656 127.066406 C 242.351562 128.269531 241.980469 129.476562 241.609375 130.679688 C 242.609375 129.671875 243.09375 128.503906 242.722656 127.066406 Z M 242.722656 127.066406 " fill-opacity="1" fill-rule="nonzero"/><path fill="#ffffff" d="M 276.308594 145.253906 C 274.996094 145.859375 274.285156 146.886719 274.148438 148.320312 Z M 276.308594 145.253906 " fill-opacity="1" fill-rule="nonzero"/><path fill="#ffffff" d="M 114.242188 205.675781 L 87.332031 194.449219 C 87.578125 195.808594 87.933594 197.183594 86.890625 198.402344 C 89.722656 199.136719 92.300781 200.515625 94.980469 201.628906 C 100.753906 204.019531 106.472656 206.542969 112.214844 209.007812 C 112.277344 207.527344 112.835938 206.34375 114.242188 205.675781 Z M 114.242188 205.675781 " fill-opacity="1" fill-rule="nonzero"/><path fill="#ffffff" d="M 112.214844 209.007812 L 114.242188 205.675781 C 112.835938 206.34375 112.277344 207.527344 112.214844 209.007812 Z M 112.214844 209.007812 " fill-opacity="1" fill-rule="nonzero"/><path fill="#ffffff" d="M 87.332031 194.449219 C 87.1875 195.765625 87.039062 197.085938 86.890625 198.402344 C 87.933594 197.183594 87.578125 195.8125 87.332031 194.449219 Z M 87.332031 194.449219 " fill-opacity="1" fill-rule="nonzero"/><path fill="#ffffff" d="M 223.167969 131.613281 C 220.992188 134.074219 218.8125 136.535156 216.636719 138.996094 C 212.445312 143.757812 208.257812 148.523438 204.074219 153.292969 C 205.539062 153.496094 206.242188 154.519531 206.734375 155.769531 L 225.75 134.277344 C 224.160156 134.089844 223.441406 133.0625 223.167969 131.613281 Z M 223.167969 131.613281 " fill-opacity="1" fill-rule="nonzero"/><path fill="#ffffff" d="M 223.167969 131.613281 C 223.441406 133.066406 224.160156 134.089844 225.746094 134.277344 Z M 223.167969 131.613281 " fill-opacity="1" fill-rule="nonzero"/><path fill="#ffffff" d="M 204.074219 153.292969 C 204.964844 154.117188 205.851562 154.941406 206.734375 155.769531 C 206.242188 154.523438 205.535156 153.5 204.074219 153.292969 Z M 204.074219 153.292969 " fill-opacity="1" fill-rule="nonzero"/><path fill="#ffffff" d="M 90.921875 245.101562 C 86.226562 245.101562 86.226562 245.101562 86.226562 249.707031 C 86.226562 254.621094 86.226562 254.621094 91.121094 254.621094 C 96.035156 254.621094 96.035156 254.621094 96.035156 250.160156 C 96.035156 245.101562 96.035156 245.101562 90.921875 245.101562 Z M 90.921875 245.101562 " fill-opacity="1" fill-rule="nonzero"/><path fill="#ffffff" d="M 91.003906 268.597656 C 86.226562 268.597656 86.226562 268.597656 86.226562 273.410156 C 86.226562 278.121094 86.226562 278.121094 91.039062 278.121094 C 96.035156 278.121094 96.035156 278.121094 96.035156 273.597656 C 96.035156 268.597656 96.035156 268.597656 91.003906 268.597656 Z M 91.003906 268.597656 " fill-opacity="1" fill-rule="nonzero"/><path fill="#ffffff" d="M 188.160156 158.730469 L 164.507812 154.929688 C 165.324219 156.136719 165.257812 157.425781 164.875 158.742188 L 187.453125 162.265625 C 187.0625 160.964844 187.058594 159.734375 188.160156 158.730469 Z M 188.160156 158.730469 " fill-opacity="1" fill-rule="nonzero"/><path fill="#ffffff" d="M 164.507812 154.933594 C 164.628906 156.203125 164.75 157.472656 164.875 158.746094 C 165.261719 157.425781 165.324219 156.136719 164.507812 154.933594 Z M 164.507812 154.933594 " fill-opacity="1" fill-rule="nonzero"/><path fill="#ffffff" d="M 188.160156 158.730469 C 187.058594 159.734375 187.0625 160.960938 187.453125 162.265625 Z M 188.160156 158.730469 " fill-opacity="1" fill-rule="nonzero"/><path fill="#ffffff" d="M 76.214844 134.070312 C 70.734375 134.070312 65.207031 134.085938 59.585938 134.085938 C 62.070312 152.160156 71.058594 163.601562 86.53125 169.195312 C 100.828125 174.363281 114.492188 172.453125 127.601562 161.96875 C 123.695312 158.09375 119.894531 154.3125 116.140625 150.585938 C 113.964844 152.246094 111.582031 153.515625 108.988281 154.386719 C 106.398438 155.261719 103.734375 155.699219 100.996094 155.695312 C 88.332031 155.695312 77.867188 146.28125 76.214844 134.070312 Z M 76.214844 134.070312 " fill-opacity="1" fill-rule="nonzero"/><g clip-path="url(#13b6125e0c)"><path fill="#ffffff" d="M 126.007812 130.683594 C 126.011719 133.4375 125.570312 136.117188 124.683594 138.726562 C 123.800781 141.335938 122.515625 143.730469 120.835938 145.914062 C 124.457031 149.628906 128.085938 153.347656 131.722656 157.066406 C 142.996094 144.769531 145.519531 127.929688 138.46875 113.230469 C 131.839844 99.417969 120.925781 91.417969 104.328125 89.410156 C 104.328125 95.054688 104.3125 100.523438 104.3125 105.890625 C 116.558594 107.511719 126.007812 117.992188 126.007812 130.683594 Z M 126.007812 130.683594 " fill-opacity="1" fill-rule="nonzero"/></g><path fill="#ffffff" d="M 96.777344 106.027344 L 96.777344 90.296875 C 77.859375 90.253906 60.78125 107.28125 60.660156 126.363281 L 76.355469 126.363281 C 78.164062 115.980469 86.378906 107.792969 96.777344 106.027344 Z M 96.777344 106.027344 " fill-opacity="1" fill-rule="nonzero"/></svg>