<svg xmlns="http://www.w3.org/2000/svg" xmlns:xlink="http://www.w3.org/1999/xlink" width="500" zoomAndPan="magnify" viewBox="0 0 375 374.999991" height="500" preserveAspectRatio="xMidYMid meet" version="1.0"><defs><clipPath id="f57d9f7d59"><path d="M 247 37.5 L 318 37.5 L 318 108 L 247 108 Z M 247 37.5 " clip-rule="nonzero"/></clipPath><clipPath id="ee7ec0d3e1"><path d="M 56.25 87 L 165 87 L 165 222 L 56.25 222 Z M 56.25 87 " clip-rule="nonzero"/></clipPath></defs><path fill="#ffffff" d="M 216.097656 336.988281 C 214.832031 336.960938 213.617188 336.707031 212.449219 336.222656 C 211.28125 335.738281 210.242188 335.054688 209.328125 334.179688 L 143.203125 267.925781 C 142.304688 267.027344 141.613281 265.992188 141.125 264.820312 C 140.636719 263.648438 140.394531 262.429688 140.394531 261.160156 L 140.394531 201.03125 C 140.375 199.664062 140.644531 198.355469 141.203125 197.105469 C 141.761719 195.855469 142.554688 194.78125 143.585938 193.882812 C 144.597656 192.984375 145.75 192.328125 147.035156 191.90625 C 148.324219 191.484375 149.640625 191.335938 150.988281 191.457031 L 205.117188 197.457031 C 206.203125 197.59375 207.238281 197.898438 208.222656 198.382812 C 209.207031 198.863281 210.085938 199.492188 210.863281 200.265625 L 277.117188 266.394531 C 277.5625 266.839844 277.957031 267.320312 278.304688 267.84375 C 278.65625 268.367188 278.949219 268.917969 279.1875 269.5 C 279.429688 270.078125 279.609375 270.675781 279.734375 271.292969 C 279.855469 271.910156 279.917969 272.53125 279.917969 273.160156 C 279.917969 273.789062 279.855469 274.410156 279.734375 275.027344 C 279.609375 275.640625 279.429688 276.242188 279.1875 276.820312 C 278.949219 277.402344 278.65625 277.953125 278.304688 278.476562 C 277.957031 278.996094 277.5625 279.480469 277.117188 279.925781 L 222.863281 334.179688 C 221.964844 335.078125 220.929688 335.769531 219.757812 336.257812 C 218.585938 336.746094 217.363281 336.988281 216.097656 336.988281 Z M 159.542969 257.203125 L 216.097656 314.519531 L 257.074219 273.160156 L 199.753906 216.222656 L 159.542969 212.394531 Z M 159.542969 257.203125 " fill-opacity="1" fill-rule="nonzero"/><path fill="#ffffff" d="M 308.136719 209.203125 L 257.074219 209.203125 C 256.449219 209.195312 255.828125 209.125 255.214844 208.996094 C 254.601562 208.871094 254.007812 208.683594 253.429688 208.441406 C 252.851562 208.195312 252.304688 207.898438 251.785156 207.550781 C 251.265625 207.199219 250.785156 206.804688 250.339844 206.359375 C 249.898438 205.917969 249.5 205.4375 249.152344 204.917969 C 248.800781 204.398438 248.503906 203.847656 248.261719 203.273438 C 248.019531 202.695312 247.832031 202.101562 247.703125 201.488281 C 247.578125 200.875 247.507812 200.253906 247.5 199.628906 L 247.5 97.5 C 247.507812 96.875 247.578125 96.253906 247.703125 95.640625 C 247.832031 95.027344 248.019531 94.433594 248.261719 93.855469 C 248.503906 93.277344 248.800781 92.730469 249.152344 92.210938 C 249.5 91.691406 249.898438 91.210938 250.339844 90.765625 C 250.785156 90.324219 251.265625 89.925781 251.785156 89.578125 C 252.304688 89.226562 252.851562 88.929688 253.429688 88.6875 C 254.007812 88.445312 254.601562 88.257812 255.214844 88.128906 C 255.828125 88 256.449219 87.933594 257.074219 87.925781 L 308.136719 87.925781 C 308.765625 87.933594 309.382812 88 309.996094 88.128906 C 310.609375 88.257812 311.207031 88.445312 311.78125 88.6875 C 312.359375 88.929688 312.910156 89.226562 313.429688 89.578125 C 313.949219 89.925781 314.429688 90.324219 314.871094 90.765625 C 315.316406 91.210938 315.710938 91.691406 316.0625 92.210938 C 316.410156 92.730469 316.707031 93.277344 316.949219 93.855469 C 317.195312 94.433594 317.378906 95.027344 317.507812 95.640625 C 317.636719 96.253906 317.703125 96.875 317.710938 97.5 L 317.710938 199.628906 C 317.703125 200.253906 317.636719 200.875 317.507812 201.488281 C 317.378906 202.101562 317.195312 202.695312 316.949219 203.273438 C 316.707031 203.847656 316.410156 204.398438 316.0625 204.917969 C 315.710938 205.4375 315.316406 205.917969 314.871094 206.359375 C 314.429688 206.804688 313.949219 207.199219 313.429688 207.550781 C 312.910156 207.898438 312.359375 208.195312 311.78125 208.441406 C 311.207031 208.683594 310.609375 208.871094 309.996094 208.996094 C 309.382812 209.125 308.765625 209.195312 308.136719 209.203125 Z M 266.648438 190.054688 L 298.5625 190.054688 L 298.5625 107.074219 L 266.648438 107.074219 Z M 266.648438 190.054688 " fill-opacity="1" fill-rule="nonzero"/><path fill="#ffffff" d="M 282.605469 260.265625 C 281.714844 260.261719 280.839844 260.136719 279.984375 259.886719 C 279.128906 259.636719 278.320312 259.277344 277.566406 258.804688 C 276.808594 258.332031 276.132812 257.761719 275.535156 257.097656 C 274.941406 256.4375 274.445312 255.707031 274.054688 254.902344 L 248.519531 203.839844 C 248.34375 203.476562 248.191406 203.105469 248.058594 202.722656 C 247.929688 202.339844 247.824219 201.953125 247.742188 201.558594 C 247.660156 201.160156 247.601562 200.761719 247.574219 200.359375 C 247.542969 199.957031 247.535156 199.554688 247.554688 199.152344 C 247.578125 198.746094 247.621094 198.347656 247.691406 197.949219 C 247.761719 197.550781 247.859375 197.160156 247.980469 196.773438 C 248.101562 196.390625 248.242188 196.011719 248.410156 195.644531 C 248.578125 195.277344 248.769531 194.921875 248.984375 194.582031 C 249.195312 194.238281 249.429688 193.910156 249.683594 193.59375 C 249.9375 193.28125 250.210938 192.984375 250.503906 192.707031 C 250.796875 192.425781 251.105469 192.167969 251.429688 191.925781 C 251.753906 191.6875 252.09375 191.46875 252.445312 191.273438 C 252.796875 191.074219 253.160156 190.902344 253.535156 190.75 C 253.910156 190.597656 254.292969 190.472656 254.683594 190.367188 C 255.074219 190.265625 255.46875 190.1875 255.867188 190.136719 C 256.269531 190.082031 256.671875 190.054688 257.074219 190.054688 L 308.136719 190.054688 C 308.542969 190.054688 308.945312 190.082031 309.34375 190.136719 C 309.746094 190.1875 310.140625 190.265625 310.53125 190.367188 C 310.921875 190.472656 311.304688 190.597656 311.679688 190.75 C 312.050781 190.902344 312.417969 191.074219 312.769531 191.273438 C 313.121094 191.46875 313.460938 191.6875 313.785156 191.925781 C 314.109375 192.167969 314.417969 192.425781 314.710938 192.707031 C 315 192.984375 315.273438 193.28125 315.527344 193.59375 C 315.78125 193.910156 316.015625 194.238281 316.230469 194.582031 C 316.441406 194.921875 316.632812 195.277344 316.800781 195.644531 C 316.96875 196.011719 317.113281 196.390625 317.234375 196.773438 C 317.355469 197.160156 317.449219 197.550781 317.519531 197.949219 C 317.589844 198.347656 317.636719 198.746094 317.65625 199.152344 C 317.675781 199.554688 317.671875 199.957031 317.640625 200.359375 C 317.609375 200.761719 317.554688 201.160156 317.472656 201.558594 C 317.390625 201.953125 317.285156 202.339844 317.152344 202.722656 C 317.023438 203.105469 316.871094 203.476562 316.691406 203.839844 L 291.160156 254.902344 C 290.765625 255.707031 290.273438 256.4375 289.675781 257.097656 C 289.078125 257.761719 288.402344 258.332031 287.648438 258.804688 C 286.890625 259.277344 286.085938 259.636719 285.230469 259.886719 C 284.371094 260.136719 283.5 260.261719 282.605469 260.265625 Z M 272.519531 209.203125 L 282.605469 229.246094 L 292.691406 209.203125 Z M 272.519531 209.203125 " fill-opacity="1" fill-rule="nonzero"/><g clip-path="url(#f57d9f7d59)"><path fill="#ffffff" d="M 308.136719 107.074219 L 257.074219 107.074219 C 256.449219 107.066406 255.828125 107 255.214844 106.871094 C 254.601562 106.742188 254.007812 106.554688 253.429688 106.3125 C 252.851562 106.070312 252.304688 105.773438 251.785156 105.421875 C 251.265625 105.074219 250.785156 104.675781 250.339844 104.234375 C 249.898438 103.789062 249.5 103.308594 249.152344 102.789062 C 248.800781 102.269531 248.503906 101.722656 248.261719 101.144531 C 248.019531 100.566406 247.832031 99.972656 247.703125 99.359375 C 247.578125 98.746094 247.507812 98.125 247.5 97.5 L 247.5 46.4375 C 247.507812 45.808594 247.578125 45.191406 247.703125 44.578125 C 247.832031 43.964844 248.019531 43.367188 248.261719 42.792969 C 248.503906 42.214844 248.800781 41.667969 249.152344 41.144531 C 249.5 40.625 249.898438 40.144531 250.339844 39.703125 C 250.785156 39.257812 251.265625 38.863281 251.785156 38.511719 C 252.304688 38.164062 252.851562 37.867188 253.429688 37.625 C 254.007812 37.378906 254.601562 37.195312 255.214844 37.066406 C 255.828125 36.9375 256.449219 36.871094 257.074219 36.863281 L 308.136719 36.863281 C 308.765625 36.871094 309.382812 36.9375 309.996094 37.066406 C 310.609375 37.195312 311.207031 37.378906 311.78125 37.625 C 312.359375 37.867188 312.910156 38.164062 313.429688 38.511719 C 313.949219 38.863281 314.429688 39.257812 314.871094 39.703125 C 315.316406 40.144531 315.710938 40.625 316.0625 41.144531 C 316.410156 41.667969 316.707031 42.214844 316.949219 42.792969 C 317.195312 43.367188 317.378906 43.964844 317.507812 44.578125 C 317.636719 45.191406 317.703125 45.808594 317.710938 46.4375 L 317.710938 97.5 C 317.703125 98.125 317.636719 98.746094 317.507812 99.359375 C 317.378906 99.972656 317.195312 100.566406 316.949219 101.144531 C 316.707031 101.722656 316.410156 102.269531 316.0625 102.789062 C 315.710938 103.308594 315.316406 103.789062 314.871094 104.234375 C 314.429688 104.675781 313.949219 105.074219 313.429688 105.421875 C 312.910156 105.773438 312.359375 106.070312 311.78125 106.3125 C 311.207031 106.554688 310.609375 106.742188 309.996094 106.871094 C 309.382812 107 308.765625 107.066406 308.136719 107.074219 Z M 266.648438 87.925781 L 298.5625 87.925781 L 298.5625 56.011719 L 266.648438 56.011719 Z M 266.648438 87.925781 " fill-opacity="1" fill-rule="nonzero"/></g><g clip-path="url(#ee7ec0d3e1)"><path fill="#ffffff" d="M 149.96875 221.96875 L 91.117188 221.96875 C 89.96875 221.96875 88.820312 221.910156 87.675781 221.800781 C 86.53125 221.6875 85.394531 221.519531 84.269531 221.292969 C 83.140625 221.070312 82.027344 220.789062 80.925781 220.457031 C 79.824219 220.121094 78.746094 219.734375 77.683594 219.296875 C 76.621094 218.855469 75.582031 218.363281 74.566406 217.824219 C 73.554688 217.28125 72.570312 216.691406 71.613281 216.050781 C 70.65625 215.414062 69.734375 214.730469 68.847656 214 C 67.957031 213.269531 67.105469 212.5 66.292969 211.6875 C 65.480469 210.871094 64.707031 210.023438 63.980469 209.132812 C 63.25 208.246094 62.566406 207.320312 61.925781 206.367188 C 61.289062 205.410156 60.699219 204.425781 60.15625 203.410156 C 59.613281 202.398438 59.121094 201.359375 58.683594 200.296875 C 58.242188 199.234375 57.855469 198.152344 57.523438 197.050781 C 57.1875 195.953125 56.910156 194.839844 56.683594 193.710938 C 56.460938 192.582031 56.292969 191.445312 56.179688 190.300781 C 56.066406 189.160156 56.011719 188.011719 56.011719 186.863281 L 56.011719 174.097656 C 56.011719 172.945312 56.066406 171.800781 56.179688 170.65625 C 56.292969 169.511719 56.460938 168.375 56.683594 167.246094 C 56.910156 166.117188 57.1875 165.003906 57.523438 163.90625 C 57.855469 162.804688 58.242188 161.722656 58.683594 160.660156 C 59.121094 159.597656 59.613281 158.5625 60.15625 157.546875 C 60.699219 156.53125 61.289062 155.546875 61.925781 154.589844 C 62.566406 153.636719 63.25 152.714844 63.980469 151.824219 C 64.707031 150.9375 65.480469 150.085938 66.292969 149.273438 C 67.105469 148.457031 67.957031 147.6875 68.847656 146.957031 C 69.734375 146.230469 70.65625 145.542969 71.613281 144.90625 C 72.570312 144.265625 73.554688 143.675781 74.566406 143.132812 C 75.582031 142.59375 76.621094 142.101562 77.683594 141.660156 C 78.746094 141.222656 79.824219 140.835938 80.925781 140.5 C 82.027344 140.167969 83.140625 139.886719 84.269531 139.664062 C 85.394531 139.441406 86.53125 139.269531 87.675781 139.160156 C 88.820312 139.046875 89.96875 138.988281 91.117188 138.988281 L 129.414062 138.988281 C 129.9375 138.988281 130.457031 138.964844 130.980469 138.914062 C 131.5 138.859375 132.015625 138.785156 132.527344 138.683594 C 133.039062 138.582031 133.546875 138.453125 134.046875 138.300781 C 134.546875 138.152344 135.039062 137.976562 135.523438 137.773438 C 136.003906 137.574219 136.476562 137.351562 136.9375 137.105469 C 137.398438 136.859375 137.847656 136.589844 138.28125 136.300781 C 138.714844 136.007812 139.132812 135.699219 139.539062 135.367188 C 139.941406 135.035156 140.328125 134.683594 140.699219 134.316406 C 141.066406 133.945312 141.417969 133.558594 141.75 133.15625 C 142.082031 132.75 142.394531 132.332031 142.683594 131.898438 C 142.972656 131.460938 143.242188 131.015625 143.488281 130.554688 C 143.734375 130.09375 143.957031 129.621094 144.15625 129.136719 C 144.359375 128.65625 144.535156 128.164062 144.683594 127.664062 C 144.835938 127.164062 144.964844 126.65625 145.066406 126.144531 C 145.167969 125.632812 145.246094 125.117188 145.296875 124.597656 C 145.347656 124.074219 145.371094 123.554688 145.371094 123.03125 C 145.363281 121.988281 145.253906 120.953125 145.042969 119.925781 C 144.835938 118.902344 144.527344 117.910156 144.125 116.945312 C 143.71875 115.980469 143.226562 115.0625 142.644531 114.195312 C 142.0625 113.328125 141.402344 112.523438 140.660156 111.785156 C 139.921875 111.046875 139.117188 110.386719 138.25 109.800781 C 137.382812 109.21875 136.464844 108.726562 135.5 108.324219 C 134.539062 107.917969 133.542969 107.613281 132.519531 107.402344 C 131.496094 107.191406 130.460938 107.082031 129.414062 107.074219 L 103.882812 107.074219 C 103.253906 107.074219 102.632812 107.011719 102.015625 106.890625 C 101.398438 106.769531 100.800781 106.585938 100.21875 106.34375 C 99.636719 106.105469 99.085938 105.808594 98.5625 105.460938 C 98.039062 105.113281 97.558594 104.714844 97.113281 104.269531 C 96.667969 103.824219 96.269531 103.34375 95.921875 102.820312 C 95.574219 102.296875 95.277344 101.746094 95.039062 101.164062 C 94.796875 100.582031 94.613281 99.984375 94.492188 99.367188 C 94.371094 98.75 94.308594 98.128906 94.308594 97.5 C 94.308594 96.871094 94.371094 96.25 94.492188 95.632812 C 94.613281 95.015625 94.796875 94.417969 95.039062 93.835938 C 95.277344 93.253906 95.574219 92.703125 95.921875 92.179688 C 96.269531 91.65625 96.667969 91.175781 97.113281 90.730469 C 97.558594 90.285156 98.039062 89.886719 98.5625 89.539062 C 99.085938 89.191406 99.636719 88.894531 100.21875 88.65625 C 100.800781 88.414062 101.398438 88.230469 102.015625 88.109375 C 102.632812 87.988281 103.253906 87.925781 103.882812 87.925781 L 129.414062 87.925781 C 130.5625 87.933594 131.707031 87.996094 132.847656 88.117188 C 133.988281 88.238281 135.121094 88.410156 136.246094 88.640625 C 137.371094 88.871094 138.480469 89.15625 139.578125 89.492188 C 140.675781 89.832031 141.75 90.222656 142.808594 90.664062 C 143.867188 91.109375 144.902344 91.601562 145.914062 92.144531 C 146.925781 92.6875 147.90625 93.28125 148.859375 93.917969 C 149.8125 94.558594 150.730469 95.242188 151.617188 95.972656 C 152.503906 96.699219 153.355469 97.46875 154.164062 98.28125 C 154.976562 99.09375 155.746094 99.941406 156.476562 100.828125 C 157.203125 101.714844 157.886719 102.632812 158.527344 103.585938 C 159.167969 104.539062 159.757812 105.523438 160.300781 106.53125 C 160.84375 107.542969 161.339844 108.578125 161.78125 109.636719 C 162.222656 110.695312 162.613281 111.773438 162.953125 112.871094 C 163.292969 113.964844 163.574219 115.078125 163.804688 116.199219 C 164.035156 117.324219 164.210938 118.457031 164.328125 119.597656 C 164.449219 120.738281 164.511719 121.882812 164.519531 123.03125 C 164.519531 124.183594 164.464844 125.328125 164.351562 126.472656 C 164.238281 127.617188 164.070312 128.753906 163.847656 129.878906 C 163.621094 131.007812 163.34375 132.121094 163.007812 133.222656 C 162.675781 134.324219 162.289062 135.402344 161.847656 136.464844 C 161.410156 137.527344 160.917969 138.566406 160.375 139.582031 C 159.832031 140.59375 159.242188 141.578125 158.605469 142.535156 C 157.964844 143.492188 157.28125 144.414062 156.550781 145.304688 C 155.824219 146.191406 155.050781 147.042969 154.238281 147.855469 C 153.425781 148.667969 152.574219 149.441406 151.6875 150.167969 C 150.796875 150.898438 149.875 151.582031 148.917969 152.222656 C 147.964844 152.859375 146.976562 153.449219 145.964844 153.992188 C 144.949219 154.535156 143.910156 155.027344 142.847656 155.464844 C 141.789062 155.90625 140.707031 156.292969 139.605469 156.625 C 138.503906 156.960938 137.390625 157.238281 136.265625 157.464844 C 135.136719 157.6875 134 157.855469 132.855469 157.96875 C 131.710938 158.082031 130.566406 158.136719 129.414062 158.136719 L 91.117188 158.136719 C 90.59375 158.136719 90.074219 158.164062 89.554688 158.214844 C 89.03125 158.265625 88.515625 158.34375 88.003906 158.445312 C 87.492188 158.546875 86.984375 158.671875 86.484375 158.824219 C 85.984375 158.976562 85.492188 159.152344 85.011719 159.351562 C 84.527344 159.554688 84.054688 159.777344 83.59375 160.023438 C 83.132812 160.269531 82.6875 160.539062 82.25 160.828125 C 81.816406 161.117188 81.398438 161.429688 80.992188 161.761719 C 80.589844 162.09375 80.203125 162.441406 79.832031 162.8125 C 79.464844 163.183594 79.113281 163.570312 78.78125 163.972656 C 78.449219 164.375 78.140625 164.796875 77.847656 165.230469 C 77.558594 165.664062 77.289062 166.113281 77.042969 166.574219 C 76.796875 167.035156 76.574219 167.507812 76.375 167.988281 C 76.175781 168.472656 76 168.964844 75.847656 169.464844 C 75.695312 169.964844 75.566406 170.46875 75.464844 170.984375 C 75.363281 171.496094 75.289062 172.011719 75.238281 172.53125 C 75.183594 173.050781 75.160156 173.574219 75.160156 174.097656 L 75.160156 186.863281 C 75.160156 187.382812 75.183594 187.90625 75.238281 188.425781 C 75.289062 188.945312 75.363281 189.460938 75.464844 189.976562 C 75.566406 190.488281 75.695312 190.992188 75.847656 191.492188 C 76 191.992188 76.175781 192.484375 76.375 192.96875 C 76.574219 193.449219 76.796875 193.921875 77.042969 194.382812 C 77.289062 194.84375 77.558594 195.292969 77.847656 195.726562 C 78.140625 196.160156 78.449219 196.582031 78.78125 196.984375 C 79.113281 197.390625 79.464844 197.777344 79.832031 198.144531 C 80.203125 198.515625 80.589844 198.867188 80.992188 199.195312 C 81.398438 199.527344 81.816406 199.839844 82.25 200.128906 C 82.6875 200.421875 83.132812 200.6875 83.59375 200.933594 C 84.054688 201.179688 84.527344 201.40625 85.011719 201.605469 C 85.492188 201.804688 85.984375 201.980469 86.484375 202.132812 C 86.984375 202.285156 87.492188 202.410156 88.003906 202.511719 C 88.515625 202.613281 89.03125 202.691406 89.554688 202.742188 C 90.074219 202.792969 90.59375 202.820312 91.117188 202.820312 L 149.96875 202.820312 C 150.597656 202.820312 151.21875 202.878906 151.835938 203.003906 C 152.453125 203.125 153.050781 203.308594 153.632812 203.546875 C 154.210938 203.789062 154.765625 204.082031 155.289062 204.433594 C 155.808594 204.78125 156.292969 205.179688 156.738281 205.625 C 157.183594 206.066406 157.578125 206.550781 157.929688 207.074219 C 158.277344 207.597656 158.574219 208.148438 158.8125 208.730469 C 159.054688 209.308594 159.234375 209.910156 159.359375 210.527344 C 159.480469 211.140625 159.542969 211.765625 159.542969 212.394531 C 159.542969 213.023438 159.480469 213.644531 159.359375 214.261719 C 159.234375 214.878906 159.054688 215.476562 158.8125 216.058594 C 158.574219 216.636719 158.277344 217.191406 157.929688 217.710938 C 157.578125 218.234375 157.183594 218.71875 156.738281 219.164062 C 156.292969 219.609375 155.808594 220.003906 155.289062 220.355469 C 154.765625 220.703125 154.210938 221 153.632812 221.238281 C 153.050781 221.480469 152.453125 221.660156 151.835938 221.785156 C 151.21875 221.90625 150.597656 221.96875 149.96875 221.96875 Z M 149.96875 221.96875 " fill-opacity="1" fill-rule="nonzero"/></g></svg>