<svg xmlns="http://www.w3.org/2000/svg" xmlns:xlink="http://www.w3.org/1999/xlink" width="500" zoomAndPan="magnify" viewBox="0 0 375 374.999991" height="500" preserveAspectRatio="xMidYMid meet" version="1.0"><defs><clipPath id="ce45426b9d"><path d="M 111 52.765625 L 170 52.765625 L 170 112 L 111 112 Z M 111 52.765625 " clip-rule="nonzero"/></clipPath><clipPath id="55fbeef994"><path d="M 203 52.765625 L 263 52.765625 L 263 112 L 203 112 Z M 203 52.765625 " clip-rule="nonzero"/></clipPath><clipPath id="d555cace67"><path d="M 134 234 L 241 234 L 241 322.015625 L 134 322.015625 Z M 134 234 " clip-rule="nonzero"/></clipPath><clipPath id="5e9f457eb6"><path d="M 41.050781 199 L 145 199 L 145 288 L 41.050781 288 Z M 41.050781 199 " clip-rule="nonzero"/></clipPath></defs><g clip-path="url(#ce45426b9d)"><path fill="#ffffff" d="M 169.925781 82.054688 C 169.925781 83.015625 169.878906 83.972656 169.785156 84.925781 C 169.691406 85.882812 169.550781 86.828125 169.363281 87.769531 C 169.175781 88.710938 168.945312 89.640625 168.664062 90.558594 C 168.386719 91.476562 168.0625 92.378906 167.695312 93.265625 C 167.328125 94.152344 166.921875 95.015625 166.46875 95.863281 C 166.015625 96.707031 165.523438 97.53125 164.988281 98.328125 C 164.457031 99.125 163.886719 99.894531 163.277344 100.636719 C 162.667969 101.378906 162.027344 102.089844 161.347656 102.765625 C 160.667969 103.445312 159.960938 104.089844 159.21875 104.695312 C 158.476562 105.304688 157.707031 105.875 156.910156 106.410156 C 156.113281 106.941406 155.289062 107.433594 154.445312 107.886719 C 153.597656 108.339844 152.730469 108.75 151.84375 109.117188 C 150.960938 109.484375 150.058594 109.804688 149.140625 110.082031 C 148.222656 110.363281 147.292969 110.59375 146.351562 110.78125 C 145.410156 110.96875 144.460938 111.109375 143.507812 111.203125 C 142.554688 111.296875 141.597656 111.34375 140.636719 111.34375 C 139.679688 111.34375 138.722656 111.296875 137.765625 111.203125 C 136.8125 111.109375 135.863281 110.96875 134.921875 110.78125 C 133.980469 110.59375 133.054688 110.363281 132.136719 110.082031 C 131.21875 109.804688 130.316406 109.484375 129.429688 109.117188 C 128.542969 108.75 127.675781 108.339844 126.832031 107.886719 C 125.984375 107.433594 125.164062 106.941406 124.363281 106.410156 C 123.566406 105.875 122.796875 105.304688 122.054688 104.695312 C 121.316406 104.089844 120.605469 103.445312 119.925781 102.765625 C 119.25 102.089844 118.605469 101.378906 117.996094 100.636719 C 117.386719 99.894531 116.816406 99.125 116.285156 98.328125 C 115.75 97.53125 115.257812 96.707031 114.804688 95.863281 C 114.355469 95.015625 113.945312 94.152344 113.578125 93.265625 C 113.210938 92.378906 112.886719 91.476562 112.609375 90.558594 C 112.332031 89.640625 112.097656 88.710938 111.910156 87.769531 C 111.722656 86.828125 111.582031 85.882812 111.488281 84.925781 C 111.394531 83.972656 111.347656 83.015625 111.347656 82.054688 C 111.347656 81.097656 111.394531 80.140625 111.488281 79.183594 C 111.582031 78.230469 111.722656 77.28125 111.910156 76.339844 C 112.097656 75.402344 112.332031 74.472656 112.609375 73.554688 C 112.886719 72.636719 113.210938 71.734375 113.578125 70.847656 C 113.945312 69.960938 114.355469 69.09375 114.804688 68.25 C 115.257812 67.402344 115.75 66.582031 116.285156 65.785156 C 116.816406 64.984375 117.386719 64.214844 117.996094 63.476562 C 118.605469 62.734375 119.25 62.023438 119.925781 61.34375 C 120.605469 60.667969 121.316406 60.023438 122.054688 59.414062 C 122.796875 58.804688 123.566406 58.234375 124.363281 57.703125 C 125.164062 57.167969 125.984375 56.675781 126.832031 56.226562 C 127.675781 55.773438 128.542969 55.363281 129.429688 54.996094 C 130.316406 54.628906 131.21875 54.304688 132.136719 54.027344 C 133.054688 53.75 133.980469 53.515625 134.921875 53.328125 C 135.863281 53.140625 136.8125 53 137.765625 52.90625 C 138.722656 52.8125 139.679688 52.765625 140.636719 52.765625 C 141.597656 52.765625 142.554688 52.8125 143.507812 52.90625 C 144.460938 53 145.410156 53.140625 146.351562 53.328125 C 147.292969 53.515625 148.222656 53.75 149.140625 54.027344 C 150.058594 54.304688 150.960938 54.628906 151.84375 54.996094 C 152.730469 55.363281 153.597656 55.773438 154.445312 56.226562 C 155.289062 56.675781 156.113281 57.167969 156.910156 57.703125 C 157.707031 58.234375 158.476562 58.804688 159.21875 59.414062 C 159.960938 60.023438 160.667969 60.667969 161.347656 61.34375 C 162.027344 62.023438 162.667969 62.734375 163.277344 63.476562 C 163.886719 64.214844 164.457031 64.984375 164.988281 65.785156 C 165.523438 66.582031 166.015625 67.402344 166.46875 68.25 C 166.921875 69.09375 167.328125 69.960938 167.695312 70.847656 C 168.0625 71.734375 168.386719 72.636719 168.664062 73.554688 C 168.945312 74.472656 169.175781 75.402344 169.363281 76.339844 C 169.550781 77.28125 169.691406 78.230469 169.785156 79.183594 C 169.878906 80.140625 169.925781 81.097656 169.925781 82.054688 Z M 169.925781 82.054688 " fill-opacity="1" fill-rule="nonzero"/></g><g clip-path="url(#55fbeef994)"><path fill="#ffffff" d="M 262.480469 82.054688 C 262.480469 83.015625 262.433594 83.972656 262.339844 84.925781 C 262.246094 85.882812 262.105469 86.828125 261.917969 87.769531 C 261.730469 88.710938 261.496094 89.640625 261.21875 90.558594 C 260.941406 91.476562 260.617188 92.378906 260.25 93.265625 C 259.882812 94.152344 259.472656 95.015625 259.023438 95.863281 C 258.570312 96.707031 258.078125 97.53125 257.542969 98.328125 C 257.011719 99.125 256.441406 99.894531 255.832031 100.636719 C 255.222656 101.378906 254.578125 102.089844 253.902344 102.765625 C 253.222656 103.445312 252.511719 104.089844 251.773438 104.695312 C 251.03125 105.304688 250.261719 105.875 249.464844 106.410156 C 248.664062 106.941406 247.84375 107.433594 246.996094 107.886719 C 246.152344 108.339844 245.285156 108.75 244.398438 109.117188 C 243.511719 109.484375 242.609375 109.804688 241.691406 110.082031 C 240.773438 110.363281 239.847656 110.59375 238.90625 110.78125 C 237.964844 110.96875 237.015625 111.109375 236.0625 111.203125 C 235.105469 111.296875 234.148438 111.34375 233.191406 111.34375 C 232.230469 111.34375 231.273438 111.296875 230.320312 111.203125 C 229.367188 111.109375 228.417969 110.96875 227.476562 110.78125 C 226.535156 110.59375 225.605469 110.363281 224.6875 110.082031 C 223.769531 109.804688 222.867188 109.484375 221.984375 109.117188 C 221.097656 108.75 220.230469 108.339844 219.382812 107.886719 C 218.539062 107.433594 217.714844 106.941406 216.917969 106.410156 C 216.121094 105.875 215.351562 105.304688 214.609375 104.695312 C 213.867188 104.089844 213.160156 103.445312 212.480469 102.765625 C 211.800781 102.089844 211.160156 101.378906 210.550781 100.636719 C 209.941406 99.894531 209.371094 99.125 208.835938 98.328125 C 208.304688 97.53125 207.8125 96.707031 207.359375 95.863281 C 206.90625 95.015625 206.5 94.152344 206.132812 93.265625 C 205.765625 92.378906 205.441406 91.476562 205.164062 90.558594 C 204.882812 89.640625 204.652344 88.710938 204.464844 87.769531 C 204.277344 86.828125 204.136719 85.882812 204.042969 84.925781 C 203.949219 83.972656 203.902344 83.015625 203.902344 82.054688 C 203.902344 81.097656 203.949219 80.140625 204.042969 79.183594 C 204.136719 78.230469 204.277344 77.28125 204.464844 76.339844 C 204.652344 75.402344 204.882812 74.472656 205.164062 73.554688 C 205.441406 72.636719 205.765625 71.734375 206.132812 70.847656 C 206.5 69.960938 206.90625 69.09375 207.359375 68.25 C 207.8125 67.402344 208.304688 66.582031 208.835938 65.785156 C 209.371094 64.984375 209.941406 64.214844 210.550781 63.476562 C 211.160156 62.734375 211.800781 62.023438 212.480469 61.34375 C 213.160156 60.667969 213.867188 60.023438 214.609375 59.414062 C 215.351562 58.804688 216.121094 58.234375 216.917969 57.703125 C 217.714844 57.167969 218.539062 56.675781 219.382812 56.226562 C 220.230469 55.773438 221.097656 55.363281 221.984375 54.996094 C 222.867188 54.628906 223.769531 54.304688 224.6875 54.027344 C 225.605469 53.75 226.535156 53.515625 227.476562 53.328125 C 228.417969 53.140625 229.367188 53 230.320312 52.90625 C 231.273438 52.8125 232.230469 52.765625 233.191406 52.765625 C 234.148438 52.765625 235.105469 52.8125 236.0625 52.90625 C 237.015625 53 237.964844 53.140625 238.90625 53.328125 C 239.847656 53.515625 240.773438 53.75 241.691406 54.027344 C 242.609375 54.304688 243.511719 54.628906 244.398438 54.996094 C 245.285156 55.363281 246.152344 55.773438 246.996094 56.226562 C 247.84375 56.675781 248.664062 57.167969 249.464844 57.703125 C 250.261719 58.234375 251.03125 58.804688 251.773438 59.414062 C 252.511719 60.023438 253.222656 60.667969 253.902344 61.34375 C 254.578125 62.023438 255.222656 62.734375 255.832031 63.476562 C 256.441406 64.214844 257.011719 64.984375 257.542969 65.785156 C 258.078125 66.582031 258.570312 67.402344 259.023438 68.25 C 259.472656 69.09375 259.882812 69.960938 260.25 70.847656 C 260.617188 71.734375 260.941406 72.636719 261.21875 73.554688 C 261.496094 74.472656 261.730469 75.402344 261.917969 76.339844 C 262.105469 77.28125 262.246094 78.230469 262.339844 79.183594 C 262.433594 80.140625 262.480469 81.097656 262.480469 82.054688 Z M 262.480469 82.054688 " fill-opacity="1" fill-rule="nonzero"/></g><path fill="#ffffff" d="M 222.804688 193.511719 C 222.804688 194.664062 222.75 195.8125 222.636719 196.957031 C 222.523438 198.105469 222.355469 199.242188 222.128906 200.371094 C 221.90625 201.5 221.625 202.613281 221.292969 203.714844 C 220.957031 204.816406 220.570312 205.898438 220.128906 206.964844 C 219.6875 208.027344 219.199219 209.066406 218.65625 210.082031 C 218.113281 211.097656 217.519531 212.082031 216.882812 213.039062 C 216.242188 213.996094 215.558594 214.921875 214.828125 215.808594 C 214.097656 216.699219 213.324219 217.550781 212.511719 218.367188 C 211.695312 219.179688 210.84375 219.953125 209.953125 220.683594 C 209.066406 221.414062 208.140625 222.097656 207.183594 222.738281 C 206.226562 223.375 205.242188 223.96875 204.226562 224.511719 C 203.210938 225.050781 202.171875 225.542969 201.109375 225.984375 C 200.042969 226.425781 198.960938 226.8125 197.859375 227.148438 C 196.757812 227.480469 195.644531 227.761719 194.515625 227.984375 C 193.386719 228.210938 192.25 228.378906 191.101562 228.492188 C 189.957031 228.605469 188.808594 228.660156 187.65625 228.660156 C 186.507812 228.660156 185.359375 228.605469 184.214844 228.492188 C 183.066406 228.378906 181.929688 228.210938 180.800781 227.984375 C 179.671875 227.761719 178.558594 227.480469 177.457031 227.148438 C 176.355469 226.8125 175.269531 226.425781 174.207031 225.984375 C 173.144531 225.542969 172.105469 225.050781 171.089844 224.511719 C 170.074219 223.96875 169.089844 223.375 168.132812 222.738281 C 167.175781 222.097656 166.25 221.414062 165.359375 220.683594 C 164.472656 219.953125 163.621094 219.179688 162.804688 218.367188 C 161.992188 217.550781 161.21875 216.699219 160.488281 215.808594 C 159.757812 214.921875 159.074219 213.996094 158.433594 213.039062 C 157.792969 212.082031 157.203125 211.097656 156.660156 210.082031 C 156.117188 209.066406 155.625 208.027344 155.1875 206.964844 C 154.746094 205.898438 154.359375 204.816406 154.023438 203.714844 C 153.691406 202.613281 153.410156 201.5 153.1875 200.371094 C 152.960938 199.242188 152.792969 198.105469 152.679688 196.957031 C 152.566406 195.8125 152.511719 194.664062 152.511719 193.511719 C 152.511719 192.363281 152.566406 191.214844 152.679688 190.066406 C 152.792969 188.921875 152.960938 187.785156 153.1875 186.65625 C 153.410156 185.527344 153.691406 184.410156 154.023438 183.308594 C 154.359375 182.207031 154.746094 181.125 155.1875 180.0625 C 155.625 179 156.117188 177.960938 156.660156 176.945312 C 157.203125 175.929688 157.792969 174.945312 158.433594 173.988281 C 159.074219 173.027344 159.757812 172.105469 160.488281 171.214844 C 161.21875 170.324219 161.992188 169.472656 162.804688 168.660156 C 163.621094 167.847656 164.472656 167.074219 165.359375 166.34375 C 166.25 165.613281 167.175781 164.929688 168.132812 164.289062 C 169.089844 163.648438 170.074219 163.058594 171.089844 162.515625 C 172.105469 161.972656 173.144531 161.480469 174.207031 161.042969 C 175.269531 160.601562 176.355469 160.214844 177.457031 159.878906 C 178.558594 159.546875 179.671875 159.265625 180.800781 159.042969 C 181.929688 158.816406 183.066406 158.648438 184.214844 158.535156 C 185.359375 158.421875 186.507812 158.367188 187.65625 158.367188 C 188.808594 158.367188 189.957031 158.421875 191.101562 158.535156 C 192.25 158.648438 193.386719 158.816406 194.515625 159.042969 C 195.644531 159.265625 196.757812 159.546875 197.859375 159.878906 C 198.960938 160.214844 200.042969 160.601562 201.109375 161.042969 C 202.171875 161.480469 203.210938 161.972656 204.226562 162.515625 C 205.242188 163.058594 206.226562 163.648438 207.183594 164.289062 C 208.140625 164.929688 209.066406 165.613281 209.953125 166.34375 C 210.84375 167.074219 211.695312 167.847656 212.511719 168.660156 C 213.324219 169.472656 214.097656 170.324219 214.828125 171.214844 C 215.558594 172.105469 216.242188 173.027344 216.882812 173.988281 C 217.519531 174.945312 218.113281 175.929688 218.65625 176.945312 C 219.199219 177.960938 219.6875 179 220.128906 180.0625 C 220.570312 181.125 220.957031 182.207031 221.292969 183.308594 C 221.625 184.410156 221.90625 185.527344 222.128906 186.65625 C 222.355469 187.785156 222.523438 188.921875 222.636719 190.066406 C 222.75 191.214844 222.804688 192.363281 222.804688 193.511719 Z M 222.804688 193.511719 " fill-opacity="1" fill-rule="nonzero"/><g clip-path="url(#d555cace67)"><path fill="#ffffff" d="M 187.65625 322.386719 C 151.597656 322.386719 138.640625 313.445312 137.28125 312.425781 C 135.804688 311.324219 134.9375 309.585938 134.9375 307.742188 L 134.9375 287.238281 C 134.9375 258.167969 158.589844 234.519531 187.65625 234.519531 C 216.730469 234.519531 240.378906 258.167969 240.378906 287.238281 L 240.378906 307.742188 C 240.378906 309.582031 239.511719 311.320312 238.035156 312.425781 C 236.683594 313.445312 223.71875 322.386719 187.65625 322.386719 Z M 187.65625 322.386719 " fill-opacity="1" fill-rule="nonzero"/></g><g clip-path="url(#5e9f457eb6)"><path fill="#ffffff" d="M 144.871094 239.191406 C 139.15625 216.269531 118.441406 199.210938 93.773438 199.210938 C 64.707031 199.210938 41.054688 222.859375 41.054688 251.933594 L 41.054688 272.4375 C 41.054688 274.273438 41.921875 276.015625 43.398438 277.121094 C 44.753906 278.140625 57.714844 287.082031 93.773438 287.082031 C 106.269531 287.082031 115.933594 285.996094 123.363281 284.550781 C 124.105469 266.535156 132.253906 250.441406 144.871094 239.191406 Z M 144.871094 239.191406 " fill-opacity="1" fill-rule="nonzero"/></g><path fill="#ffffff" d="M 281.226562 199.210938 C 256.640625 199.210938 235.992188 216.152344 230.1875 238.957031 C 242.96875 250.230469 251.226562 266.449219 251.964844 284.613281 C 259.351562 286.027344 268.914062 287.082031 281.226562 287.082031 C 317.28125 287.082031 330.242188 278.140625 331.601562 277.121094 C 333.078125 276.019531 333.945312 274.28125 333.945312 272.4375 L 333.945312 251.933594 C 333.945312 222.859375 310.296875 199.210938 281.226562 199.210938 Z M 281.226562 199.210938 " fill-opacity="1" fill-rule="nonzero"/><path fill="#ffffff" d="M 316.53125 158.367188 C 316.53125 159.515625 316.472656 160.664062 316.363281 161.8125 C 316.25 162.957031 316.078125 164.09375 315.855469 165.222656 C 315.628906 166.351562 315.351562 167.46875 315.015625 168.570312 C 314.683594 169.671875 314.296875 170.753906 313.855469 171.816406 C 313.414062 172.878906 312.921875 173.917969 312.378906 174.933594 C 311.835938 175.949219 311.246094 176.933594 310.605469 177.894531 C 309.96875 178.851562 309.28125 179.773438 308.550781 180.664062 C 307.824219 181.554688 307.050781 182.40625 306.234375 183.21875 C 305.421875 184.03125 304.570312 184.804688 303.679688 185.535156 C 302.789062 186.265625 301.867188 186.949219 300.910156 187.589844 C 299.953125 188.230469 298.96875 188.820312 297.953125 189.363281 C 296.9375 189.90625 295.898438 190.398438 294.832031 190.835938 C 293.769531 191.277344 292.6875 191.664062 291.585938 192 C 290.484375 192.332031 289.371094 192.613281 288.242188 192.835938 C 287.113281 193.0625 285.972656 193.230469 284.828125 193.34375 C 283.683594 193.457031 282.535156 193.511719 281.382812 193.511719 C 280.230469 193.511719 279.085938 193.457031 277.9375 193.34375 C 276.792969 193.230469 275.65625 193.0625 274.527344 192.835938 C 273.398438 192.613281 272.28125 192.332031 271.179688 192 C 270.078125 191.664062 268.996094 191.277344 267.933594 190.835938 C 266.871094 190.398438 265.832031 189.90625 264.816406 189.363281 C 263.800781 188.820312 262.8125 188.230469 261.855469 187.589844 C 260.898438 186.949219 259.976562 186.265625 259.085938 185.535156 C 258.195312 184.804688 257.34375 184.03125 256.53125 183.21875 C 255.71875 182.40625 254.945312 181.554688 254.214844 180.664062 C 253.484375 179.773438 252.800781 178.851562 252.160156 177.894531 C 251.519531 176.933594 250.929688 175.949219 250.386719 174.933594 C 249.84375 173.917969 249.351562 172.878906 248.910156 171.816406 C 248.472656 170.753906 248.082031 169.671875 247.75 168.570312 C 247.414062 167.46875 247.136719 166.351562 246.910156 165.222656 C 246.6875 164.09375 246.519531 162.957031 246.40625 161.8125 C 246.292969 160.664062 246.238281 159.515625 246.238281 158.367188 C 246.238281 157.214844 246.292969 156.066406 246.40625 154.921875 C 246.519531 153.773438 246.6875 152.636719 246.910156 151.507812 C 247.136719 150.378906 247.414062 149.265625 247.75 148.164062 C 248.085938 147.0625 248.472656 145.980469 248.910156 144.914062 C 249.351562 143.851562 249.84375 142.8125 250.386719 141.796875 C 250.929688 140.78125 251.519531 139.796875 252.160156 138.839844 C 252.800781 137.882812 253.484375 136.957031 254.214844 136.070312 C 254.945312 135.179688 255.71875 134.328125 256.53125 133.511719 C 257.34375 132.699219 258.195312 131.925781 259.085938 131.195312 C 259.976562 130.464844 260.898438 129.78125 261.855469 129.140625 C 262.8125 128.503906 263.800781 127.910156 264.816406 127.367188 C 265.832031 126.828125 266.871094 126.335938 267.933594 125.894531 C 268.996094 125.453125 270.078125 125.066406 271.179688 124.730469 C 272.28125 124.398438 273.398438 124.117188 274.527344 123.894531 C 275.65625 123.667969 276.792969 123.5 277.9375 123.386719 C 279.085938 123.273438 280.230469 123.21875 281.382812 123.21875 C 282.535156 123.21875 283.683594 123.273438 284.828125 123.386719 C 285.972656 123.5 287.113281 123.667969 288.242188 123.894531 C 289.371094 124.117188 290.484375 124.398438 291.585938 124.730469 C 292.6875 125.066406 293.769531 125.453125 294.832031 125.894531 C 295.898438 126.335938 296.9375 126.828125 297.953125 127.367188 C 298.96875 127.910156 299.953125 128.503906 300.910156 129.140625 C 301.867188 129.78125 302.789062 130.464844 303.679688 131.195312 C 304.570312 131.925781 305.421875 132.699219 306.234375 133.511719 C 307.050781 134.328125 307.824219 135.179688 308.550781 136.070312 C 309.28125 136.957031 309.96875 137.882812 310.605469 138.839844 C 311.246094 139.796875 311.835938 140.78125 312.378906 141.796875 C 312.921875 142.8125 313.414062 143.851562 313.855469 144.914062 C 314.296875 145.980469 314.683594 147.0625 315.015625 148.164062 C 315.351562 149.265625 315.628906 150.378906 315.855469 151.507812 C 316.078125 152.636719 316.25 153.773438 316.363281 154.921875 C 316.472656 156.066406 316.53125 157.214844 316.53125 158.367188 Z M 316.53125 158.367188 " fill-opacity="1" fill-rule="nonzero"/><path fill="#ffffff" d="M 129.078125 158.367188 C 129.078125 159.515625 129.023438 160.664062 128.910156 161.8125 C 128.796875 162.957031 128.628906 164.09375 128.402344 165.222656 C 128.179688 166.351562 127.898438 167.46875 127.566406 168.570312 C 127.230469 169.671875 126.84375 170.753906 126.402344 171.816406 C 125.964844 172.878906 125.472656 173.917969 124.929688 174.933594 C 124.386719 175.949219 123.796875 176.933594 123.15625 177.894531 C 122.515625 178.851562 121.832031 179.773438 121.101562 180.664062 C 120.371094 181.554688 119.597656 182.40625 118.785156 183.21875 C 117.972656 184.03125 117.121094 184.804688 116.230469 185.535156 C 115.339844 186.265625 114.417969 186.949219 113.460938 187.589844 C 112.503906 188.230469 111.515625 188.820312 110.5 189.363281 C 109.484375 189.90625 108.445312 190.398438 107.382812 190.835938 C 106.320312 191.277344 105.238281 191.664062 104.136719 192 C 103.035156 192.332031 101.917969 192.613281 100.789062 192.835938 C 99.660156 193.0625 98.523438 193.230469 97.378906 193.34375 C 96.230469 193.457031 95.082031 193.511719 93.933594 193.511719 C 92.78125 193.511719 91.632812 193.457031 90.488281 193.34375 C 89.34375 193.230469 88.203125 193.0625 87.074219 192.835938 C 85.945312 192.613281 84.832031 192.332031 83.730469 192 C 82.628906 191.664062 81.546875 191.277344 80.480469 190.835938 C 79.417969 190.398438 78.378906 189.90625 77.363281 189.363281 C 76.347656 188.820312 75.363281 188.230469 74.40625 187.589844 C 73.449219 186.949219 72.523438 186.265625 71.636719 185.535156 C 70.746094 184.804688 69.894531 184.03125 69.078125 183.21875 C 68.265625 182.40625 67.492188 181.554688 66.761719 180.664062 C 66.03125 179.773438 65.347656 178.851562 64.707031 177.894531 C 64.070312 176.933594 63.476562 175.949219 62.933594 174.933594 C 62.394531 173.917969 61.902344 172.878906 61.460938 171.816406 C 61.019531 170.753906 60.632812 169.671875 60.296875 168.570312 C 59.964844 167.46875 59.683594 166.351562 59.460938 165.222656 C 59.234375 164.09375 59.066406 162.957031 58.953125 161.8125 C 58.839844 160.664062 58.785156 159.515625 58.785156 158.367188 C 58.785156 157.214844 58.839844 156.066406 58.953125 154.921875 C 59.066406 153.773438 59.234375 152.636719 59.460938 151.507812 C 59.683594 150.378906 59.964844 149.265625 60.296875 148.164062 C 60.632812 147.0625 61.019531 145.980469 61.460938 144.914062 C 61.902344 143.851562 62.394531 142.8125 62.933594 141.796875 C 63.476562 140.78125 64.070312 139.796875 64.707031 138.839844 C 65.347656 137.882812 66.03125 136.957031 66.761719 136.070312 C 67.492188 135.179688 68.265625 134.328125 69.078125 133.511719 C 69.894531 132.699219 70.746094 131.925781 71.636719 131.195312 C 72.523438 130.464844 73.449219 129.78125 74.40625 129.140625 C 75.363281 128.503906 76.347656 127.910156 77.363281 127.367188 C 78.378906 126.828125 79.417969 126.335938 80.480469 125.894531 C 81.546875 125.453125 82.628906 125.066406 83.730469 124.730469 C 84.832031 124.398438 85.945312 124.117188 87.074219 123.894531 C 88.203125 123.667969 89.34375 123.5 90.488281 123.386719 C 91.632812 123.273438 92.78125 123.21875 93.933594 123.21875 C 95.082031 123.21875 96.230469 123.273438 97.378906 123.386719 C 98.523438 123.5 99.660156 123.667969 100.789062 123.894531 C 101.917969 124.117188 103.035156 124.398438 104.136719 124.730469 C 105.238281 125.066406 106.320312 125.453125 107.382812 125.894531 C 108.445312 126.335938 109.484375 126.828125 110.5 127.367188 C 111.515625 127.910156 112.503906 128.503906 113.460938 129.140625 C 114.417969 129.78125 115.339844 130.464844 116.230469 131.195312 C 117.121094 131.925781 117.972656 132.699219 118.785156 133.511719 C 119.597656 134.328125 120.371094 135.179688 121.101562 136.070312 C 121.832031 136.957031 122.515625 137.882812 123.15625 138.839844 C 123.796875 139.796875 124.386719 140.78125 124.929688 141.796875 C 125.472656 142.8125 125.964844 143.851562 126.402344 144.914062 C 126.84375 145.980469 127.230469 147.0625 127.566406 148.164062 C 127.898438 149.265625 128.179688 150.378906 128.402344 151.507812 C 128.628906 152.636719 128.796875 153.773438 128.910156 154.921875 C 129.023438 156.066406 129.078125 157.214844 129.078125 158.367188 Z M 129.078125 158.367188 " fill-opacity="1" fill-rule="nonzero"/><path fill="#ffffff" d="M 234.519531 193.511719 C 234.519531 200.078125 233.15625 206.328125 230.707031 212 C 236.417969 204.765625 243.628906 198.871094 251.796875 194.660156 C 241.261719 186.0625 234.527344 172.988281 234.527344 158.367188 C 234.527344 143.65625 241.351562 130.53125 251.984375 121.929688 C 246.382812 118.941406 240.0625 117.203125 233.191406 117.203125 C 214.21875 117.203125 198.546875 129.761719 193.769531 147.09375 C 216.71875 150.105469 234.519531 169.746094 234.519531 193.511719 Z M 234.519531 193.511719 " fill-opacity="1" fill-rule="nonzero"/><path fill="#ffffff" d="M 140.796875 158.367188 C 140.796875 173.039062 134 186.15625 123.402344 194.753906 C 131.933594 199.183594 139.382812 205.46875 145.183594 213.183594 C 142.394531 207.195312 140.796875 200.542969 140.796875 193.511719 C 140.796875 170.238281 157.863281 150.933594 180.125 147.3125 C 175.421875 129.867188 159.691406 117.203125 140.636719 117.203125 C 134.125 117.203125 128.082031 118.75 122.699219 121.457031 C 133.691406 130.039062 140.796875 143.375 140.796875 158.367188 Z M 140.796875 158.367188 " fill-opacity="1" fill-rule="nonzero"/></svg>