<?xml version="1.0" ?><svg viewBox="0 0 64 64" xmlns="http://www.w3.org/2000/svg"><g data-name="Magic Wand" id="Magic_Wand"><path d="M10.89,57a3.89,3.89,0,0,0,2.76-1.14l26.7-26.7.26.78a3,3,0,0,0,1.07,1.45,3,3,0,0,0,4.13-.66l3-4.13,5.28-.05A2.86,2.86,0,0,0,55.82,26a2.93,2.93,0,0,0,.6-4.1l-3.09-4.15,1.66-5h0a3,3,0,0,0,0-1.83,2.9,2.9,0,0,0-1.46-1.69A3,3,0,0,0,51.31,9l-5,1.66L42.13,7.58A3,3,0,0,0,40.4,7h0a2.92,2.92,0,0,0-2.93,2.91l0,5.28-4.14,3a3,3,0,0,0,.79,5.2l.78.26L8.14,50.35A3.9,3.9,0,0,0,10.89,57ZM32.13,32.5a1,1,0,0,0-.63-.63L30,31.36,32.3,29l2,.67.67,2L32.64,34Zm2-11.49a1,1,0,0,1,0-.73.9.9,0,0,1,.34-.47L39,16.52a1,1,0,0,0,.41-.81l.05-5.79a.9.9,0,0,1,.28-.65A.91.91,0,0,1,40.38,9a.84.84,0,0,1,.55.19l4.58,3.39a1,1,0,0,0,.91.15l5.52-1.82a.91.91,0,0,1,1.15.58,1,1,0,0,1,0,.58l-1.82,5.51a1,1,0,0,0,.15.91l3.39,4.58a.94.94,0,0,1,.18.69,1,1,0,0,1-.37.61.9.9,0,0,1-.54.18l-5.79.05a1,1,0,0,0-.81.41l-3.29,4.55a1,1,0,0,1-1.33.21.9.9,0,0,1-.35-.47L40.7,23.93a1,1,0,0,0-.63-.63L34.7,21.49A.93.93,0,0,1,34.15,21ZM39,25l.68,2-3.09,3.09L36,28.59a1,1,0,0,0-.63-.62l-1.54-.52L37,24.36ZM9.56,51.77,28.39,32.94l2,.67.67,2L12.23,54.45a1.89,1.89,0,1,1-2.67-2.68Z"/><path d="M26,16.79c-.45-.79-1.38-.74-2.79-.66a9.44,9.44,0,0,1-5.68-1.52c-1.18-.77-2-1.28-2.75-.83s-.74,1.39-.66,2.79a9.39,9.39,0,0,1-1.52,5.69c-.77,1.18-1.28,1.95-.82,2.74s1.37.74,2.79.66a9.45,9.45,0,0,1,5.68,1.53c.93.6,1.88,1.32,2.75.82s.74-1.39.65-2.79a9.43,9.43,0,0,1,1.53-5.68C25.92,18.36,26.43,17.58,26,16.79Zm-2.49,1.65a11.43,11.43,0,0,0-1.85,6.9c0,.11,0,.24,0,.39l-.33-.22a11.5,11.5,0,0,0-6.26-1.86c-.21,0-.43,0-.64,0l-.39,0,.21-.33a11.47,11.47,0,0,0,1.85-6.9c0-.11,0-.25,0-.39l.33.21a11.47,11.47,0,0,0,6.9,1.85l.39,0Z"/><path d="M55.06,36.42c-.6-.6-1.36-.35-2.41,0a6.84,6.84,0,0,1-4.29,0c-1.06-.35-1.82-.6-2.42,0s-.34,1.35,0,2.41a6.84,6.84,0,0,1,0,4.29c-.35,1.05-.6,1.81,0,2.41a1.18,1.18,0,0,0,.89.36,5.32,5.32,0,0,0,1.53-.37,7,7,0,0,1,4.29,0c1.05.35,1.81.6,2.41,0s.34-1.36,0-2.41a6.84,6.84,0,0,1,0-4.29C55.4,37.77,55.65,37,55.06,36.42Zm-2,7.15a8.83,8.83,0,0,0-5.19,0,9,9,0,0,0,0-5.19,9,9,0,0,0,5.19,0A8.83,8.83,0,0,0,53.1,43.57Z"/><path d="M36.6,44.21a6.93,6.93,0,0,1-3.7-2.14c-.74-.83-1.27-1.43-2.08-1.21s-1,1-1.2,2.09a6.93,6.93,0,0,1-2.14,3.7c-.83.74-1.43,1.27-1.21,2.08s1,1,2.09,1.21a6.82,6.82,0,0,1,3.7,2.13c.64.72,1.24,1.44,2.09,1.21s1-1,1.2-2.09a6.85,6.85,0,0,1,2.13-3.7c.83-.74,1.43-1.27,1.21-2.08S37.69,44.43,36.6,44.21ZM33.43,50.6A8.88,8.88,0,0,0,29,48a9,9,0,0,0,2.59-4.48A8.85,8.85,0,0,0,36,46.12,8.92,8.92,0,0,0,33.43,50.6Z"/></g></svg>