<svg xmlns="http://www.w3.org/2000/svg" xmlns:xlink="http://www.w3.org/1999/xlink" width="1024" zoomAndPan="magnify" viewBox="0 0 768 767.999994" height="1024" preserveAspectRatio="xMidYMid meet" version="1.0"><defs><clipPath id="cfee150f71"><path d="M 479 454 L 537.898438 454 L 537.898438 520.855469 L 479 520.855469 Z M 479 454 " clip-rule="nonzero"/></clipPath><clipPath id="0c5e5a7651"><path d="M 418 442 L 473 442 L 473 520.855469 L 418 520.855469 Z M 418 442 " clip-rule="nonzero"/></clipPath><clipPath id="eb151bc5ac"><path d="M 355 395 L 411 395 L 411 520.855469 L 355 520.855469 Z M 355 395 " clip-rule="nonzero"/></clipPath><clipPath id="47224f6c03"><path d="M 293 327 L 347 327 L 347 520.855469 L 293 520.855469 Z M 293 327 " clip-rule="nonzero"/></clipPath><clipPath id="99f6a2ca81"><path d="M 230.398438 247.105469 L 284 247.105469 L 284 520.855469 L 230.398438 520.855469 Z M 230.398438 247.105469 " clip-rule="nonzero"/></clipPath></defs><path fill="#ffffff" d="M 471.511719 313.058594 C 470.316406 307.492188 466.339844 299.53125 459.878906 289.492188 C 456.394531 284.019531 453.113281 279.546875 451.421875 277.363281 L 443.070312 277.363281 C 439.777344 279.882812 436.765625 282.699219 434.027344 285.8125 C 429.148438 291.378906 422.6875 300.332031 420.199219 311.863281 C 419.703125 314.148438 419.40625 316.339844 419.109375 318.324219 C 418.414062 325.214844 419.503906 330.058594 422.492188 333.355469 C 426.46875 337.824219 434.421875 339.917969 446.953125 339.917969 C 457.390625 339.917969 470.316406 337.128906 472.105469 323.636719 L 472.105469 323.503906 C 472.589844 319.984375 472.390625 316.5 471.511719 313.058594 Z M 456.890625 323.503906 C 456.007812 325.03125 454.816406 326.253906 453.3125 327.179688 C 451.578125 328.226562 449.699219 328.824219 447.679688 328.96875 L 447.679688 333.046875 L 444.367188 333.046875 L 444.367188 328.96875 C 441.183594 328.675781 438.597656 327.679688 436.707031 325.988281 C 435.722656 325.167969 434.964844 324.175781 434.441406 323.003906 C 433.917969 321.832031 433.679688 320.609375 433.726562 319.328125 L 439.886719 319.328125 C 439.921875 320.578125 440.355469 321.671875 441.183594 322.609375 C 442.039062 323.5625 443.097656 324.125 444.367188 324.296875 L 444.367188 313.15625 C 442.472656 312.675781 440.617188 312.078125 438.796875 311.367188 C 437.332031 310.789062 436.136719 309.863281 435.214844 308.582031 C 434.121094 307.03125 433.621094 305.308594 433.726562 303.414062 C 433.679688 302.089844 433.917969 300.816406 434.4375 299.597656 C 434.960938 298.378906 435.714844 297.332031 436.707031 296.449219 C 438.585938 294.570312 441.183594 293.570312 444.367188 293.269531 L 444.367188 289.09375 L 447.648438 289.09375 L 447.648438 293.269531 C 448.945312 293.324219 450.199219 293.59375 451.410156 294.070312 C 452.617188 294.546875 453.71875 295.210938 454.703125 296.054688 C 456.582031 297.648438 457.589844 299.8125 457.785156 302.617188 L 451.625 302.617188 C 451.566406 302.085938 451.429688 301.574219 451.210938 301.082031 C 450.996094 300.589844 450.707031 300.144531 450.351562 299.746094 C 449.996094 299.34375 449.585938 299.003906 449.125 298.730469 C 448.664062 298.457031 448.171875 298.261719 447.648438 298.140625 L 447.648438 308.980469 C 449.503906 309.429688 451.328125 309.992188 453.113281 310.671875 C 454.535156 311.320312 455.730469 312.257812 456.703125 313.484375 C 457.691406 314.78125 458.191406 316.472656 458.191406 318.757812 C 458.203125 320.460938 457.769531 322.042969 456.890625 323.503906 Z M 456.890625 323.503906 " fill-opacity="1" fill-rule="nonzero"/><path fill="#ffffff" d="M 458.386719 259.960938 C 456.503906 263.679688 454.25 267.160156 451.625 270.398438 L 442.976562 270.398438 C 436.507812 266.121094 434.121094 258.167969 433.425781 255.371094 C 434.816406 254.574219 439.886719 254.871094 444.265625 256.660156 C 450.332031 259.265625 454.304688 260.554688 458.386719 259.960938 Z M 458.386719 259.960938 " fill-opacity="1" fill-rule="nonzero"/><path fill="#ffffff" d="M 452.320312 319.019531 C 452.335938 320.324219 451.9375 321.484375 451.121094 322.5 C 450.152344 323.464844 448.996094 324.0625 447.648438 324.292969 L 447.648438 314.054688 C 448.941406 314.382812 450.101562 314.976562 451.121094 315.839844 C 451.535156 316.261719 451.847656 316.75 452.058594 317.300781 C 452.265625 317.855469 452.351562 318.429688 452.320312 319.019531 Z M 452.320312 319.019531 " fill-opacity="1" fill-rule="nonzero"/><path fill="#ffffff" d="M 444.367188 297.941406 L 444.367188 308.1875 C 443.035156 307.824219 441.839844 307.195312 440.785156 306.308594 C 440.371094 305.863281 440.058594 305.359375 439.851562 304.789062 C 439.644531 304.21875 439.558594 303.632812 439.59375 303.027344 C 439.5625 302.382812 439.660156 301.757812 439.882812 301.152344 C 440.105469 300.546875 440.441406 300.011719 440.882812 299.542969 C 441.855469 298.59375 443.015625 298.0625 444.367188 297.941406 Z M 444.367188 297.941406 " fill-opacity="1" fill-rule="nonzero"/><g clip-path="url(#cfee150f71)"><path fill="#ffffff" d="M 484.730469 454.191406 L 532.386719 454.191406 C 532.714844 454.191406 533.039062 454.222656 533.359375 454.285156 C 533.679688 454.347656 533.988281 454.445312 534.289062 454.570312 C 534.59375 454.695312 534.878906 454.847656 535.148438 455.027344 C 535.421875 455.210938 535.671875 455.414062 535.902344 455.644531 C 536.132812 455.878906 536.339844 456.128906 536.523438 456.398438 C 536.703125 456.671875 536.855469 456.957031 536.980469 457.257812 C 537.105469 457.5625 537.199219 457.871094 537.265625 458.191406 C 537.328125 458.511719 537.359375 458.835938 537.359375 459.164062 L 537.359375 515.402344 C 537.359375 515.730469 537.328125 516.054688 537.265625 516.375 C 537.199219 516.695312 537.105469 517.003906 536.980469 517.304688 C 536.855469 517.609375 536.703125 517.894531 536.523438 518.164062 C 536.339844 518.4375 536.132812 518.6875 535.902344 518.917969 C 535.671875 519.148438 535.421875 519.355469 535.148438 519.539062 C 534.878906 519.71875 534.59375 519.871094 534.289062 519.996094 C 533.988281 520.121094 533.679688 520.214844 533.359375 520.28125 C 533.039062 520.34375 532.714844 520.375 532.386719 520.375 L 484.730469 520.375 C 484.40625 520.375 484.082031 520.34375 483.761719 520.28125 C 483.441406 520.214844 483.132812 520.121094 482.828125 519.996094 C 482.527344 519.871094 482.242188 519.71875 481.96875 519.539062 C 481.699219 519.355469 481.445312 519.148438 481.214844 518.917969 C 480.984375 518.6875 480.777344 518.4375 480.597656 518.164062 C 480.417969 517.894531 480.261719 517.609375 480.136719 517.304688 C 480.011719 517.003906 479.917969 516.695312 479.855469 516.375 C 479.792969 516.054688 479.761719 515.730469 479.761719 515.402344 L 479.761719 459.164062 C 479.761719 458.835938 479.792969 458.511719 479.855469 458.191406 C 479.917969 457.871094 480.011719 457.5625 480.136719 457.257812 C 480.261719 456.957031 480.417969 456.671875 480.597656 456.398438 C 480.777344 456.128906 480.984375 455.878906 481.214844 455.644531 C 481.445312 455.414062 481.699219 455.210938 481.96875 455.027344 C 482.242188 454.847656 482.527344 454.695312 482.828125 454.570312 C 483.132812 454.445312 483.441406 454.347656 483.761719 454.285156 C 484.082031 454.222656 484.40625 454.191406 484.730469 454.191406 Z M 484.730469 454.191406 " fill-opacity="1" fill-rule="nonzero"/></g><g clip-path="url(#0c5e5a7651)"><path fill="#ffffff" d="M 421.828125 442.5 L 469.484375 442.5 C 469.878906 442.5 470.257812 442.574219 470.625 442.726562 C 470.988281 442.875 471.3125 443.09375 471.589844 443.371094 C 471.871094 443.652344 472.085938 443.972656 472.238281 444.339844 C 472.390625 444.703125 472.464844 445.082031 472.464844 445.480469 L 472.464844 517.910156 C 472.464844 518.304688 472.390625 518.683594 472.238281 519.050781 C 472.085938 519.414062 471.871094 519.738281 471.589844 520.015625 C 471.3125 520.296875 470.988281 520.511719 470.625 520.664062 C 470.257812 520.8125 469.878906 520.890625 469.484375 520.890625 L 421.828125 520.890625 C 421.433594 520.890625 421.050781 520.8125 420.6875 520.664062 C 420.320312 520.511719 420 520.296875 419.71875 520.015625 C 419.441406 519.738281 419.226562 519.414062 419.074219 519.050781 C 418.921875 518.683594 418.847656 518.304688 418.847656 517.910156 L 418.847656 445.480469 C 418.847656 445.082031 418.921875 444.703125 419.074219 444.339844 C 419.226562 443.972656 419.441406 443.652344 419.71875 443.371094 C 420 443.09375 420.320312 442.875 420.6875 442.726562 C 421.050781 442.574219 421.433594 442.5 421.828125 442.5 Z M 421.828125 442.5 " fill-opacity="1" fill-rule="nonzero"/></g><g clip-path="url(#eb151bc5ac)"><path fill="#ffffff" d="M 359.808594 395.367188 L 405.703125 395.367188 C 406.015625 395.367188 406.328125 395.398438 406.636719 395.460938 C 406.945312 395.523438 407.246094 395.613281 407.535156 395.734375 C 407.828125 395.855469 408.101562 396 408.363281 396.175781 C 408.625 396.351562 408.867188 396.550781 409.089844 396.773438 C 409.3125 396.996094 409.511719 397.234375 409.6875 397.496094 C 409.859375 397.757812 410.007812 398.035156 410.128906 398.324219 C 410.25 398.617188 410.339844 398.917969 410.402344 399.226562 C 410.460938 399.535156 410.492188 399.84375 410.492188 400.160156 L 410.492188 515.691406 C 410.492188 516.003906 410.460938 516.316406 410.402344 516.625 C 410.339844 516.933594 410.25 517.230469 410.128906 517.523438 C 410.007812 517.8125 409.863281 518.089844 409.6875 518.347656 C 409.511719 518.609375 409.3125 518.851562 409.09375 519.074219 C 408.871094 519.296875 408.628906 519.496094 408.367188 519.667969 C 408.105469 519.84375 407.828125 519.992188 407.539062 520.113281 C 407.25 520.230469 406.949219 520.324219 406.640625 520.382812 C 406.335938 520.445312 406.023438 520.476562 405.707031 520.476562 L 359.808594 520.476562 C 359.492188 520.476562 359.179688 520.445312 358.875 520.382812 C 358.566406 520.324219 358.265625 520.230469 357.976562 520.113281 C 357.683594 519.992188 357.410156 519.84375 357.148438 519.667969 C 356.886719 519.496094 356.644531 519.296875 356.421875 519.074219 C 356.203125 518.851562 356.003906 518.609375 355.828125 518.347656 C 355.652344 518.089844 355.507812 517.8125 355.386719 517.523438 C 355.265625 517.230469 355.175781 516.933594 355.113281 516.625 C 355.054688 516.316406 355.023438 516.003906 355.023438 515.691406 L 355.023438 400.160156 C 355.023438 399.84375 355.054688 399.535156 355.113281 399.226562 C 355.175781 398.917969 355.265625 398.617188 355.386719 398.328125 C 355.507812 398.039062 355.652344 397.761719 355.828125 397.5 C 356.003906 397.238281 356.199219 396.996094 356.421875 396.773438 C 356.644531 396.550781 356.886719 396.351562 357.148438 396.179688 C 357.410156 396.003906 357.683594 395.855469 357.976562 395.734375 C 358.265625 395.613281 358.566406 395.523438 358.871094 395.460938 C 359.179688 395.398438 359.492188 395.371094 359.808594 395.367188 Z M 359.808594 395.367188 " fill-opacity="1" fill-rule="nonzero"/></g><g clip-path="url(#47224f6c03)"><path fill="#ffffff" d="M 296.027344 327.722656 L 343.679688 327.722656 C 344.078125 327.722656 344.457031 327.800781 344.820312 327.949219 C 345.1875 328.101562 345.507812 328.316406 345.789062 328.597656 C 346.070312 328.875 346.285156 329.199219 346.433594 329.5625 C 346.585938 329.929688 346.664062 330.308594 346.664062 330.703125 L 346.664062 517.910156 C 346.664062 518.304688 346.585938 518.683594 346.433594 519.050781 C 346.285156 519.414062 346.070312 519.738281 345.789062 520.015625 C 345.507812 520.296875 345.1875 520.511719 344.820312 520.664062 C 344.457031 520.8125 344.078125 520.890625 343.679688 520.890625 L 296.027344 520.890625 C 295.628906 520.890625 295.25 520.8125 294.886719 520.664062 C 294.519531 520.511719 294.199219 520.296875 293.917969 520.015625 C 293.636719 519.738281 293.421875 519.414062 293.273438 519.050781 C 293.121094 518.683594 293.042969 518.304688 293.042969 517.910156 L 293.042969 330.703125 C 293.042969 330.308594 293.121094 329.929688 293.273438 329.5625 C 293.421875 329.199219 293.636719 328.875 293.917969 328.597656 C 294.199219 328.316406 294.519531 328.101562 294.886719 327.949219 C 295.25 327.800781 295.628906 327.722656 296.027344 327.722656 Z M 296.027344 327.722656 " fill-opacity="1" fill-rule="nonzero"/></g><g clip-path="url(#99f6a2ca81)"><path fill="#ffffff" d="M 233.121094 247.105469 L 280.789062 247.105469 C 281.121094 247.105469 281.4375 247.167969 281.742188 247.292969 C 282.046875 247.417969 282.316406 247.597656 282.546875 247.832031 C 282.78125 248.066406 282.960938 248.335938 283.085938 248.640625 C 283.210938 248.941406 283.277344 249.261719 283.277344 249.589844 L 283.277344 517.910156 C 283.277344 518.238281 283.210938 518.554688 283.085938 518.859375 C 282.960938 519.164062 282.78125 519.433594 282.546875 519.667969 C 282.316406 519.898438 282.046875 520.078125 281.742188 520.207031 C 281.4375 520.332031 281.121094 520.394531 280.789062 520.394531 L 233.121094 520.394531 C 232.792969 520.394531 232.476562 520.332031 232.171875 520.207031 C 231.867188 520.078125 231.597656 519.898438 231.363281 519.667969 C 231.128906 519.433594 230.949219 519.164062 230.824219 518.859375 C 230.699219 518.554688 230.636719 518.238281 230.636719 517.910156 L 230.636719 249.589844 C 230.636719 249.261719 230.699219 248.941406 230.824219 248.640625 C 230.949219 248.335938 231.128906 248.066406 231.363281 247.832031 C 231.597656 247.597656 231.867188 247.417969 232.171875 247.292969 C 232.476562 247.167969 232.792969 247.105469 233.121094 247.105469 Z M 233.121094 247.105469 " fill-opacity="1" fill-rule="nonzero"/></g><path fill="#ffffff" d="M 508.558594 434.910156 L 506.96875 385.363281 L 490.136719 395.8125 L 467.648438 359.605469 C 467.367188 359.144531 467.015625 358.738281 466.597656 358.394531 C 466.183594 358.046875 465.722656 357.777344 465.21875 357.582031 C 464.710938 357.386719 464.1875 357.277344 463.648438 357.257812 C 463.105469 357.234375 462.578125 357.296875 462.054688 357.449219 L 411.269531 372.042969 L 387.503906 295.949219 C 387.324219 295.386719 387.054688 294.871094 386.691406 294.40625 C 386.332031 293.9375 385.902344 293.546875 385.402344 293.234375 C 384.902344 292.917969 384.363281 292.699219 383.785156 292.574219 C 383.210938 292.453125 382.628906 292.429688 382.042969 292.511719 L 329.753906 300.027344 L 300.320312 252.921875 C 300.148438 252.644531 299.949219 252.386719 299.726562 252.148438 C 299.503906 251.914062 299.257812 251.699219 298.996094 251.507812 C 298.730469 251.320312 298.449219 251.15625 298.148438 251.023438 C 297.851562 250.890625 297.546875 250.785156 297.226562 250.710938 C 296.910156 250.636719 296.585938 250.597656 296.261719 250.585938 C 295.9375 250.574219 295.613281 250.597656 295.289062 250.652344 C 294.96875 250.707031 294.65625 250.789062 294.351562 250.90625 C 294.042969 251.019531 293.753906 251.164062 293.476562 251.335938 C 293.199219 251.511719 292.941406 251.707031 292.707031 251.929688 C 292.46875 252.15625 292.253906 252.398438 292.0625 252.664062 C 291.875 252.929688 291.714844 253.210938 291.578125 253.507812 C 291.445312 253.804688 291.339844 254.113281 291.265625 254.429688 C 291.195312 254.75 291.152344 255.070312 291.140625 255.398438 C 291.132812 255.722656 291.152344 256.046875 291.207031 256.367188 C 291.261719 256.691406 291.34375 257.003906 291.460938 257.308594 C 291.574219 257.613281 291.71875 257.90625 291.894531 258.183594 L 323.023438 308.035156 C 323.277344 308.441406 323.589844 308.804688 323.949219 309.125 C 324.308594 309.441406 324.710938 309.703125 325.144531 309.90625 C 325.582031 310.109375 326.039062 310.246094 326.515625 310.320312 C 326.992188 310.390625 327.46875 310.394531 327.945312 310.328125 L 379.269531 302.964844 L 403.230469 379.644531 C 403.328125 379.949219 403.453125 380.242188 403.609375 380.523438 C 403.761719 380.804688 403.941406 381.070312 404.148438 381.316406 C 404.351562 381.5625 404.578125 381.789062 404.828125 381.992188 C 405.078125 382.195312 405.339844 382.371094 405.625 382.523438 C 405.90625 382.675781 406.203125 382.800781 406.507812 382.894531 C 406.8125 382.992188 407.125 383.058594 407.445312 383.09375 C 407.765625 383.128906 408.082031 383.132812 408.402344 383.105469 C 408.722656 383.082031 409.039062 383.023438 409.347656 382.9375 L 461.179688 368.039062 L 481.6875 401.0625 L 464.84375 411.519531 Z M 508.558594 434.910156 " fill-opacity="1" fill-rule="nonzero"/></svg>