<?xml version="1.0" standalone="no"?>
<!DOCTYPE svg PUBLIC "-//W3C//DTD SVG 20010904//EN"
 "http://www.w3.org/TR/2001/REC-SVG-20010904/DTD/svg10.dtd">
<svg version="1.0" xmlns="http://www.w3.org/2000/svg"
 width="172.000000pt" height="172.000000pt" viewBox="0 0 172.000000 172.000000"
 preserveAspectRatio="xMidYMid meet">
<metadata>
Created by potrace 1.14, written by Peter Selinger 2001-2017
</metadata>
<g transform="translate(0.000000,172.000000) scale(0.100000,-0.100000)"
fill="#000000" stroke="none">
<path d="M963 1543 c-30 -6 -70 -48 -76 -81 -3 -15 -4 -117 -3 -227 2 -171 5
-205 20 -238 29 -59 74 -77 190 -78 81 0 100 14 62 47 -44 39 -46 53 -46 277
0 225 -6 266 -43 286 -25 13 -71 19 -104 14z"/>
<path d="M612 1275 c-37 -31 -45 -75 -21 -115 23 -38 51 -52 90 -45 42 8 46
11 65 47 19 36 12 88 -15 112 -32 29 -86 29 -119 1z"/>
<path d="M748 1118 l-25 -33 -232 -2 c-252 -2 -271 -6 -291 -59 -24 -62 -5
-126 46 -156 27 -16 55 -18 200 -18 93 0 183 2 199 5 17 3 44 7 61 10 63 11
99 75 103 188 4 102 -16 123 -61 65z"/>
<path d="M1173 1131 c-64 -54 -26 -161 57 -161 51 0 81 29 87 82 4 37 1 47
-22 71 -33 32 -88 36 -122 8z"/>
<path d="M1028 830 c-99 -18 -129 -85 -120 -262 2 -35 26 -37 47 -4 9 14 28
29 43 34 15 5 121 9 235 9 137 1 217 5 236 13 77 32 66 187 -14 209 -36 10
-375 11 -427 1z"/>
<path d="M670 797 c-44 -22 -49 -47 -50 -272 0 -116 -3 -222 -5 -236 -3 -13
-19 -37 -36 -53 -30 -28 -31 -30 -13 -43 26 -19 167 -9 208 15 17 10 39 33 50
52 19 31 21 55 23 245 3 231 -4 266 -57 292 -32 16 -88 16 -120 0z"/>
<path d="M1003 564 c-64 -32 -65 -127 -1 -160 51 -26 125 4 129 53 1 7 2 19 3
26 5 30 -17 66 -49 81 -40 19 -42 19 -82 0z"/>
<path d="M464 410 c-32 -13 -54 -50 -54 -88 0 -51 51 -96 100 -88 45 7 80 46
80 91 0 63 -69 110 -126 85z"/>
</g>
</svg>
