<?xml version="1.0" encoding="utf-8"?>
<!-- Generator: Adobe Illustrator 26.0.1, SVG Export Plug-In . SVG Version: 6.00 Build 0)  -->
<svg version="1.1" id="Layer_1" xmlns="http://www.w3.org/2000/svg" xmlns:xlink="http://www.w3.org/1999/xlink" x="0px" y="0px"
	 viewBox="0 0 1149.7 678.3" style="enable-background:new 0 0 1149.7 678.3;" xml:space="preserve">
<style type="text/css">
	.st0{fill:#046C34;}
</style>
<g id="Layer_2_00000065770437115045156200000004322826960564406975_">
	<g id="Layer_1-2">
		<g id="Layer_2-2">
			<g id="Layer_1-2-2">
				<path class="st0" d="M1127.9,241.4c-2.9-0.4-4,1.9-5.3,4.1c-7.9,13.6-13.5,28.4-23.5,41c-13.4,16.7-21.7,37-37.3,52.2
					c-3.5,3.3-7.9,5.7-10.8,9.3c-8.8,11-18.9,20.4-29.8,29.6c-21.6,18.4-42.6,37.6-65.7,54c-26.1,18.5-51.1,38.7-80.5,52.2
					c-9.7,4.4-19.5,8.5-29,13.5c-20.5,10.8-40.1,24.2-62.9,29.9c-25.1,6.3-49.9,13.8-75.5,17.9c-3.8,0.6-7.9,3.4-11.6,1.6
					c-6.2-2.9-12.6-2-19-2.2c-7-0.2-14-0.1-21-0.2c-3,0-5.5-1.6-5.6-4.6c-0.2-3.9,3.1-3.8,5.8-3.7c16.7,0.5,32.7-4.5,49-6.5
					c21-2.4,41.5-7.6,61.1-15.4c24.7-10.1,49.2-20.3,72.3-33.8c5.1-3,8.9-7.5,14.4-10.1c8.2-3.8,15.5-9.3,23.3-14.1
					c13.6-8.3,25.8-18.6,38.3-28.5c9.1-7.2,19.9-13.3,26.6-22.3c8.2-11.2,20.9-16.1,29.5-26.6c9.8-11.9,23.2-20.5,32.3-33.3
					c3-3.8,6.4-7.3,10.2-10.3c16.5-13.7,30.3-30.1,44.9-45.7c13.6-14.5,21.9-33,30.6-50.7c5.1-10.3,13.3-19.7,13.2-32.3
					c-0.1-1.9,2.2-4.6-1.5-5.1c-2.6-0.4-5,1.2-5.7,3.7c-4.2,14.3-13,26.3-20.2,39c-5,8.7-8.6,18.6-16.5,25.5
					c-7,5.9-13.4,12.5-19,19.7c-17.4,23.1-39.6,41.4-61.3,60c-6.6,5.7-12.1,13-20.3,16.8c-15.5,7.2-27.9,19.1-41,29.3
					c-12.6,9.9-27.4,15.4-39.7,25.4c-6.8,5.6-15.8,8.8-23.7,13.4c-16.8,9.7-33.4,19.7-51.8,26.2c-1.8,0.6-3.4,1.5-4.8,2.8
					c-5.8,5.8-13,8-20.8,9.5c-3.9,0.7-8,1.7-11.3,3.8c-14.5,9.2-31.6,11.2-47.1,17.5c-11.8,4.8-25.1,4.4-37.8,6
					c-22.9,2.9-45.3,3.5-67.4-4c-2.6-0.9-5.2-1.7-5.5-5s2.3-4.6,4.7-5.9c5-2.8,10.4-2.9,15.6-1.4c4.1,1.1,8.4,1.6,12.7,1.5
					c12.9-0.1,25.9,0.7,38.7-0.4c8.9-0.8,18.5-0.6,26.7-4.6c9.3-4.5,18.1-9.1,28.9-8c2.5,0.1,4.9-0.8,6.7-2.4
					c5.5-4.7,12.7-5.7,18.6-9.1c8.9-5,19.6-5.9,27.7-11.7c10.7-7.6,23.6-11.4,33.6-20c3.4-3.1,7.3-5.5,11.5-7.3
					c16.4-6.5,28.8-19.1,43.4-28.4c15.5-9.9,28.9-23,43.4-34.6c3.9-3.2,8.4-5.7,11.7-9.7c11.9-14.4,27.5-25.1,38.6-40.4
					c10.3-14.3,25-24.6,34.9-39.5c10.1-15.1,25.3-26.1,34.6-42.1c6.7-11.7,13.4-23.3,18.2-35.8c1.5-4,3.3-8.5-2.4-11
					c-5.5-2.4-7.9,1.1-9.8,5.4c-0.2,0.5-0.5,1-0.7,1.5c-14.2,31.8-36.9,57.4-59.4,83.2c-12.2,13.9-26.5,25.8-39.8,38.5
					c-4.1,3.8-7.2,8.4-12.1,11.6c-12.2,8.1-23.9,16.6-35.5,25.4c-15.8,12-31,24.9-47.9,35.5c-29.7,18.6-60,35.8-93.5,47
					c-29.6,9.9-59,20.1-90.4,22.4c-4.3,0.3-7.4-1.3-8.3-5.8c-0.8-4.3,1.8-5.4,5.5-6.1c7.1-1.3,14-3.2,21-4.8
					c12.1-2.9,24.8-4.6,36.4-9c18.2-6.9,35.7-15.9,53.7-23.4c38.4-16,72.1-39.5,106.3-62.4c4.9-3.3,7-8.8,12-11.4
					c13.3-6.9,23.1-18.2,33.8-28c21.1-19.4,40.9-40.1,61.4-60.1c9.5-9.2,15.1-19,15-33c-0.6-65.2-0.3-130.5-0.3-195.7
					c0-2.2,0-4-0.1-5.3V0.1H530.5c-7.1,0-9.1,1.9-9.1,9v12.6c0.1,102.7,0.2,205.4,0.2,308c0,3.1-0.8,6.3,1.8,10.3
					c1.1-1.6,2.1-3.2,3-4.9c8.8-22.7,19-44.6,32.9-65.6c5.4-8.3,11-16.3,18.5-23c7.2-6.4,14.7-12.6,21.2-19.7
					c23.1-25.1,47.5-48.7,74.8-69.2c8.8-6.6,17.7-13,26.7-19.3c3.5-2.4,7.8-3.9,11-0.2c2.9,3.4-0.6,6.6-2.4,9.3
					c-1.2,1.9-3.6,3.2-5.4,4.7c-9.5,7.8-20,14.6-27.8,24.2c-7.1,8.7-16,15.4-23.8,23.4c-19.9,20.6-42.3,38.8-56.9,64.1
					c-3.2,5.5-8,10.1-11.4,15.5c-13.9,22.4-31.3,43.1-35.2,70.5c-0.4,2.8-2,6.4,1.5,7.8c3.1,1.3,4.6-2.3,5.9-4.4
					c5.8-9.3,11.7-18.6,16.8-28.3c13.9-26.6,30.3-51.3,52.7-71.6c20.3-18.2,35.3-42,59.8-55.7c0.7-0.3,1.1-1.1,1.7-1.7
					c11.3-10.7,23.9-19.9,36.5-29c5.3-3.9,11.6-5.6,18.1-6.4c5.8-0.7,9,3.1,11.8,7c2.9,4.2-1.3,6.8-3.3,9.7
					c-4.8,7-12.9,10.3-18.6,16.5c-19,20.8-38.5,41.3-57.8,61.9c-5.5,5.9-13.9,9.9-17.4,16.2c-7.5,13.6-18.9,23.9-28.3,35.6
					c-16.3,20.3-26.6,43.7-39.8,65.5c-3.7,6.1-8.6,11.6-9.8,19.1c-0.5,3.1-1.8,5.9,2.2,7.2c3.6,1.1,7,1.2,8.9-3
					c1.6-3.7,3.2-7.4,4.9-11c6.4-13.8,11.5-28.7,21.2-40.4c11.4-13.7,21-29,35.2-40.4c1.3-1,2.4-2.2,3.2-3.6
					c12.4-21.2,32.2-35.3,50.9-49.7c23.3-17.9,45.3-37.5,70.4-53c6.1-3.7,15.4-1.3,20.6,6.6c4.2,6.5-1.7,8.2-5.5,10.9
					c-1.8,1.2-3.4,2.6-4.8,4.2c-10.2,12.1-24.8,19.2-35.2,30.8c-6,6.7-15.1,9.4-20.1,16.7c-6.9,10.3-17.7,16.8-24.7,26.9
					c-2.4,3.5-6.9,4-9.3,7.5c-5.7,8.3-11.5,16.5-17.9,24.2c-14.8,17.8-31,34.7-43.5,54.4c-5.4,8.5-12.1,16.3-13.9,26.8
					c-0.6,3.4-1.1,6.7,2.7,8.2c3.5,1.4,5.3-1.6,7-4c1.8-2.4,3.4-4.9,4.7-7.5c10.3-21.3,27.4-37.2,43.6-53.7
					c8.2-8.3,16.1-16.9,24.3-25.2c9.6-9.7,21.3-16.5,30.8-26.3c8.8-9.1,21.6-13.8,30.1-23.7c1.8-2,4-3.5,6.5-4.6
					c11.4-5.8,22.2-12.8,32.1-20.9c6-4.9,12.8-8.8,19.4-12.8c3.3-2,7.3-1.9,8.9,2.1s-2.2,4.8-5.1,5.5c-3.7,0.9-6.4,3.2-9.4,5.7
					c-16.2,13.6-33.1,26.4-49,40.3c-9.8,8.5-21.9,14.3-29.8,25.1c-3.7,5-7.7,9.7-12,14.1c-13.4,14.3-29.3,25.9-41.2,41.8
					c-6.8,9-11.5,19.4-18.7,28c-11.5,13.7-20.9,28.4-25.8,45.8c-2,7.2-6.5,10.9-14.2,10.4c-12.5-0.8-25,0.5-37.6-2.3
					c-24.5-5.3-47.5-12.6-61.7-35.5c-0.7-1-1.3-2.4-3-1.9c-1.3,0.5-1.2,1.7-1.3,2.7c-0.1,1.8-0.1,3.7-0.1,5.6
					c-0.1,71.2-0.1,142.4-0.1,213.6v29.7c0,10.8,0,10.9,10.9,10.8h255.6c67.1,0,134.2,0,201.2,0.1v-23.7h9.1v23.2
					c1.5-0.5,2.6-1.7,3-3.2c0.4-1.2,0.5-2.5,0.5-3.8c-0.2-67.4-0.1-134.8-0.1-202.2c0-4-0.3-8.4-4.4-10.5s-7,1-10.3,2.7
					c-18.8,9.9-32,28.2-53,34.7c-0.5,0.1-0.8,0.6-1.2,1c-15.6,15.7-34.5,26.7-54.2,35.9c-14.6,6.8-27.3,16.6-41.8,23.5
					c-17.5,8.3-35.7,14.3-53.9,20.4c-10.2,3.5-21.9,2.4-32.3,5.6c-19.9,6.1-39.5,3.6-59.4,1.4c-2.4-0.3-5.2-1.3-4.8-4.3
					c0.4-2.6,3.3-2.3,5.4-2.1c9.5,0.9,18.5-2.4,27.7-3.3c14.8-1.7,29.4-4.7,43.6-9c25-7.2,50-14.4,73.1-26.2
					c19.6-10.1,39.6-19,58-32.3c35.2-25.5,71.4-49.5,103.2-79.3c3.9-3.7,6.1-8.8,10.6-12c26.5-18.7,44.7-45.3,65.9-69
					c9.6-10.7,16-23.7,23.1-36.2c10.6-18.5,21.6-36.9,32.4-55.4c1-1.7,1-4.1,1.1-6.2C1131.2,245.2,1131.6,242,1127.9,241.4z
					 M890.4,631.5h50.7v12.1h-50.7V631.5z"/>
				<path class="st0" d="M110.3,494.5H71.9v60.3h42.8v18.1H59.2V405.6h53.3v18.1H71.9v52.9h38.4L110.3,494.5z"/>
				<path class="st0" d="M123.7,560.8l34.5-155.2h14.5l34,154.9v12.4h-82.9L123.7,560.8z M192.4,554.8l-20.1-92.2
					c-2.5-11.7-5.6-26.5-7.3-37.2h-0.4c-1.5,8.4-4.1,22.3-6.6,34l-20.7,95.3L192.4,554.8z"/>
				<path class="st0" d="M231.4,554.8h56.3v18.1h-73V560l34.3-70.3l-32.3-69.5v-14.6h66.4v17.9h-50v1l30.1,64.6l-31.8,65.1
					L231.4,554.8z"/>
				<path class="st0" d="M295.3,573V405.6h13.9l31.6,84.7c7.3,19.6,13,37.2,17.7,54.4l0.3-0.3c-1.2-22.3-1.5-42.7-1.5-68.8v-70h12.1
					v167.3h-12.9L325.2,488c-6.9-18.6-13.5-37.7-18.5-55.9l-0.4,0.3c0.7,21.1,1,41.2,1,69v71.5L295.3,573L295.3,573z"/>
				<path class="st0" d="M411,520.3l-10.3,52.6h-13.2l33.6-167.3h15.3L470.2,573h-13.6l-10.5-52.6L411,520.3L411,520.3z
					 M443.4,503.5l-9.6-48.2c-2.2-10.9-3.6-20.9-5.1-30.5h-0.3c-1.5,9.9-3.1,20.1-5,30.3l-9.6,48.4L443.4,503.5z"/>
			</g>
		</g>
		<path class="st0" d="M9.1,0C2,0,0,1.9,0,9V0H9.1z"/>
		<rect x="522.1" y="598" class="st0" width="480.2" height="80.3"/>
	</g>
</g>
</svg>
